<svg width="14" height="13" viewBox="0 0 14 13" fill="none" xmlns="http://www.w3.org/2000/svg">
<path d="M10.4896 9.0857C10.7439 9.34004 10.7439 9.7357 10.4896 9.99004C10.3624 10.1172 10.2069 10.1737 10.0374 10.1737C9.86782 10.1737 9.71238 10.1172 9.58521 9.99004L6.99934 7.40417L4.41347 9.99004C4.28629 10.1172 4.13086 10.1737 3.96129 10.1737C3.79173 10.1737 3.63629 10.1172 3.50912 9.99004C3.25477 9.7357 3.25477 9.34004 3.50912 9.0857L6.09499 6.49983L3.50912 3.91396C3.25477 3.65961 3.25477 3.26396 3.50912 3.00961C3.76347 2.75526 4.15912 2.75526 4.41347 3.00961L6.99934 5.59548L9.58521 3.00961C9.83956 2.75526 10.2352 2.75526 10.4896 3.00961C10.7439 3.26396 10.7439 3.65961 10.4896 3.91396L7.90369 6.49983L10.4896 9.0857Z" fill="#717171"/>
</svg>
