<svg width="24" height="24" viewBox="0 0 24 24" fill="none" xmlns="http://www.w3.org/2000/svg">
<path d="M12 4C10.4178 4 8.87103 4.46919 7.55544 5.34824C6.23985 6.22729 5.21447 7.47672 4.60897 8.93853C4.00347 10.4003 3.84504 12.0089 4.15372 13.5607C4.4624 15.1126 5.22433 16.538 6.34315 17.6569C7.46197 18.7757 8.88743 19.5376 10.4393 19.8463C11.9911 20.155 13.5997 19.9965 15.0615 19.391C16.5233 18.7855 17.7727 17.7602 18.6518 16.4446C19.5308 15.129 20 13.5822 20 12C19.9976 9.87899 19.154 7.84553 17.6543 6.34575C16.1545 4.84597 14.121 4.00236 12 4ZM12 18.4C10.7342 18.4 9.49683 18.0246 8.44435 17.3214C7.39188 16.6182 6.57158 15.6186 6.08717 14.4492C5.60277 13.2797 5.47603 11.9929 5.72298 10.7514C5.96992 9.50994 6.57946 8.36957 7.47452 7.47452C8.36958 6.57946 9.50995 5.96992 10.7514 5.72297C11.9929 5.47603 13.2797 5.60277 14.4492 6.08717C15.6186 6.57157 16.6182 7.39187 17.3214 8.44435C18.0246 9.49682 18.4 10.7342 18.4 12C18.3981 13.6968 17.7232 15.3235 16.5233 16.5233C15.3235 17.7231 13.6968 18.3981 12 18.4ZM12 11.6C11.7878 11.6 11.5843 11.6843 11.4343 11.8343C11.2843 11.9843 11.2 12.1878 11.2 12.4V14.8C11.2 15.0122 11.2843 15.2157 11.4343 15.3657C11.5843 15.5157 11.7878 15.6 12 15.6C12.2122 15.6 12.4157 15.5157 12.5657 15.3657C12.7157 15.2157 12.8 15.0122 12.8 14.8V12.4C12.8 12.1878 12.7157 11.9843 12.5657 11.8343C12.4157 11.6843 12.2122 11.6 12 11.6ZM12 8.4C11.8022 8.4 11.6089 8.45865 11.4444 8.56853C11.28 8.67841 11.1518 8.83459 11.0761 9.01731C11.0004 9.20004 10.9806 9.40111 11.0192 9.59509C11.0578 9.78907 11.153 9.96725 11.2929 10.1071C11.4327 10.247 11.6109 10.3422 11.8049 10.3808C11.9989 10.4194 12.2 10.3996 12.3827 10.3239C12.5654 10.2482 12.7216 10.12 12.8315 9.95557C12.9414 9.79112 13 9.59778 13 9.4C13 9.13478 12.8946 8.88043 12.7071 8.69289C12.5196 8.50536 12.2652 8.4 12 8.4Z" fill="#EE5253"/>
</svg>
