<svg width="177" height="209" viewBox="0 0 177 209" fill="none" xmlns="http://www.w3.org/2000/svg">
<path d="M155.736 61.7162C155.351 61.9629 154.845 62.2631 154.251 62.5968H154.242C151.911 63.8912 148.258 65.5563 145.456 65.171C144.958 65.1027 144.547 65.5493 144.682 66.0356L147.229 75.1814L153.421 97.4148C153.421 97.4148 152.62 98.3435 151.651 98.556L147.827 100.244V100.249L132.169 107.174L116.157 98.556C116.157 98.556 115.251 98.3337 114.228 97.9952L117.185 74.9062C117.185 74.9062 117.19 74.6694 117.19 74.2486C117.19 71.3323 116.982 59.6137 113.78 58.414C113.78 58.414 116.201 43.6482 117.807 40.6351C119.128 38.1633 122.818 35.663 124.106 34.8409C124.477 34.6089 124.95 34.4201 125.374 34.3428C125.769 34.2704 133.886 33.8008 138.019 33.5688C139.688 33.4769 141.342 33.8349 142.841 34.6089C145.127 35.794 148.339 37.675 149.25 39.3296C150.514 41.6362 155.076 56.4167 156.257 60.2811C156.426 60.8259 156.209 61.4257 155.736 61.7162Z" fill="#BF6F31"/>
<path d="M129.617 187.045V199.083H122.246V186.732L129.617 187.045Z" fill="#F7C19B"/>
<path d="M131.591 206.448L111.611 206.441C110.599 206.441 109.779 205.579 109.779 204.517V203.619C109.779 203.344 110.048 202.755 110.25 202.582L121.46 193.272C121.826 192.962 122.373 193.016 122.676 193.393C124.047 195.102 126.265 196.201 129.539 196.027C129.934 196.006 130.305 196.229 130.478 196.601C131.958 199.77 132.923 202.545 132.813 205.208C132.786 205.9 132.25 206.449 131.591 206.448Z" fill="#37424C"/>
<path d="M167.128 183.706L169.387 195.508L162.302 197.004L159.984 184.896L167.128 183.706Z" fill="#F7C19B"/>
<path d="M172.842 202.301L153.25 206.411C152.257 206.62 151.293 205.944 151.095 204.902L150.927 204.021C150.876 203.752 151.029 203.118 151.196 202.908L160.447 191.468C160.748 191.089 161.295 191.029 161.662 191.336C163.326 192.729 165.705 193.35 168.884 192.505C169.267 192.403 169.672 192.546 169.912 192.874C171.956 195.677 173.421 198.199 173.811 200.833C173.912 201.517 173.489 202.165 172.842 202.301Z" fill="#37424C"/>
<path d="M117.189 74.2466C116.955 74.6277 116.543 74.7489 116.154 74.7649C115.65 74.7858 115.157 74.627 114.727 74.3615C109.266 70.9834 98.8066 57.7335 96.1974 54.0997C95.8487 53.6141 95.3853 53.2365 94.8498 53.0038C92.8429 52.1309 90.3393 51.072 89.2126 49.641C87.9295 48.0004 87.6065 46.0462 86.0005 44.4564C84.3895 42.8715 83.5552 41.6565 84.1971 41.049C84.8432 40.4415 87.7031 42.4312 89.5023 43.8183C91.3056 45.2005 94.8067 43.9855 95.4194 43.8845C96.0321 43.7834 95.0338 41.8237 94.8067 40.847C94.5851 39.8696 95.5785 38.3508 96.2537 38.3508C96.9289 38.3508 97.9896 42.7357 98.8913 45.1656C99.2942 46.2517 99.5665 47.3323 99.7444 48.1947C99.9736 49.3087 100.59 50.2952 101.491 50.9305C104.794 53.2609 110.84 58.4058 112.993 60.2533C113.308 60.5236 113.779 60.2875 113.779 59.8611V58.41C116.982 59.6103 117.189 71.3303 117.189 74.2466Z" fill="#F7C19B"/>
<path d="M139.82 62.3697L135.19 65.8349L130.561 62.3697V53.5938H139.82V62.3697Z" fill="#8A4224"/>
<path d="M158.442 189.538C156.81 184.636 142.636 142.036 137.252 125.857C136.826 124.576 135.029 124.869 134.987 126.225L133.08 188.007C133.061 188.623 132.591 189.119 132.003 189.139C129.371 189.23 122.49 189.401 120.02 188.826C119.518 188.709 119.151 188.259 119.134 187.72L116.157 98.5525C116.157 98.5525 130.882 103.233 151.651 98.5525L170.684 187.918C170.804 188.478 170.474 189.034 169.942 189.166C167.64 189.734 161.781 191.023 159.079 190.189C158.778 190.097 158.546 189.85 158.442 189.538Z" fill="#E1E3E8"/>
<path d="M155.206 98.6619C155.302 101.733 154.82 101.975 154.372 103.861C153.923 105.747 154.309 108.485 153.055 108.62C151.801 108.755 152.119 105.346 152.698 101.975C152.992 100.272 152.418 99.0144 151.777 98.5211C151.232 98.0955 150.644 98.2167 150.489 99.0673C150.465 99.2025 150.45 99.3627 150.45 99.5411C150.45 102.104 149.901 103.594 149.419 103.594C149.173 103.594 148.893 101.873 148.825 99.8023C148.82 99.5947 148.816 99.3815 148.811 99.1642C148.791 97.3891 148.932 95.4642 149.375 94.1872C150.267 91.6144 149.809 87.9625 149.505 83.3484C149.457 82.633 149.408 81.8973 149.375 81.1337C149.293 79.2332 148.917 76.6409 148.213 74.0967C147.243 70.5953 146.25 67.0743 145.729 65.1975C148.492 65.449 151.988 63.848 154.24 62.5954H154.25C154.636 62.3781 154.988 62.1746 155.292 61.9907C155.441 63.3694 155.89 67.5578 156.237 72.7612C156.667 79.1566 155.109 95.5951 155.206 98.6619Z" fill="#F7C19B"/>
<path d="M124.066 18.013C124.098 18.4888 124.28 18.8859 125.126 18.7876L125.123 13.9939C125.123 12.0153 126.651 10.4116 128.535 10.4116H137.101C138.982 10.4116 140.508 12.0126 140.508 13.9883V14.0057C140.508 14.9713 140.873 15.8909 141.525 16.5709C141.971 17.039 142.445 17.565 142.674 17.9133C143.169 18.6734 142.288 21.1124 143.517 20.0841C144.051 19.6383 144.556 19.2899 144.959 19.2725C145.662 16.7304 146.624 12.6626 146.167 11.017C146.167 11.017 146.718 10.0445 146.718 8.67274C146.718 7.3017 143.991 1.91577 133.069 1.91577C122.152 1.91577 125.743 8.12586 124.764 9.07472C123.966 9.8522 123.924 15.9257 124.066 18.013Z" fill="#404251"/>
<path d="M145.844 21.3924C145.844 24.2376 142.121 25.1517 142.121 25.1517C141.588 27.2828 139.509 29.8709 139.509 29.8709C133.148 36.3213 127.667 30.865 127.667 30.865C125.42 29.4139 125.561 26.026 125.453 24.843C125.344 23.6664 123.058 21.6837 123.167 19.8953C123.276 18.1014 125.126 18.7869 125.126 18.7869V13.9931C125.126 12.0167 126.65 10.4109 128.538 10.4109H137.104C138.982 10.4109 140.511 12.0104 140.511 13.9876V14.005C140.511 14.9706 140.876 15.8902 141.529 16.5701C141.975 17.0383 142.448 17.5643 142.677 17.9126C143.172 18.6727 142.291 21.1117 143.52 20.0834C144.054 19.6375 144.559 19.2892 144.962 19.2725C145.496 19.2439 145.844 19.7811 145.844 21.3924Z" fill="#F7C19B"/>
<path d="M132.983 39.2174C130.532 39.2174 128.602 37.0967 128.629 34.5239C128.647 32.8415 128.41 31.159 127.918 29.4766H138.256C137.622 31.1548 137.316 32.8331 137.338 34.5114C137.371 37.089 135.44 39.2174 132.983 39.2174Z" fill="#F7C19B"/>
<path d="M85.3402 180.518C85.3402 198.818 75.7275 201.372 75.7275 201.372H21.2006C21.2006 201.372 11.5879 198.818 11.5879 180.518C11.5879 162.225 32.1846 149.241 32.1846 149.241C36.595 144.818 42.972 142.16 42.972 129.768C42.972 117.372 31.988 110.094 26.1022 105.572C20.217 101.045 11.5879 92.1935 11.5879 78.6189C11.5879 65.0437 18.845 58.5549 18.845 58.5549H78.0824C78.0824 58.5549 85.3395 65.0444 85.3395 78.6189C85.3395 92.1942 76.7104 101.045 70.8252 105.572C64.9401 110.093 53.9554 117.371 53.9554 129.768C53.9554 142.16 60.3324 144.818 64.7428 149.241C64.7435 149.241 85.3402 162.225 85.3402 180.518Z" fill="#ECF0F1"/>
<path d="M26.1022 100.258C26.1022 100.258 37.4793 99.6678 47.2866 103.897C57.0938 108.127 74.4541 96.8157 74.4541 96.8157C74.4541 96.8157 53.7594 112.848 51.5039 122.39C49.2483 131.93 48.4633 156.914 50.2778 161.045C52.0923 165.176 58.7617 174.323 81.8099 177.668C81.8099 177.668 84.36 190.553 74.5521 199.701H22.6698C22.6698 199.701 13.1564 192.324 15.314 175.602C15.314 175.602 22.0814 174.127 28.3584 174.029C34.6354 173.93 47.0914 164.782 47.0914 159.668C47.0914 154.553 50.034 127.013 44.5413 119.734C39.0486 112.455 40.3233 112.356 26.1022 100.258Z" fill="#67737E"/>
<path d="M86.6042 207.084H10.7575C8.7562 207.084 7.13416 205.457 7.13416 203.45C7.13416 201.443 8.7562 199.816 10.7575 199.816H86.6042C88.6056 199.816 90.2276 201.443 90.2276 203.45C90.2276 205.457 88.6056 207.084 86.6042 207.084ZM86.2562 58.5547H10.4095C8.40817 58.5547 6.78613 56.928 6.78613 54.9209C6.78613 52.9138 8.40817 51.2871 10.4095 51.2871H86.2562C88.2575 51.2871 89.8796 52.9138 89.8796 54.9209C89.8796 56.928 88.2575 58.5547 86.2562 58.5547Z" fill="#2B91CC"/>
<path d="M86.792 38.1035V41.0497C86.2321 40.8762 85.6201 40.7439 84.9456 40.6505C84.7143 40.6192 84.4746 40.5913 84.2273 40.5683V38.1035H86.792ZM86.792 66.6592V69.6688H84.2273V67.1392C84.4718 67.112 84.7115 67.0807 84.9456 67.0451C85.6062 66.9483 86.2217 66.8187 86.792 66.6592ZM81.0207 38.1035V40.4959C80.1267 40.5223 79.257 40.5795 78.4561 40.6596V38.1035H81.0207ZM81.0207 67.2932V69.6695H78.4561V67.2172C79.2132 67.2618 80.0704 67.2904 81.0207 67.2932Z" fill="white"/>
</svg>
