<svg width="113" height="131" viewBox="0 0 113 131" fill="none" xmlns="http://www.w3.org/2000/svg">
<path d="M11.3915 41.2223C11.5899 41.0851 11.791 40.9539 11.9952 40.8257C12.3039 40.6344 12.6231 40.4501 12.953 40.2729C13.0968 40.196 13.241 40.1221 13.3884 40.0447C13.8504 39.8105 14.326 39.5878 14.8197 39.3707C14.9635 39.3084 15.1072 39.2445 15.2552 39.1842C15.6828 38.9997 16.1203 38.8188 16.5614 38.6414L16.9969 38.466L18.1761 37.9965L18.6115 37.8232C19.0073 37.6643 19.4018 37.5023 19.7949 37.3371L20.2303 37.1512C20.5859 36.9994 20.9379 36.8422 21.2866 36.6797L21.722 36.4711C22.1668 36.2577 22.602 36.0319 23.0278 35.7936C23.1757 35.7112 23.3194 35.6293 23.4632 35.5423C23.9131 35.2787 24.3491 34.9936 24.7695 34.6879C24.9174 34.5818 25.0632 34.4723 25.2049 34.3592C25.5758 34.0698 25.9285 33.7593 26.2612 33.4294C26.3466 33.3454 26.4299 33.2615 26.5112 33.1756C26.6607 33.0167 26.8065 32.8539 26.9466 32.686C27.1029 32.5016 27.2513 32.3116 27.3935 32.114C27.7695 31.5925 28.0982 31.0406 28.3758 30.4645L28.4612 30.2856C28.5876 30.0095 28.7043 29.73 28.8112 29.4472C30.3467 25.355 29.7826 20.4465 29.9795 15.8768C30.0055 15.2189 30.0493 14.5701 30.1175 13.9313C30.1995 13.1199 30.3335 12.3142 30.5186 11.5187L30.5529 11.376C30.8972 9.99132 31.4295 8.68706 32.2509 7.50342C32.6114 6.9864 33.02 6.50222 33.4718 6.05692C33.7747 5.75951 34.0999 5.48401 34.4447 5.23264C34.8502 4.93621 35.2801 4.6723 35.7302 4.44355C36.0406 4.28473 36.3618 4.13981 36.6937 4.0088C37.7068 3.60671 38.8105 3.33681 39.9751 3.17598C41.8944 2.90357 43.9825 2.9292 46.1086 3.15386C46.1711 3.15939 46.2351 3.16693 46.2976 3.17397C52.1947 3.82987 58.3505 6.00364 62.0157 7.72256C65.8815 9.53646 69.8665 11.8002 73.6942 14.3866C74.4758 14.9127 75.25 15.4535 76.0166 16.009L76.0776 16.0528C79.3886 18.4492 82.5324 21.0743 85.321 23.8432C89.0769 27.5715 93.3494 32.3905 96.9635 37.8799C97.0089 37.9458 97.0526 38.0131 97.0958 38.081L97.1073 38.0971C97.5865 38.8259 98.0521 39.5697 98.5026 40.3221C98.5193 40.3513 98.5365 40.3789 98.5547 40.4081C98.8027 40.8227 99.0469 41.2409 99.2839 41.6646C99.4126 41.8928 99.5417 42.123 99.6683 42.3552C100.88 44.5475 101.927 46.8209 102.801 49.1579C104.789 54.5233 105.709 60.1896 104.787 65.8801C104.566 67.2481 104.241 68.5986 103.814 69.9206C103.759 70.0925 103.701 70.2644 103.642 70.4358C103.632 70.4705 103.619 70.5036 103.608 70.5363C103.469 70.9308 103.326 71.3184 103.173 71.6963C103.034 72.0396 102.892 72.3758 102.743 72.7066C101.81 74.7883 100.588 76.7381 99.1115 78.5026C98.5065 79.2285 97.8594 79.9209 97.1734 80.5764C96.2227 81.4869 95.2061 82.3311 94.1312 83.1025C86.2331 88.7819 75.613 90.5978 67.2081 91.3321C55.3765 92.368 44.5158 91.1678 34.0608 86.6941C33.5285 86.4672 32.9985 86.2315 32.4707 85.9869C31.8306 85.6909 31.191 85.3838 30.5529 85.0606L30.1175 84.84C29.6821 84.6188 29.2467 84.3891 28.8112 84.1509L28.3758 83.9137C27.8987 83.6523 27.4223 83.3819 26.9466 83.1025C26.8008 83.0185 26.657 82.9326 26.5112 82.8451C26.0757 82.5875 25.6403 82.3219 25.2049 82.0485C25.059 81.959 24.9153 81.8676 24.7695 81.7746C24.334 81.4986 23.8986 81.2137 23.4632 80.9232C23.3173 80.8282 23.172 80.7297 23.0278 80.6311C22.5906 80.3366 22.1553 80.035 21.722 79.7265C21.5761 79.6259 21.4319 79.5204 21.2866 79.4164C20.9345 79.162 20.5824 78.9047 20.2303 78.6413C20.0844 78.5338 19.9402 78.4262 19.7949 78.3146C19.7589 78.287 19.7209 78.2598 19.6849 78.2322C19.3308 77.9618 18.9714 77.6919 18.6115 77.4195L18.1761 77.0923C17.7844 76.7968 17.3913 76.4991 16.9969 76.1992C16.851 76.0896 16.7052 75.978 16.5614 75.8684C16.1239 75.5334 15.6885 75.1961 15.2552 74.8567C15.1093 74.7431 14.9635 74.63 14.8197 74.5149C14.339 74.1329 13.8598 73.7474 13.3884 73.3549C13.2426 73.2343 13.0968 73.1122 12.953 72.9895C12.4233 72.5402 11.9004 72.0848 11.3905 71.6179C9.57843 69.9593 7.92214 68.1781 6.59866 66.2159C4.87206 63.6601 3.70589 60.7943 3.48088 57.4751C3.05067 51.1965 6.07365 44.8541 11.3915 41.2223Z" fill="#D4EBF4"/>
<path opacity="0.56" d="M73.6192 0L36.7667 0L36.7667 38.0961L73.6192 38.0961V0ZM99.2839 41.6626C99.4126 41.8907 99.5417 42.1209 99.6683 42.3531C100.88 44.5454 101.927 46.8189 102.801 49.1559C104.789 54.5212 105.709 60.1876 104.787 65.8781C104.566 67.2461 104.241 68.5966 103.814 69.9186C103.759 70.0905 103.701 70.2624 103.642 70.4338C103.632 70.4684 103.619 70.5016 103.608 70.5343C103.469 70.9288 103.326 71.3163 103.173 71.6943C103.034 72.0376 102.892 72.3738 102.743 72.7045C101.81 74.7863 100.588 76.7361 99.1115 78.5006H76.0791L76.0791 40.4075L98.5553 40.4075C98.8032 40.8222 99.0475 41.2404 99.2839 41.6626ZM73.6192 40.2301L36.7667 40.2301V70.4705L73.6192 70.4705L73.6192 40.2301Z" fill="white"/>
<path opacity="0.8" d="M46.1101 3.15465L99.6682 42.3534C100.88 44.5457 101.927 46.8192 102.801 49.1562L39.9766 3.17677C41.8959 2.90436 43.984 2.93049 46.1101 3.15465ZM66.8085 38.0808L69.8695 40.3244L73.6957 43.1249L76.0181 44.8237L104.787 65.883C104.566 67.2509 104.241 68.6014 103.814 69.9234L76.0181 49.5724L73.6957 47.8736L63.3767 40.3244L60.3136 38.0833L36.6937 20.7936L34.4447 19.1476V14.3929L36.6937 16.039L66.8085 38.0808ZM39.1114 38.0808L42.174 40.3219L73.6957 63.394L76.0181 65.0929L83.3162 70.4341L86.4205 72.7068L97.1734 80.5767C96.2226 81.4872 95.206 82.3314 94.1311 83.1028L79.9276 72.7068L76.8208 70.4341L76.0181 69.846L73.6957 68.1472L36.6937 41.0653L34.4447 39.4197L34.4447 34.6666L36.6937 36.3121L39.1114 38.0808Z" fill="white"/>
<path d="M34.4455 5.23361L36.6945 4.00977V38.081L73.6965 38.081V14.0533C74.476 14.5761 75.2502 15.1122 76.0189 15.6617V38.082L97.5054 38.082C97.9846 38.8191 98.4504 39.5662 98.9029 40.3231L76.0174 40.3231L76.0174 70.4352H103.643C103.633 70.4699 103.62 70.5031 103.609 70.5358C103.47 70.9303 103.326 71.3178 103.173 71.6958C103.035 72.0391 102.893 72.3753 102.744 72.706L36.6945 72.706V72.7206H34.4455V72.706H34.4231V70.4332H34.4455L34.4455 5.23361ZM36.6945 70.4342L73.6965 70.4342L73.6965 40.3246L36.6945 40.3246V70.4342ZM27.5833 32.1145C32.6079 25.169 27.701 14.3293 32.4413 7.50439H32.66L32.66 85.9874C28.3458 83.9981 24.0978 81.4368 19.8743 78.2327C17.1273 76.1484 14.1897 74.0078 11.5808 71.6184V41.2227C11.7798 41.0855 11.9803 40.9544 12.185 40.8262C16.795 37.9473 24.0905 36.9446 27.5833 32.1145Z" fill="#B1D8E5"/>
<path d="M30.5537 12.2485L30.5537 85.0611L30.1183 84.8404L30.1183 13.9327C30.2047 13.0724 30.3501 12.2186 30.5537 11.377V12.2485ZM28.812 29.9206L28.812 84.1518L28.3766 83.9146L28.3766 30.4649C28.5375 30.1327 28.6834 29.7925 28.812 29.4477V29.9206ZM26.9474 83.1029C26.8015 83.019 26.6578 82.933 26.5119 82.8456L26.5119 33.176C26.6614 33.0172 26.8073 32.8543 26.9474 32.6865L26.9474 83.1029ZM25.2056 82.049C25.0598 81.9595 24.9161 81.868 24.7702 81.775L24.7702 34.6883C24.9181 34.5823 25.064 34.4727 25.2056 34.3596L25.2056 82.049ZM23.4639 35.6528L23.4639 80.9236L23.0285 80.6311L23.0285 35.7936L23.4639 35.5413V35.6528ZM21.7222 79.7289C21.5764 79.6284 21.4321 79.5228 21.2868 79.4188L21.2868 36.6797L21.7222 36.4711L21.7222 79.7289ZM20.231 78.6418C20.0852 78.5342 19.9409 78.4267 19.7956 78.3151L19.7956 37.3371L20.231 37.1511L20.231 78.6418ZM18.6123 37.9L18.6123 77.4199L18.1768 77.0927L18.1768 37.9965L18.6123 37.8231V37.9ZM16.9976 76.1996C16.8518 76.09 16.7059 75.9785 16.5622 75.8689L16.5622 38.6413L16.9976 38.4659L16.9976 76.1996ZM15.2559 74.8571C15.1101 74.7436 14.9642 74.6305 14.8205 74.5154L14.8205 39.3696C14.9642 39.3073 15.108 39.2435 15.2559 39.1832L15.2559 74.8571ZM13.3887 73.3554C13.2428 73.2347 13.097 73.1126 12.9532 72.99L12.9532 40.2743C13.097 40.1974 13.2413 40.1235 13.3887 40.0461L13.3887 73.3554Z" fill="white"/>
<path d="M19.6475 19.374L17.488 19.3089L17.1709 29.1029L19.3303 29.1681L19.6475 19.374Z" fill="#D4EBF4"/>
<path d="M23.5605 23.3516L13.4111 23.0455L13.3436 25.1293L23.4931 25.4354L23.5605 23.3516Z" fill="#D4EBF4"/>
<path d="M10.8242 75.5254H7.94863L7.94863 88.5675H10.8242L10.8242 75.5254Z" fill="#D4EBF4"/>
<path d="M16.2012 80.6588H2.68572L2.68572 83.4337H16.2012V80.6588ZM3.77897 24.9072H2.44405L2.44405 30.9626H3.77897L3.77897 24.9072Z" fill="#D4EBF4"/>
<path d="M6.27483 27.29H-0.000335693V28.5782H6.27483V27.29ZM94.8115 15.7793H92.9016V24.4422H94.8115V15.7793Z" fill="#D4EBF4"/>
<path d="M98.3833 19.1895H89.4059V21.0325H98.3833V19.1895ZM108.755 80.5497H106.719V89.784H108.755V80.5497Z" fill="#D4EBF4"/>
<path d="M112.562 84.1836H102.992V86.1483H112.562V84.1836ZM25.0108 88.0914H23.0769V96.8633H25.0108V88.0914Z" fill="#D4EBF4"/>
<path d="M28.6265 91.5443H19.5362V93.4105H28.6265V91.5443ZM82.0811 4.63867H81.0831V9.16514H82.0811V4.63867Z" fill="#D4EBF4"/>
<path d="M83.9473 6.4209L79.2565 6.4209V7.38389L83.9473 7.38389V6.4209Z" fill="#D4EBF4"/>
<path d="M11.1379 100.377C10.3531 100.198 9.86712 99.4392 10.0523 98.6819C10.2376 97.9247 11.0239 97.4557 11.8086 97.6344C12.5933 97.8131 13.0793 98.5719 12.8941 99.3291C12.7089 100.086 11.9226 100.555 11.1379 100.377Z" fill="#D4EBF4"/>
<path d="M1.22644 67.8095C1.38302 67.8096 1.53609 67.8544 1.66626 67.9384C1.79642 68.0224 1.89783 68.1418 1.95763 68.2814C2.01744 68.4211 2.03294 68.5747 2.0022 68.7229C1.97146 68.871 1.89585 69.0071 1.78495 69.1137C1.67404 69.2204 1.53282 69.2929 1.37918 69.3221C1.22554 69.3513 1.06638 69.3358 0.921863 69.2776C0.777342 69.2195 0.653961 69.1212 0.567341 68.9953C0.48072 68.8694 0.434756 68.7216 0.435272 68.5705C0.435824 68.3684 0.519431 68.1748 0.667759 68.0321C0.816086 67.8895 1.01701 67.8094 1.22644 67.8095ZM12.5965 36.7334C12.753 36.7334 12.906 36.7782 13.0361 36.8621C13.1662 36.946 13.2677 37.0653 13.3275 37.2048C13.3874 37.3443 13.403 37.4979 13.3725 37.646C13.3419 37.7941 13.2665 37.9301 13.1558 38.0369C13.0451 38.1436 12.9041 38.2163 12.7506 38.2457C12.597 38.2751 12.438 38.2599 12.2934 38.2021C12.1488 38.1442 12.0253 38.0463 11.9384 37.9206C11.8516 37.795 11.8053 37.6474 11.8054 37.4964C11.8054 37.3961 11.8258 37.2969 11.8656 37.2043C11.9054 37.1117 11.9636 37.0275 12.0371 36.9567C12.1106 36.8858 12.1978 36.8296 12.2938 36.7913C12.3898 36.753 12.4927 36.7333 12.5965 36.7334Z" fill="#D4EBF4"/>
<path d="M24.5122 11.4005C23.4036 11.4005 22.5048 10.5332 22.5048 9.46341C22.5048 8.39361 23.4036 7.52637 24.5122 7.52637C25.6208 7.52637 26.5195 8.39361 26.5195 9.46341C26.5195 10.5332 25.6208 11.4005 24.5122 11.4005Z" fill="#D4EBF4"/>
<path opacity="0.56" d="M85.3231 23.8431C89.079 27.5714 93.3515 32.3904 96.9656 37.8799C97.0109 37.9457 97.0547 38.0131 97.0979 38.0809L97.1094 38.097H76.0797V16.0537C79.3907 18.4501 82.5345 21.0748 85.3231 23.8431Z" fill="white"/>
<path d="M62.6304 25.4765C62.3181 23.7128 62.7049 21.9002 63.7139 20.3991C64.7229 18.8979 66.2803 17.8181 68.0765 17.3742C69.8728 16.9302 71.7764 17.1547 73.4089 18.003C75.0415 18.8513 76.2836 20.2613 76.8883 21.9527C77.493 23.6442 77.4161 25.4932 76.6728 27.1325C75.9295 28.7717 74.5743 30.081 72.8765 30.8003C71.1787 31.5195 69.2626 31.596 67.509 31.0146C65.7554 30.4331 64.2928 29.2362 63.4117 27.6618L63.0221 27.598L61.0835 27.2804L62.3377 25.8193L62.6304 25.4765Z" fill="#B1D8E5"/>
<path d="M62.6304 24.3124C62.3181 22.5487 62.7049 20.7362 63.7139 19.235C64.7229 17.7339 66.2803 16.654 68.0765 16.2101C69.8728 15.7662 71.7764 15.9906 73.4089 16.8389C75.0415 17.6872 76.2836 19.0972 76.8883 20.7886C77.493 22.4801 77.4161 24.3292 76.6728 25.9684C75.9295 27.6076 74.5743 28.917 72.8765 29.6362C71.1787 30.3555 69.2626 30.432 67.509 29.8505C65.7554 29.269 64.2928 28.0722 63.4117 26.4978L63.0221 26.4334L61.0835 26.1163L62.3377 24.6552L62.6304 24.3124Z" fill="white"/>
<path d="M62.5703 24.2974C62.5017 23.9041 62.4669 23.506 62.4661 23.1072C62.4661 19.1431 65.8084 15.9199 69.9142 15.9199C74.02 15.9199 77.3623 19.1451 77.3623 23.1072C77.3623 27.0692 74.02 30.2945 69.9142 30.2945C68.5751 30.2949 67.2606 29.9469 66.1092 29.2871C64.9577 28.6274 64.0119 27.6803 63.3713 26.5455L61.0702 26.1686C61.0604 26.1669 61.0513 26.1629 61.0436 26.1568C61.0359 26.1507 61.03 26.1428 61.0265 26.1339C61.0231 26.1248 61.0222 26.1151 61.0239 26.1056C61.0255 26.0961 61.0296 26.0871 61.0358 26.0796L62.5703 24.2974ZM63.4203 26.444C63.4287 26.4454 63.4368 26.4487 63.4437 26.4536C63.4507 26.4585 63.4564 26.4648 63.4604 26.4721C64.0895 27.596 65.0219 28.5347 66.159 29.1886C67.296 29.8426 68.5952 30.1876 69.9189 30.1869C73.9643 30.1869 77.2555 27.0109 77.2555 23.1072C77.2555 19.2034 73.9633 16.0275 69.9168 16.0275C65.8703 16.0275 62.5801 19.2034 62.5801 23.1072C62.5808 23.5083 62.6165 23.9086 62.6869 24.3039C62.6881 24.3117 62.6876 24.3197 62.6855 24.3273C62.6833 24.3349 62.6796 24.342 62.6744 24.3481L61.189 26.0786L63.4203 26.444Z" fill="#00B4E3"/>
<path d="M65.2798 19.7113L74.4936 19.3057C74.5178 19.3059 74.5409 19.3151 74.5584 19.3313C74.5758 19.3475 74.5861 19.3695 74.5872 19.3929C74.5884 19.4162 74.5802 19.439 74.5645 19.4567C74.5487 19.4745 74.5265 19.4857 74.5024 19.4881L65.2886 19.8937H65.284C65.26 19.8926 65.2374 19.8827 65.2207 19.8662C65.2039 19.8496 65.1943 19.8275 65.1938 19.8044C65.1933 19.7812 65.2019 19.7588 65.2178 19.7415C65.2338 19.7242 65.2559 19.7134 65.2798 19.7113ZM65.4892 21.2859L74.7029 20.8808C74.7158 20.8795 74.7288 20.8808 74.7411 20.8845C74.7534 20.8882 74.7648 20.8943 74.7746 20.9024C74.7844 20.9105 74.7924 20.9205 74.798 20.9317C74.8037 20.9429 74.8069 20.9551 74.8075 20.9675C74.8081 20.98 74.8061 20.9924 74.8015 21.0041C74.797 21.0157 74.79 21.0264 74.7811 21.0353C74.7721 21.0443 74.7613 21.0514 74.7494 21.0562C74.7375 21.061 74.7247 21.0634 74.7118 21.0633L65.4975 21.4684H65.4933C65.4694 21.4673 65.4468 21.4574 65.43 21.4408C65.4133 21.4242 65.4037 21.4022 65.4032 21.379C65.4027 21.3559 65.4112 21.3334 65.4272 21.3162C65.4432 21.2989 65.4653 21.2881 65.4892 21.2859ZM65.4892 22.7395L74.7029 22.3344C74.7158 22.3331 74.7288 22.3343 74.7411 22.338C74.7534 22.3417 74.7648 22.3479 74.7746 22.356C74.7844 22.3641 74.7924 22.374 74.798 22.3852C74.8037 22.3964 74.8069 22.4086 74.8075 22.4211C74.8081 22.4335 74.8061 22.4459 74.8015 22.4576C74.797 22.4693 74.79 22.4799 74.7811 22.4889C74.7721 22.4978 74.7613 22.5049 74.7494 22.5097C74.7375 22.5145 74.7247 22.517 74.7118 22.5168L65.4975 22.9219H65.4933C65.4682 22.9225 65.4439 22.9133 65.4257 22.8965C65.4075 22.8798 65.397 22.8567 65.3965 22.8325C65.3959 22.8082 65.4054 22.7847 65.4228 22.7672C65.4401 22.7497 65.464 22.7395 65.4892 22.739V22.7395ZM65.4892 24.3951L74.7029 23.9895C74.7158 23.9882 74.7288 23.9894 74.7411 23.9931C74.7534 23.9968 74.7648 24.0029 74.7746 24.0111C74.7844 24.0192 74.7924 24.0291 74.798 24.0403C74.8037 24.0515 74.8069 24.0637 74.8075 24.0762C74.8081 24.0886 74.8061 24.101 74.8015 24.1127C74.797 24.1243 74.79 24.135 74.7811 24.1439C74.7721 24.1529 74.7613 24.16 74.7494 24.1648C74.7375 24.1696 74.7247 24.172 74.7118 24.1719L65.4975 24.577H65.4933C65.4694 24.5759 65.4468 24.566 65.43 24.5494C65.4133 24.5329 65.4037 24.5108 65.4032 24.4877C65.4027 24.4645 65.4112 24.442 65.4272 24.4248C65.4432 24.4075 65.4653 24.3967 65.4892 24.3946V24.3951ZM65.4892 26.0104L74.7029 25.6048C74.7158 25.6035 74.7288 25.6048 74.7411 25.6085C74.7534 25.6122 74.7648 25.6183 74.7746 25.6264C74.7844 25.6345 74.7924 25.6445 74.798 25.6557C74.8037 25.6669 74.8069 25.6791 74.8075 25.6915C74.8081 25.704 74.8061 25.7164 74.8015 25.7281C74.797 25.7397 74.79 25.7503 74.7811 25.7593C74.7721 25.7683 74.7613 25.7754 74.7494 25.7802C74.7375 25.785 74.7247 25.7874 74.7118 25.7873L65.4975 26.1929H65.4933C65.4694 26.1918 65.4468 26.1819 65.43 26.1653C65.4133 26.1487 65.4037 26.1267 65.4032 26.1035C65.4027 26.0804 65.4112 26.0579 65.4272 26.0407C65.4432 26.0234 65.4653 26.0126 65.4892 26.0104Z" fill="#002F55"/>
<path d="M79.5881 86.8458C79.8339 86.7632 80.0924 86.7212 80.3527 86.7217H93.0259C94.3697 86.7217 95.451 87.0363 95.3697 88.33L93.7551 115.353C93.7205 115.92 93.4653 116.454 93.0404 116.848C92.6155 117.241 92.0523 117.466 91.4634 117.476L88.7357 117.526L87.5982 117.546L85.7127 117.581L85.1695 117.59C85.1085 117.593 85.0445 117.593 84.9762 117.593L81.7256 117.652C81.1177 117.663 80.5293 117.445 80.0851 117.044C79.641 116.643 79.3758 116.091 79.3459 115.505L78.0151 89.089C77.9904 88.6012 78.1303 88.1188 78.414 87.7143C78.6976 87.3098 79.1096 87.0051 79.5881 86.8458Z" fill="#EB8253"/>
<path d="M74.6136 55.8086C75.8225 55.109 80.1345 54.8365 80.3356 54.7978C80.5366 54.7591 81.9471 55.8865 82.995 56.8972C84.043 57.908 85.8154 63.5467 85.8962 63.7412L86.0576 68.5627C86.0576 68.5627 84.9289 69.4569 82.1086 69.0291C79.2882 68.6014 77.9986 64.9078 77.9986 64.9078C77.9986 64.9078 77.4746 62.2636 77.1923 61.097C76.91 59.9305 72.3573 57.7527 72.3573 57.7527C72.3573 57.7527 73.4047 56.5082 74.6136 55.8086Z" fill="#38A8AD"/>
<path d="M80.3359 54.7997C80.3359 54.7997 77.515 61.021 77.1926 61.0989C76.8702 61.1768 75.4217 63.1209 74.8556 64.8317C74.2894 66.5426 74.1306 69.8075 74.1306 69.8075L74.2915 71.6742C74.2915 71.6742 71.9144 65.5303 71.8737 64.4417C71.8331 63.3531 72.3576 57.7535 72.3576 57.7535C72.3576 57.7535 73.0826 54.5258 80.3359 54.7997Z" fill="#2C8790"/>
<path d="M85.7155 117.581L85.1729 117.59C85.3812 117.584 85.5886 117.562 85.793 117.522C85.7682 117.543 85.7423 117.563 85.7155 117.581Z" fill="#C9592D"/>
<path d="M79.5881 86.8458C79.8339 86.7632 80.0924 86.7212 80.3527 86.7217H85.8904C85.5778 86.8222 82.408 88.1245 81.3517 89.7539C80.2501 91.4547 79.2964 111.316 82.0153 114.65C83.4653 116.427 86.356 117.196 88.7373 117.526L87.5998 117.547L85.7143 117.581L85.1711 117.59C85.1101 117.594 85.0461 117.594 84.9778 117.594L81.7272 117.653C81.1193 117.663 80.5309 117.445 80.0867 117.044C79.6426 116.644 79.3774 116.092 79.3475 115.506L78.0167 89.0895C77.9918 88.6018 78.1314 88.1194 78.4148 87.7149C78.6981 87.3103 79.1099 87.0053 79.5881 86.8458Z" fill="#C9592D"/>
<path d="M86.4054 85.6494C91.3805 85.6494 95.416 86.6401 95.416 87.8609C95.416 89.0817 91.3826 90.0724 86.4054 90.0724C81.4282 90.0724 77.9421 89.4617 77.9421 88.2398C77.9421 87.018 81.4297 85.6494 86.4054 85.6494Z" fill="#A33C1C"/>
<path d="M87.5046 66.1793L88.8375 52.6718C88.8409 52.636 88.8516 52.6011 88.869 52.5693C88.8863 52.5374 88.91 52.5092 88.9387 52.4862C88.9674 52.4632 89.0005 52.4458 89.0361 52.4352C89.0717 52.4245 89.1092 52.4207 89.1463 52.424C89.1835 52.4273 89.2196 52.4376 89.2526 52.4544C89.2856 52.4712 89.3148 52.494 89.3387 52.5217C89.3625 52.5494 89.3805 52.5813 89.3915 52.6157C89.4026 52.6501 89.4065 52.6862 89.4031 52.7221L88.0708 66.22L87.3754 89.7028C87.3733 89.7741 87.3424 89.8418 87.2894 89.8915C87.2365 89.9412 87.1655 89.9691 87.0916 89.9692H87.0833C87.046 89.9682 87.0093 89.9602 86.9753 89.9455C86.9412 89.9308 86.9106 89.9098 86.885 89.8836C86.8594 89.8575 86.8394 89.8267 86.8261 89.7931C86.8129 89.7595 86.8066 89.7237 86.8077 89.6877L87.5046 66.1974V66.1793Z" fill="#005691"/>
<path d="M90.6418 75.4348C90.6784 75.3741 90.7379 75.3293 90.8078 75.3097C90.8777 75.2901 90.9527 75.2972 91.0174 75.3294C91.0821 75.3617 91.1314 75.4167 91.1553 75.4831C91.1791 75.5495 91.1756 75.6222 91.1454 75.6861C91.1137 75.745 87.9683 81.6204 87.4558 87.712C87.4499 87.7805 87.4175 87.8444 87.3651 87.8909C87.3127 87.9375 87.2441 87.9633 87.1729 87.9633H87.1495C87.1123 87.9605 87.076 87.9506 87.0427 87.9341C87.0095 87.9177 86.9799 87.8952 86.9557 87.8677C86.9315 87.8403 86.9132 87.8085 86.9018 87.7742C86.8903 87.7398 86.886 87.7037 86.8891 87.6678C87.4146 81.4651 90.6095 75.4947 90.6418 75.4348Z" fill="#005691"/>
<path d="M83.797 73.7288C83.8327 73.7183 83.8702 73.7146 83.9073 73.718C83.9444 73.7215 83.9805 73.7319 84.0135 73.7488C84.0464 73.7657 84.0756 73.7887 84.0993 73.8165C84.123 73.8443 84.1408 73.8763 84.1517 73.9108C84.2939 74.3601 87.632 84.9631 87.4435 89.9012C87.4408 89.972 87.4098 90.039 87.3569 90.0882C87.3041 90.1374 87.2336 90.165 87.1601 90.1651H87.1492C87.1119 90.1638 87.0753 90.1554 87.0413 90.1404C87.0074 90.1254 86.9769 90.1041 86.9515 90.0778C86.9261 90.0514 86.9063 90.0205 86.8933 89.9867C86.8803 89.953 86.8744 89.9171 86.8758 89.8811C87.0612 85.0355 83.6429 74.1807 83.6085 74.0716C83.5975 74.0371 83.5936 74.0009 83.5971 73.965C83.6007 73.9292 83.6115 73.8943 83.629 73.8624C83.6465 73.8306 83.6704 73.8024 83.6992 73.7795C83.728 73.7565 83.7613 73.7393 83.797 73.7288Z" fill="#005691"/>
<path d="M79.3484 73.9487C80.5036 73.4064 82.6297 72.9661 84.3105 73.6974C85.1907 74.0774 85.946 74.779 86.3777 75.9536C86.622 76.6201 87.2179 79.1578 86.0991 80.7123L83.7594 80.3102L84.9084 82.2553C84.9084 82.2553 79.8505 85.5343 77.6791 88.2911C75.5358 91.0147 75.5228 92.9694 75.5228 93.0156C75.5228 93.0156 75.4707 92.8256 75.3941 92.4874C75.0665 91.068 74.2733 87.0381 74.8811 83.438C75.6295 78.9778 77.4973 74.8203 79.3484 73.9487ZM97.6926 68.5528C97.6926 68.5528 104.18 69.6414 105.107 69.952C106.035 70.2626 108.653 74.0734 108.653 74.0734C107.323 73.0249 102.448 73.608 102.448 73.608L100.03 72.6741C100.03 72.6741 101.28 73.9568 101.077 73.8417C100.874 73.7266 96.0811 75.63 95.1139 75.9406C94.4858 76.1416 92.6378 76.1471 91.4159 76.125C90.7549 76.114 90.2784 76.0959 90.2784 76.0959C90.2784 76.0959 91.5675 71.7785 92.4529 70.8069C93.3383 69.8354 97.6926 68.5528 97.6926 68.5528ZM89.2434 41.7865C89.6867 41.32 91.8227 39.9977 91.8227 39.9977C93.6357 39.3755 97.2218 40.4646 97.2218 40.4646C97.2218 40.4646 96.9801 41.3587 96.0936 41.4753C95.2071 41.5919 94.2399 45.2082 94.2399 45.2082L92.8701 44.7418L93.918 46.3747C93.918 46.3747 93.5534 49.602 92.7894 50.963C92.3206 51.7969 91.0034 52.5437 90.0544 52.9966C89.7536 53.1392 89.415 53.1903 89.0835 53.1432C88.7519 53.096 88.443 52.9529 88.1976 52.7327L87.6085 52.2065C87.094 51.7467 86.6971 51.1779 86.4491 50.5449L86.4267 50.4876C86.1214 49.7081 85.9984 48.8732 86.0666 48.0425C86.1348 47.2119 86.3924 46.406 86.821 45.6827C87.8007 44.0276 88.9913 42.0518 89.2434 41.7865Z" fill="#38A8AD"/>
<path d="M97.4638 39.7641C98.8435 40.8297 104.556 42.7195 104.556 42.7195C102.944 43.497 99.3097 42.7918 98.5138 42.0972C97.4721 41.1885 91.4715 40.2436 91.8251 39.9973C93.2731 38.9866 95.4487 38.2086 97.4638 39.7641Z" fill="#2C8790"/>
<path d="M92.331 68.1269C92.3493 68.0955 92.3738 68.0679 92.4031 68.0457C92.4325 68.0235 92.466 68.0071 92.5019 67.9974C92.5379 67.9877 92.5754 67.985 92.6124 67.9893C92.6494 67.9936 92.6852 68.0049 92.7177 68.0226C92.7502 68.0402 92.7787 68.0639 92.8018 68.0922C92.8248 68.1205 92.8418 68.1529 92.8518 68.1876C92.8619 68.2222 92.8647 68.2584 92.8603 68.2942C92.8558 68.3299 92.8441 68.3644 92.8258 68.3957C92.8133 68.4179 91.5237 70.6419 90.2273 73.8239C89.035 76.7501 87.5944 81.1082 87.5022 85.2512C87.5004 85.3228 87.4698 85.3909 87.4168 85.441C87.3637 85.4911 87.2926 85.5193 87.2183 85.5195H87.2121C87.1748 85.5188 87.138 85.511 87.1039 85.4966C87.0697 85.4822 87.0388 85.4614 87.013 85.4354C86.9872 85.4095 86.9669 85.3789 86.9533 85.3454C86.9398 85.3118 86.9332 85.2761 86.934 85.2401C87.0287 81.0137 88.4913 76.5857 89.7017 73.6158C91.0117 70.4001 92.3179 68.149 92.331 68.1269Z" fill="#005691"/>
<path d="M97.944 55.3017C98.1445 55.2635 102.133 53.7859 103.746 53.9794C105.327 54.1709 110.718 57.8102 110.913 57.9434C107.81 56.4306 102.94 58.0239 102.94 58.0239L100.603 57.4795L101.972 58.6466C101.972 58.6466 98.2659 64.9834 97.5409 65.9555C96.8289 66.9104 92.7871 68.46 92.6303 68.5188C92.6284 68.5191 92.6265 68.5191 92.6246 68.5188C91.8178 68.4419 90.2068 63.7747 91.4964 61.2863C92.786 58.7979 97.7414 55.3414 97.944 55.3017Z" fill="#38A8AD"/>
<path d="M84.3106 73.6967C85.1909 74.0767 85.9461 74.7783 86.3779 75.9529C86.6221 76.6194 87.218 79.157 86.0992 80.7116L83.7596 80.3095L84.9086 82.2546C84.9086 82.2546 79.8506 85.5336 77.6792 88.2904C75.5359 91.014 75.5229 92.9687 75.5229 93.0149C75.5229 93.0149 75.4708 92.8249 75.3942 92.4867C75.6422 89.5529 76.687 84.2318 78.1027 81.2785C79.4188 78.5313 82.6939 75.1136 84.3106 73.6967ZM108.651 74.0722C107.321 73.0237 102.446 73.6067 102.446 73.6067L100.028 72.6729C100.028 72.6729 101.278 73.9556 101.075 73.8405C100.872 73.7254 96.0792 75.6287 95.112 75.9393C94.4838 76.1404 92.6358 76.1459 91.4139 76.1238L90.2623 76.157C90.2623 76.157 96.65 70.3066 97.487 70.3066C98.324 70.3066 105.162 71.1877 108.651 74.0722Z" fill="#2C8790"/>
<path opacity="0.4" d="M93.0314 90.9116C93.2161 90.9196 93.3901 90.9978 93.5153 91.129C93.6404 91.2603 93.7067 91.434 93.6997 91.6123L92.9663 108.473C92.9579 108.651 92.8768 108.819 92.7407 108.94C92.6046 109.061 92.4245 109.125 92.2398 109.118C92.0551 109.109 91.8812 109.031 91.7561 108.9C91.631 108.768 91.5648 108.595 91.572 108.416L92.3054 91.556C92.3136 91.3778 92.3946 91.21 92.5307 91.0893C92.6667 90.9686 92.8468 90.9047 93.0314 90.9116ZM92.0783 110.21C92.2566 110.218 92.4245 110.293 92.5453 110.42C92.6662 110.547 92.7303 110.715 92.7236 110.887L92.6194 113.322C92.6112 113.494 92.5329 113.656 92.4015 113.773C92.2701 113.89 92.0963 113.952 91.9179 113.945C91.7395 113.937 91.5717 113.862 91.4508 113.735C91.33 113.608 91.2659 113.44 91.2725 113.268L91.3767 110.832C91.385 110.66 91.4633 110.498 91.5947 110.382C91.7261 110.265 91.8999 110.203 92.0783 110.21Z" fill="white"/>
<path d="M98.2982 57C98.9055 56.3753 101.374 55.2022 103.237 55.3193C105.099 55.4364 110.446 57.6464 110.913 57.9444C107.81 56.4316 102.94 58.0249 102.94 58.0249L100.603 57.4805L101.972 58.6476C101.972 58.6476 98.2659 64.9845 97.5409 65.9565C96.8289 66.9114 92.7871 68.461 92.6303 68.5198C92.6284 68.5201 92.6265 68.5201 92.6246 68.5198C92.6246 68.5198 94.3699 61.722 95.1403 60.4726C95.9106 59.2231 98.2982 57 98.2982 57ZM93.3168 41.1152C93.2788 41.171 89.5261 46.7539 89.3162 51.3347L89.1266 51.3266C89.3391 46.6966 93.1199 41.0709 93.1585 41.0146L93.3168 41.1152Z" fill="#2C8790"/>
<path d="M98.2464 56.9228L98.3506 57.0736C98.3407 57.0802 97.3375 57.722 96.1969 59.2961C95.1437 60.7497 93.7546 63.317 93.1182 67.2976L92.9312 67.2695C93.5739 63.2486 94.9812 60.6517 96.049 59.181C97.2094 57.5848 98.2047 56.9495 98.2464 56.9228ZM83.5721 67.3962L83.421 67.5057C83.395 67.4725 80.8309 64.1302 79.6017 58.8106L79.7866 58.7709C81.0064 64.0498 83.5466 67.364 83.5721 67.3962ZM75.7281 56.5977L75.8844 56.6982C75.8667 56.7228 74.1421 59.1705 73.9343 60.5351C73.7395 61.8127 73.4176 64.676 73.5932 66.3653L73.4046 66.3834C73.2275 64.6745 73.5515 61.7921 73.7473 60.5069C73.963 59.1047 75.6557 56.6992 75.7281 56.5977Z" fill="#156063"/>
<path d="M85.131 62.4969L84.0024 60.9388L85.9368 54.6396C86.3014 55.573 88.2738 59.2279 88.2738 59.2279L90.8525 65.9935C90.8525 65.9935 90.4879 69.9209 90.2083 70.7376C89.9286 71.5544 87.7082 74.3147 87.7082 74.3147L85.2904 71.9022C85.2904 71.9022 83.1549 67.8969 82.8726 66.8475C82.5903 65.798 83.5982 62.1034 83.5982 62.1034L85.131 62.4969Z" fill="#2C8790"/>
<path d="M86.4877 58.1387C86.5366 58.5639 87.6856 68.5657 87.6856 69.4503C87.6856 70.3349 87.594 72.3705 87.5929 72.3911L87.4038 72.383C87.4038 72.3624 87.496 70.3284 87.496 69.4503C87.496 68.5723 86.3095 58.2628 86.2981 58.1588L86.4877 58.1387ZM97.4734 70.2138H97.4973C97.5369 70.2168 101.508 70.545 104.678 71.8322L104.604 72.0006C101.589 70.7767 97.8395 70.4269 97.5052 70.3977C95.5311 71.2497 90.3836 76.1702 90.3315 76.2199L90.1982 76.0903C90.4123 75.8852 95.4587 71.0592 97.4515 70.2208L97.4734 70.2138ZM82.2959 75.8078C82.2641 75.843 79.0875 79.3522 78.189 81.3139L78.0161 81.24C78.926 79.2532 82.1214 75.7229 82.1537 75.6872L82.2959 75.8078ZM77.5359 83.0539C77.5239 83.0855 76.3275 86.2675 76.0447 88.8369L75.8561 88.8173C76.1421 86.2258 77.3458 83.0232 77.3583 82.9911L77.5359 83.0539Z" fill="#156063"/>
<path d="M67.7362 63.2389L73.2285 83.5518C73.2285 83.5518 72.7025 87.5922 67.1606 89.0774C61.6188 90.5626 44.5392 93.7692 39.3584 83.1612L45.9387 61.9316L67.7362 63.2389Z" fill="#86C3D1"/>
<path d="M49.2966 60.6298C49.7642 60.1589 50.3916 59.8659 51.0644 59.804C52.9311 59.6467 54.9707 61.2615 53.8248 70.0647C53.7905 70.3281 53.092 92.4885 53.092 92.4885C53.092 92.4885 53.8983 94.7462 54.2655 96.2128C54.6327 97.6794 53.679 115.589 53.679 115.589C53.679 115.589 51.2716 116.414 50.0961 114.911L47.3731 97.4955L45.6809 87.9716L48.3632 62.5759C48.4371 61.8439 48.7661 61.1578 49.2966 60.6298Z" fill="#005691"/>
<path d="M49.2968 60.6299C50.675 61.4481 50.9193 62.1377 51.0156 62.2644C51.0156 62.2644 50.5286 72.2205 50.7979 79.7777L51.0021 85.5612C51.0187 85.9893 50.8718 86.4084 50.5893 86.7389C50.3069 87.0694 49.9085 87.2882 49.4698 87.354C48.5322 87.4892 47.4666 87.8973 47.1155 89.0126C46.4473 91.1421 47.5843 97.9253 47.5843 97.9253C47.5843 97.9253 47.5067 97.77 47.3702 97.494L45.6811 87.9717L48.3635 62.576C48.4373 61.844 48.7664 61.1579 49.2968 60.6299Z" fill="#002F55"/>
<path d="M62.4854 63.984C62.6442 64.17 63.8162 72.0197 64.9178 80.4158C65.8475 87.4759 66.7256 94.9235 66.9131 98.5262C67.3204 106.414 67.6704 115.738 68.4277 119.083C68.4277 119.083 68.0772 121.532 65.6881 121.832C63.2989 122.132 62.951 119.92 62.951 119.92C62.951 119.92 61.8437 106.831 60.3879 101.752C59.6911 99.3228 58.0837 92.9513 56.5295 86.0605C56.4977 85.9218 56.4654 85.7831 56.4331 85.6424C54.7664 78.2365 53.1825 70.3174 52.8591 66.1071C52.8591 66.1081 51.9976 51.6732 62.4854 63.984Z" fill="#005691"/>
<path d="M64.9178 80.416C65.8475 87.4761 66.7256 94.9237 66.9131 98.5264C67.3204 106.414 67.6704 115.738 68.4277 119.083C68.4277 119.083 68.0772 121.533 65.6881 121.832C63.2989 122.132 62.951 119.92 62.951 119.92C62.951 119.92 66.4985 119.231 66.8772 116.552C67.2037 114.24 64.7115 93.7924 64.0219 88.2285C63.9766 87.8685 63.7869 87.5399 63.4934 87.3133C63.1999 87.0868 62.826 86.9803 62.4521 87.0167C60.6765 87.1866 57.6999 87.262 56.529 86.0618C56.4312 85.9649 56.346 85.8569 56.2753 85.7401L56.4316 85.6436L64.9178 80.416Z" fill="#002F55"/>
<path d="M55.0422 26.0547L55.5208 26.5462L58.4834 29.5875C58.4834 29.5875 57.7511 35.8058 53.7223 36.0179L50.5019 31.7105C50.5019 31.7105 54.126 30.5068 55.0422 26.0547Z" fill="#FCA995"/>
<path d="M55.0422 26.0547L55.5209 26.5462C55.7084 28.7492 55.625 32.6363 53.7224 36.0179L50.502 31.7105C50.502 31.7105 54.126 30.5068 55.0422 26.0547Z" fill="#E5604E"/>
<path d="M60.6963 34.4307L59.6296 62.1404C56.817 63.907 47.4204 62.3701 47.4204 62.3701L48.7897 35.0524L60.6963 34.4307Z" fill="#00B4E3"/>
<path d="M56.0072 58.2134C55.7687 53.606 56.0072 45.8403 56.6552 42.9111C57.3031 39.9819 58.1531 31.6351 64.9747 32.3865L67.4654 33.5983C67.4654 33.5983 66.9539 40.4759 66.8518 41.4304C66.7497 42.3848 65.4533 50.0853 67.4315 56.1402C69.4097 62.1951 72.9212 81.8078 73.2285 83.5518C73.2285 83.5518 72.9556 83.3216 70.0571 83.3875C67.1586 83.4533 60.3381 85.8884 57.3031 86.2523C54.2681 86.6162 54.302 85.5286 54.302 85.5286C54.302 85.5286 56.2458 62.8203 56.0072 58.2134Z" fill="white"/>
<path d="M55.9509 58.2171C55.7155 53.6731 55.9509 45.8279 56.5998 42.9012C56.6634 42.6137 56.728 42.28 56.8025 41.896C57.1322 40.1871 57.6311 37.6007 58.8119 35.5632C60.2255 33.1255 62.3016 32.0394 64.9813 32.3344C64.988 32.3352 64.9945 32.3371 65.0006 32.3399L67.4913 33.5522C67.5009 33.5568 67.509 33.564 67.5145 33.5729C67.5201 33.5818 67.5229 33.5921 67.5225 33.6025C67.5173 33.6713 67.0095 40.4922 66.9085 41.4361C66.8996 41.52 66.8819 41.6522 66.8564 41.8347C66.0751 47.6559 66.2892 52.4633 67.485 56.1238C69.5393 62.4124 73.2472 83.3334 73.2841 83.543C73.2863 83.5541 73.285 83.5657 73.2802 83.5761C73.2755 83.5865 73.2676 83.5953 73.2576 83.6013C73.2477 83.607 73.2361 83.6096 73.2246 83.6086C73.2131 83.6076 73.2022 83.6031 73.1935 83.5957C73.18 83.5872 72.8289 83.3796 70.058 83.445C68.4559 83.4811 65.6496 84.2451 62.936 84.9834C60.739 85.581 58.665 86.146 57.3108 86.3073C56.9382 86.3541 56.563 86.3787 56.1873 86.3812C55.2009 86.3812 54.7186 86.1696 54.4831 85.9625C54.2477 85.7554 54.2461 85.5363 54.2467 85.5247C54.2654 85.2951 56.1868 62.7667 55.9509 58.2171ZM54.5644 85.8841C54.8602 86.1404 55.5743 86.4028 57.2967 86.1972C58.6421 86.0369 60.7135 85.473 62.9063 84.8764C65.6266 84.1361 68.4397 83.3686 70.0565 83.3339C70.421 83.3253 70.7424 83.3218 71.0289 83.3218C72.4289 83.3218 72.9586 83.4088 73.156 83.4656C72.8784 81.9075 69.3575 62.2194 67.3777 56.158C66.1767 52.4819 65.9642 47.6589 66.7449 41.8216C66.7689 41.6397 66.7866 41.5085 66.797 41.4261C66.8944 40.5214 67.3699 34.1745 67.4079 33.6321L64.96 32.441C63.5438 32.2867 62.2917 32.5239 61.2375 33.1446C60.3359 33.6774 59.5536 34.5082 58.9129 35.6134C57.741 37.6349 57.2462 40.2092 56.9155 41.9121C56.841 42.2991 56.7764 42.6328 56.7129 42.9218C56.067 45.841 55.8311 53.6721 56.066 58.2096C56.3019 62.7677 54.38 85.3031 54.3607 85.5268C54.3592 85.5348 54.3592 85.7057 54.5644 85.8831V85.8841Z" fill="#00B4E3"/>
<path d="M45.9821 34.5078C45.9821 34.5078 49.4406 36.5097 50.1177 43.1617C50.1416 43.3999 51.7042 56.9417 50.1177 65.9845C48.5312 75.0274 49.7208 86.223 49.7208 86.223C49.7208 86.223 40.945 86.8452 39.3559 83.1611C39.3559 83.1611 42.5753 60.1035 44.3107 53.7878C44.3107 53.7878 40.2211 52.0121 39.2382 51.0632C39.2403 51.0632 44.0748 36.9686 45.9821 34.5078Z" fill="white"/>
<path d="M45.9376 34.4752C45.946 34.4642 45.9584 34.4567 45.9723 34.4541C45.9861 34.4515 46.0005 34.454 46.0126 34.4611C46.048 34.4817 46.898 34.9828 47.8434 36.3092C49.4194 38.5206 49.9788 41.2533 50.1747 43.1567L50.1799 43.2034C50.4372 45.5385 51.645 57.6101 50.1742 65.9936C48.6074 74.9254 49.7663 86.1059 49.7783 86.2175C49.7792 86.2248 49.7785 86.2322 49.7763 86.2392C49.7741 86.2462 49.7705 86.2528 49.7656 86.2584C49.7608 86.264 49.7548 86.2687 49.748 86.272C49.7412 86.2753 49.7338 86.2773 49.7262 86.2778C49.7153 86.2778 49.1569 86.317 48.3038 86.317C47.2416 86.3198 46.1804 86.2567 45.1266 86.128C43.7323 85.9501 42.5531 85.6526 41.6229 85.2439C40.4525 84.7293 39.6728 84.0377 39.3056 83.1833C39.3016 83.1742 39.3002 83.1643 39.3015 83.1546C39.3338 82.9249 42.526 60.1307 44.2453 53.8195C43.7766 53.6154 40.1354 52.0061 39.1999 51.1054C39.1923 51.0983 39.187 51.0893 39.1845 51.0795C39.182 51.0696 39.1825 51.0593 39.1858 51.0496C39.2353 50.9049 44.0464 36.9143 45.9376 34.4752ZM44.3365 53.7381C44.3488 53.7434 44.3587 53.7527 44.3645 53.7644C44.3703 53.776 44.3717 53.7893 44.3683 53.8019C42.6714 59.9764 39.514 82.459 39.4171 83.1541C39.8692 84.189 41.2312 85.5209 45.1407 86.019C47.2861 86.2929 49.2955 86.1939 49.659 86.1697C49.571 85.2947 48.5496 74.5907 50.0617 65.973C51.5304 57.6036 50.3221 45.5451 50.0663 43.2125L50.0611 43.1622C49.7132 39.7445 48.6142 37.5833 47.7538 36.373C46.9413 35.2306 46.1829 34.6978 45.9964 34.5772C44.1396 37.056 39.565 50.2902 39.3056 51.0431C40.3135 51.9845 44.2964 53.7205 44.337 53.7381H44.3365Z" fill="#00B4E3"/>
<path d="M45.8368 38.8246C45.8368 38.8246 46.6087 45.5048 46.7623 47.3765C46.916 49.2482 50.7447 52.8976 50.7447 52.8976C50.7447 52.8976 44.7237 50.6359 44.9394 48.9733C45.155 47.3106 45.8368 38.8246 45.8368 38.8246ZM65.742 37.9023C65.742 37.9023 67.9296 47.5459 66.1884 50.3564C64.4472 53.167 56.2464 50.3564 56.2464 50.3564C56.2464 50.3564 58.9694 49.4703 61.8507 48.4621C64.7321 47.4539 65.7732 38.0551 65.742 37.9023Z" fill="#D4EBF4"/>
<path d="M56.9655 33.5752L57.9619 34.3849L57.3848 36.2566L56.1791 37.2181L55.1374 36.2943L54.9691 37.1678L55.9587 61.983C55.9587 61.983 53.2587 66.4431 52.9706 65.6586C52.6826 64.874 54.0816 34.1823 54.0816 34.1823L56.9655 33.5752Z" fill="#0894BA"/>
<path d="M54.4866 36.457L55.709 61.8929L53.035 65.8007L51.0484 61.5984L52.8053 36.5304L54.4866 36.457Z" fill="#FDC500"/>
<path d="M55.3262 34.023L54.4861 36.4561L52.8048 36.5295L51.6589 34.2441L53.3798 33.834L55.3262 34.023Z" fill="#FDC500"/>
<path d="M57.7216 28.6777L59.5889 29.7332L59.4326 30.85C59.579 31.8371 59.0748 32.8428 58.6185 33.737C57.7154 35.5061 56.1445 36.4727 56.1445 36.4727L53.384 33.8355C56.0518 33.1901 57.7216 28.6777 57.7216 28.6777Z" fill="white"/>
<path d="M53.3661 33.7816C55.9781 33.1518 57.6521 28.7053 57.6688 28.6595C57.6716 28.6519 57.6761 28.645 57.6819 28.6393C57.6878 28.6336 57.6948 28.6291 57.7027 28.6263C57.7105 28.6236 57.7189 28.6225 57.7272 28.6233C57.7355 28.6241 57.7435 28.6267 57.7506 28.6309L59.6183 29.6863C59.6281 29.6918 59.6359 29.6999 59.6408 29.7097C59.6457 29.7194 59.6475 29.7304 59.646 29.7411L59.4897 30.8504C59.6366 31.8656 59.1001 32.9166 58.6688 33.7615C57.7693 35.5241 56.1901 36.5092 56.174 36.5193C56.1649 36.5247 56.1545 36.5277 56.1438 36.5278C56.1287 36.5278 56.1143 36.522 56.1037 36.5117L53.3432 33.8751C53.3361 33.8682 53.331 33.8596 53.3284 33.8502C53.3258 33.8408 53.3259 33.8309 53.3285 33.8216C53.3311 33.8122 53.3363 33.8036 53.3434 33.7968C53.3506 33.79 53.3595 33.7851 53.3692 33.7826L53.3661 33.7816ZM56.15 36.4042C56.3933 36.2438 57.7584 35.2984 58.5662 33.7147C58.9918 32.8814 59.5209 31.844 59.3751 30.8599C59.3746 30.8549 59.3746 30.8499 59.3751 30.8448L59.5282 29.7642L57.7516 28.759C57.4354 29.5503 57.0507 30.3144 56.6016 31.0434C55.9245 32.1295 54.8443 33.4871 53.4906 33.8635L56.15 36.4042Z" fill="#00B4E3"/>
<path d="M70.265 68.5933L73.1484 83.4514C68.2004 82.702 63.9534 84.5893 63.9534 84.5893C70.0129 81.9019 70.1385 79.6356 70.139 79.6336C70.6187 78.5138 70.576 77.0914 70.5385 75.9068C70.4343 72.5041 69.6733 69.1055 68.8113 65.8154C68.4165 64.3076 67.9778 62.8115 67.4952 61.3272C66.9123 59.5474 66.766 57.722 64.5175 57.3892C63.0112 57.1666 61.4174 57.5787 59.9835 57.9245C58.8173 58.2055 56.0964 57.0806 56.0964 57.0806C55.8881 56.7137 55.8199 52.9834 55.8199 52.9834L66.8899 54.7284C67.8874 56.7866 70.265 68.5933 70.265 68.5933Z" fill="#D4EBF4"/>
<path d="M57.4176 49.6321C57.4176 49.6321 62.9475 48.9727 60.8406 56.4283C60.7365 56.7897 58.5489 56.1418 57.1166 54.5662C54.8676 52.0939 55.8296 49.6105 57.4176 49.6321Z" fill="#00B4E3"/>
<path d="M55.1308 54.3005C55.2673 54.2141 55.4225 54.1221 55.5996 54.0231C55.5986 54.0231 55.4137 54.1452 55.1308 54.3005ZM54.0204 53.4732C54.6199 53.1335 55.184 52.8701 55.184 52.8701C55.184 52.8701 54.6652 53.1717 54.0204 53.4732Z" fill="#FCA995"/>
<path d="M52.0997 50.7369C52.0997 50.7369 56.3347 49.5377 59.0504 50.0262C59.0504 50.0262 61.1906 50.1373 59.9249 52.6468C59.9249 52.6468 56.2425 55.6448 54.4935 55.4895C54.4935 55.4895 53.5154 55.3196 55.1305 54.3009C55.4133 54.1461 55.5993 54.0234 55.5993 54.0234C55.4232 54.1239 55.268 54.2144 55.1305 54.3009C54.5195 54.6346 53.4508 55.1186 52.7903 54.8452C52.2174 54.6095 53.1549 53.9636 54.0201 53.4736C54.6649 53.172 55.1836 52.8704 55.1836 52.8704C55.1836 52.8704 54.6196 53.1353 54.0201 53.4736C53.2794 53.8204 52.3726 54.1646 51.8929 54.046C50.995 53.8239 54.3555 51.536 54.3555 51.536C54.3555 51.536 52.9742 51.4918 52.606 51.7582C52.2377 52.0246 51.3866 52.5121 50.8569 52.602C50.3272 52.692 50.0517 52.3804 50.0288 52.2467C50.0059 52.113 52.0997 50.7369 52.0997 50.7369Z" fill="#FCA995"/>
<path d="M51.0009 51.368C51.5165 51.0106 52.0426 50.6644 52.0473 50.6613L52.0598 50.6533L52.0738 50.6493C52.1166 50.6372 56.3557 49.4511 59.0626 49.9356C59.1459 49.9411 59.8876 50.0064 60.2413 50.5859C60.5423 51.0795 60.4647 51.7867 60.0105 52.6868L60.0022 52.7044L59.9866 52.717C59.3234 53.2454 58.6331 53.7413 57.9183 54.2027C56.4839 55.122 55.3791 55.5869 54.6307 55.5869C54.5807 55.5869 54.5322 55.5849 54.4854 55.5808H54.4776C54.464 55.5808 54.1546 55.522 54.113 55.2793C54.0859 55.1325 54.1697 54.9616 54.3666 54.7641C53.8192 54.9772 53.2057 55.1159 52.7556 54.9285C52.5681 54.8511 52.5259 54.7345 52.5239 54.6505C52.5192 54.4535 52.7541 54.2062 53.0879 53.9559C52.6192 54.1157 52.1707 54.2072 51.8723 54.1338C51.716 54.0946 51.6639 54.0042 51.653 53.9328C51.6212 53.7664 51.7218 53.4302 52.9551 52.4531C53.3801 52.1159 53.8135 51.8033 54.0713 51.6213C53.6057 51.6248 52.8926 51.665 52.6676 51.8284C52.2608 52.1224 51.4108 52.5994 50.8775 52.6888C50.5347 52.7466 50.3045 52.6496 50.1696 52.5582C50.0467 52.4737 49.9566 52.3571 49.9394 52.2566C49.9228 52.1857 49.9118 52.1229 51.0009 51.368ZM50.2754 52.4124C50.3795 52.4843 50.5629 52.5592 50.8415 52.5129C51.3624 52.4255 52.2113 51.9314 52.5499 51.6862C52.9338 51.4082 54.2166 51.4414 54.3593 51.4459L54.6411 51.4549L54.4104 51.6118C53.3041 52.3657 51.7744 53.5719 51.8369 53.9036C51.8369 53.9137 51.8436 53.9403 51.9171 53.9584C52.3608 54.068 53.214 53.7478 53.9301 53.4156C54.4484 53.1191 54.9557 52.8753 55.1432 52.7874L55.2338 52.9477C55.1885 52.9743 54.675 53.2724 54.0427 53.5664C53.3338 53.972 52.7051 54.4108 52.7108 54.6475C52.7108 54.6641 52.7108 54.7144 52.8286 54.7621C53.4536 55.0199 54.4906 54.5465 55.0875 54.2203C55.2264 54.1325 55.3809 54.0409 55.551 53.9454L55.6526 54.0997C55.6286 54.1152 55.4443 54.2384 55.1651 54.3892C54.3474 54.9079 54.2796 55.1576 54.2973 55.2486C54.3161 55.3542 54.4838 55.3944 54.5057 55.3994C56.1443 55.5386 59.5876 52.7984 59.8475 52.5893C60.2642 51.757 60.3412 51.1142 60.0767 50.6794C59.7642 50.1622 59.0511 50.1175 59.0438 50.117H59.0318C56.4469 49.6521 52.4108 50.7468 52.1395 50.8207C51.3702 51.3268 50.2754 52.0817 50.128 52.2551C50.1621 52.319 50.2129 52.3732 50.2754 52.4124Z" fill="#FF866E"/>
<path d="M67.4657 33.5987C67.6741 33.5741 71.6591 43.0703 72.2575 45.4713C72.856 47.8722 73.7159 50.6622 73.1179 51.4789C72.52 52.2956 64.6735 56.3426 60.6431 56.4869C60.6431 56.4869 59.8468 50.1968 57.4087 49.6685L66.0547 48.1039C66.0547 48.1039 64.487 33.951 67.4657 33.5987Z" fill="white"/>
<path d="M57.3972 49.6142L65.9911 48.0592C65.9438 47.6133 65.6036 44.2971 65.5865 40.9835C65.5614 36.1971 66.1917 33.6957 67.4615 33.5449C67.5224 33.5379 67.5803 33.5308 68.2735 35.0849C68.6938 36.0273 69.2256 37.2777 69.7709 38.6031C70.2699 39.8184 71.9278 43.9031 72.3142 45.4567C72.4017 45.8085 72.4965 46.1759 72.5887 46.5307C73.1304 48.6256 73.6908 50.7913 73.1663 51.5065C72.8377 51.9559 70.5621 53.2265 68.1933 54.2809C66.3828 55.0881 62.9942 56.4542 60.6467 56.5381C60.6325 56.5381 60.6188 56.5329 60.6083 56.5236C60.5978 56.5143 60.5913 56.5016 60.59 56.4879C60.5822 56.4255 59.7712 50.2299 57.3998 49.7163C57.3871 49.7136 57.3758 49.7068 57.3677 49.6971C57.3595 49.6874 57.3551 49.6752 57.3551 49.6627C57.3551 49.6502 57.3595 49.6381 57.3677 49.6284C57.3758 49.6186 57.3871 49.6119 57.3998 49.6092L57.3972 49.6142ZM59.9936 53.2596C60.3045 54.2988 60.5378 55.3582 60.6915 56.4296C63.0176 56.329 66.3537 54.9821 68.1433 54.1844C70.7387 53.0284 72.7866 51.8352 73.0705 51.4467C73.5653 50.7707 73.0111 48.6321 72.4757 46.5589C72.384 46.2035 72.2887 45.8361 72.2012 45.4838C71.6283 43.1718 67.8188 34.0746 67.4511 33.6555C66.2802 33.8238 65.6745 36.3555 65.6984 40.982C65.7172 44.5208 66.1042 48.0622 66.1083 48.0979C66.1098 48.1116 66.1058 48.1254 66.0972 48.1365C66.0886 48.1475 66.0761 48.1551 66.062 48.1577L57.6461 49.6806C58.5795 50.0244 59.3686 51.2271 59.9936 53.2596Z" fill="#00B4E3"/>
<path d="M50.7627 55.7832V57.291C50.7627 57.291 46.0084 57.0397 45.2053 57.3956C44.4021 57.7514 42.5562 63.0313 42.5562 63.0313C42.5562 63.0313 43.5328 56.2461 43.8151 56.0345L50.7627 55.7832Z" fill="#D4EBF4"/>
<path d="M55.5352 55.9656L44.4942 56.5155L30.1058 47.8546L41.5739 47.167L55.5352 55.9656Z" fill="#002F55"/>
<path d="M41.5742 47.1669L30.1062 47.8544L30.0114 47.0076L41.5742 46.2285V47.1669Z" fill="#005691"/>
<path d="M69.1585 49.2394C70.1216 50.3687 67.1851 48.1557 66.1132 48.1045C66.471 48.1145 68.2762 48.204 69.1585 49.2394ZM66.1132 48.1045H66.0559C66.0741 48.103 66.0934 48.1035 66.1132 48.1045Z" fill="white"/>
<path d="M66.0496 48.049C66.0761 48.0475 66.1028 48.0475 66.1293 48.049C66.5063 48.0611 66.8813 48.1066 67.2496 48.1847C67.8554 48.3138 68.6856 48.5958 69.2039 49.203C69.3945 49.4271 69.4408 49.5231 69.3877 49.5839C69.3787 49.5942 69.3673 49.6022 69.3544 49.6075C69.3416 49.6127 69.3277 49.615 69.3138 49.6141C69.1955 49.6141 68.9434 49.4809 68.3299 49.1376C67.6132 48.7355 66.6444 48.1937 66.1288 48.1585H66.0522C66.0448 48.1587 66.0374 48.1575 66.0305 48.1549C66.0236 48.1523 66.0173 48.1485 66.012 48.1435C66.0066 48.1385 66.0024 48.1326 65.9995 48.126C65.9965 48.1195 65.995 48.1124 65.9949 48.1053C65.9946 48.0909 66.0002 48.0769 66.0104 48.0664C66.0206 48.0559 66.0347 48.0496 66.0496 48.049ZM68.3872 49.0441C68.7476 49.2452 69.1523 49.4729 69.2841 49.5025C69.2367 49.4208 69.1803 49.3443 69.1158 49.2743C68.5106 48.5646 67.4491 48.3063 66.747 48.2123C67.2528 48.4093 67.8616 48.7501 68.3872 49.0441Z" fill="#00B4E3"/>
<path d="M68.5432 51.3212L66.0775 48.1372C66.3458 48.399 68.6161 49.8265 68.5432 51.3212ZM66.0775 48.1372C66.0661 48.1282 66.0572 48.1166 66.0515 48.1035L66.0775 48.1372Z" fill="white"/>
<path d="M66.0409 48.0497C66.0542 48.0474 66.0679 48.0497 66.0797 48.0562C66.0914 48.0628 66.1003 48.0731 66.1049 48.0854C66.1921 48.1651 66.2843 48.2394 66.381 48.308C67.0638 48.8272 68.6623 50.043 68.5998 51.3237C68.5985 51.3374 68.592 51.3501 68.5815 51.3594C68.571 51.3687 68.5572 51.3739 68.543 51.3739H68.5404C68.5257 51.3728 68.5121 51.3662 68.5023 51.3555C68.4926 51.3448 68.4876 51.3309 68.4883 51.3166C68.5477 50.0923 66.9815 48.9006 66.3127 48.392C66.0523 48.1945 66.0065 48.1558 66.0002 48.112C65.9978 48.0986 66.0006 48.0848 66.0081 48.0733C66.0156 48.0618 66.0273 48.0534 66.0409 48.0497Z" fill="#00B4E3"/>
<path d="M65.677 40.3137C65.677 37.9651 67.04 35.6787 67.04 35.6787L65.677 40.3137Z" fill="white"/>
<path d="M67.0688 35.6319C67.0754 35.6354 67.0812 35.6402 67.0858 35.6459C67.0904 35.6516 67.0938 35.6581 67.0957 35.6651C67.0977 35.6721 67.0982 35.6794 67.0971 35.6865C67.0961 35.6937 67.0935 35.7006 67.0896 35.7068C67.0761 35.7294 65.7354 38.0077 65.7354 40.3142C65.7354 40.3214 65.734 40.3285 65.7311 40.3352C65.7283 40.3418 65.7241 40.3479 65.7188 40.3529C65.7135 40.358 65.7073 40.3621 65.7004 40.3648C65.6935 40.3676 65.6861 40.369 65.6787 40.369C65.6712 40.369 65.6638 40.3676 65.6569 40.3648C65.6501 40.3621 65.6438 40.358 65.6385 40.3529C65.6333 40.3479 65.6291 40.3418 65.6262 40.3352C65.6234 40.3285 65.6219 40.3214 65.6219 40.3142C65.6219 37.9776 66.9787 35.6751 66.9922 35.652C66.9998 35.6397 67.012 35.6307 67.0263 35.6269C67.0406 35.6232 67.0558 35.625 67.0688 35.6319Z" fill="#00B4E3"/>
<path d="M59.9144 34.3082L64.3744 32.043L65.501 32.6773L62.9207 36.573L61.0894 36.4373L61.653 38.1587C61.653 38.1587 57.094 43.1918 56.2518 47.0624C56.2518 47.0624 56.1137 45.6551 56.3955 44.5458C56.6773 43.4366 59.9144 34.3082 59.9144 34.3082Z" fill="#D4EBF4"/>
<path d="M57.4822 35.7629C57.7874 34.7547 58.226 33.7912 58.5437 32.791C58.8786 31.7355 59.4562 30.6484 59.4052 29.5547L64.9746 32.3864L62.5407 35.9514L60.324 35.7418L61.1052 37.5451C61.1052 37.5451 56.3895 43.7317 56.0853 47.1082C56.0395 45.4376 56.1265 43.7553 56.2744 42.0917C56.4605 39.9489 56.8651 37.8291 57.4822 35.7629Z" fill="white"/>
<path d="M57.4274 35.7477C57.5888 35.2144 57.792 34.6862 57.9852 34.175C58.1592 33.7186 58.3394 33.2467 58.4894 32.7752C58.5789 32.4923 58.6883 32.2018 58.7941 31.9208C59.0847 31.1478 59.3852 30.3482 59.3482 29.5586C59.3474 29.5487 59.3493 29.5388 59.3539 29.5299C59.3585 29.521 59.3656 29.5136 59.3743 29.5083C59.383 29.5035 59.3929 29.501 59.4029 29.501C59.413 29.501 59.4229 29.5035 59.4316 29.5083L65.001 32.338C65.008 32.3416 65.0141 32.3465 65.019 32.3525C65.0239 32.3584 65.0275 32.3653 65.0296 32.3727C65.0315 32.3802 65.0317 32.3879 65.0304 32.3955C65.0291 32.4031 65.0262 32.4104 65.0218 32.4169L62.5879 35.9819C62.5823 35.9901 62.5745 35.9966 62.5653 36.0009C62.5561 36.0051 62.546 36.0069 62.5358 36.006L60.4139 35.805L61.1597 37.5239C61.1634 37.5327 61.1648 37.5422 61.1636 37.5516C61.1624 37.561 61.1588 37.57 61.153 37.5777C61.1061 37.639 56.443 43.7904 56.1435 47.1126C56.1423 47.1262 56.1359 47.139 56.1255 47.1483C56.1151 47.1576 56.1014 47.1628 56.0872 47.1629C56.0732 47.1617 56.0601 47.1556 56.0504 47.1457C56.0408 47.1357 56.0354 47.1227 56.0351 47.1091C55.994 45.6204 56.056 43.9773 56.2242 42.087C56.4073 39.9408 56.8104 37.8173 57.4274 35.7477ZM56.1315 46.4597C56.8607 43.1385 60.7337 37.9466 61.0415 37.5379L60.2712 35.7632C60.2673 35.7545 60.2659 35.7449 60.2671 35.7355C60.2683 35.726 60.272 35.7171 60.278 35.7095C60.2839 35.7017 60.2918 35.6956 60.3009 35.6917C60.3101 35.6878 60.3201 35.6863 60.33 35.6873L62.5124 35.8939L64.8932 32.4068L59.4654 29.647C59.4764 30.4281 59.1842 31.2051 58.9014 31.959C58.7972 32.2385 58.6873 32.5275 58.5982 32.8079C58.4477 33.2824 58.267 33.7558 58.0925 34.2152C57.8982 34.7249 57.6977 35.2516 57.5373 35.7808C56.9203 37.8433 56.5167 39.9598 56.3325 42.0991C56.1877 43.7135 56.1221 45.1494 56.1315 46.4597Z" fill="#00B4E3"/>
<path d="M62.0282 31.0342C62.4246 31.7992 62.9204 37.3942 62.1027 41.5548L61.3839 41.4588C61.3839 41.4588 62.7965 32.923 60.9381 30.1732C60.8558 30.0516 61.6319 30.2687 62.0282 31.0342Z" fill="#CCCCCC"/>
<path d="M60.9678 30.128C61.0532 30.128 61.2423 30.2039 61.4397 30.3416C61.6939 30.5201 61.9 30.7548 62.0408 31.0261C62.2866 31.5006 62.4788 33.4386 62.5345 35.0183C62.5866 36.4136 62.5955 39.1181 62.1178 41.5552L62.1152 41.5678L61.3694 41.4673V41.4537C61.373 41.4326 61.7241 39.2925 61.8434 36.8433C61.9533 34.5851 61.8835 31.5951 60.9256 30.1777C60.9213 30.1729 60.9186 30.1669 60.9177 30.1606C60.9169 30.1542 60.918 30.1478 60.9209 30.142C60.9282 30.133 60.9418 30.1275 60.9678 30.128ZM60.9496 30.1657C61.9116 31.589 61.9824 34.5851 61.872 36.8503C61.7574 39.198 61.4303 41.2622 61.4001 41.4497L62.0913 41.5416C62.5673 39.1105 62.5559 36.4151 62.508 35.0238C62.4418 33.1677 62.2309 31.4553 62.0168 31.0427C61.7043 30.4396 61.1548 30.1838 60.9907 30.1596C60.9822 30.1591 60.9737 30.1591 60.9652 30.1596C60.959 30.159 60.9528 30.1599 60.947 30.1621C60.9477 30.1634 60.9486 30.1646 60.9496 30.1657Z" fill="#181E4C"/>
<path d="M60.2362 41.3637C60.2077 40.7537 60.8462 40.2304 61.6623 40.1949C62.4784 40.1594 63.1631 40.6252 63.1916 41.2352C63.2201 41.8453 62.5816 42.3686 61.7655 42.4041C60.9493 42.4396 60.2647 41.9738 60.2362 41.3637Z" fill="#005C9B"/>
<path d="M61.9058 39.391C62.4913 39.3658 62.9829 39.7001 63.0033 40.1374C63.0236 40.5746 62.5652 40.9506 61.9798 40.9762C61.3944 41.0018 60.9032 40.6676 60.8829 40.2298C60.8626 39.7921 61.3204 39.4191 61.9058 39.391Z" fill="#007FC6"/>
<path d="M47.6604 34.5666L50.1542 42.4852L50.3662 45.9964C50.3662 45.9964 50.5803 47.3157 50.4746 48.2657L47.6604 41.1784L48.2105 40.525L47.1526 39.9123L45.6291 35.1235L45.9849 34.5078L47.6604 34.5666Z" fill="#D4EBF4"/>
<path d="M39.0742 43.5706C40.1862 44.1773 41.5742 46.2289 41.5742 46.2289L36.1897 46.5878L35.8834 43.8817C35.8834 43.8817 37.9621 42.964 39.0742 43.5706Z" fill="#00B4E3"/>
<path d="M34.6428 41.1278C35.4485 41.0504 38.4299 41.9365 38.5585 42.0144C40.4508 43.1553 41.5742 46.2278 41.5742 46.2278C41.5742 46.2278 33.3532 44.4093 32.9506 43.9741C32.548 43.5388 32.612 42.8543 32.612 42.8543C32.9344 41.8903 34.6428 41.1278 34.6428 41.1278Z" fill="#00B4E3"/>
<path d="M38.2786 43.1157C39.6958 43.8194 41.0105 45.3186 41.5079 46.1977C41.5079 46.1977 39.1016 43.6158 38.0677 43.6525C37.8741 43.6597 37.6828 43.6963 37.501 43.7611C36.0666 44.2682 36.3859 46.7119 37.5349 47.3708L46.5361 52.5371L42.4214 56.3026L30.0107 47.0084L30.1581 44.7798C30.1581 44.7798 36.8614 42.4131 38.2786 43.1157Z" fill="white"/>
<path d="M30.1397 44.728C30.1564 44.7219 31.8387 44.1299 33.6721 43.6313C36.1456 42.9593 37.7045 42.7693 38.3076 43.0673C39.742 43.778 41.0733 45.3105 41.5603 46.1714C41.5668 46.1833 41.5687 46.1971 41.5655 46.2102C41.5624 46.2234 41.5544 46.2349 41.5431 46.2428C41.5318 46.2506 41.5178 46.254 41.504 46.2526C41.4902 46.2511 41.4774 46.2448 41.4681 46.2348C41.4441 46.2091 39.1014 43.7077 38.093 43.7077H38.0722C37.8846 43.7146 37.6993 43.7501 37.5232 43.8127C36.819 44.064 36.6518 44.743 36.6148 45.1265C36.5289 46.0187 36.9378 46.9636 37.5664 47.3244L46.5667 52.4872C46.5743 52.4915 46.5807 52.4974 46.5855 52.5045C46.5903 52.5117 46.5933 52.5197 46.5944 52.5282C46.5954 52.5366 46.5943 52.5451 46.5913 52.5531C46.5883 52.5611 46.5835 52.5683 46.5771 52.5742L42.4624 56.3397C42.4519 56.3494 42.4379 56.3548 42.4233 56.3548C42.4107 56.3546 42.3985 56.3506 42.3884 56.3432L29.9777 47.049C29.9704 47.0435 29.9647 47.0363 29.9609 47.0282C29.9571 47.0201 29.9553 47.0112 29.9558 47.0023L30.1032 44.7737C30.1042 44.7635 30.1082 44.7539 30.1146 44.7458C30.1211 44.7377 30.1298 44.7315 30.1397 44.728ZM42.4186 56.2296L46.4432 52.5465L37.506 47.4199C36.8425 47.0395 36.4096 46.0498 36.4997 45.118C36.5664 44.4214 36.9248 43.9082 37.4821 43.7107C37.6694 43.6441 37.8664 43.6065 38.0659 43.5991H38.0894C38.8972 43.5991 40.4264 45.0265 41.1519 45.7523C40.5379 44.8978 39.4331 43.7499 38.2534 43.1664C36.9263 42.509 30.7371 44.638 30.2131 44.8199L30.0704 46.9811L42.4186 56.2296Z" fill="#00B4E3"/>
<path d="M37.3951 48.7906C37.7597 49.1047 38.7738 51.0257 39.1561 51.0815C39.1561 51.0815 39.2405 51.1001 39.3452 51.1121C39.4728 51.1272 39.6291 51.1322 39.6921 51.0815C39.8077 50.9895 41.626 49.3078 41.951 49.2721C42.1875 49.2454 42.3838 49.248 42.4573 49.3429C42.4731 49.3646 42.4839 49.3892 42.489 49.4152C42.4941 49.4412 42.4934 49.468 42.4869 49.4937C42.4489 49.734 40.7067 51.2664 40.726 51.4539C40.726 51.4539 40.8791 51.7308 41.2619 51.675C41.6447 51.6192 44.2865 50.1788 44.9381 50.6035C44.9381 50.6035 45.2245 50.6965 45.2433 50.8251C45.262 50.9538 42.3536 52.0631 42.2192 52.4144C42.2083 52.443 42.2166 52.4611 42.2416 52.4646C42.5203 52.543 44.8276 51.3971 45.5115 51.4142C46.2094 51.4318 46.3058 51.6268 46.2521 51.7268L46.2396 51.7459C46.1646 51.8364 43.3922 52.8768 43.2578 52.9275C43.362 52.8959 44.9703 52.3666 45.2193 52.2927C45.4985 52.2103 45.6787 52.1183 45.6318 52.3626C45.5797 52.6405 43.4062 53.4462 42.9088 53.7051C42.4114 53.9639 40.5348 54.7022 40.5348 54.7022C40.5348 54.7022 39.5009 55.0717 38.7738 54.8872C38.7738 54.8872 37.7498 54.5042 37.3951 53.7051C37.3566 53.6181 37.1655 51.8957 37.2618 51.1367C37.3582 50.3778 37.3186 49.6219 37.1655 49.2344C37.0123 48.8469 37.0311 48.477 37.3951 48.7906Z" fill="#FCA995"/>
<path d="M37.0755 48.6104C37.2187 48.5149 37.3994 48.6707 37.4588 48.7215C37.6151 48.8572 37.8645 49.2392 38.1521 49.681C38.4646 50.1605 38.9854 50.9636 39.1708 50.9878H39.1781C39.2373 51.0005 39.2971 51.0103 39.3573 51.0169C39.5828 51.0441 39.6323 51.0069 39.6328 51.0069C39.6505 50.9923 39.7281 50.9229 39.8266 50.835C41.1157 49.679 41.7282 49.2005 41.9407 49.1764C42.173 49.1502 42.4251 49.1427 42.5319 49.2814C42.556 49.3128 42.5729 49.3488 42.5814 49.3871C42.59 49.4253 42.5899 49.4648 42.5813 49.5031C42.56 49.6373 42.2834 49.9242 41.6579 50.548C41.337 50.8676 40.9047 51.2984 40.8297 51.4321C40.8785 51.4911 40.9432 51.536 41.0167 51.5618C41.0903 51.5876 41.1697 51.5933 41.2464 51.5783C41.3423 51.5643 41.6464 51.4311 41.998 51.2768C43.2954 50.7078 44.4981 50.2213 44.9783 50.5143C45.07 50.545 45.3116 50.642 45.3356 50.8053C45.3517 50.9119 45.2908 50.9561 44.2298 51.4311C43.6626 51.6859 42.6673 52.1347 42.3829 52.3569C42.6089 52.3001 43.0777 52.1146 43.4699 51.9598C44.2408 51.6547 45.1173 51.3089 45.5127 51.3185C45.959 51.33 46.233 51.413 46.3262 51.5648C46.3456 51.5947 46.3567 51.6289 46.3582 51.6641C46.3598 51.6994 46.3518 51.7344 46.3351 51.7658L46.3184 51.7919L46.3122 51.8005C46.296 51.8196 46.2679 51.8538 45.6111 52.1176C45.6347 52.1236 45.6565 52.135 45.6747 52.1508C45.746 52.2106 45.7366 52.3086 45.7236 52.3765C45.6835 52.583 45.084 52.868 43.7553 53.4289C43.4038 53.5797 43.1001 53.7059 42.9522 53.7807C42.4548 54.0386 40.6459 54.7518 40.5662 54.786C40.5318 54.798 39.8787 55.0282 39.237 55.0282C39.0724 55.0299 38.9082 55.0113 38.7484 54.9729L38.738 54.9699C38.6948 54.9538 37.6729 54.5638 37.3067 53.7385C37.2515 53.6134 37.0713 51.8713 37.1661 51.125C37.2588 50.3861 37.2229 49.6393 37.0755 49.2653C37.0296 49.1437 36.8874 48.7351 37.0755 48.6104ZM37.2546 49.2015C37.414 49.6036 37.4541 50.3696 37.3562 51.1471C37.2619 51.8909 37.4489 53.5596 37.4828 53.6682C37.8057 54.3949 38.7302 54.7704 38.8042 54.7995C39.4932 54.9709 40.4927 54.6196 40.4995 54.6171C40.5183 54.6095 42.3746 53.8772 42.8647 53.6239C43.0209 53.5435 43.3262 53.4138 43.6814 53.2636C44.2626 53.0183 45.472 52.5097 45.5392 52.3448C45.5427 52.3282 45.5448 52.3114 45.5455 52.2945C45.4804 52.3061 45.4165 52.3229 45.3543 52.3448L45.2502 52.3775C45.0882 52.4277 44.3231 52.675 43.8168 52.8404C43.5314 52.9334 43.3256 53.0007 43.2892 53.0118L43.2262 52.8394L43.2642 52.8253C44.9283 52.1985 46.033 51.7638 46.171 51.6814C46.1719 51.6778 46.1719 51.6741 46.1711 51.6705C46.1703 51.667 46.1687 51.6636 46.1663 51.6608C46.1518 51.6371 46.0517 51.518 45.5106 51.5039C45.1543 51.4949 44.2606 51.8482 43.5444 52.1317C42.711 52.4609 42.3595 52.5911 42.2188 52.5519C42.2013 52.5477 42.1848 52.54 42.1705 52.5294C42.1561 52.5187 42.1442 52.5053 42.1355 52.4901C42.1268 52.4728 42.122 52.454 42.1214 52.4349C42.1208 52.4158 42.1243 52.3967 42.1319 52.379C42.2183 52.1523 42.9881 51.7924 44.1527 51.2687C44.5507 51.0898 44.9955 50.8892 45.1309 50.8038C45.0655 50.7514 44.9904 50.7115 44.9095 50.6862L44.897 50.6827L44.8866 50.6756C44.4647 50.4002 42.9131 51.0807 42.0798 51.4461C41.6454 51.6366 41.3938 51.7477 41.2782 51.7618C40.8329 51.8261 40.6532 51.5064 40.6443 51.4929L40.6355 51.4768V51.4592C40.6235 51.3406 40.8141 51.132 41.5251 50.4238C41.8813 50.069 42.3688 49.583 42.3975 49.4774C42.4015 49.4638 42.4024 49.4495 42.4003 49.4354C42.3981 49.4214 42.3929 49.408 42.385 49.396C42.3584 49.3613 42.2641 49.3277 41.9657 49.3608C41.8574 49.3729 41.4209 49.6624 39.9584 50.9722C39.837 51.0807 39.7776 51.1335 39.7563 51.1506C39.6823 51.2094 39.5479 51.2265 39.3396 51.2009C39.2417 51.1893 39.1609 51.1727 39.1443 51.1692C38.8922 51.128 38.5417 50.6163 37.9984 49.777C37.7302 49.3648 37.4776 48.9753 37.3395 48.8567C37.2484 48.7783 37.2026 48.7647 37.1885 48.7627C37.1604 48.8019 37.1604 48.9613 37.2546 49.2015Z" fill="#FF866E"/>
<path d="M63.6924 85.7807C63.7172 85.7783 63.742 85.7854 63.7615 85.8004C63.7809 85.8155 63.7935 85.8373 63.7965 85.8612L66.1273 105.694C66.1287 105.706 66.1276 105.718 66.1242 105.729C66.1207 105.741 66.115 105.752 66.1073 105.761C66.0995 105.77 66.0899 105.778 66.0791 105.784C66.0682 105.79 66.0563 105.793 66.044 105.795H66.0331C66.0098 105.795 65.9875 105.786 65.9702 105.771C65.9529 105.756 65.9419 105.736 65.9393 105.714L63.6085 85.8808C63.606 85.8568 63.6134 85.8328 63.6291 85.8141C63.6448 85.7954 63.6676 85.7834 63.6924 85.7807ZM66.1299 107.045C66.1549 107.042 66.1798 107.05 66.1993 107.065C66.2187 107.08 66.2312 107.102 66.2341 107.126L67.0815 115.152C67.0828 115.164 67.0817 115.176 67.0781 115.187C67.0745 115.199 67.0686 115.209 67.0607 115.219C67.0528 115.228 67.0431 115.236 67.0321 115.242C67.0211 115.247 67.0091 115.251 66.9966 115.252H66.9873C66.9639 115.252 66.9413 115.244 66.9239 115.228C66.9066 115.213 66.8955 115.193 66.893 115.17L66.0461 107.145C66.0436 107.121 66.051 107.097 66.0667 107.078C66.0824 107.059 66.1051 107.047 66.1299 107.045Z" fill="white"/>
<path d="M53.1295 66.7434C53.1418 66.7425 53.1543 66.744 53.166 66.7478C53.1778 66.7515 53.1887 66.7575 53.1981 66.7654C53.2074 66.7732 53.2151 66.7828 53.2207 66.7935C53.2262 66.8042 53.2295 66.8159 53.2304 66.8278C53.2335 66.8711 53.5388 71.1503 53.6954 71.8745C53.7003 71.8982 53.6954 71.9229 53.6817 71.9431C53.668 71.9633 53.6465 71.9775 53.6221 71.9826C53.6157 71.9831 53.6092 71.9831 53.6028 71.9826C53.5811 71.9826 53.56 71.9753 53.5431 71.962C53.5263 71.9488 53.5146 71.9303 53.5102 71.9097C53.3516 71.1724 53.0546 67.0153 53.0421 66.8384C53.0409 66.8147 53.0494 66.7915 53.0657 66.7737C53.0821 66.756 53.1049 66.7451 53.1295 66.7434Z" fill="#002F55"/>
<path d="M45.7329 39.5343C45.7479 39.5356 45.7618 39.5426 45.7716 39.5537C45.7813 39.5648 45.7861 39.5791 45.785 39.5936L44.9959 48.9783C44.9947 48.992 44.9882 49.0048 44.9777 49.0142C44.9672 49.0235 44.9534 49.0286 44.9391 49.0286H44.935C44.9275 49.0281 44.9203 49.0261 44.9136 49.0229C44.9069 49.0197 44.901 49.0152 44.8962 49.0097C44.8913 49.0042 44.8877 48.9979 44.8854 48.991C44.8831 48.9842 44.8822 48.9769 44.8829 48.9698L45.672 39.5846C45.6732 39.5701 45.6802 39.5567 45.6917 39.5473C45.7031 39.5379 45.7179 39.5332 45.7329 39.5343Z" fill="#00B4E3"/>
<path d="M54.4861 36.457L54.6064 39.4088C54.6064 39.4088 53.8189 37.4859 52.8048 36.5304C52.8048 36.5304 53.9991 36.8732 54.4861 36.457Z" fill="#DBA703"/>
<path d="M54.1711 35.5393C54.2232 34.9975 53.38 33.834 53.38 33.834C53.4769 33.8727 54.8857 35.2835 54.8857 35.2835L54.4863 36.4561C54.1581 37.0673 52.805 36.5295 52.805 36.5295C52.805 36.5295 54.1191 36.0811 54.1711 35.5393Z" fill="#DBA703"/>
<path d="M52.04 34.7568L52.3682 35.7068L50.6936 37.7343L50.7265 36.2772L52.04 34.7568Z" fill="#0894BA"/>
<path d="M53.3799 33.8344L50.5053 37.4029L50.0037 31.7119C50.0037 31.7119 53.0533 33.9435 53.3799 33.8344Z" fill="white"/>
<path d="M49.9761 31.6642C49.9857 31.659 49.9967 31.6566 50.0077 31.6573C50.0187 31.6581 50.0292 31.6619 50.0381 31.6683C51.5246 32.7559 53.1751 33.844 53.3616 33.7827C53.3732 33.779 53.3857 33.7789 53.3973 33.7826C53.4089 33.7862 53.419 33.7933 53.4262 33.8028C53.4335 33.8122 53.4375 33.8237 53.4375 33.8355C53.4375 33.8473 53.4335 33.8588 53.4262 33.8682L50.5516 37.4367C50.5463 37.4433 50.5395 37.4486 50.5318 37.4522C50.524 37.4559 50.5155 37.4578 50.5068 37.4578C50.5015 37.4585 50.496 37.4585 50.4907 37.4578C50.4793 37.4546 50.4692 37.448 50.4619 37.439C50.4546 37.43 50.4505 37.419 50.4501 37.4075L49.948 31.7145C49.9475 31.7045 49.9498 31.6945 49.9548 31.6856C49.9597 31.6767 49.9671 31.6694 49.9761 31.6642ZM50.549 37.2603L53.2689 33.8822C53.0918 33.832 52.6678 33.6259 51.536 32.8589C50.911 32.4357 50.3047 31.9995 50.0698 31.8296L50.549 37.2603Z" fill="#00B4E3"/>
<path d="M50.1983 31.9404C50.1983 31.9404 50.516 33.6493 50.6608 35.3868C50.8056 37.1243 50.5566 47.7846 50.5566 47.7846C50.2441 45.2273 48.217 41.1406 48.217 41.1406L49.004 40.4611L47.8446 39.7821L45.981 34.5077C46.3694 34.3008 46.7771 34.1297 47.1987 33.9966C48.0316 33.7282 50.1983 31.9404 50.1983 31.9404Z" fill="white"/>
<path d="M45.9535 34.4607C46.3455 34.2525 46.7566 34.0797 47.1816 33.9445C47.9936 33.6831 50.14 31.9165 50.1614 31.8989C50.169 31.8926 50.1783 31.8884 50.1881 31.8867C50.198 31.8849 50.2082 31.8857 50.2176 31.8888C50.2271 31.8921 50.2354 31.8977 50.2418 31.9052C50.2482 31.9126 50.2525 31.9215 50.2541 31.9311C50.2572 31.9481 50.5744 33.662 50.7176 35.383C50.8609 37.1039 50.6171 47.6792 50.6135 47.7863C50.6131 47.7998 50.6076 47.8127 50.598 47.8225C50.5884 47.8324 50.5754 47.8384 50.5614 47.8396H50.5588C50.5446 47.8396 50.5309 47.8344 50.5204 47.8251C50.51 47.8158 50.5036 47.803 50.5025 47.7893C50.1963 45.2707 48.1884 41.2051 48.1681 41.1624C48.1628 41.1517 48.1611 41.1396 48.1635 41.1279C48.1658 41.1162 48.172 41.1056 48.1811 41.0976L48.9103 40.4678L47.8165 39.827C47.8052 39.8203 47.7965 39.81 47.792 39.7978L45.929 34.524C45.9251 34.5123 45.9255 34.4997 45.9299 34.4883C45.9343 34.4768 45.9426 34.4671 45.9535 34.4607ZM47.8926 39.7456L49.0343 40.4145C49.0419 40.419 49.0483 40.425 49.053 40.4323C49.0577 40.4395 49.0606 40.4477 49.0613 40.4563C49.0622 40.4648 49.0609 40.4735 49.0577 40.4815C49.0544 40.4896 49.0492 40.4967 49.0426 40.5025L48.2879 41.1559C48.3837 41.3519 48.8416 42.2993 49.3244 43.4855C49.7504 44.5319 50.2708 45.9523 50.5145 47.1706C50.5666 44.8752 50.7275 36.8672 50.6046 35.393C50.4807 33.9078 50.227 32.4276 50.1593 32.0456C49.7624 32.3693 47.9717 33.8048 47.2176 34.05C46.815 34.1789 46.4248 34.3411 46.0514 34.5351L47.8926 39.7456Z" fill="#00B4E3"/>
<path d="M51.2828 18.284C54.1595 19.1213 55.2199 22.0083 55.6059 24.2318C55.9126 26.0047 55.5295 27.8244 54.5303 29.3413C53.3589 31.124 51.5125 33.1108 49.5182 32.1021C47.2265 30.9411 45.664 26.6503 45.1363 24.2796C44.7598 22.5938 45.4671 21.1915 46.5332 19.8064C47.4697 18.5916 48.9687 17.6105 51.2828 18.284Z" fill="#FCA995"/>
<path d="M48.9398 30.3292C48.9596 30.3335 48.9789 30.3396 48.9976 30.3473C49.7726 30.6298 50.7602 30.1463 51.4518 29.6879C51.4747 29.6728 51.5029 29.667 51.5301 29.6719C51.5574 29.6768 51.5815 29.692 51.5972 29.714C51.6128 29.7361 51.6188 29.7633 51.6137 29.7895C51.6086 29.8158 51.5929 29.8391 51.5701 29.8542C50.994 30.2347 50.219 30.6318 49.4966 30.6318C49.3011 30.6336 49.107 30.6011 48.9236 30.5358L48.8992 30.5267C48.872 30.5216 48.8481 30.5063 48.8327 30.4841C48.8172 30.462 48.8116 30.4348 48.8169 30.4086C48.8222 30.3824 48.8381 30.3593 48.861 30.3445C48.884 30.3296 48.9121 30.3241 48.9393 30.3292H48.9398ZM49.6674 30.9122C49.7827 30.9433 49.9033 30.9521 50.0221 30.9384C50.2226 30.9198 50.5351 30.8379 50.8862 30.5644C50.8915 30.5603 50.8977 30.5572 50.9042 30.5553C50.9108 30.5534 50.9177 30.5528 50.9245 30.5535C50.9314 30.5542 50.938 30.5562 50.944 30.5594C50.95 30.5625 50.9553 30.5668 50.9596 30.572C50.9639 30.5771 50.9672 30.583 50.9691 30.5894C50.971 30.5957 50.9717 30.6024 50.9709 30.609C50.9702 30.6155 50.9681 30.6219 50.9649 30.6277C50.9616 30.6335 50.9572 30.6387 50.9518 30.6428C50.5289 30.9746 50.1549 31.0449 49.9138 31.0449C49.8184 31.047 49.7232 31.0343 49.632 31.0072C49.6189 31.0027 49.6083 30.9933 49.6024 30.9812C49.5965 30.9691 49.5958 30.9552 49.6005 30.9426C49.6052 30.93 49.6149 30.9198 49.6274 30.9141C49.64 30.9084 49.6544 30.9077 49.6674 30.9122ZM49.1815 27.0944C49.1827 27.0879 49.1852 27.0817 49.1889 27.0762C49.1925 27.0706 49.1973 27.0658 49.2029 27.062C49.2085 27.0582 49.2149 27.0555 49.2216 27.0541C49.2282 27.0527 49.2352 27.0526 49.2419 27.0537C49.2487 27.0548 49.2552 27.0572 49.261 27.0607C49.2668 27.0643 49.2719 27.0689 49.2758 27.0743C49.2798 27.0797 49.2826 27.0858 49.2841 27.0923C49.2856 27.0988 49.2858 27.1055 49.2846 27.112C49.2846 27.1226 49.2742 27.1623 49.2612 27.2221C48.8966 28.9114 48.8841 29.2903 48.9101 29.3657C48.9204 29.3879 48.9358 29.4075 48.9551 29.4231C48.9744 29.4387 48.9971 29.4498 49.0216 29.4557C49.2398 29.5331 49.7044 29.4703 49.9424 29.3315C49.9483 29.3271 49.955 29.3239 49.9623 29.3222C49.9695 29.3205 49.977 29.3203 49.9843 29.3216C49.9917 29.323 49.9986 29.3258 50.0047 29.3299C50.0108 29.3341 50.0159 29.3394 50.0196 29.3456C50.0234 29.3518 50.0257 29.3588 50.0265 29.3659C50.0272 29.3731 50.0264 29.3803 50.024 29.3871C50.0216 29.3939 50.0178 29.4001 50.0127 29.4054C50.0076 29.4106 50.0014 29.4147 49.9945 29.4175C49.8232 29.518 49.5257 29.5914 49.269 29.5914C49.1721 29.5937 49.0755 29.5797 48.9835 29.5502C48.9444 29.5398 48.9082 29.5207 48.8779 29.4946C48.8477 29.4684 48.8241 29.4358 48.8091 29.3994C48.757 29.2456 48.8695 28.5274 49.1565 27.203C49.1705 27.1427 49.1799 27.106 49.1815 27.0944ZM50.0919 25.5127C50.3482 25.2956 50.7664 24.985 51.0862 24.9569C51.4143 24.9282 51.8831 25.0709 52.1617 25.1705C52.1753 25.1754 52.1869 25.1845 52.1945 25.1964C52.2021 25.2084 52.2053 25.2224 52.2037 25.2363C52.2021 25.2502 52.1957 25.2632 52.1856 25.2733C52.1754 25.2833 52.1621 25.2897 52.1477 25.2916L51.8143 25.3343C51.4226 25.3845 51.0466 25.5153 50.7117 25.7178L50.2903 25.9726C50.2553 25.9939 50.2136 26.0025 50.1727 25.997C50.1317 25.9915 50.094 25.9722 50.0664 25.9425C50.0385 25.9128 50.0169 25.8781 50.0031 25.8403C49.9892 25.8025 49.9833 25.7624 49.9857 25.7224C49.9881 25.6824 49.9987 25.6433 50.0169 25.6073C50.0352 25.5713 50.0606 25.5391 50.0919 25.5127ZM46.7095 26.0505C47.0142 25.95 47.5267 26.0752 47.8512 26.1742C47.8909 26.1862 47.9276 26.2058 47.9593 26.2317C47.991 26.2577 48.017 26.2894 48.0358 26.3252C48.0546 26.361 48.0659 26.4 48.0689 26.44C48.0719 26.48 48.0666 26.5202 48.0533 26.5582C48.0404 26.596 48.014 26.6283 47.9789 26.6493C47.9437 26.6702 47.902 26.6785 47.8611 26.6728L47.3689 26.6024C46.978 26.5467 46.5793 26.5726 46.1996 26.6783L45.8767 26.7682C45.8627 26.7722 45.8477 26.7716 45.8342 26.7664C45.8206 26.7612 45.8093 26.7517 45.802 26.7395C45.7946 26.7274 45.7918 26.7132 45.7938 26.6993C45.7958 26.6853 45.8026 26.6725 45.8131 26.6627C46.0272 26.4627 46.397 26.151 46.7095 26.0505ZM50.6534 26.3466C50.7815 26.3159 50.9289 26.4596 50.9826 26.6672C51.0362 26.8748 50.9753 27.0693 50.8466 27.0995C50.718 27.1296 50.5706 26.9864 50.5169 26.7788C50.4633 26.5712 50.5247 26.3772 50.6534 26.3466Z" fill="black"/>
<path d="M51.6367 26.3343C50.9565 26.1835 50.3294 26.5629 50.3294 26.5629C50.758 25.6045 51.6367 26.3343 51.6367 26.3343ZM47.2106 27.2364C47.3392 27.2053 47.4866 27.349 47.5403 27.5571C47.5939 27.7652 47.5324 27.9592 47.4038 27.9888C47.2751 28.0185 47.1277 27.8763 47.0746 27.6682C47.0215 27.4601 47.0819 27.2671 47.2106 27.2364Z" fill="black"/>
<path d="M48.1113 27.3021C47.4311 27.1514 46.804 27.5303 46.804 27.5303C47.2327 26.5724 48.1113 27.3021 48.1113 27.3021Z" fill="black"/>
<path d="M43.4152 17.1693C45.6434 13.1897 50.5972 12.8092 51.6873 13.8154C51.6873 13.8154 53.7343 11.9598 57.3323 16.5692C60.2672 20.3292 58.2219 24.1716 57.0843 24.9497C55.9468 25.7277 55.6062 24.2319 55.6062 24.2319C54.8405 24.0309 51.6165 23.8027 51.2373 20.3262C51.2373 20.3262 50.2519 25.1633 44.534 24.6582C43.6048 24.5757 42.9954 23.659 43.3543 22.8277C43.3585 22.8171 43.3632 22.8066 43.3679 22.7965C43.3679 22.7965 40.5709 24.5345 38.3427 20.7861C38.3427 20.7836 41.1871 21.1495 43.4152 17.1693Z" fill="#002F55"/>
<path d="M47.1483 11.8548C49.4515 11.4668 51.6875 13.815 51.6875 13.815C51.437 14.1527 50.5854 14.2171 50.5854 14.2171C50.5854 14.2171 49.8364 12.6811 47.3363 12.3866C44.9024 12.0996 44.2962 14.2874 44.2962 14.2874C44.2962 14.2874 44.8446 12.2428 47.1483 11.8548Z" fill="#002F55"/>
<path d="M52.0869 14.0425L50.7431 14.2435C52.1291 12.7236 50.1759 10.8389 50.1759 10.8389C51.9421 11.9149 52.0869 14.0425 52.0869 14.0425ZM48.6196 24.4118L48.603 24.4183L48.6196 24.4118ZM50.4457 21.5474L50.503 20.0662L51.2369 20.3261C51.1556 20.4547 52.1885 23.0577 48.6196 24.4118C48.7868 24.3439 50.2119 23.7081 50.4457 21.5474Z" fill="#002F55"/>
<path d="M51.5285 21.5846C51.6905 22.1827 52.0249 23.002 52.7015 23.5091C53.3374 23.9861 54.1723 24.1152 55.1828 23.8936L55.2244 24.072C54.9133 24.1426 54.595 24.1793 54.2755 24.1816C53.6208 24.1816 53.0546 24.0052 52.5853 23.6533C52.0087 23.2211 51.5915 22.5406 51.3452 21.6308C51.2297 21.2053 51.162 20.7691 51.1431 20.3296L51.3322 20.3246C51.3507 20.7502 51.4165 21.1726 51.5285 21.5846ZM42.333 22.4682C42.333 22.4682 43.5679 21.463 43.3679 22.7969C43.3538 22.8919 42.3163 24.0484 39.5761 23.1779C39.5761 23.1779 41.4975 23.484 42.333 22.4682ZM54.4833 12.3673C55.7161 12.7639 56.6328 14.5029 56.6328 14.5029C56.6328 14.5029 55.0838 12.6116 53.9765 12.9167C52.8692 13.2217 52.7155 14.139 52.7155 14.139L51.6874 13.8183C51.6874 13.8183 53.2525 11.9708 54.4833 12.3673Z" fill="#002F55"/>
<path d="M53.2541 13.9231C55.5458 14.0121 57.1349 15.4777 58.0636 16.692C59.3464 18.3697 59.8688 19.9042 59.6157 21.2531C59.3459 22.6921 58.2901 23.3696 58.2454 23.3978L58.1412 23.2445C58.1516 23.2379 59.173 22.583 59.4282 21.221C59.6719 19.9232 59.161 18.436 57.9099 16.798C56.2755 14.661 54.4765 14.1533 53.2546 14.1041C51.929 14.0503 50.9743 14.5062 50.9629 14.5132L50.8769 14.3503C50.9207 14.3328 51.879 13.8699 53.2541 13.9231ZM42.9465 17.1996C43.4033 16.3231 43.8752 15.4164 44.683 14.6791C46.7664 12.7752 49.8108 13.2386 49.8394 13.2436L49.8082 13.4235C49.779 13.419 46.7966 12.9988 44.8112 14.8117C44.0273 15.5275 43.5611 16.4201 43.1137 17.2816C42.4262 18.6019 41.7152 19.967 39.8553 20.7053L39.7829 20.5364C41.5798 19.8242 42.2434 18.5491 42.9465 17.1996Z" fill="#002F55"/>
<path opacity="0.55" d="M43.8126 23.235C43.8485 23.235 47.4335 23.0059 48.6601 20.4345C48.6679 20.4184 48.6819 20.4059 48.6992 20.3998C48.7165 20.3936 48.7356 20.3944 48.7523 20.4019C48.769 20.4093 48.782 20.4229 48.7883 20.4396C48.7947 20.4563 48.7939 20.4747 48.7862 20.4908C48.1263 21.875 46.8101 22.5842 45.822 22.935C45.2908 23.1218 44.7407 23.2546 44.1808 23.331C44.5916 23.4141 45.0121 23.4428 45.4309 23.4165C46.3246 23.3662 47.7127 23.0571 49.2534 21.87C52.2561 19.558 51.1003 15.905 51.0878 15.8689C51.0832 15.8523 51.0854 15.8346 51.0938 15.8195C51.1023 15.8044 51.1164 15.793 51.1333 15.7876C51.1502 15.7822 51.1686 15.7832 51.1847 15.7905C51.2009 15.7977 51.2135 15.8107 51.2201 15.8266C51.2232 15.8357 51.5394 16.7942 51.4425 18.0652C51.3211 19.657 50.594 21.009 49.3403 21.975C47.7679 23.1868 46.346 23.5009 45.4309 23.5512C45.3267 23.5567 45.2225 23.5592 45.1288 23.5592C44.3116 23.5592 43.8162 23.3733 43.7933 23.3647C43.7786 23.359 43.7664 23.3486 43.7587 23.3353C43.7509 23.322 43.748 23.3065 43.7506 23.2915C43.7531 23.2764 43.7609 23.2626 43.7727 23.2523C43.7844 23.2421 43.7994 23.236 43.8152 23.235H43.8126ZM39.7021 21.5337C39.7187 21.5337 41.3881 21.7137 42.4844 20.5868C42.4907 20.5804 42.4982 20.5753 42.5065 20.5717C42.5148 20.5681 42.5238 20.5661 42.5329 20.5658C42.5421 20.5656 42.5511 20.567 42.5597 20.5702C42.5682 20.5733 42.576 20.578 42.5826 20.5841C42.5893 20.5901 42.5946 20.5973 42.5983 20.6054C42.6021 20.6134 42.6041 20.6221 42.6044 20.6309C42.6047 20.6396 42.6031 20.6484 42.5999 20.6566C42.5966 20.6649 42.5917 20.6724 42.5855 20.6788C41.8396 21.4458 40.8401 21.6337 40.2307 21.6709C41.8667 22.0469 42.8683 21.776 43.434 21.4619C44.1058 21.0894 44.3251 20.5773 44.3272 20.5717C44.3342 20.5553 44.3477 20.5422 44.3646 20.5353C44.3816 20.5283 44.4007 20.5281 44.4178 20.5345C44.4263 20.5378 44.434 20.5427 44.4405 20.5488C44.447 20.5549 44.4522 20.5622 44.4558 20.5703C44.4593 20.5784 44.4612 20.5871 44.4614 20.5958C44.4615 20.6046 44.4598 20.6133 44.4564 20.6215C44.4475 20.6441 44.2215 21.1744 43.5126 21.5734C42.9704 21.875 42.3459 21.9876 41.7209 21.9876C40.9943 21.9876 40.2677 21.8368 39.6739 21.6649C39.6575 21.6598 39.6436 21.6491 39.6349 21.6347C39.6262 21.6204 39.6233 21.6034 39.6268 21.5871C39.6303 21.5708 39.6399 21.5563 39.6538 21.5465C39.6677 21.5366 39.6849 21.5321 39.7021 21.5337Z" fill="#D4EBF4"/>
<path opacity="0.55" d="M43.987 22.4134C43.9985 22.4104 45.0949 22.0686 45.6537 20.6704C45.6572 20.6621 45.6622 20.6547 45.6686 20.6483C45.6751 20.642 45.6827 20.637 45.6912 20.6335C45.6996 20.63 45.7087 20.6282 45.7178 20.6281C45.727 20.628 45.7361 20.6296 45.7446 20.6329C45.7532 20.6362 45.7609 20.6411 45.7675 20.6473C45.774 20.6535 45.7793 20.6609 45.7829 20.669C45.7865 20.6772 45.7884 20.6859 45.7885 20.6948C45.7886 20.7036 45.7869 20.7124 45.7834 20.7206C45.4642 21.5248 44.9824 21.9887 44.6042 22.2485C46.3163 21.6957 46.759 20.7473 46.7637 20.7367C46.7664 20.7277 46.7711 20.7194 46.7773 20.7123C46.7836 20.7052 46.7913 20.6994 46.8001 20.6953C46.8088 20.6913 46.8183 20.689 46.828 20.6887C46.8377 20.6884 46.8473 20.6901 46.8563 20.6937C46.8653 20.6972 46.8734 20.7025 46.8801 20.7092C46.8868 20.716 46.892 20.724 46.8953 20.7328C46.8986 20.7416 46.8999 20.751 46.8992 20.7603C46.8985 20.7696 46.8958 20.7787 46.8913 20.787C46.8694 20.8372 46.3183 22.0279 44.0266 22.5426H44.011C43.9946 22.5423 43.9788 22.5364 43.9664 22.5259C43.954 22.5154 43.9459 22.5011 43.9434 22.4854C43.9409 22.4698 43.9442 22.4537 43.9528 22.4402C43.9613 22.4266 43.9746 22.4164 43.9902 22.4114L43.987 22.4134ZM52.2513 16.7445C52.2696 16.7427 52.2879 16.7479 52.3022 16.759C52.3166 16.7701 52.3258 16.7862 52.3279 16.8038C52.3326 16.846 52.8144 20.9156 55.3228 21.4278C54.9804 21.1144 54.6696 20.7705 54.3946 20.4005C53.7081 19.4646 53.4539 18.5514 53.6586 17.7598C53.6637 17.7431 53.6752 17.7289 53.6908 17.7203C53.7064 17.7116 53.7249 17.7091 53.7423 17.7132C53.7598 17.7174 53.7749 17.7279 53.7846 17.7425C53.7942 17.7572 53.7976 17.7749 53.7941 17.7919C53.3211 19.6179 55.5649 21.461 55.5884 21.4791C55.5999 21.4884 55.6079 21.5011 55.6114 21.5152C55.6148 21.5293 55.6135 21.5441 55.6077 21.5575C55.6022 21.5694 55.5932 21.5796 55.5818 21.5868C55.5705 21.5939 55.5572 21.5977 55.5436 21.5977H55.5358C54.3654 21.466 53.4154 20.5925 52.7878 19.0771C52.4947 18.3492 52.2938 17.5898 52.1893 16.8154C52.1882 16.7981 52.194 16.7811 52.2055 16.7679C52.2171 16.7547 52.2335 16.7463 52.2513 16.7445Z" fill="#D4EBF4"/>
<path d="M52.5272 29.1768C51.8805 29.0296 51.48 28.4042 51.6326 27.7802C51.7853 27.1561 52.4333 26.7696 53.08 26.9169C53.7267 27.0642 54.1272 27.6895 53.9746 28.3136C53.822 28.9376 53.174 29.3241 52.5272 29.1768Z" fill="#FF8871"/>
<path d="M52.9208 26.0153C52.9406 26.625 52.7687 27.2045 52.4364 27.6478C52.0983 28.1001 51.6353 28.3559 51.1343 28.371H51.0874C50.0801 28.371 49.2358 27.3769 49.1951 26.1289C49.1748 25.5197 49.3472 24.9397 49.679 24.4964C50.0176 24.0441 50.4806 23.7887 50.9837 23.7732C52.0098 23.742 52.8812 24.7477 52.9229 26.0148L52.9208 26.0153ZM49.4014 26.1229C49.4389 27.2623 50.19 28.1705 51.0853 28.1705H51.1254C51.5624 28.1574 51.9681 27.9302 52.2676 27.5307C52.5728 27.123 52.7307 26.5878 52.7119 26.0228C52.6749 24.8834 51.9233 23.9757 51.0285 23.9757H50.9879C50.5514 23.9888 50.1457 24.2165 49.8462 24.6155C49.5405 25.0226 49.3826 25.5579 49.4009 26.1229H49.4014ZM46.7149 24.4989C47.7217 24.2979 48.7571 25.1458 49.0227 26.3877C49.1504 26.9848 49.0837 27.5844 48.8347 28.076C48.5816 28.5786 48.1706 28.9058 47.6774 29.0038C47.5794 29.0232 47.4796 29.0329 47.3795 29.0329C46.4737 29.0329 45.6086 28.2343 45.3695 27.115C45.2419 26.5179 45.3091 25.9183 45.5575 25.4267C45.8107 24.9266 46.2216 24.5969 46.7149 24.4989ZM45.5742 27.0743C45.8164 28.2072 46.7409 28.9842 47.6352 28.8063C48.0633 28.7213 48.4227 28.4303 48.6472 27.9875C48.8759 27.5352 48.9363 26.9823 48.8181 26.4294C48.5993 25.4056 47.8227 24.6703 47.0149 24.6703C46.9274 24.6702 46.8401 24.6788 46.7545 24.696C46.3263 24.7809 45.9669 25.0719 45.743 25.5147C45.5169 25.967 45.456 26.5209 45.5742 27.0743Z" fill="black"/>
<path d="M48.9443 26.5872L49.3167 26.4947C49.3435 26.4881 49.372 26.492 49.3958 26.5055C49.4196 26.5191 49.4369 26.5413 49.4438 26.5671C49.4507 26.593 49.4467 26.6204 49.4326 26.6434C49.4186 26.6664 49.3956 26.6831 49.3688 26.6897L48.9964 26.7822C48.9879 26.7843 48.9791 26.7853 48.9704 26.7852C48.9449 26.7854 48.9202 26.7766 48.901 26.7604C48.8819 26.7442 48.8695 26.7218 48.8663 26.6974C48.8631 26.673 48.8693 26.6483 48.8836 26.628C48.898 26.6077 48.9196 26.5932 48.9443 26.5872ZM52.759 25.6383L55.1403 23.9023C55.1624 23.8862 55.1901 23.8791 55.2175 23.8828C55.2449 23.8864 55.2697 23.9004 55.2864 23.9216C55.3031 23.9429 55.3104 23.9697 55.3066 23.9961C55.3029 24.0226 55.2884 24.0465 55.2664 24.0626L52.8845 25.7991C52.8666 25.8124 52.8446 25.8196 52.822 25.8197C52.8058 25.8198 52.7897 25.8162 52.7751 25.8092C52.7606 25.8023 52.7479 25.7921 52.7382 25.7795C52.7299 25.769 52.7238 25.7569 52.7204 25.7441C52.717 25.7312 52.7162 25.7179 52.7181 25.7047C52.7201 25.6916 52.7247 25.679 52.7317 25.6676C52.7387 25.6562 52.748 25.6462 52.759 25.6383Z" fill="black"/>
<path d="M57.0546 22.582C58.8452 22.9645 57.6567 25.9374 55.292 26.7064L54.3264 25.2458C54.3264 25.2458 54.9368 22.1296 57.0546 22.582Z" fill="#FCA995"/>
<path d="M55.7152 22.7623C56.1178 22.5065 56.572 22.4296 57.0658 22.5351C57.6168 22.6527 57.9371 23.0202 57.9673 23.5695C58.0272 24.6471 56.9501 26.2197 55.3084 26.7535C55.3031 26.7544 55.2976 26.7544 55.2923 26.7535C55.2817 26.7534 55.2713 26.7502 55.2627 26.7442C55.254 26.7383 55.2475 26.73 55.2439 26.7203C55.2398 26.7079 55.241 26.6945 55.247 26.6829C55.253 26.6713 55.2635 26.6624 55.2761 26.658C56.8746 26.1383 57.9241 24.6144 57.8663 23.5725C57.8465 23.2177 57.6877 22.7683 57.0439 22.6281C56.5783 22.5276 56.1501 22.6005 55.7715 22.8417C54.7298 23.5042 54.3818 25.2356 54.3787 25.2542C54.379 25.2617 54.3775 25.2692 54.3743 25.2761C54.3712 25.283 54.3665 25.2891 54.3605 25.294C54.3546 25.2989 54.3476 25.3024 54.3401 25.3043C54.3326 25.3063 54.3247 25.3066 54.3171 25.3052C54.3094 25.3038 54.3022 25.3008 54.2959 25.2963C54.2896 25.2919 54.2844 25.2862 54.2808 25.2795C54.2771 25.2729 54.275 25.2656 54.2746 25.2581C54.2743 25.2506 54.2757 25.2431 54.2787 25.2361C54.352 24.9031 54.4553 24.5768 54.5876 24.2611C54.7907 23.7766 55.1511 23.1217 55.7152 22.7623Z" fill="#181E4C"/>
<path d="M55.7851 24.7277C56.1575 24.0441 56.6382 23.6179 57.1758 23.4953C57.1889 23.4925 57.2027 23.4948 57.2142 23.5017C57.2256 23.5085 57.2339 23.5194 57.2372 23.532C57.2399 23.5446 57.2375 23.5578 57.2304 23.5687C57.2233 23.5797 57.2121 23.5876 57.1992 23.5908C55.9653 23.8717 55.4856 25.7319 55.4804 25.752C55.4776 25.7625 55.4713 25.7719 55.4625 25.7787C55.4536 25.7855 55.4427 25.7894 55.4314 25.7897C55.4275 25.7902 55.4234 25.7902 55.4195 25.7897C55.4065 25.7863 55.3954 25.7783 55.3884 25.7673C55.3814 25.7562 55.3791 25.743 55.382 25.7304C55.4779 25.3829 55.6131 25.0467 55.7851 24.7277Z" fill="black"/>
<path d="M55.6192 25.1228C56.1056 25.0946 56.4291 24.9559 56.5791 24.7106C56.803 24.3462 56.5692 23.8562 56.5666 23.8532C56.5619 23.8472 56.5586 23.8403 56.557 23.833C56.5554 23.8256 56.5556 23.818 56.5574 23.8107C56.5593 23.8035 56.5628 23.7967 56.5677 23.7909C56.5727 23.7851 56.5789 23.7804 56.5859 23.7772C56.5929 23.774 56.6006 23.7724 56.6084 23.7725C56.6162 23.7725 56.6238 23.7742 56.6308 23.7775C56.6378 23.7808 56.6439 23.7856 56.6488 23.7914C56.6536 23.7973 56.657 23.8042 56.6588 23.8115C56.6692 23.8331 56.9192 24.3503 56.6671 24.7599C56.4983 25.0353 56.1463 25.1901 55.6254 25.2208H55.6223C55.6085 25.2212 55.5951 25.2163 55.585 25.2071C55.5749 25.198 55.5691 25.1854 55.5686 25.172C55.5682 25.1587 55.5733 25.1457 55.5828 25.136C55.5923 25.1263 55.6054 25.1207 55.6192 25.1203V25.1228Z" fill="black"/>
<path d="M48.7203 32.8358C48.7203 32.8358 48.9911 32.5453 49.1099 33.1303C49.2286 33.7154 48.9109 34.697 49.3135 35.7605C49.7161 36.824 49.863 37.8302 49.2693 38.8324C49.2693 38.8324 49.0745 38.843 49.1015 37.8161C49.1213 37.0622 49.287 36.6038 48.9776 35.8781C48.7665 35.3786 48.6323 34.852 48.5791 34.315C48.5791 34.315 47.5468 36.0067 47.2077 36.3133C46.8687 36.6199 46.4786 37.7096 46.4556 38.0981C46.4327 38.4866 46.0041 39.6491 45.7265 39.5878C45.7265 39.5878 45.5389 37.9488 46.5989 36.4968C47.6588 35.0448 48.614 33.2881 48.7203 32.8358Z" fill="#CCCCCC"/>
<path d="M48.7077 32.8353L48.7103 32.8298C48.7144 32.8253 48.804 32.7293 48.9082 32.7584C49.0124 32.7876 49.078 32.9092 49.1228 33.1299C49.1676 33.3505 49.152 33.6083 49.1348 33.9144C49.1061 34.4356 49.0707 35.0845 49.3259 35.7585C49.6692 36.6632 49.9322 37.7403 49.2806 38.8405L49.277 38.8465H49.2702C49.2531 38.8452 49.2371 38.8375 49.2259 38.8249C49.166 38.7691 49.0697 38.5635 49.0884 37.8197C49.0931 37.6262 49.1077 37.4548 49.1218 37.2889C49.1624 36.8054 49.1947 36.4239 48.9655 35.8862C48.7605 35.3975 48.6272 34.8835 48.5697 34.3592C48.4181 34.606 47.5306 36.042 47.2154 36.3259C47.0654 36.4616 46.8863 36.7743 46.7233 37.1829C46.5805 37.5417 46.4779 37.9112 46.4675 38.1021C46.4498 38.4263 46.1227 39.3692 45.8493 39.5677C45.8212 39.5908 45.7861 39.6044 45.7493 39.6064C45.741 39.6065 45.7328 39.6054 45.7248 39.6034H45.7159V39.5949C45.7159 39.5783 45.5394 37.9363 46.5899 36.4953C47.6483 35.0403 48.604 33.2726 48.7077 32.8353ZM45.7389 39.5793C45.7734 39.5802 45.8069 39.5684 45.8326 39.5461C46.1008 39.3511 46.4227 38.4198 46.4404 38.0996C46.4509 37.9056 46.5545 37.5332 46.6977 37.1723C46.8623 36.7602 47.0436 36.444 47.1967 36.3063C47.5306 36.0048 48.5556 34.3276 48.566 34.311L48.5874 34.2758L48.59 34.3165C48.6439 34.8516 48.7778 35.3764 48.9874 35.8746C49.2191 36.4179 49.1848 36.8215 49.1436 37.2894C49.1296 37.4548 49.115 37.6257 49.1103 37.8182C49.0869 38.6997 49.228 38.8068 49.2587 38.8199C49.8989 37.7307 49.6374 36.6657 49.2973 35.7665C49.04 35.0875 49.0759 34.4361 49.1046 33.9124C49.1217 33.6109 49.1358 33.346 49.0931 33.1344C49.0504 32.9228 48.9832 32.8052 48.8967 32.7826C48.8103 32.7599 48.7405 32.8328 48.728 32.8444C48.6176 33.3002 47.6821 35.0332 46.6071 36.5064C45.6081 37.88 45.7279 39.4426 45.7409 39.5783L45.7389 39.5793Z" fill="#181E4C"/>
<path d="M46.0894 38.438C46.7451 37.3926 47.2582 36.5401 48.2556 36.6502C49.253 36.7603 49.3957 38.5481 49.339 39.2356C49.2822 39.9232 49.5286 42.8006 49.5119 43.5681C49.4937 44.3964 48.7973 46.0309 47.9707 45.8921C47.9707 45.8921 47.4009 45.6167 47.5717 45.5071C47.7426 45.3976 48.3728 45.6182 48.8567 44.3009C49.3254 43.0223 48.9113 40.2529 48.94 39.124C48.9686 37.9952 48.5978 36.126 47.4009 37.7489C46.204 39.3718 46.2889 39.5915 46.2029 40.1695C46.117 40.7475 46.2884 41.9572 45.6331 43.2499C44.9779 44.5426 44.6638 46.1932 45.9748 46.1108C45.9748 46.1108 46.3738 46.0007 46.3738 46.4958C46.3738 46.4958 44.892 46.633 44.5784 45.7253C44.2649 44.8176 45.2909 43.1117 45.4639 41.9849C45.6368 40.858 45.4337 39.4829 46.0894 38.438Z" fill="#005C9B"/>
<path d="M46.3713 46.4969C46.1184 46.4969 45.9134 46.2991 45.9134 46.0551C45.9134 45.8111 46.1184 45.6133 46.3713 45.6133C46.6241 45.6133 46.8291 45.8111 46.8291 46.0551C46.8291 46.2991 46.6241 46.4969 46.3713 46.4969Z" fill="#FDC500"/>
<path d="M47.6534 45.2393C47.7426 45.2392 47.8297 45.2646 47.9039 45.3123C47.978 45.36 48.0359 45.4279 48.07 45.5073C48.1042 45.5867 48.1132 45.6741 48.0959 45.7585C48.0786 45.8429 48.0357 45.9204 47.9727 45.9813C47.9097 46.0421 47.8295 46.0836 47.7421 46.1004C47.6546 46.1172 47.564 46.1086 47.4817 46.0757C47.3993 46.0428 47.3289 45.9871 47.2794 45.9156C47.2299 45.8441 47.2034 45.76 47.2034 45.674C47.2034 45.6169 47.2149 45.5604 47.2375 45.5077C47.2601 45.4549 47.2933 45.407 47.3351 45.3666C47.3768 45.3262 47.4265 45.2942 47.4811 45.2724C47.5357 45.2505 47.5943 45.2393 47.6534 45.2393Z" fill="#FDC500"/>
<path d="M68.0902 120.12L71.7471 126.775C70.1278 132.622 63.4927 128.69 63.4927 128.69C62.9718 126.674 63.3364 121.28 63.3885 121.078C64.0177 118.649 68.0902 120.12 68.0902 120.12Z" fill="#005691"/>
<path d="M27.4149 45.0484C27.6624 44.2679 28.087 43.5504 28.6578 42.9481C29.2287 42.3458 29.9314 41.8737 30.715 41.5664L31.2536 41.3553C33.2292 40.5798 35.4954 40.5245 37.5215 41.1678C39.6465 41.8428 40.9929 44.2528 41.5361 46.2095C41.5361 46.2095 40.0116 42.8923 38.3522 42.159C37.6323 41.8392 36.8605 41.6419 36.0709 41.5759C35.1959 41.5041 34.1792 41.8589 33.475 42.3575C33.2663 42.4959 33.1061 42.6922 33.0156 42.9204C32.7844 43.5778 33.3213 44.3066 33.575 44.8856C33.8354 45.4802 34.1078 46.0697 34.3891 46.6553C34.9339 47.7912 35.5094 48.9135 36.0829 50.0363C36.212 50.2876 36.3407 50.5389 36.4714 50.7902L30.1796 53.6113C30.1796 53.6113 28.4337 49.7086 27.5946 47.2886C27.3457 46.5708 27.1649 45.8345 27.3941 45.1108L27.4149 45.0484Z" fill="white"/>
<path d="M27.36 45.0343C27.6084 44.245 28.0367 43.5194 28.6135 42.9107C29.1903 42.3019 29.901 41.8254 30.6934 41.516L31.2319 41.305C33.1934 40.535 35.4919 40.4666 37.5389 41.116C38.5248 41.4291 39.4097 42.1212 40.1681 43.1767C40.7816 44.0311 41.2869 45.1016 41.5905 46.1953C41.5946 46.2087 41.5931 46.2231 41.5865 46.2355C41.5799 46.248 41.5687 46.2575 41.555 46.2622C41.5414 46.2669 41.5265 46.2663 41.5132 46.2607C41.5 46.2551 41.4894 46.2449 41.4838 46.232C41.4686 46.1988 39.9488 42.9269 38.3279 42.2112C37.6143 41.8935 36.8489 41.6979 36.0659 41.6332C35.2659 41.5673 34.2627 41.8699 33.5085 42.4042C33.3565 42.5117 33.157 42.6921 33.0695 42.9404C32.8965 43.4315 33.1789 43.9788 33.4278 44.4613C33.5013 44.6036 33.5705 44.7378 33.6268 44.8669C33.869 45.4198 34.1346 45.9983 34.4403 46.6346C34.9482 47.6931 35.4914 48.7571 36.0169 49.7859L36.1336 50.0146C36.2621 50.2666 36.3914 50.5179 36.5216 50.7685C36.5252 50.775 36.5274 50.7822 36.5279 50.7896C36.5284 50.7969 36.5274 50.8043 36.5248 50.8112C36.5223 50.8182 36.5184 50.8246 36.5133 50.83C36.5082 50.8355 36.502 50.8399 36.4951 50.8429L30.2033 53.664C30.1958 53.6675 30.1876 53.6694 30.1793 53.6696C30.1723 53.6696 30.1654 53.6682 30.159 53.6655C30.1518 53.6632 30.1453 53.6594 30.1398 53.6544C30.1343 53.6493 30.13 53.6432 30.1272 53.6364C30.1095 53.5972 28.3709 49.7035 27.5407 47.3091C27.2959 46.6054 27.1021 45.8465 27.3396 45.0976L27.36 45.0343ZM27.6485 47.2754C28.4251 49.515 29.9991 53.071 30.2085 53.5419L36.394 50.768C36.2722 50.5335 36.1506 50.2989 36.0294 50.0644L35.9128 49.8362C35.3872 48.8064 34.8435 47.7418 34.3351 46.6823C34.0289 46.045 33.7622 45.4655 33.52 44.9112C33.4648 44.785 33.3966 44.6523 33.3242 44.5121C33.0637 44.0095 32.7715 43.441 32.9596 42.9068C33.0533 42.6676 33.2207 42.4618 33.4393 42.3172C34.2143 41.7684 35.2482 41.4577 36.0732 41.5256C36.8693 41.5913 37.6476 41.7899 38.3733 42.1126C39.5967 42.6549 40.7275 44.5392 41.2629 45.5475C40.9755 44.7311 40.5752 43.956 40.0728 43.243C39.329 42.2086 38.4634 41.5296 37.5014 41.224C35.48 40.5822 33.2096 40.6501 31.2725 41.41L30.734 41.6216C29.9574 41.9245 29.2609 42.3913 28.6956 42.9878C28.1302 43.5842 27.7104 44.2951 27.4667 45.0685L27.4464 45.1328C27.2198 45.8525 27.4094 46.5868 27.6485 47.2754Z" fill="#00B4E3"/>
<path d="M66.7028 119.562C66.7266 119.554 66.7526 119.556 66.7751 119.567C66.7975 119.578 66.8146 119.597 66.8226 119.62L68.4893 124.47C68.4972 124.493 68.4954 124.518 68.4841 124.54C68.4729 124.561 68.4532 124.578 68.4294 124.585C68.4198 124.588 68.4098 124.59 68.3997 124.59C68.3798 124.59 68.3604 124.584 68.3442 124.572C68.328 124.561 68.3159 124.545 68.3096 124.527L66.6429 119.677C66.635 119.654 66.6368 119.629 66.6481 119.608C66.6593 119.586 66.679 119.57 66.7028 119.562ZM65.4757 119.535C65.5006 119.532 65.5256 119.539 65.5451 119.554C65.5646 119.57 65.5771 119.592 65.5799 119.616L66.1674 124.692C66.1688 124.704 66.1678 124.716 66.1644 124.727C66.161 124.739 66.1552 124.75 66.1475 124.759C66.1397 124.768 66.1301 124.776 66.1192 124.782C66.1083 124.788 66.0964 124.791 66.084 124.792H66.0736C66.0504 124.792 66.0279 124.784 66.0105 124.769C65.9931 124.754 65.982 124.734 65.9793 124.712L65.3918 119.635C65.3892 119.611 65.3965 119.587 65.4123 119.568C65.428 119.549 65.4508 119.537 65.4757 119.535Z" fill="white"/>
<path d="M65.1361 121.596L67.345 120.28C67.3662 120.269 67.391 120.267 67.4143 120.273C67.4375 120.279 67.4575 120.293 67.4702 120.313C67.4829 120.333 67.4873 120.356 67.4825 120.379C67.4777 120.402 67.4641 120.422 67.4445 120.436L65.2355 121.751C65.225 121.758 65.213 121.763 65.2003 121.766C65.1876 121.768 65.1745 121.768 65.1618 121.766C65.1491 121.763 65.1371 121.759 65.1265 121.751C65.1158 121.744 65.1069 121.735 65.1 121.724C65.0932 121.714 65.0888 121.702 65.0869 121.69C65.085 121.677 65.0858 121.665 65.0892 121.652C65.0925 121.64 65.0984 121.629 65.1065 121.619C65.1146 121.61 65.1246 121.602 65.1361 121.596Z" fill="white"/>
<path d="M65.1343 120.231L67.9067 121.545C67.9258 121.555 67.9412 121.57 67.9503 121.588C67.9594 121.607 67.9617 121.628 67.9569 121.648C67.9521 121.668 67.9404 121.686 67.9237 121.699C67.9071 121.712 67.8864 121.719 67.8651 121.719C67.8506 121.719 67.8363 121.716 67.8234 121.709L65.0504 120.394C65.0278 120.384 65.0106 120.365 65.0025 120.342C64.9944 120.319 64.9961 120.294 65.0072 120.272C65.0183 120.25 65.0379 120.233 65.0618 120.226C65.0856 120.218 65.1117 120.219 65.1343 120.23V120.231ZM65.6067 123.274L67.8171 121.959C67.8277 121.952 67.8397 121.947 67.8524 121.944C67.865 121.942 67.8781 121.942 67.8908 121.944C67.9035 121.947 67.9156 121.951 67.9262 121.959C67.9368 121.966 67.9458 121.975 67.9526 121.986C67.9594 121.996 67.9639 122.008 67.9658 122.02C67.9677 122.033 67.9669 122.045 67.9635 122.058C67.9602 122.07 67.9542 122.081 67.9462 122.091C67.9381 122.1 67.928 122.109 67.9166 122.114L65.7077 123.43C65.692 123.439 65.674 123.444 65.6556 123.443C65.6348 123.444 65.6143 123.438 65.5975 123.426C65.5806 123.414 65.5682 123.397 65.5623 123.378C65.5564 123.359 65.5572 123.338 65.5646 123.319C65.5721 123.3 65.5858 123.284 65.6035 123.274H65.6067Z" fill="white"/>
<path d="M65.6042 121.909L68.3772 123.224C68.3997 123.235 68.4168 123.254 68.4249 123.277C68.433 123.3 68.4314 123.325 68.4204 123.347C68.4124 123.362 68.4001 123.374 68.385 123.383C68.37 123.392 68.3526 123.397 68.335 123.397C68.3205 123.397 68.3062 123.394 68.2933 123.387L65.5208 122.072C65.5001 122.06 65.4846 122.042 65.4776 122.019C65.4707 121.997 65.4727 121.973 65.4832 121.953C65.4938 121.932 65.5122 121.916 65.5346 121.907C65.5571 121.899 65.582 121.899 65.6042 121.908V121.909ZM65.1854 124.413C66.2568 124.016 67.2772 123.74 67.9115 123.828C69.0095 123.979 71.3814 126.119 71.7471 126.774C72.0023 127.231 71.597 128.91 71.3304 129.888C71.2744 130.096 71.1504 130.281 70.9767 130.415C70.8023 130.552 70.5874 130.631 70.3632 130.642L64.6443 130.909C64.6443 130.909 63.9005 130.928 63.4838 129.517C63.2474 128.722 63.2869 127.545 63.3875 126.501C63.4703 125.609 64.3203 124.734 65.1854 124.413Z" fill="white"/>
<path d="M65.1512 124.328C66.4398 123.851 67.3471 123.658 67.9248 123.738C69.0602 123.895 71.4665 126.084 71.8311 126.732C71.9728 126.986 72.017 127.743 71.4207 129.911C71.3599 130.138 71.2245 130.34 71.0347 130.487C70.8451 130.636 70.6109 130.722 70.3665 130.733L64.6455 131H64.6413C64.5695 131 63.8111 130.966 63.3913 129.543C63.1918 128.872 63.159 127.874 63.2918 126.494C63.3856 125.5 64.32 124.637 65.1512 124.328ZM63.5726 129.492C63.9601 130.806 64.6335 130.818 64.6372 130.818L70.3561 130.551C70.5605 130.542 70.7565 130.469 70.9149 130.344C71.0732 130.222 71.1861 130.054 71.2368 129.864C71.6832 128.242 71.8384 127.132 71.6634 126.819C71.3228 126.208 68.9618 124.066 67.8977 123.919C67.8171 123.908 67.7358 123.903 67.6544 123.904C67.1049 123.904 66.2877 124.105 65.2195 124.499C64.4304 124.792 63.5637 125.624 63.4793 126.509C63.3486 127.868 63.3793 128.843 63.5726 129.492Z" fill="#133054"/>
<path d="M43.1484 117.263C43.7375 117.098 44.3287 116.941 44.9063 116.743L50.2189 114.921L53.6471 115.508L54.2456 118.952C54.2704 119.095 54.2647 119.241 54.2289 119.381C54.1931 119.522 54.1279 119.654 54.0374 119.769C53.9469 119.884 53.8329 119.98 53.7025 120.051C53.572 120.123 53.4279 120.167 53.2789 120.183L46.0261 120.937L39.9129 121.662C39.9129 121.662 40.5609 117.987 43.1484 117.263Z" fill="#005691"/>
<path d="M40.3938 120.973L54.2286 118.873L54.4932 120.494L40.1079 122.678L39.9298 121.586C39.9185 121.516 39.9216 121.445 39.9388 121.376C39.956 121.308 39.9871 121.243 40.0302 121.186C40.0733 121.13 40.1276 121.081 40.19 121.045C40.2524 121.008 40.3217 120.984 40.3938 120.973Z" fill="white"/>
<path d="M40.3783 120.883L54.3078 118.768L54.6016 120.571L40.0298 122.782L39.8371 121.599C39.8238 121.518 39.8272 121.435 39.8471 121.355C39.8671 121.274 39.9033 121.199 39.9535 121.132C40.0038 121.066 40.0672 121.009 40.14 120.966C40.2129 120.923 40.2939 120.894 40.3783 120.882V120.883ZM40.0251 121.572L40.1882 122.573L54.3839 120.418L54.1489 118.978L40.408 121.064C40.3483 121.073 40.291 121.093 40.2395 121.124C40.1879 121.154 40.1431 121.194 40.1076 121.241C40.072 121.288 40.0464 121.342 40.0323 121.399C40.0181 121.455 40.0157 121.514 40.0251 121.572Z" fill="#133054"/>
<path d="M54.175 103.657L54.2271 102.526C54.2271 102.526 54.2099 102.957 54.175 103.657ZM52.5198 114.834C53.5531 114.26 54.0302 106.591 54.175 103.657L53.6453 115.509C50.8166 117.194 50.2171 114.921 50.2171 114.921C50.2171 114.921 51.2406 115.545 52.5198 114.834ZM61.7304 105.856C62.7304 105.161 64.4992 105.856 64.5742 105.883C64.5931 105.891 64.6089 105.904 64.6193 105.921C64.6297 105.938 64.6341 105.958 64.6319 105.978C64.6296 105.997 64.6209 106.016 64.6069 106.03C64.593 106.045 64.5746 106.054 64.5544 106.058C64.5477 106.058 63.8497 106.178 63.145 106.259C62.8042 106.302 62.4611 106.326 62.1174 106.332C61.6111 106.332 61.569 106.235 61.5445 106.174C61.4799 106.031 61.6617 105.904 61.7304 105.856ZM64.1576 105.938C63.6029 105.774 62.5065 105.542 61.8408 106.004C61.7967 106.031 61.7578 106.065 61.7257 106.105C61.8898 106.204 62.9263 106.131 64.1576 105.938ZM61.8393 104.699C63.0211 104.25 64.5201 104.745 64.5836 104.766C64.596 104.769 64.6076 104.775 64.6176 104.783C64.6276 104.791 64.6358 104.801 64.6417 104.812C64.6477 104.823 64.6512 104.835 64.6521 104.847C64.653 104.86 64.6513 104.872 64.647 104.884C64.6428 104.896 64.6361 104.907 64.6273 104.916C64.6186 104.925 64.608 104.932 64.5962 104.937C64.5844 104.943 64.5717 104.945 64.5587 104.945C64.5458 104.946 64.533 104.943 64.5211 104.938C64.5065 104.933 63.0258 104.444 61.9085 104.87C61.8969 104.874 61.8846 104.876 61.8721 104.876C61.8597 104.876 61.8474 104.873 61.836 104.868C61.8246 104.863 61.8142 104.856 61.8056 104.848C61.797 104.839 61.7902 104.829 61.7856 104.818C61.7811 104.807 61.7788 104.795 61.7791 104.783C61.7793 104.771 61.782 104.759 61.787 104.748C61.792 104.737 61.7992 104.727 61.8081 104.718C61.8171 104.71 61.8277 104.704 61.8393 104.699ZM49.2551 89.9245C49.3072 89.8974 49.4212 89.8743 49.5613 90.0185C50.1207 90.597 53.1114 92.3923 53.1416 92.4104C53.1592 92.4211 53.1726 92.4369 53.1799 92.4556C53.1872 92.4743 53.1879 92.4948 53.182 92.5139C53.1761 92.5331 53.1639 92.5498 53.1472 92.5616C53.1305 92.5734 53.1103 92.5796 53.0896 92.5793H53.0828C51.8328 92.4949 50.8312 92.1968 50.1088 91.6932C49.3676 91.177 49.1822 90.6292 49.1369 90.4181C49.0863 90.1718 49.1296 89.9874 49.2551 89.9245ZM49.327 90.3915C49.4598 90.98 50.053 91.4288 50.2317 91.552C50.8484 91.9782 51.6791 92.2501 52.7057 92.3627C51.8973 91.8696 49.8905 90.6262 49.4244 90.1432C49.3723 90.0874 49.3431 90.0874 49.3436 90.0869C49.3264 90.0954 49.2811 90.1899 49.3264 90.3915H49.327ZM50.0713 93.0115C51.2973 93.6604 53.1484 93.2835 53.1666 93.2794C53.1791 93.276 53.1922 93.2751 53.205 93.2767C53.2179 93.2783 53.2302 93.2825 53.2413 93.2889C53.2525 93.2954 53.2621 93.3039 53.2696 93.3141C53.2772 93.3243 53.2825 93.3358 53.2853 93.348C53.288 93.3602 53.2881 93.3729 53.2856 93.3851C53.2831 93.3974 53.278 93.409 53.2707 93.4193C53.2633 93.4296 53.2538 93.4384 53.2428 93.445C53.2318 93.4516 53.2196 93.456 53.2067 93.4579C52.8373 93.5276 52.4623 93.5664 52.0859 93.574H51.9322C51.3593 93.574 50.5994 93.4971 49.9801 93.1694C49.9692 93.1636 49.9596 93.1558 49.9519 93.1464C49.9441 93.1371 49.9383 93.1264 49.9349 93.1149C49.9314 93.1034 49.9304 93.0913 49.9317 93.0794C49.9331 93.0675 49.9369 93.056 49.9429 93.0455C49.9488 93.035 49.9569 93.0257 49.9666 93.0182C49.9763 93.0107 49.9874 93.0052 49.9993 93.0018C50.0113 92.9985 50.0238 92.9975 50.0361 92.9988C50.0484 93.0001 50.0604 93.0038 50.0713 93.0095V93.0115Z" fill="#002F55"/>
<path d="M51.8694 70.4551C51.8818 70.4554 51.8941 70.4581 51.9055 70.463C51.9168 70.4679 51.9271 70.4749 51.9357 70.4836C51.9442 70.4924 51.9509 70.5026 51.9554 70.5139C51.9598 70.5251 51.9619 70.5371 51.9616 70.5491L51.3991 91.6038C51.5246 91.9385 53.0319 95.9805 53.0871 97.045C53.1429 98.1231 52.5496 113.246 52.5246 113.889C52.5235 113.913 52.5131 113.935 52.4954 113.951C52.4778 113.968 52.4543 113.977 52.4298 113.977H52.4262C52.4012 113.976 52.3776 113.965 52.3605 113.948C52.3435 113.93 52.3343 113.906 52.335 113.882C52.3413 113.724 52.9538 98.1241 52.8981 97.054C52.8434 95.994 51.2314 91.6932 51.2152 91.65C51.2112 91.6392 51.2093 91.6278 51.2095 91.6163L51.7746 70.544C51.775 70.5201 51.7852 70.4974 51.803 70.4807C51.8207 70.464 51.8446 70.4548 51.8694 70.4551Z" fill="white"/>
<path d="M57.7121 88.5113C57.7939 88.452 57.834 88.4922 58.0933 88.75C58.7704 89.4245 60.5767 91.2163 62.7955 91.3812C62.8195 91.3835 62.8416 91.3944 62.8575 91.4118C62.8733 91.4292 62.8818 91.4518 62.881 91.475C62.8803 91.4982 62.8705 91.5202 62.8535 91.5367C62.8366 91.5531 62.8138 91.5628 62.7898 91.5636H62.7648C62.1461 91.5526 61.5315 91.4646 60.9361 91.3018C59.6074 90.9404 58.6095 90.2463 58.0496 89.2964C57.9121 89.0627 57.8173 88.9013 57.7579 88.7938C57.6798 88.6535 57.6329 88.5686 57.7121 88.5113ZM58.2142 89.2064C58.8991 90.3699 60.1314 90.9108 61.1439 91.1626C59.7673 90.5971 58.6814 89.5894 58.1084 89.0265L58.2142 89.2064ZM59.5694 92.4251C60.8538 93.1197 62.9492 92.4251 62.9705 92.4186C62.9943 92.4106 63.0204 92.412 63.0431 92.4226C63.0657 92.4331 63.0831 92.4519 63.0914 92.4749C63.0997 92.4978 63.0982 92.523 63.0872 92.5448C63.0763 92.5667 63.0568 92.5835 63.033 92.5915C62.6237 92.7201 62.203 92.8123 61.7762 92.8669C61.5231 92.8997 61.2681 92.9165 61.0127 92.9172C60.4028 92.9172 59.8882 92.8056 59.4767 92.5834C59.4547 92.5716 59.4386 92.5518 59.4317 92.5284C59.4249 92.505 59.428 92.48 59.4402 92.4588C59.4525 92.4376 59.4731 92.422 59.4973 92.4154C59.5215 92.4088 59.5475 92.4117 59.5694 92.4236V92.4251Z" fill="#002F55"/>
<path d="M43.5751 118.207C43.8225 118.119 49.6356 116.046 49.883 115.964C49.9065 115.958 49.9317 115.961 49.9533 115.971C49.9749 115.982 49.9913 116.001 49.999 116.023C50.0068 116.046 50.0052 116.07 49.9948 116.092C49.9843 116.113 49.9658 116.129 49.9429 116.138C49.6981 116.216 43.7011 118.357 43.6407 118.378C43.6301 118.382 43.619 118.384 43.6079 118.384C43.5858 118.384 43.5645 118.376 43.5477 118.362C43.5308 118.349 43.5195 118.33 43.5156 118.309C43.5117 118.288 43.5155 118.266 43.5264 118.248C43.5372 118.229 43.5544 118.215 43.5751 118.207Z" fill="white"/>
<path d="M65.1851 124.412C66.2565 124.016 67.2977 123.821 67.9321 123.91C67.9321 123.91 64.7747 125.4 64.5075 127.643C64.2653 129.681 70.0426 130 71.0801 130.215C70.9098 130.349 70.5759 130.558 70.3467 130.567L64.8034 130.808C64.8034 130.808 64.0174 131.059 63.6007 129.647C63.3643 128.852 63.383 127.593 63.4835 126.548C63.5684 125.658 64.32 124.734 65.1851 124.412ZM54.3885 120.412L40.2048 122.57C48.83 121.236 53.8598 118.994 54.1453 118.989L54.3885 120.412Z" fill="#B5B5B5"/>
</svg>
