<svg width="166" height="131" viewBox="0 0 166 131" fill="none" xmlns="http://www.w3.org/2000/svg">
<path d="M63.0066 52.8545C59.1115 50.7034 53.9881 52.2532 50.5812 56.2613C47.1744 60.2695 44.9696 72.4944 35.5507 76.9034C26.1314 81.3125 37.9555 86.5232 45.9718 81.9137C53.9881 77.3043 76.4341 60.2695 63.0066 52.8545Z" fill="#D7E3F4"/>
<path d="M120.482 123.014H32.895C32.895 123.014 19.8059 109.178 29.2253 97.1522C38.6446 85.1268 48.553 89.5232 60.0522 75.6874C71.5509 61.8516 76.7626 54.951 94.1332 55.468C111.503 55.9854 143.431 77.4895 120.482 123.014Z" fill="#D7E3F4"/>
<path d="M107.354 58.3325C109.897 58.881 112.36 59.7919 114.681 60.9652C116.996 62.149 119.152 63.6306 121.07 65.3537C122.988 67.0776 124.653 69.0518 126.037 71.1806C126.74 72.2404 127.345 73.3525 127.902 74.4822C128.466 75.6101 128.932 76.7769 129.355 77.9533C130.206 80.3104 130.747 82.7535 131.083 85.2011C131.408 87.6525 131.525 90.1197 131.442 92.5768C131.361 95.0335 131.093 97.4814 130.615 99.891C130.122 102.296 129.463 104.676 128.477 106.933C129.046 104.557 129.451 102.17 129.673 99.7696C129.906 97.3714 129.993 94.9671 129.933 92.5711C129.869 90.1756 129.672 87.787 129.291 85.4303C128.915 83.0732 128.369 80.7479 127.57 78.5013C126.784 76.2481 125.769 74.0695 124.518 72.015C123.256 69.9684 121.773 68.0326 120.033 66.3034C118.306 64.5642 116.346 63.0171 114.216 61.6804C112.083 60.3434 109.774 59.2373 107.354 58.3325Z" fill="#D7E3F4"/>
<path d="M35.3489 116.457C35.3489 116.457 36.9479 104.849 33.7637 105.995C30.58 107.14 32.0411 111.793 35.3489 116.457Z" fill="#8CA9D3"/>
<path opacity="0.2" d="M35.3368 107.928C35.1748 107.801 35.1146 107.573 35.0408 107.39C34.9552 107.176 34.8591 106.967 34.6923 106.803C34.4866 106.601 34.2251 106.492 33.9421 106.453C33.6701 106.415 33.3806 106.45 33.1168 106.364C33.1063 106.361 33.0989 106.354 33.0889 106.35C33.2876 106.212 33.505 106.088 33.7635 105.995C34.7897 105.626 35.3176 106.584 35.5635 108.049C35.4814 108.017 35.4019 107.979 35.3368 107.928Z" fill="#F2FAFF"/>
<path opacity="0.15" d="M32.2993 108.01C32.3116 108.876 32.3487 109.729 32.6098 110.562C32.7194 110.911 32.853 111.263 33.0019 111.598C33.119 111.861 33.2727 112.129 33.5185 112.291C34.0499 112.643 34.6748 112.283 35.053 111.877C35.2853 111.627 35.4844 111.312 35.7477 111.103C35.7193 113.766 35.3499 116.457 35.3499 116.457C32.836 112.912 31.4024 109.383 32.2526 107.388C32.2954 107.592 32.2963 107.81 32.2993 108.01Z" fill="#202234"/>
<path d="M35.5593 116.345C35.5593 116.345 29.0481 104.895 24.5562 108.832C20.0646 112.769 35.5593 116.345 35.5593 116.345Z" fill="#8CA9D3"/>
<path opacity="0.2" d="M31.2309 110.632C31.0501 110.658 30.8623 110.671 30.6793 110.668C30.668 110.668 30.6566 110.667 30.6453 110.667C30.6623 110.662 30.4872 110.632 30.4615 110.623C30.2802 110.559 30.1291 110.452 29.9885 110.323C29.7139 110.071 29.4851 109.785 29.1589 109.594C28.4375 109.173 27.5554 109.096 26.752 108.936C26.3965 108.865 25.7856 108.837 25.6389 108.437C25.6088 108.354 25.6092 108.273 25.6245 108.194C27.4685 107.522 29.5169 108.849 31.2732 110.622C31.2592 110.625 31.2453 110.63 31.2309 110.632Z" fill="#F2FAFF"/>
<path opacity="0.15" d="M24.7179 111.771C25.3214 112.172 25.9921 112.395 26.7165 112.407C27.0942 112.413 27.4846 112.38 27.8562 112.465C28.2296 112.549 28.4994 112.75 28.7497 113.031C29.2169 113.555 29.6518 114.016 30.3125 114.293C31.0011 114.581 31.7583 114.63 32.4967 114.61C32.7967 114.601 33.0858 114.564 33.3836 114.533C33.6106 114.509 33.911 114.465 34.1224 114.581C34.3957 114.731 34.3944 115.197 34.3468 115.461C34.3128 115.648 34.2407 115.825 34.1412 115.985C31.0295 115.147 23.8712 112.942 23.7441 110.374C23.9551 110.927 24.1817 111.414 24.7179 111.771Z" fill="#202234"/>
<path d="M26.3971 122.653H82.6079L81.8018 119.843L79.9058 113.187C78.5626 108.489 73.8951 105.549 69.0743 106.37L66.6408 106.793C66.4565 106.823 66.2801 106.839 66.1032 106.839C65.0286 106.839 64.0077 106.301 63.4011 105.388C59.2248 99.124 49.7828 99.8995 46.6812 106.762L46.2663 107.683C45.5349 109.308 43.6258 110.035 41.9992 109.307L39.5727 108.22C38.1526 107.583 36.571 108.059 35.6959 109.18C35.3732 109.587 35.1431 110.078 35.051 110.631L34.6903 112.734C34.5982 113.256 34.3986 113.717 34.1143 114.1C34.0606 114.17 34.0069 114.238 33.9532 114.3C33.462 114.868 32.7943 115.244 32.0646 115.375C31.8808 115.413 31.6808 115.429 31.4891 115.429C30.8804 115.429 30.2629 115.262 29.7027 114.888C28.439 114.044 26.7447 114.254 25.6701 115.329L24.0391 116.96C21.9383 119.06 23.426 122.653 26.3971 122.653Z" fill="#9AB6E2"/>
<path opacity="0.15" d="M30.2782 120.828C30.6254 119.76 31.9393 118.748 33.1008 119.005C33.241 119.036 33.3585 118.963 33.4061 118.832C33.6707 118.105 33.3462 116.94 34.1418 116.492C34.7458 116.153 35.6204 116.357 36.1601 116.733C37.5627 117.709 37.5291 119.526 37.7906 121.043C37.8216 121.223 38.0889 121.286 38.205 121.152C38.5055 120.805 38.7068 120.353 38.9378 119.96C39.26 119.412 39.591 118.865 39.977 118.36C40.2194 118.043 40.5962 117.506 41.0268 117.435C41.5818 117.344 41.542 118.337 41.47 118.667C41.2918 119.483 40.8325 120.197 40.6198 120.999C40.587 121.123 40.6608 121.276 40.7932 121.304C41.1416 121.38 41.4468 121.249 41.7316 121.053C42.0892 120.808 42.3564 120.578 42.7918 120.479C43.4014 120.34 44.3913 120.342 44.7389 119.703C44.8625 119.476 44.8266 119.191 44.821 118.944C44.81 118.462 44.7625 117.981 44.759 117.498C44.7528 116.552 44.9677 115.652 45.4183 114.819C46.1441 113.478 47.3078 112.32 48.5173 111.408C49.716 110.503 51.0784 109.8 52.5369 109.428C55.3149 108.721 58.4974 109.368 60.2659 111.762C61.0392 112.81 61.4946 114.061 61.6925 115.342C61.9235 116.838 61.7427 118.378 61.5623 119.87C61.4497 120.803 61.2951 121.734 61.0912 122.653H30.4808C30.1712 122.122 30.0612 121.496 30.2782 120.828Z" fill="#202234"/>
<path opacity="0.2" d="M54.5039 103.17C53.7345 103.623 52.8 103.708 51.9494 103.924C51.2136 104.111 50.5333 104.413 49.9499 104.904C49.0595 105.654 48.5469 106.721 47.9521 107.697C47.2386 108.867 46.2574 110.019 44.8998 110.432C43.4034 110.888 42.1253 109.815 40.6882 109.602C39.5389 109.432 38.3647 109.592 37.3639 110.206C36.3556 110.824 35.6146 111.798 35.0661 112.83C34.5316 113.836 33.9963 114.84 32.9164 115.343C31.5234 115.991 29.9554 115.824 28.5864 115.216C28.1074 115.004 27.6851 114.746 27.2686 114.459C28.0882 114.274 28.9672 114.398 29.7021 114.889C30.2623 115.263 30.8798 115.43 31.4885 115.43C31.6806 115.43 31.8802 115.415 32.064 115.376C32.7937 115.246 33.4614 114.869 33.9526 114.301C34.0063 114.24 34.06 114.171 34.1137 114.102C34.398 113.718 34.5971 113.257 34.6897 112.735L35.0504 110.631C35.1425 110.079 35.3727 109.587 35.6953 109.181C36.5704 108.06 38.152 107.584 39.5721 108.221L41.9986 109.307C43.6252 110.036 45.5343 109.309 46.2657 107.684L46.6806 106.763C48.4761 102.79 52.397 100.861 56.1907 101.154C55.7702 101.949 55.2908 102.707 54.5039 103.17Z" fill="#F2FAFF"/>
<path d="M31.3584 122.653H82.6082L81.8021 119.843C79.269 117.571 75.7683 116.458 72.2064 117.072L70.3104 117.394L69.2894 117.563C69.0667 117.602 68.8445 117.617 68.6292 117.617C68.1532 117.617 67.6851 117.533 67.2472 117.364C66.5101 117.08 65.8655 116.581 65.4049 115.89C64.7599 114.915 64.0001 114.086 63.1709 113.402C62.8486 113.126 62.5185 112.881 62.1731 112.657C60.3072 111.422 58.1658 110.808 56.0161 110.785C54.7576 110.762 53.5057 110.946 52.3084 111.337C49.3988 112.258 46.8195 114.354 45.3841 117.54L44.885 118.63C44.0021 120.588 41.707 121.455 39.7572 120.58L38.2835 119.92L36.8635 119.283C36.2185 118.991 35.543 118.899 34.8985 118.96C33.2247 119.121 31.751 120.365 31.444 122.169L31.3584 122.653Z" fill="#D7E3F4"/>
<path d="M38.3076 112.293C38.3076 112.845 38.7548 113.292 39.3067 113.292C39.8587 113.292 40.3058 112.845 40.3058 112.293C40.3058 111.741 39.8587 111.293 39.3067 111.293C38.7552 111.293 38.3076 111.741 38.3076 112.293Z" fill="#8CA9D3"/>
<path d="M50.6992 115.636C50.6992 116.188 51.1464 116.635 51.6983 116.635C52.2503 116.635 52.6974 116.188 52.6974 115.636C52.6974 115.084 52.2503 114.637 51.6983 114.637C51.1468 114.637 50.6992 115.084 50.6992 115.636Z" fill="#C3D1E2"/>
<path opacity="0.15" d="M52.5889 105.932C52.5889 106.995 53.4509 107.857 54.5146 107.857C55.5783 107.857 56.4403 106.995 56.4403 105.932C56.4403 104.868 55.5783 104.006 54.5146 104.006C53.4513 104.005 52.5889 104.868 52.5889 105.932Z" fill="#202234"/>
<path d="M52.7217 105.475C52.7217 106.538 53.5837 107.4 54.6474 107.4C55.7111 107.4 56.5731 106.538 56.5731 105.475C56.5731 104.411 55.7111 103.549 54.6474 103.549C53.5837 103.548 52.7217 104.411 52.7217 105.475Z" fill="#C3D1E2"/>
<path d="M38.3442 122.127C38.3442 122.127 42.8501 116.445 40.793 116.054C38.7359 115.662 38.0503 118.601 38.3442 122.127Z" fill="#C3D1E2"/>
<path opacity="0.2" d="M41.0145 116.829C40.8097 116.759 40.6193 116.698 40.4023 116.679C39.9713 116.64 39.477 116.728 39.1207 116.984C38.9809 117.085 38.8888 117.209 38.7988 117.343C39.2036 116.395 39.8538 115.874 40.7931 116.054C41.2249 116.136 41.3651 116.453 41.3206 116.9C41.2162 116.901 41.0944 116.856 41.0145 116.829Z" fill="#F2FAFF"/>
<path opacity="0.15" d="M39.2956 120.271C39.4829 120.23 39.6646 120.147 39.8362 120.044C39.0899 121.186 38.3441 122.127 38.3441 122.127C38.2821 121.385 38.2651 120.671 38.2939 120.007C38.5489 120.3 38.9297 120.351 39.2956 120.271Z" fill="#202234"/>
<path d="M38.3446 122.127C38.3446 122.127 35.5041 114.486 32.3692 116.445C29.2348 118.405 38.3446 122.127 38.3446 122.127Z" fill="#8CA9D3"/>
<path opacity="0.2" d="M36.1233 118.48C35.8884 118.271 35.7478 117.985 35.5011 117.784C35.236 117.569 34.9282 117.436 34.6142 117.309C34.3147 117.187 33.9662 117.08 33.7802 116.795C33.6688 116.625 33.6186 116.35 33.7081 116.151C34.8098 116.322 35.8212 117.449 36.6168 118.682C36.4364 118.656 36.2618 118.603 36.1233 118.48Z" fill="#F2FAFF"/>
<path opacity="0.15" d="M34.5257 119.663C34.9274 119.725 35.4811 119.734 35.8195 119.982C35.9902 120.107 36.0998 120.296 36.2758 120.419C36.4452 120.538 36.6461 120.603 36.8461 120.65C37.1496 120.722 37.4505 120.742 37.7256 120.694C38.119 121.52 38.3452 122.127 38.3452 122.127C38.3452 122.127 35.2759 120.871 33.3135 119.435C33.713 119.545 34.1327 119.603 34.5257 119.663Z" fill="#202234"/>
<path d="M38.3447 122.127C38.3447 122.127 48.826 120.854 46.1811 119.188C43.5363 117.523 38.3447 122.127 38.3447 122.127Z" fill="#8CA9D3"/>
<path opacity="0.2" d="M45.3956 119.777C44.8943 119.816 44.4131 119.624 43.9196 119.574C43.2398 119.505 42.6712 119.702 42.0337 119.896C41.7778 119.974 41.5071 120.04 41.2363 120.053C42.845 119.116 44.7838 118.377 46.1143 119.152C46.1266 119.453 45.7449 119.749 45.3956 119.777Z" fill="#F2FAFF"/>
<path opacity="0.15" d="M41.3582 121.535C41.6761 121.516 41.9957 121.495 42.3084 121.432C42.6345 121.366 42.9511 121.263 43.2764 121.193C43.4782 121.149 43.683 121.131 43.8873 121.127C41.48 121.745 38.3447 122.127 38.3447 122.127C38.3447 122.127 38.8325 121.698 39.5779 121.15C39.6045 121.198 39.6381 121.243 39.6814 121.285C39.8709 121.467 40.1765 121.499 40.425 121.528C40.7346 121.563 41.0477 121.555 41.3582 121.535Z" fill="#202234"/>
<path d="M128.053 117.719C128.053 117.719 126.78 108.473 129.316 109.386C131.852 110.298 130.688 114.003 128.053 117.719Z" fill="#8CA9D3"/>
<path opacity="0.2" d="M128.062 110.925C128.191 110.823 128.239 110.643 128.298 110.496C128.366 110.326 128.443 110.16 128.576 110.029C128.739 109.867 128.948 109.781 129.173 109.75C129.39 109.72 129.62 109.747 129.831 109.679C129.839 109.677 129.845 109.671 129.853 109.668C129.694 109.558 129.522 109.46 129.315 109.385C128.498 109.092 128.078 109.855 127.882 111.022C127.947 110.996 128.01 110.965 128.062 110.925Z" fill="#F2FAFF"/>
<path opacity="0.15" d="M130.483 110.99C130.472 111.68 130.443 112.359 130.235 113.023C130.148 113.301 130.041 113.581 129.923 113.848C129.83 114.058 129.707 114.271 129.512 114.4C129.089 114.68 128.591 114.394 128.29 114.07C128.104 113.87 127.946 113.62 127.736 113.453C127.759 115.574 128.053 117.717 128.053 117.717C130.055 114.894 131.197 112.084 130.521 110.494C130.486 110.657 130.485 110.832 130.483 110.99Z" fill="#202234"/>
<path d="M127.886 117.629C127.886 117.629 133.072 108.509 136.649 111.645C140.227 114.781 127.886 117.629 127.886 117.629Z" fill="#8CA9D3"/>
<path opacity="0.2" d="M131.333 113.079C131.477 113.099 131.627 113.11 131.773 113.107C131.782 113.107 131.791 113.107 131.8 113.107C131.786 113.103 131.925 113.079 131.946 113.072C132.09 113.021 132.211 112.935 132.322 112.833C132.541 112.632 132.723 112.404 132.983 112.252C133.558 111.917 134.26 111.856 134.9 111.728C135.183 111.672 135.669 111.65 135.786 111.331C135.81 111.265 135.81 111.201 135.798 111.138C134.329 110.602 132.698 111.659 131.299 113.072C131.311 113.073 131.322 113.077 131.333 113.079Z" fill="#F2FAFF"/>
<path opacity="0.15" d="M136.521 113.986C136.04 114.306 135.506 114.483 134.929 114.492C134.629 114.497 134.318 114.471 134.022 114.538C133.724 114.606 133.509 114.766 133.31 114.989C132.937 115.406 132.591 115.774 132.065 115.994C131.516 116.224 130.913 116.263 130.325 116.246C130.086 116.239 129.856 116.21 129.619 116.185C129.438 116.165 129.199 116.131 129.031 116.223C128.813 116.342 128.814 116.713 128.852 116.923C128.879 117.072 128.937 117.213 129.016 117.341C131.495 116.673 137.196 114.916 137.297 112.871C137.128 113.314 136.948 113.702 136.521 113.986Z" fill="#202234"/>
<path d="M135.183 122.653H90.4131L91.055 120.415L92.5654 115.115C93.6353 111.373 97.3526 109.031 101.193 109.685L103.131 110.021C103.277 110.046 103.418 110.058 103.559 110.058C104.414 110.058 105.227 109.63 105.711 108.902C109.037 103.913 116.558 104.531 119.027 109.997L119.358 110.73C119.94 112.025 121.461 112.603 122.756 112.024L124.689 111.159C125.82 110.651 127.08 111.03 127.776 111.923C128.033 112.247 128.217 112.638 128.29 113.078L128.577 114.754C128.651 115.17 128.81 115.536 129.036 115.842C129.079 115.897 129.122 115.952 129.165 116.001C129.556 116.453 130.088 116.753 130.669 116.857C130.815 116.888 130.974 116.9 131.127 116.9C131.612 116.9 132.103 116.767 132.55 116.47C133.556 115.798 134.906 115.965 135.761 116.821L137.06 118.119C138.734 119.792 137.549 122.653 135.183 122.653Z" fill="#9AB6E2"/>
<path opacity="0.15" d="M132.092 121.2C131.815 120.349 130.769 119.543 129.844 119.748C129.732 119.772 129.639 119.714 129.601 119.61C129.39 119.031 129.648 118.102 129.015 117.746C128.533 117.476 127.837 117.639 127.407 117.938C126.29 118.715 126.317 120.162 126.109 121.37C126.084 121.513 125.871 121.564 125.778 121.457C125.539 121.181 125.379 120.82 125.195 120.507C124.939 120.072 124.675 119.636 124.367 119.234C124.174 118.981 123.874 118.553 123.531 118.497C123.089 118.425 123.121 119.215 123.179 119.479C123.32 120.128 123.686 120.697 123.856 121.336C123.882 121.434 123.823 121.556 123.718 121.579C123.44 121.639 123.197 121.534 122.97 121.379C122.686 121.183 122.472 121 122.126 120.921C121.64 120.81 120.852 120.813 120.575 120.303C120.477 120.122 120.505 119.896 120.51 119.699C120.518 119.314 120.556 118.931 120.559 118.547C120.564 117.794 120.393 117.077 120.034 116.413C119.455 115.345 118.528 114.423 117.565 113.696C116.611 112.976 115.525 112.416 114.364 112.12C112.151 111.556 109.617 112.071 108.208 113.979C107.592 114.813 107.23 115.81 107.072 116.83C106.888 118.021 107.032 119.248 107.176 120.436C107.265 121.179 107.389 121.921 107.551 122.653H131.93C132.177 122.23 132.265 121.731 132.092 121.2Z" fill="#202234"/>
<path opacity="0.2" d="M112.796 107.136C113.409 107.496 114.154 107.564 114.831 107.736C115.417 107.885 115.959 108.126 116.424 108.517C117.133 109.114 117.541 109.964 118.015 110.741C118.583 111.673 119.365 112.591 120.446 112.919C121.638 113.282 122.656 112.428 123.801 112.258C124.716 112.123 125.651 112.25 126.448 112.739C127.251 113.232 127.841 114.008 128.278 114.829C128.704 115.63 129.13 116.43 129.991 116.83C131.1 117.346 132.349 117.213 133.439 116.729C133.821 116.56 134.157 116.355 134.489 116.126C133.836 115.979 133.136 116.078 132.551 116.469C132.105 116.766 131.613 116.9 131.128 116.9C130.975 116.9 130.816 116.887 130.67 116.857C130.088 116.753 129.557 116.453 129.166 116.001C129.123 115.952 129.08 115.897 129.037 115.842C128.811 115.536 128.652 115.169 128.578 114.753L128.291 113.078C128.218 112.637 128.034 112.246 127.778 111.922C127.081 111.03 125.821 110.651 124.69 111.158L122.757 112.023C121.462 112.603 119.941 112.024 119.359 110.73L119.029 109.996C117.598 106.832 114.476 105.296 111.454 105.529C111.788 106.163 112.17 106.767 112.796 107.136Z" fill="#F2FAFF"/>
<path d="M131.231 122.653H90.4131L91.055 120.415C93.0728 118.605 95.8605 117.719 98.6975 118.208L100.208 118.465L101.021 118.599C101.198 118.63 101.376 118.642 101.547 118.642C101.926 118.642 102.299 118.575 102.647 118.44C103.234 118.214 103.748 117.817 104.114 117.266C104.628 116.49 105.234 115.829 105.894 115.285C106.151 115.065 106.413 114.87 106.689 114.692C108.175 113.708 109.88 113.219 111.592 113.201C112.595 113.182 113.591 113.329 114.545 113.641C116.863 114.375 118.917 116.044 120.061 118.581L120.458 119.45C121.161 121.009 122.989 121.7 124.542 121.003L125.716 120.477L126.847 119.97C127.36 119.738 127.899 119.664 128.412 119.713C129.745 119.842 130.919 120.832 131.164 122.269L131.231 122.653Z" fill="#D7E3F4"/>
<path d="M125.696 114.401C125.696 114.84 125.339 115.197 124.9 115.197C124.461 115.197 124.104 114.84 124.104 114.401C124.104 113.961 124.461 113.605 124.9 113.605C125.339 113.605 125.696 113.962 125.696 114.401Z" fill="#8CA9D3"/>
<path d="M115.827 117.064C115.827 117.504 115.47 117.86 115.031 117.86C114.591 117.86 114.235 117.503 114.235 117.064C114.235 116.624 114.592 116.268 115.031 116.268C115.47 116.269 115.827 116.625 115.827 117.064Z" fill="#C3D1E2"/>
<path opacity="0.15" d="M114.321 109.335C114.321 110.182 113.635 110.868 112.788 110.868C111.941 110.868 111.254 110.182 111.254 109.335C111.254 108.488 111.941 107.801 112.788 107.801C113.635 107.801 114.321 108.488 114.321 109.335Z" fill="#202234"/>
<path d="M114.217 108.971C114.217 109.818 113.53 110.505 112.683 110.505C111.836 110.505 111.149 109.818 111.149 108.971C111.149 108.124 111.836 107.438 112.683 107.438C113.53 107.437 114.217 108.124 114.217 108.971Z" fill="#C3D1E2"/>
<path d="M125.667 122.234C125.667 122.234 122.078 117.709 123.716 117.397C125.355 117.085 125.901 119.425 125.667 122.234Z" fill="#C3D1E2"/>
<path opacity="0.2" d="M123.54 118.014C123.703 117.959 123.854 117.91 124.027 117.895C124.37 117.865 124.764 117.934 125.048 118.139C125.16 118.219 125.233 118.318 125.305 118.425C124.982 117.669 124.464 117.255 123.716 117.397C123.372 117.463 123.261 117.716 123.296 118.072C123.379 118.072 123.476 118.036 123.54 118.014Z" fill="#F2FAFF"/>
<path opacity="0.15" d="M124.909 120.756C124.76 120.724 124.615 120.658 124.479 120.575C125.073 121.485 125.667 122.234 125.667 122.234C125.716 121.643 125.73 121.074 125.707 120.545C125.504 120.779 125.2 120.82 124.909 120.756Z" fill="#202234"/>
<path d="M125.667 122.234C125.667 122.234 127.929 116.149 130.426 117.709C132.923 119.27 125.667 122.234 125.667 122.234Z" fill="#8CA9D3"/>
<path opacity="0.2" d="M127.436 119.33C127.623 119.164 127.735 118.935 127.932 118.775C128.143 118.603 128.388 118.498 128.638 118.397C128.877 118.3 129.154 118.215 129.303 117.988C129.391 117.852 129.432 117.634 129.36 117.475C128.483 117.611 127.678 118.509 127.044 119.491C127.187 119.47 127.326 119.428 127.436 119.33Z" fill="#F2FAFF"/>
<path opacity="0.15" d="M128.709 120.272C128.389 120.321 127.948 120.328 127.678 120.525C127.542 120.625 127.455 120.776 127.315 120.874C127.18 120.968 127.02 121.02 126.861 121.058C126.619 121.116 126.38 121.131 126.16 121.093C125.847 121.751 125.667 122.234 125.667 122.234C125.667 122.234 128.112 121.234 129.675 120.09C129.356 120.178 129.022 120.224 128.709 120.272Z" fill="#202234"/>
<path d="M125.667 122.234C125.667 122.234 117.319 121.22 119.426 119.894C121.532 118.567 125.667 122.234 125.667 122.234Z" fill="#8CA9D3"/>
<path opacity="0.2" d="M120.051 120.362C120.45 120.394 120.834 120.241 121.227 120.201C121.768 120.146 122.221 120.303 122.729 120.457C122.933 120.519 123.148 120.572 123.364 120.583C122.083 119.837 120.539 119.248 119.479 119.865C119.469 120.105 119.773 120.34 120.051 120.362Z" fill="#F2FAFF"/>
<path opacity="0.15" d="M123.266 121.763C123.013 121.747 122.758 121.731 122.51 121.681C122.25 121.628 121.997 121.546 121.738 121.49C121.578 121.455 121.415 121.441 121.252 121.438C123.169 121.93 125.667 122.234 125.667 122.234C125.667 122.234 125.278 121.892 124.685 121.456C124.664 121.494 124.637 121.53 124.602 121.563C124.451 121.708 124.208 121.734 124.01 121.757C123.763 121.785 123.513 121.778 123.266 121.763Z" fill="#202234"/>
<path d="M39.6416 96.9008C39.6416 96.9008 38.256 94.6087 38.8892 93.3677C39.5224 92.1267 39.4896 91.6372 39.4896 91.6372C39.4896 91.6372 40.9228 92.7057 40.9988 94.0948C41.0747 95.4838 39.7246 96.8091 39.7246 96.8091C39.7246 96.8091 40.3045 95.5393 40.0023 94.1843C40.0027 94.1847 39.7949 95.069 39.6416 96.9008ZM37.8495 104.424C37.8495 104.424 34.0282 102.957 33.6287 100.865C33.2291 98.7736 32.7305 98.2134 32.7305 98.2134C32.7305 98.2134 35.4623 98.1593 36.8565 99.764C38.2508 101.369 37.8644 104.235 37.8644 104.235C37.8644 104.235 37.3731 102.159 35.7382 100.807C35.7382 100.807 36.3168 102.07 37.8495 104.424ZM134.267 109.565C134.267 109.565 132.882 107.272 133.515 106.032C134.148 104.791 134.116 104.301 134.116 104.301C134.116 104.301 135.549 105.37 135.625 106.759C135.701 108.148 134.351 109.473 134.351 109.473C134.351 109.473 134.931 108.203 134.628 106.848C134.628 106.848 134.421 107.733 134.267 109.565ZM137.844 116.567C137.844 116.567 138.257 113.921 139.54 113.378C140.823 112.836 141.113 112.44 141.113 112.44C141.113 112.44 141.523 114.18 140.688 115.292C139.853 116.405 137.966 116.551 137.966 116.551C137.966 116.551 139.227 115.952 139.867 114.72C139.868 114.72 139.139 115.263 137.844 116.567Z" fill="#9AB6E2"/>
<path d="M102.418 28.6431H48.4118C45.5835 28.6431 43.291 30.9356 43.291 33.7639V117.891C43.291 120.719 45.5835 123.012 48.4118 123.012H102.418C105.246 123.012 107.538 120.719 107.538 117.891V33.7634C107.538 30.9356 105.246 28.6431 102.418 28.6431Z" fill="#40327B"/>
<path opacity="0.2" d="M104.671 67.3962C104.15 71.51 104.144 75.6657 103.944 79.8019C103.765 83.5323 103.505 87.4081 102.164 90.932C101.46 92.7826 100.458 94.5516 98.9612 95.876C97.6971 96.9952 96.1552 97.7021 94.5382 98.1462C91.0226 99.1121 87.304 99.058 83.8556 100.323C82.8338 100.697 81.8963 101.204 80.9465 101.73C79.7601 102.386 78.5689 103.034 77.3597 103.648C74.9699 104.862 72.4992 105.954 69.908 106.662C65.1095 107.973 59.742 107.715 55.6129 104.699C52.1833 102.193 49.9655 98.4401 47.4153 95.128C46.2695 93.6398 45.0368 92.1119 43.5211 90.9818C43.4456 90.9255 43.3674 90.8727 43.291 90.8181V101.178C43.9325 103.118 44.863 104.978 46.0848 106.578C46.9712 107.738 47.9721 108.818 48.7018 110.091C49.0485 110.696 49.3393 111.339 49.4864 112.022C49.5943 112.522 49.6729 113.027 49.7611 113.531C49.8965 114.305 50.0895 114.998 50.7519 115.483C51.9161 116.334 53.4885 116.667 54.8767 116.901C56.7858 117.222 58.6813 117.181 60.6044 117.038C62.4899 116.898 64.3785 116.801 66.268 116.733C70.1456 116.595 74.0258 116.586 77.9051 116.585C81.733 116.585 85.5756 116.411 89.3969 116.71C91.2418 116.855 93.0645 117.139 94.9041 117.325C96.584 117.494 98.2202 117.439 99.876 117.105C101.141 116.85 102.407 116.467 103.535 115.829C104.098 115.511 104.634 115.118 105.052 114.619C105.507 114.078 105.744 113.419 105.954 112.751C106.451 111.171 106.598 109.518 106.904 107.897C107.056 107.095 107.249 106.299 107.529 105.532C107.532 105.524 107.536 105.517 107.539 105.509V57.917C105.846 60.775 105.085 64.1255 104.671 67.3962Z" fill="#202234"/>
<path d="M102.767 115.075H49.6983C49.6983 115.075 48.3202 110.835 47.0238 102.348C46.4251 98.4288 45.8435 93.6045 45.4234 87.8737C45.2623 85.6821 45.1251 83.3577 45.0195 80.901C44.83 76.5033 44.7422 71.6808 44.8016 66.4329C44.8273 64.1662 44.8806 61.8196 44.9649 59.3943C45.1238 54.8303 45.3928 49.9863 45.7972 44.8612C46.0557 41.5875 46.3692 38.1994 46.7443 34.6964C46.8744 33.479 47.5408 32.4092 48.7652 32.4092H102.37C102.433 32.4092 102.493 32.4118 102.55 32.417C103.737 32.5223 104.224 33.676 104.347 34.9261C108.637 78.8216 102.767 115.075 102.767 115.075Z" fill="white"/>
<path opacity="0.2" d="M102.767 115.075H64.427C64.9812 113.517 65.7335 112.065 66.6916 110.703C68.623 107.958 71.0155 105.552 72.0176 102.262C72.4639 100.799 72.4848 99.2472 73.0053 97.8057C73.3486 96.8564 73.8713 95.9722 74.5699 95.2403C75.9804 93.764 77.9279 92.9553 79.8641 92.4256C84.0203 91.2885 88.5524 91.3518 92.537 89.6113C94.2391 88.8676 95.7151 87.686 96.4932 85.966C97.636 83.439 97.1631 80.3993 96.4797 77.8239C95.5138 74.1856 93.6313 70.7931 93.1296 67.0334C92.858 64.9977 93.0213 62.8654 93.6985 60.9209C94.4217 58.8446 95.4413 56.884 96.1155 54.7893C96.722 52.9072 97.0325 50.8837 96.419 48.9611C95.8858 47.2913 94.7033 45.7166 93.4029 44.5521C91.117 42.5041 88.0747 41.5945 85.1014 41.1234C81.8046 40.5998 78.4536 40.5784 75.1262 40.4299C72.2927 40.3033 69.2203 40.2295 66.5767 39.0915C63.986 37.9767 61.5267 36.2637 59.5744 34.2306C59.0665 33.7018 58.5351 33.0834 58.0801 32.4097H102.37C102.433 32.4097 102.493 32.4123 102.55 32.4175C103.716 32.528 103.992 33.7227 104.347 34.9266C108.638 78.8217 102.767 115.075 102.767 115.075Z" fill="#202234"/>
<path d="M87.6044 33.7302C87.6044 34.1049 87.5507 34.4638 87.4489 34.8009C84.3062 35.679 80.0496 36.2144 75.3598 36.2144C70.6696 36.2144 66.4134 35.679 63.2707 34.8009C63.1689 34.4638 63.1152 34.1049 63.1152 33.7302C63.1152 31.5888 64.8497 29.8539 66.9915 29.8539H67.061C67.1627 28.6439 67.5216 27.5038 68.0836 26.4916C69.508 23.9432 72.2328 22.2192 75.3598 22.2192C78.4863 22.2192 81.2063 23.9432 82.6303 26.4916C83.1923 27.5038 83.5565 28.6439 83.6582 29.8539H83.7224C85.8643 29.8539 87.6044 31.5888 87.6044 33.7302Z" fill="#40327B"/>
<path opacity="0.15" d="M83.723 29.8539H83.6588C83.5571 28.6439 83.1929 27.5038 82.6309 26.4916C81.2069 23.9432 78.4869 22.2192 75.3604 22.2192C72.2334 22.2192 69.5086 23.9432 68.0842 26.4916C68.0362 26.5776 67.9991 26.6697 67.9541 26.7575C68.2161 26.7453 68.4768 26.7104 68.7187 26.6645C69.6034 26.4981 70.458 26.1877 71.292 25.8554C72.0579 25.5501 72.8098 25.2039 73.5919 24.941C74.6941 24.5707 75.8752 24.3602 77.0403 24.4222C78.0271 24.4746 79.066 24.7069 79.8672 25.3148C80.1969 25.5645 80.4869 25.8912 80.596 26.2986C80.7104 26.7252 80.5895 27.1405 80.4305 27.537C80.2393 28.0138 80.1725 28.3893 80.5546 28.8029C80.8611 29.1347 81.2903 29.3234 81.7091 29.4705C82.5082 29.7517 83.4082 29.9177 84.0479 30.5159C84.5575 30.9927 84.9142 31.7224 84.7828 32.4285C84.6675 33.0499 84.2047 33.5328 83.7143 33.8957C82.5178 34.78 81.0069 35.1389 79.5498 35.2516C76.8818 35.4577 74.1976 35.162 71.5343 35.4651C70.761 35.5529 70.0038 35.7275 69.2445 35.89C71.1501 36.0974 73.2055 36.2148 75.36 36.2148C80.0502 36.2148 84.3064 35.6795 87.4491 34.8014C87.5508 34.4642 87.6045 34.1053 87.6045 33.7306C87.605 31.5888 85.8649 29.8539 83.723 29.8539Z" fill="#202234"/>
<path d="M55.1088 60.8441C56.6193 60.8441 58.1293 60.8441 59.6397 60.8441C59.9344 60.8441 60.1833 60.562 60.1973 60.2153C60.2109 59.8682 59.9851 59.5878 59.6917 59.5874C58.186 59.5874 56.6804 59.5874 55.1748 59.5874C54.8809 59.5874 54.6272 59.8677 54.6089 60.2153C54.5901 60.5625 54.8145 60.8441 55.1088 60.8441ZM61.8903 60.8441C68.5481 60.8441 75.206 60.8441 81.8638 60.8441C82.1586 60.8441 82.3931 60.562 82.3883 60.2153C82.3835 59.8682 82.1411 59.5878 81.8477 59.5874C75.2104 59.5874 68.5726 59.5874 61.9352 59.5874C61.6418 59.5874 61.3925 59.8677 61.3798 60.2153C61.3671 60.5625 61.5955 60.8441 61.8903 60.8441ZM97.962 59.5874C93.2779 59.5874 88.5933 59.5874 83.9092 59.5874C83.6157 59.5874 83.3826 59.8677 83.3887 60.2153C83.3944 60.5625 83.6371 60.8441 83.9319 60.8441C88.6304 60.8441 93.3294 60.8441 98.0279 60.8441C98.3222 60.8441 98.5467 60.562 98.5284 60.2153C98.5087 59.8682 98.255 59.5878 97.962 59.5874ZM77.7478 63.1611C70.1664 63.1611 62.5854 63.1611 55.004 63.1611C54.7084 63.1611 54.456 63.4449 54.442 63.7956C54.4276 64.1462 54.6573 64.4313 54.9538 64.4313C62.5527 64.4313 70.152 64.4313 77.7509 64.4313C78.0478 64.4318 78.2867 64.1466 78.2858 63.7956C78.2845 63.4449 78.0434 63.1611 77.7478 63.1611ZM98.1323 63.1611C92.0024 63.1611 85.872 63.1611 79.7421 63.1611C79.446 63.1611 79.208 63.4449 79.2093 63.7956C79.2111 64.1462 79.4526 64.4313 79.7495 64.4313C85.8938 64.4313 92.0386 64.4313 98.1829 64.4313C98.4794 64.4318 98.7087 64.1466 98.6947 63.7956C98.6799 63.4449 98.4279 63.1611 98.1323 63.1611Z" fill="#9AB6E2"/>
<path d="M98.3797 70.4279C96.8448 70.4279 95.3095 70.4279 93.7742 70.4279C93.4746 70.4279 93.2393 70.7161 93.2471 71.0724C93.255 71.4283 93.5047 71.7174 93.8043 71.7174C95.3422 71.7174 96.8797 71.7174 98.4177 71.7174C98.7177 71.7174 98.9517 71.4287 98.9413 71.0724C98.9303 70.7165 98.6788 70.4283 98.3797 70.4279ZM91.4869 70.4279C84.7195 70.4279 77.9524 70.4279 71.185 70.4279C70.8858 70.4279 70.6409 70.7161 70.6378 71.0724C70.6348 71.4283 70.8758 71.7174 71.1754 71.7174C77.9546 71.7174 84.7334 71.7174 91.5127 71.7174C91.8127 71.7174 92.0498 71.4287 92.0419 71.0724C92.0345 70.7165 91.786 70.4283 91.4869 70.4279ZM54.7178 71.7174C59.5019 71.7174 64.2861 71.7174 69.0702 71.7174C69.3702 71.7174 69.6156 71.4287 69.6191 71.0724C69.6221 70.7165 69.3828 70.4279 69.0833 70.4279C64.3075 70.4279 59.5316 70.4279 54.7558 70.4279C54.4563 70.4279 54.2052 70.7161 54.1947 71.0724C54.1838 71.4283 54.4183 71.7174 54.7178 71.7174ZM75.3783 68.0712C83.0213 68.0712 90.6647 68.0712 98.3076 68.0712C98.6059 68.0712 98.8386 67.7843 98.8264 67.4302C98.8146 67.0761 98.564 66.79 98.2657 66.79C90.6372 66.79 83.0086 66.79 75.3805 66.79C75.0827 66.79 74.8407 67.0761 74.8399 67.4302C74.839 67.7843 75.08 68.0712 75.3783 68.0712ZM54.8283 68.0712C61.0084 68.0712 67.1886 68.0712 73.3687 68.0712C73.667 68.0712 73.9098 67.7843 73.9111 67.4302C73.9124 67.0761 73.6722 66.79 73.3744 66.79C67.2061 66.79 61.0377 66.79 54.8698 66.79C54.5724 66.79 54.3209 67.0761 54.3091 67.4302C54.2973 67.7843 54.5296 68.0712 54.8283 68.0712Z" fill="#9AB6E2"/>
<path d="M54.596 75.8718C56.1422 75.8718 57.6889 75.8718 59.2351 75.8718C59.5364 75.8718 59.7875 75.5814 59.7958 75.2238C59.8041 74.8661 59.5666 74.5762 59.2657 74.5762C57.7221 74.5762 56.1785 74.5762 54.6349 74.5762C54.334 74.5757 54.0816 74.8661 54.0702 75.2238C54.0589 75.5814 54.2947 75.8718 54.596 75.8718ZM61.5394 75.8718C68.3562 75.8718 75.1735 75.8718 81.9903 75.8718C82.292 75.8718 82.5335 75.5814 82.5309 75.2238C82.5282 74.8661 82.2815 74.5762 81.9807 74.5762C75.1757 74.5762 68.3706 74.5762 61.5656 74.5762C61.2648 74.5757 61.0146 74.8661 61.0071 75.2238C60.9997 75.5814 61.2381 75.8718 61.5394 75.8718ZM98.5011 74.5762C93.6986 74.5762 88.8962 74.5762 84.0937 74.5762C83.7928 74.5757 83.5514 74.8661 83.5548 75.2238C83.5579 75.5814 83.8055 75.8718 84.1068 75.8718C88.9176 75.8718 93.7283 75.8718 98.5391 75.8718C98.8404 75.8718 99.0766 75.5814 99.0652 75.2238C99.0548 74.8657 98.8024 74.5762 98.5011 74.5762ZM77.7738 78.2503C70.0239 78.2503 62.2735 78.2503 54.5231 78.2503C54.2205 78.2503 53.9663 78.5411 53.9545 78.8996C53.9427 79.2581 54.1785 79.5489 54.482 79.5489C62.2468 79.5489 70.0112 79.5489 77.776 79.5489C78.0791 79.5494 78.324 79.2585 78.3231 78.8996C78.3223 78.5411 78.0764 78.2503 77.7738 78.2503Z" fill="#9AB6E2"/>
<path d="M54.2389 86.5958C55.8104 86.5958 57.382 86.5958 58.9535 86.5958C59.2601 86.5958 59.5164 86.3058 59.5265 85.9478C59.5365 85.5897 59.2968 85.2993 58.9907 85.2993C57.4222 85.2993 55.8541 85.2993 54.286 85.2993C53.9803 85.2989 53.7218 85.5897 53.7087 85.9478C53.6948 86.3058 53.9323 86.5958 54.2389 86.5958ZM61.2954 86.5958C68.2231 86.5958 75.1508 86.5958 82.0785 86.5958C82.3846 86.5958 82.6305 86.3058 82.627 85.9478C82.6231 85.5897 82.3729 85.2993 82.0672 85.2993C75.1539 85.2993 68.241 85.2993 61.3277 85.2993C61.0225 85.2989 60.7666 85.5897 60.7574 85.9478C60.7482 86.3058 60.9888 86.5958 61.2954 86.5958ZM98.85 85.2993C93.9712 85.2993 89.0927 85.2993 84.2138 85.2993C83.9082 85.2989 83.6636 85.5897 83.6676 85.9478C83.6715 86.3058 83.9235 86.5958 84.2296 86.5958C89.1185 86.5958 94.0078 86.5958 98.8968 86.5958C99.2033 86.5958 99.4408 86.3058 99.4273 85.9478C99.4142 85.5897 99.1557 85.2993 98.85 85.2993ZM77.7944 88.9682C69.9134 88.9682 62.0325 88.9682 54.1511 88.9682C53.8437 88.9682 53.5834 89.2577 53.5699 89.614C53.5563 89.9708 53.7952 90.2598 54.1035 90.2594C62.0015 90.2594 69.899 90.2594 77.797 90.2594C78.1053 90.2594 78.3542 89.9708 78.3529 89.614C78.352 89.2577 78.1018 88.9682 77.7944 88.9682ZM98.9845 88.9682C92.6118 88.9682 86.2395 88.9682 79.8668 88.9682C79.5594 88.9682 79.3114 89.2577 79.3127 89.614C79.314 89.9708 79.5651 90.2598 79.8738 90.2594C86.2601 90.2594 92.6459 90.2594 99.0321 90.2594C99.3408 90.2594 99.5793 89.9708 99.5657 89.614C99.5526 89.2577 99.2919 88.9682 98.9845 88.9682Z" fill="#9AB6E2"/>
<path d="M53.8596 97.5417C58.8315 97.5417 63.8038 97.5417 68.7757 97.5417C69.087 97.5417 69.3425 97.2574 69.3456 96.9055C69.3486 96.554 69.0993 96.2684 68.7884 96.2684C63.8243 96.2684 58.8603 96.2684 53.8963 96.2684C53.5854 96.2684 53.3243 96.554 53.3138 96.9055C53.3037 97.257 53.5478 97.5422 53.8596 97.5417ZM75.3314 93.9239C83.2752 93.9239 91.2191 93.9239 99.1629 93.9239C99.4729 93.9239 99.7144 93.637 99.7013 93.2825C99.6886 92.9279 99.4275 92.6401 99.1179 92.6401C91.1898 92.6401 83.2617 92.6401 75.3336 92.6401C75.0244 92.6401 74.7729 92.9275 74.7716 93.2825C74.7711 93.6366 75.0213 93.9239 75.3314 93.9239ZM53.9723 93.9239C60.3956 93.9239 66.819 93.9239 73.2424 93.9239C73.5524 93.9239 73.8048 93.637 73.8065 93.2825C73.8078 92.9279 73.5581 92.6401 73.2489 92.6401C66.8382 92.6401 60.4275 92.6401 54.0172 92.6401C53.7081 92.6401 53.4465 92.9275 53.4339 93.2825C53.4208 93.6366 53.6622 93.9239 53.9723 93.9239Z" fill="#9AB6E2"/>
<path d="M56.4541 44.1555V40.4211H56.9196V44.1555H56.4541ZM61.1749 44.1555L59.416 40.8757C59.4269 41.3141 59.4322 41.8499 59.4322 42.2883V44.1555H58.9667V40.4211H59.6811L61.44 43.7009C61.429 43.2625 61.4238 42.7267 61.4238 42.2883V40.4211H61.8784L61.8893 44.1555H61.1749ZM66.3459 41.4547H65.8481C65.8049 40.984 65.5289 40.7133 65.0582 40.7133C64.663 40.7133 64.349 40.8971 64.349 41.2871C64.349 41.6927 64.5818 41.8661 65.1503 41.9958C65.973 42.1853 66.3843 42.5206 66.3843 43.1538C66.3843 43.8088 65.8215 44.2311 65.1019 44.2311C64.2792 44.2311 63.7595 43.814 63.6783 43.0944H64.1766C64.2848 43.587 64.6254 43.863 65.1128 43.863C65.5403 43.863 65.8865 43.6302 65.8865 43.2407C65.8865 42.7857 65.6267 42.5805 64.9717 42.4285C64.3115 42.277 63.8512 42.0119 63.8512 41.3949C63.8512 40.7508 64.4089 40.3447 65.0962 40.3447C65.8699 40.3452 66.2756 40.8159 66.3459 41.4547ZM70.9597 42.7752C70.9597 42.8944 70.9597 43.0027 70.9488 43.111C70.8947 43.7333 70.4724 44.2315 69.5576 44.2315C68.6428 44.2315 68.221 43.7333 68.1668 43.111C68.1559 43.0027 68.1559 42.8944 68.1559 42.7752V40.4211H68.6214V42.732C68.6214 42.8512 68.6214 42.9647 68.6323 43.0621C68.6755 43.5328 68.9843 43.8634 69.5576 43.8634C70.1314 43.8634 70.4401 43.5333 70.4833 43.0621C70.4942 42.9647 70.4942 42.8512 70.4942 42.732V40.4211H70.9597V42.7752ZM75.6709 44.1555H75.157C75.0539 43.9171 75.0055 43.6791 74.9565 43.2193C74.9133 42.835 74.767 42.5809 74.3989 42.5534C74.3125 42.5481 74.2203 42.5481 74.1339 42.5481H73.4304V44.1555H72.9649V40.4211H74.188C74.3775 40.4211 74.5072 40.4211 74.6749 40.4425C75.2164 40.5133 75.6059 40.8106 75.6059 41.4386C75.6059 41.9311 75.2862 42.2124 74.94 42.3206C75.243 42.4613 75.3893 42.8023 75.4216 43.1756C75.4653 43.6625 75.5194 43.9551 75.6709 44.1555ZM74.1448 42.1691C74.3129 42.1691 74.4046 42.1691 74.5072 42.1582C74.8535 42.1259 75.1081 41.9041 75.1081 41.4814C75.1081 41.0648 74.9081 40.8753 74.5614 40.8211C74.4583 40.805 74.3557 40.7993 74.188 40.7993H73.4304V42.1687H74.1448V42.1691ZM77.9521 42.8346L77.5137 44.1551H77.0159L78.3582 40.4207H78.9861L80.2743 44.1551H79.7708L79.3271 42.8346H77.9521ZM79.2023 42.456L78.6608 40.7888L78.0818 42.456H79.2023ZM84.1514 44.1555L82.3925 40.8757C82.4035 41.3141 82.4087 41.8499 82.4087 42.2883V44.1555H81.9432V40.4211H82.6576L84.4165 43.7009C84.4056 43.2625 84.4003 42.7267 84.4003 42.2883V40.4211H84.8549L84.8658 44.1555H84.1514ZM89.9128 41.6115L89.9181 41.6652H89.4526L89.4417 41.6115C89.3334 41.0757 89.0032 40.7128 88.381 40.7128C87.6177 40.7128 87.147 41.3788 87.147 42.2822C87.147 43.2023 87.6125 43.8625 88.3482 43.8625C88.9705 43.8625 89.301 43.4996 89.4089 42.9639L89.4198 42.9097H89.8853L89.8801 42.9639C89.8098 43.6402 89.3063 44.2306 88.3212 44.2306C87.2334 44.2306 86.6269 43.397 86.6269 42.304C86.6269 41.1674 87.3304 40.3447 88.3915 40.3447C89.339 40.3452 89.8368 40.881 89.9128 41.6115ZM94.2668 44.1555H91.7826V40.4211H94.2127V40.7997H92.2481V42.0988H94.0502V42.4778H92.2481V43.7765H94.2668V44.1555Z" fill="#4462CC"/>
<path d="M60.7415 48.7625C60.7415 50.2974 59.7144 51.0991 58.5857 51.2345C58.1682 51.2799 57.852 51.2912 57.3665 51.2912H56.4635V54.0226H54.4316V46.2342H57.3665C57.8516 46.2342 58.1678 46.2451 58.5857 46.2905C59.7144 46.4259 60.7415 47.2272 60.7415 48.7625ZM58.6197 48.7625C58.6197 48.1756 58.3149 47.8708 57.7957 47.8258C57.649 47.8145 57.4682 47.8145 57.2538 47.8145H56.4639V49.7105H57.2538C57.4682 49.7105 57.649 49.7105 57.7957 49.6996C58.3149 49.6542 58.6197 49.3494 58.6197 48.7625ZM69.377 50.1284C69.377 52.6226 67.8194 54.1807 65.3928 54.1807C62.9659 54.1807 61.4083 52.6231 61.4083 50.1284C61.4083 47.6224 62.9659 46.0761 65.3928 46.0761C67.8194 46.0761 69.377 47.6224 69.377 50.1284ZM67.3002 50.1284C67.3002 48.4691 66.5666 47.566 65.3928 47.566C64.2187 47.566 63.4855 48.4691 63.4855 50.1284C63.4855 51.7764 64.2191 52.6907 65.3928 52.6907C66.5666 52.6907 67.3002 51.7759 67.3002 50.1284ZM76.5676 54.0226H70.5966V46.2342H72.6284V52.3069H76.5676V54.0226ZM77.6859 54.0226V46.2342H79.7177V54.0221H77.6859V54.0226ZM88.3074 48.7966L88.3187 48.9096H86.2869L86.2646 48.7966C86.0952 47.9612 85.5874 47.566 84.7634 47.566C83.7927 47.566 83.0591 48.3787 83.0591 50.0603C83.0591 52.024 83.8717 52.6903 84.7747 52.6903C85.5647 52.6903 86.0729 52.2047 86.2419 51.3471L86.2646 51.234H88.296L88.2847 51.3471C88.0925 53.2209 86.6594 54.1802 84.7066 54.1802C82.6185 54.1802 80.9364 52.8257 80.9364 50.1843C80.9364 47.4752 82.6748 46.0757 84.7857 46.0757C87.0092 46.0761 88.1493 47.2612 88.3074 48.7966ZM93.5452 54.0226H91.5138V51.0428L88.7711 46.2346H91.0509L92.5863 49.3157L94.0648 46.2346H96.2888L93.5456 51.0428V54.0226H93.5452Z" fill="#4462CC"/>
<path d="M91.7164 97.7231C88.3532 97.7231 85.624 100.448 85.624 103.816C85.624 107.179 88.3532 109.908 91.7164 109.908C95.0796 109.908 97.8088 107.179 97.8088 103.816C97.8088 100.448 95.0796 97.7231 91.7164 97.7231ZM91.7164 109.216C88.7309 109.216 86.3161 106.796 86.3161 103.816C86.3161 100.83 88.7309 98.4105 91.7164 98.4105C94.7019 98.4105 97.1167 100.83 97.1167 103.816C97.1167 106.796 94.7023 109.216 91.7164 109.216Z" fill="#4462CC"/>
<path d="M91.7163 99.1216C89.5613 99.1216 87.7548 100.573 87.2038 102.551H87.2011V102.562C87.0907 102.961 87.0273 103.38 87.0273 103.815C87.0273 106.404 89.1225 108.504 91.7163 108.504C94.3101 108.504 96.4052 106.404 96.4052 103.815C96.4052 101.222 94.3101 99.1216 91.7163 99.1216ZM91.7163 99.6203C93.5935 99.6203 95.1777 100.852 95.7126 102.552H87.7195C88.2548 100.852 89.839 99.6203 91.7163 99.6203ZM91.7163 108.006C89.6805 108.006 87.9893 106.558 87.6072 104.638H95.8249C95.4432 106.558 93.752 108.006 91.7163 108.006Z" fill="#4462CC"/>
<path d="M92.2941 101.458H89.2178V101.804H92.2941V101.458Z" fill="#4462CC"/>
<path d="M94.148 101.458H92.8311V101.804H94.148V101.458Z" fill="#4462CC"/>
<path d="M92.2941 105.157H89.2178V105.503H92.2941V105.157Z" fill="#4462CC"/>
<path d="M94.148 105.157H92.8311V105.503H94.148V105.157Z" fill="#4462CC"/>
<path d="M94.1486 105.951H91.0723V106.297H94.1486V105.951Z" fill="#4462CC"/>
<path d="M90.5348 105.951H89.2178V106.297H90.5348V105.951Z" fill="#4462CC"/>
<path d="M109.825 10.2764C109.749 10.555 109.913 10.8423 110.192 10.9183C110.471 10.9942 110.758 10.8296 110.834 10.551L111.505 8.08299C111.581 7.80352 111.417 7.5162 111.138 7.44022C110.86 7.36467 110.573 7.5293 110.497 7.80876L109.825 10.2764Z" fill="#28264A"/>
<path d="M100.447 49.5399C100.574 49.3443 100.699 48.9561 100.615 48.5434C100.58 48.3718 100.628 46.8015 100.183 47.5068C99.9697 48.2666 99.3719 47.7247 99.3073 47.8081C99.1902 47.96 99.0322 48.0426 99.0134 48.2504C98.9972 48.4321 99.0387 48.6159 99.0654 48.7945C99.0972 49.0076 99.1064 49.2216 99.1191 49.4368C99.1352 49.7106 99.1968 50.0748 99.1706 50.4062C99.1964 50.4132 99.2151 50.4171 99.2151 50.4171C99.2151 50.4171 100.339 52.8909 100.495 53.1599C100.754 53.3712 101.791 52.5057 101.791 52.5057C101.902 52.3066 100.967 50.9149 100.447 49.5399Z" fill="#D7A28E"/>
<path d="M113.67 49.3711C110.652 49.1051 104.712 57.3241 104.712 57.3241L100.924 49.92L99.0786 51.1094C99.0786 51.1094 97.4826 62.4689 103.765 64.3103C107.29 65.3435 113.178 57.4734 114.168 53.9364C114.748 51.8636 115.696 49.5497 113.67 49.3711Z" fill="#E5AC61"/>
<path opacity="0.1" d="M113.67 49.371C112.737 49.2889 111.524 50.0186 110.294 51.0649C109.835 51.7264 109.146 52.2517 108.506 52.7722C107.941 53.3635 107.403 53.97 106.917 54.542C106.884 54.6102 106.853 54.6796 106.827 54.7508C106.652 55.2184 106.691 55.663 106.74 56.1503C106.789 56.6359 106.77 57.0883 106.578 57.5441C106.264 58.2882 105.618 59.0681 104.766 59.1546C103.928 59.2397 103.335 58.6825 102.675 58.2681C102.372 58.0777 102.05 57.9625 101.714 57.8467C101.45 57.7559 101.156 57.6646 100.942 57.4782C100.325 56.9389 101.357 56.2822 101.781 56.0878C102.202 55.8944 102.731 55.7617 103.054 55.411C103.217 55.2342 103.332 55.0206 103.418 54.7957L100.924 49.9204L99.0786 51.1098C99.0786 51.1098 97.4826 62.4693 103.765 64.3107C107.29 65.3439 113.178 57.4738 114.168 53.9368C114.748 51.8635 115.696 49.5496 113.67 49.371Z" fill="#202234"/>
<path d="M93.8589 117.124C93.8589 117.124 94.6519 114.566 95.0576 114.6C95.4637 114.634 96.2401 115.016 96.3213 115.268C96.4025 115.519 94.9239 117.861 94.4528 117.999C93.9821 118.136 93.672 117.813 93.8589 117.124Z" fill="#F4C095"/>
<path opacity="0.2" d="M94.7899 117.01C94.7712 116.576 94.7764 116.141 94.7895 115.706C94.7956 115.496 94.8039 115.287 94.7965 115.076C94.7939 114.995 94.7908 114.913 94.7886 114.833C94.376 115.457 93.859 117.124 93.859 117.124C93.6721 117.812 93.9817 118.136 94.4528 117.998C94.538 117.973 94.6567 117.876 94.7926 117.732C94.7978 117.492 94.8004 117.251 94.7899 117.01Z" fill="white"/>
<path d="M94.783 115.797C94.6629 115.688 94.5551 115.568 94.4376 115.457C93.8153 116.452 93.8293 117.134 93.8293 117.134C93.6337 117.854 93.9577 118.192 94.4503 118.049C94.7385 117.965 95.386 117.093 95.8576 116.331C95.4655 116.325 95.0433 116.031 94.783 115.797Z" fill="#CED9EF"/>
<path d="M88.9757 116.137L88.722 116.035C88.722 116.035 88.4656 116.267 88.4888 116.459C88.5119 116.651 89.2818 117.55 91.1848 118.641C93.0882 119.732 94.1384 119.943 94.3013 119.585C94.4641 119.228 89.3049 117.405 88.9757 116.137Z" fill="#17143A"/>
<path d="M94.301 119.586C91.3238 118.892 87.9798 116.007 88.8365 115.983C89.0252 115.978 89.306 116.046 89.6356 116.148C90.8059 116.514 92.5836 117.319 92.9403 116.835C93.3971 116.215 93.8014 116.33 93.8665 116.403C93.8831 116.422 93.9246 116.477 93.9853 116.549C94.1626 116.76 94.5032 117.111 94.8569 117.093C95.332 117.068 95.397 117.072 95.4525 117.312C95.6145 118.016 95.3752 118.382 94.301 119.586Z" fill="#2A2659"/>
<path d="M93.9856 116.549C93.8585 116.682 93.6847 116.815 93.5188 116.909C93.1022 117.144 93.2459 117.507 92.2638 117.784C91.2822 118.06 90.0159 116.839 89.677 116.44C89.4779 116.205 89.546 116.152 89.636 116.148C90.8062 116.514 92.5839 117.319 92.9407 116.835C93.3974 116.215 93.8018 116.331 93.8668 116.403C93.8834 116.421 93.9249 116.477 93.9856 116.549Z" fill="#17143A"/>
<path d="M111.659 66.4001C106.892 72.6308 94.3125 115.098 94.3125 115.098C94.3125 115.098 95.3199 117.341 96.2526 116.142C108.988 99.7762 123.42 76.0713 121.935 69.4729C120.45 62.8744 113.594 63.87 111.659 66.4001Z" fill="#241D51"/>
<path opacity="0.15" d="M121.935 69.473C120.45 62.8745 113.594 63.8701 111.659 66.3997C110.25 68.2407 108.16 73.2449 105.914 79.3814C106.119 79.3849 106.322 79.3521 106.531 79.322C106.794 79.284 107.053 79.2953 107.273 79.4643C107.912 79.9569 107.939 80.859 107.725 81.5643C107.488 82.3476 107.008 83.0349 106.783 83.8214C106.666 84.2288 106.665 84.6821 106.751 85.0956C106.832 85.4825 107.009 85.8349 107.186 86.1851C107.385 86.5798 107.577 86.9785 107.702 87.4042C107.854 87.9234 107.889 88.471 107.855 89.0094C107.787 90.0906 107.453 91.1325 107.334 92.2071C107.243 93.0316 107.039 93.8197 106.662 94.5616C106.322 95.2297 105.883 95.8358 105.419 96.4218C104.95 97.0153 104.46 97.5938 104.032 98.2187C103.547 98.9261 103.191 99.675 102.928 100.49C102.289 102.475 101.85 104.538 100.85 106.387C100.356 107.301 99.7153 108.132 99.2677 109.07C99.083 109.458 98.9441 109.862 98.7446 110.243C98.5708 110.575 98.3716 110.893 98.1411 111.189C97.3839 112.16 96.2577 112.897 94.9923 112.826C94.5574 114.268 94.3115 115.097 94.3115 115.097C94.3115 115.097 95.3189 117.34 96.2516 116.141C108.987 99.7763 123.42 76.0714 121.935 69.473Z" fill="#202234"/>
<path d="M124.694 118.68C124.694 118.68 124.751 115.577 124.291 115.467C123.832 115.356 122.839 115.494 122.658 115.742C122.477 115.989 123.253 119.105 123.722 119.428C124.191 119.75 124.649 119.507 124.694 118.68Z" fill="#F4C095"/>
<path opacity="0.2" d="M123.71 118.217C123.889 117.745 124.041 117.264 124.185 116.781C124.255 116.548 124.322 116.314 124.406 116.085C124.439 115.996 124.472 115.908 124.504 115.819C124.731 116.656 124.695 118.68 124.695 118.68C124.65 119.506 124.192 119.75 123.723 119.427C123.638 119.369 123.543 119.218 123.445 119.01C123.527 118.744 123.611 118.478 123.71 118.217Z" fill="white"/>
<path d="M124.159 116.883C124.33 116.808 124.493 116.715 124.662 116.635C124.986 117.957 124.723 118.702 124.723 118.702C124.676 119.566 124.197 119.821 123.706 119.483C123.42 119.286 123.023 118.091 122.781 117.081C123.216 117.216 123.787 117.047 124.159 116.883Z" fill="#CED9EF"/>
<path d="M127.977 121.334C127.977 121.334 128.076 121.766 127.722 122.026C126.844 122.672 123.575 122.687 123.369 122.42C123.164 122.153 123.156 121.772 123.156 121.772L127.977 121.334Z" fill="#17143A"/>
<path d="M124.321 118.704C124.321 118.704 123.328 118.689 123.194 118.309C123.06 117.93 123.057 117.883 122.996 117.733C122.806 117.856 123.086 119.012 123.062 119.588C123.038 120.165 122.961 121.796 123.305 122.11C123.649 122.424 125.623 121.791 125.623 121.791C125.623 121.791 125.238 121.112 124.94 120.298C124.643 119.484 125.11 118.732 124.321 118.704Z" fill="#2A2659"/>
<path d="M125.313 119.643C125.313 119.643 125.7 117.76 125.104 117.739C124.507 117.719 124.406 117.776 124.117 118.025C123.827 118.275 124.377 119.7 124.463 119.847C124.547 119.993 125.313 119.643 125.313 119.643Z" fill="#17143A"/>
<path d="M126.504 120.509C126.504 120.509 125.655 120.721 125.409 121.235C125.164 121.748 124.035 120.41 124.202 119.85C124.37 119.289 125.505 119.47 125.505 119.47C125.505 119.47 125.469 120.511 126.504 120.509Z" fill="#17143A"/>
<path opacity="0.2" d="M126.32 120.483C126.32 120.483 125.607 120.662 125.401 121.094C125.194 121.525 124.246 120.401 124.386 119.93C124.527 119.459 125.481 119.611 125.481 119.611C125.481 119.611 125.451 120.486 126.32 120.483Z" fill="white"/>
<path d="M127.944 121.618C127.489 122.132 125.696 122.524 125.251 122.146C124.805 121.768 124.963 120.086 126.669 120.18C127.373 120.218 128.262 121.258 127.944 121.618Z" fill="#2A2659"/>
<path opacity="0.2" d="M126.38 120.315C126.608 120.291 126.797 120.316 126.953 120.373C126.913 120.462 126.869 120.548 126.821 120.632C126.638 120.559 126.4 120.517 126.131 120.595C125.512 120.774 125.498 120.8 125.498 120.8C125.498 120.8 125.844 120.37 126.38 120.315ZM127.194 120.578C127.248 120.641 127.232 120.738 127.16 120.779C127.113 120.805 127.057 120.801 127.015 120.768C126.981 120.741 126.933 120.706 126.874 120.671C126.922 120.588 126.966 120.502 127.006 120.415C127.078 120.461 127.141 120.516 127.194 120.578Z" fill="white"/>
<path d="M120.409 69.1087C120.409 69.1087 126.409 93.0817 124.88 115.839C124.797 117.075 122.484 116.714 122.484 116.714C122.484 116.714 109.895 82.5166 109.836 69.8192C109.82 66.1791 120.409 69.1087 120.409 69.1087Z" fill="#2A2659"/>
<path opacity="0.25" d="M122.716 116.741C122.848 115.892 122.704 115.008 122.515 114.18C122.312 113.293 122.022 112.428 121.743 111.563C121.415 110.544 121.084 109.526 120.774 108.5C120.456 107.445 120.16 106.382 119.919 105.306C119.696 104.313 119.452 103.275 119.498 102.251C119.546 101.192 119.829 100.144 119.747 99.0784C119.664 98.0051 119.212 96.9798 118.88 95.9667C118.53 94.8973 118.1 93.4725 118.775 92.4258C119.204 91.762 120.012 91.5393 120.755 91.4734C121.712 91.3887 122.677 91.4952 123.631 91.5629C123.807 91.5756 123.998 91.59 124.196 91.6027C122.82 78.7476 120.409 69.1082 120.409 69.1082C120.409 69.1082 109.819 66.1786 109.836 69.8187C109.894 82.5161 122.484 116.713 122.484 116.713C122.484 116.713 122.574 116.728 122.716 116.741Z" fill="#202234"/>
<path d="M111.46 50.0828C114.427 46.772 120.202 48.02 122.968 51.0897C125.734 54.1595 124.976 73.3296 122.092 73.2156C119.209 73.1017 108.178 77.2902 106.967 71.4017C105.756 65.5137 106.144 56.0153 111.46 50.0828Z" fill="#F7C06B"/>
<path opacity="0.15" d="M120.263 54.3997C120.152 54.7159 120.055 55.0364 119.987 55.3648C119.812 56.2071 119.773 57.0752 119.866 57.9302C119.961 58.8109 120.214 59.624 120.545 60.4406C121.149 61.9266 121.901 63.5798 121.229 65.1771C120.722 66.3823 119.498 66.9081 118.63 67.7989C118.383 68.0521 118.281 68.2949 118.178 68.6359C118.057 69.0364 117.965 69.446 117.866 69.8521C117.758 70.29 117.649 70.7293 117.507 71.1577C117.396 71.4944 117.267 71.8516 117.045 72.1332C116.878 72.3441 116.641 72.4983 116.364 72.4345C115.996 72.3498 115.702 71.9603 115.525 71.6538C115.198 71.0887 115.158 70.3852 115.122 69.7486C115.102 69.4045 115.092 69.0595 115.058 68.7163C115.024 68.3744 114.954 68.0355 114.905 67.6954C114.779 66.8212 114.67 65.943 114.664 65.0583C114.657 64.1073 114.786 63.1619 114.867 62.2156C115.137 59.0743 115.287 55.9246 115.416 52.7749C115.31 53.102 115.192 53.4255 115.071 53.7452C114.706 54.7006 114.341 55.6407 114.099 56.6363C113.656 58.4616 113.486 60.3362 113.333 62.2038C113.189 63.9549 112.851 65.6583 112.441 67.3648C111.854 69.8053 111.155 72.3271 111.115 74.8528C114.344 75.8685 119.947 73.1301 122.092 73.2153C124.163 73.2974 125.138 63.43 124.498 56.7263C122.893 56.3905 121.38 55.6084 120.263 54.3997Z" fill="#202234"/>
<path d="M115.984 50.0844C115.723 49.9831 115.893 49.5177 115.634 49.415C115.498 49.4845 114.795 49.9748 114.659 50.0447C114.69 50.2556 115.189 50.5028 115.219 50.7132C112.346 56.9746 111.611 62.4369 109.505 68.6825C109.866 71.0056 110.085 73.3256 110.616 75.6212C111.879 73.5893 112.866 71.5331 113.688 69.2856C113.459 63.1735 114.554 56.717 115.862 50.7735C116.017 50.6604 116.147 50.5281 116.303 50.4146C116.276 50.2853 116.014 50.2146 115.984 50.0844Z" fill="#F15A29"/>
<path opacity="0.15" d="M115.12 48.438C115.45 48.3716 115.788 48.3341 116.126 48.3332C116.293 48.3328 116.468 48.3415 116.637 48.3716C116.611 48.4655 116.649 48.5707 116.78 48.5978C117.023 48.6485 117.271 48.6755 117.508 48.7454C117.601 48.7729 117.696 48.8083 117.758 48.8659C117.742 48.9052 118.204 49.6035 117.114 50.9628C116.908 51.2191 116.432 50.8318 116.792 49.4746C116.874 49.1629 115.277 50.6432 114.942 50.7213C114.444 50.8379 113.871 49.9545 114.404 49.3454C114.577 49.1471 114.75 48.4895 114.937 48.3249C115.151 48.1363 114.838 48.4948 115.12 48.438Z" fill="#202234"/>
<path d="M115.244 46.5819L114.949 48.2172C114.949 48.2172 115.26 50.418 117.452 48.7512L116.925 46.1094L115.244 46.5819Z" fill="#D7A28E"/>
<path opacity="0.15" d="M116.925 46.1099L115.243 46.5823L115.114 47.5967C115.154 47.6129 115.195 47.6282 115.235 47.643C115.427 47.7129 115.624 47.7723 115.812 47.8539C115.959 47.9181 116.105 48.0002 116.214 48.1212C116.328 48.2482 116.386 47.7037 116.394 47.8731C116.406 48.1517 116.261 48.3941 116.158 48.6425C116.092 48.8019 116.056 49.0168 115.912 49.1272C115.807 49.2076 115.669 49.236 115.534 49.2333C115.905 49.4696 116.501 49.4744 117.451 48.7521L116.925 46.1099Z" fill="#33133F"/>
<path d="M113.746 41.7351C113.746 41.7351 112.723 47.2236 114.776 47.3589C116.83 47.4943 118.245 45.3149 118.245 45.3149C118.245 45.3149 119.099 45.1817 119.16 44.1547C119.209 43.3268 118.697 43.4748 118.697 43.4748C118.697 43.4748 119.097 41.3631 117.625 40.9452C116.153 40.5277 113.746 41.7351 113.746 41.7351Z" fill="#D7A28E"/>
<path opacity="0.05" d="M116.759 44.5833C116.782 44.717 116.635 44.8523 116.434 44.886C116.231 44.9196 116.049 44.8384 116.027 44.7047C116.006 44.5711 116.151 44.4357 116.354 44.4021C116.555 44.3685 116.737 44.4497 116.759 44.5833ZM114.47 44.589C114.492 44.7226 114.346 44.858 114.144 44.8916C113.942 44.9253 113.76 44.844 113.738 44.7104C113.715 44.5768 113.862 44.4414 114.064 44.4078C114.266 44.3742 114.448 44.4554 114.47 44.589Z" fill="#33133F"/>
<path d="M114.571 43.3332C114.551 43.3332 114.533 43.3232 114.522 43.3048C114.513 43.2891 114.295 42.9275 113.759 43.1633C113.73 43.176 113.697 43.1629 113.685 43.1345C113.672 43.1061 113.685 43.0725 113.713 43.0599C114.346 42.7817 114.618 43.2441 114.62 43.2489C114.636 43.276 114.626 43.3105 114.599 43.3258C114.59 43.331 114.581 43.3332 114.571 43.3332ZM115.667 43.3467C115.66 43.3467 115.653 43.3454 115.646 43.3424C115.617 43.3306 115.602 43.2978 115.614 43.269C115.616 43.2638 115.823 42.7717 116.565 42.9328C116.596 42.9393 116.615 42.9695 116.608 43C116.602 43.0306 116.572 43.0498 116.541 43.0433C115.891 42.9018 115.72 43.307 115.719 43.3109C115.71 43.3332 115.689 43.3467 115.667 43.3467ZM115.019 44.7585C114.999 44.7585 114.98 44.7559 114.961 44.7502C114.842 44.7148 114.791 44.5799 114.789 44.5742C114.783 44.5576 114.785 44.5388 114.795 44.524C114.998 44.2135 114.946 43.793 114.946 43.7891C114.942 43.7581 114.964 43.7297 114.994 43.7258C115.026 43.7214 115.053 43.7437 115.057 43.7742C115.06 43.7926 115.113 44.2179 114.906 44.5594C114.922 44.5891 114.953 44.6301 114.994 44.6419C115.032 44.6528 115.078 44.638 115.132 44.5974C115.157 44.5786 115.192 44.5834 115.211 44.6083C115.23 44.6332 115.225 44.6685 115.2 44.6873C115.138 44.7349 115.077 44.7589 115.019 44.7585ZM114.398 43.7882C114.398 43.9642 114.299 44.1065 114.179 44.1061C114.059 44.1057 113.961 43.9629 113.962 43.7869C113.963 43.6109 114.061 43.4686 114.181 43.469C114.302 43.4694 114.398 43.6122 114.398 43.7882ZM116.327 43.7939C116.326 43.9699 116.228 44.1122 116.108 44.1118C115.988 44.1113 115.891 43.9681 115.891 43.7926C115.891 43.6166 115.99 43.4742 116.11 43.4747C116.23 43.4751 116.327 43.6179 116.327 43.7939Z" fill="#241D51"/>
<path opacity="0.05" d="M118.598 43.8108C118.598 43.8108 118.928 43.6566 118.992 43.8894C119.056 44.1221 118.847 44.7095 118.53 44.8444C118.53 44.8444 119.107 44.2907 118.921 43.954C118.734 43.6173 118.617 43.9724 118.598 43.8108Z" fill="#33133F"/>
<path d="M115.627 49.5789C115.627 49.5789 116.052 51.1011 116.697 50.6452C117.343 50.1889 118.862 48.8016 117.312 47.7925C117.312 47.7925 117.312 48.6802 117.138 48.8903C116.599 49.5405 115.679 48.9859 115.679 48.9859C115.679 48.9859 114.923 48.6488 114.924 47.9619C114.924 47.9619 113.599 49.8492 114.413 50.1688C115.227 50.488 115.627 49.5789 115.627 49.5789Z" fill="#EAAD5E"/>
<path d="M117.092 39.613C114.921 39.6841 115.938 38.5278 115.419 38.9654C115.008 39.313 115.541 39.6466 115.778 39.7693C115.457 39.6374 112.891 39.5077 112.434 41.4596C111.884 43.8098 116.956 41.5247 116.956 41.5247C116.618 42.4286 117.595 43.4386 118.019 43.8259C117.99 44.3578 117.259 44.9359 116.959 45.5342C116.528 46.3887 116.617 45.2765 115.79 45.1599C114.964 45.0433 113.38 45.2097 113.463 45.9516C113.547 46.6935 114.229 47.5795 115.099 47.4398C116.368 47.2358 118.27 46.6315 118.385 43.901C119.282 42.8731 119.208 39.5435 117.092 39.613Z" fill="#241D51"/>
<path d="M114.263 45.6496C114.263 45.6496 114.906 45.9435 115.629 45.6099C115.792 45.9099 114.934 46.6884 114.263 45.6496Z" fill="#FCFAF7"/>
<path opacity="0.05" d="M115.096 46.4521C115.036 46.4521 114.997 46.443 114.993 46.4421C114.978 46.4386 114.969 46.4233 114.972 46.408C114.976 46.3932 114.991 46.3836 115.006 46.3871C115.009 46.388 115.257 46.4434 115.482 46.2491C115.494 46.2395 115.512 46.2408 115.522 46.2521C115.532 46.2639 115.53 46.2818 115.519 46.2919C115.362 46.4268 115.198 46.4526 115.096 46.4521Z" fill="#33133F"/>
<path d="M120.349 72.9516C120.349 72.9516 120.368 72.0983 120.556 71.9411C120.993 71.5761 121.569 71.5464 121.728 71.6329C121.16 72.0184 120.349 72.9516 120.349 72.9516Z" fill="#D7A28E"/>
<path d="M122.515 73.1201L120.925 72.5533C119.742 72.132 118.441 72.7494 118.019 73.9328L116.966 76.8859C116.828 77.2759 117.031 77.7043 117.421 77.8431L117.458 77.8567L118.858 73.9284C119.038 73.4227 119.421 73.0952 119.712 73.1992L123.045 74.3869C123.337 74.4904 123.426 74.9864 123.246 75.4921L121.847 79.4204L121.884 79.4339C122.274 79.5728 122.703 79.3693 122.841 78.9798L123.894 76.0266C124.316 74.8428 123.698 73.5415 122.515 73.1201Z" fill="#383B4B"/>
<path d="M123.203 73.561C123.236 73.4426 123.178 73.3217 123.065 73.2741C122.551 73.0579 121.137 72.471 120.46 72.2881C120.297 72.244 120.131 72.3335 120.073 72.4929C119.978 72.7531 119.881 73.0274 119.938 73.2832C119.96 73.378 120.043 73.447 120.134 73.4797C120.134 73.4797 122.124 74.3762 122.754 74.4133C122.994 74.4273 123.121 73.8513 123.203 73.561Z" fill="#202234"/>
<path opacity="0.33" d="M122.71 73.9958C122.376 74.0425 122.079 73.8438 121.809 73.6766C121.755 73.6434 121.701 73.6071 121.643 73.5805C121.537 73.5316 121.427 73.5394 121.313 73.5303C121.039 73.5084 120.818 73.3809 120.576 73.2691C120.459 73.2154 120.332 73.1984 120.22 73.1342C120.117 73.0757 120.027 72.9971 119.953 72.905C119.951 72.9019 119.95 72.8975 119.948 72.894C119.919 73.0259 119.91 73.1569 119.938 73.284C119.959 73.3787 120.042 73.4477 120.134 73.4805C120.134 73.4805 122.124 74.377 122.754 74.4141C122.961 74.4263 123.083 74.0054 123.165 73.7019C123.059 73.8538 122.903 73.9687 122.71 73.9958Z" fill="#0F1019"/>
<path d="M129.344 79.4585L126.032 88.753C125.687 89.722 124.715 90.2682 123.872 89.9678L109.221 84.7474C108.371 84.4448 107.97 83.4091 108.315 82.4405L111.627 73.1456C111.952 72.2339 112.897 71.7422 113.746 72.0448L128.398 77.2652C129.241 77.566 129.669 78.5468 129.344 79.4585Z" fill="#202234"/>
<path opacity="0.33" d="M111.821 76.5908C112.38 77.1716 113.044 77.6222 113.782 77.9248C114.544 78.2371 115.458 78.5047 115.82 79.3514C115.958 79.6759 116.022 80.0318 116.164 80.3549C116.319 80.7081 116.606 81.0274 116.883 81.2758C117.031 81.409 117.193 81.533 117.373 81.6169C117.507 81.6789 117.68 81.7435 117.832 81.7217C117.934 81.7068 118.031 81.6269 118.125 81.5854C118.301 81.5086 118.489 81.4466 118.672 81.3959C118.817 81.3553 118.966 81.3352 119.111 81.3701C119.282 81.4116 119.426 81.523 119.554 81.6422C119.828 81.8994 119.953 82.3103 120.258 82.5304C120.544 82.7365 120.862 82.5941 121.092 82.3535C121.307 82.1286 121.488 81.8832 121.744 81.7064C122.176 81.4073 122.695 81.3116 123.192 81.3693C124.258 81.4933 125.258 82.2186 125.798 83.1675C126.052 83.6137 126.203 84.146 126.14 84.6814C126.064 85.3272 125.436 86.7765 124.912 87.149C124.382 87.5254 123.734 87.6136 123.122 87.6105C122.441 87.607 121.769 87.4678 121.088 87.6332C120.78 87.7084 120.486 87.845 120.218 88.0284C120.026 88.1594 119.856 88.3184 119.683 88.4721L123.872 89.9642C124.718 90.2659 125.688 89.7227 126.033 88.7516L128.278 82.4526L111.821 76.5908Z" fill="#0F1019"/>
<path opacity="0.33" d="M128.398 77.2631L120.663 74.5073C121.056 74.9348 121.599 75.1959 122.134 75.4038C122.791 75.6597 123.463 75.8728 124.121 76.1278C125.306 76.5872 126.639 77.1758 127.22 78.3889C127.447 78.8626 127.581 79.467 127.443 79.9857C127.345 80.3539 127.07 80.6241 126.72 80.7613C126.335 80.9123 125.905 80.9298 125.496 80.9049C125.056 80.8783 124.62 80.7971 124.193 80.6879C124.009 80.6407 123.827 80.587 123.646 80.5276C123.282 80.4089 122.952 80.2146 122.611 80.0456C122.296 79.8897 121.984 79.7862 121.639 79.7272C121.506 79.7045 121.374 79.6748 121.258 79.6028C121.172 79.5495 121.107 79.4748 121.054 79.3914C120.939 79.6748 120.883 79.9761 120.836 80.2801L128.128 82.8782L129.347 79.4569C129.671 78.5469 129.245 77.5644 128.398 77.2631Z" fill="#0F1019"/>
<path d="M118.365 78.9223L117.999 78.7917C117.796 78.7197 117.574 78.8249 117.502 79.0275L117.096 80.1672C117.024 80.3698 117.129 80.5921 117.332 80.6642L117.698 80.7947C117.901 80.8668 118.123 80.7611 118.195 80.5589L118.601 79.4192C118.674 79.2166 118.568 78.9943 118.365 78.9223ZM117.609 80.4829C117.44 80.4227 117.35 80.234 117.411 80.0646C117.472 79.893 117.66 79.8035 117.83 79.8642C118.002 79.9253 118.091 80.1135 118.03 80.2851C117.97 80.4545 117.781 80.5441 117.609 80.4829ZM121.143 79.9122L120.777 79.7817C120.574 79.7096 120.352 79.8148 120.28 80.0174L119.874 81.1572C119.802 81.3598 119.907 81.582 120.11 81.6541L120.476 81.7846C120.679 81.8567 120.901 81.751 120.973 81.5488L121.379 80.4091C121.452 80.2065 121.346 79.9843 121.143 79.9122ZM120.387 81.4724C120.218 81.4122 120.129 81.2235 120.189 81.0541C120.25 80.8825 120.438 80.793 120.608 80.8537C120.78 80.9148 120.869 81.103 120.808 81.2746C120.748 81.4445 120.559 81.5336 120.387 81.4724Z" fill="#FCC61A"/>
<path d="M128.573 81.6243L128.309 82.3654C125.62 81.7667 122.58 80.8894 119.405 79.7585C116.123 78.5891 113.115 77.2987 110.604 76.0189L110.867 75.2778C113.378 76.5577 116.387 77.8481 119.669 79.0174C122.849 80.1502 125.889 81.0279 128.573 81.6243Z" fill="#FCC61A"/>
<path d="M122.824 73.308C122.733 73.4521 122.634 73.5914 122.529 73.7141L122.53 73.7145C122.529 73.715 122.529 73.715 122.529 73.7158C122.524 73.7224 122.501 73.7569 122.465 73.8062L122.465 73.8067C122.437 73.846 122.4 73.8931 122.36 73.9425C122.36 73.9425 121.945 74.525 121.735 74.4769C121.525 74.4289 121.516 74.2669 121.516 74.2669C121.516 74.2669 121.342 74.3831 121.177 74.2625C121.012 74.142 121.046 73.9962 121.046 73.9962C121.046 73.9962 120.889 74.1075 120.701 73.9713C120.513 73.835 120.541 73.625 120.541 73.625C120.541 73.625 120.293 73.7778 120.172 73.4394C120.052 73.1019 120.43 72.7355 120.444 72.7181C120.501 72.6425 120.561 72.5722 120.621 72.5063C120.638 72.4884 120.652 72.4674 120.671 72.4534C122.076 71.436 123.341 68.8535 123.65 68.8579C123.65 68.8579 124.975 69.3863 124.909 69.7334C124.737 70.0138 123.002 72.3015 123.002 72.3015C123.002 72.3015 123.166 72.767 122.824 73.308Z" fill="#D7A28E"/>
<path opacity="0.2" d="M122.529 73.7139L122.529 73.7143C122.529 73.7148 122.529 73.7148 122.529 73.7156C122.524 73.7222 122.501 73.7567 122.465 73.806L122.465 73.8065C122.436 73.8458 122.4 73.8929 122.36 73.9423C122.36 73.9423 121.945 74.5248 121.735 74.4767C121.525 74.4287 121.516 74.2667 121.516 74.2667C121.516 74.2667 121.342 74.3829 121.177 74.2623C121.012 74.1418 121.046 73.996 121.046 73.996C121.046 73.996 120.889 74.1073 120.701 73.9711C120.513 73.8348 120.54 73.6248 120.54 73.6248C120.54 73.6248 120.293 73.7776 120.172 73.4392C120.129 73.3178 120.15 73.1929 120.196 73.082C120.233 73.2122 120.31 73.344 120.421 73.4187C120.45 73.4379 120.482 73.4532 120.515 73.4611C120.554 73.4698 120.594 73.468 120.633 73.4733C120.717 73.4846 120.758 73.5597 120.805 73.6239C120.864 73.7069 120.93 73.782 121.026 73.8217C121.098 73.8519 121.176 73.8593 121.252 73.872C121.332 73.8855 121.409 73.9108 121.469 73.9685C121.526 74.0235 121.577 74.0768 121.651 74.1086C121.78 74.1632 121.916 74.1248 122.027 74.0519C122.105 74.0012 122.17 73.9348 122.236 73.8706C122.322 73.7868 122.406 73.7012 122.49 73.6161C122.635 73.4698 122.779 73.3266 122.905 73.1637C122.881 73.2113 122.856 73.2593 122.825 73.3082C122.733 73.4519 122.633 73.5912 122.529 73.7139Z" fill="white"/>
<path d="M122.969 51.0898C122.969 51.0898 128.521 55.4762 130.353 60.9878C132.184 66.4994 123.175 72.0433 123.175 72.0433L121.745 71.2158C121.745 71.2158 123.164 66.6094 125.695 63.1698C122.528 61.1109 118.826 55.7635 119.763 52.3636C120.304 50.3977 122.969 51.0898 122.969 51.0898Z" fill="#F7C06B"/>
<g opacity="0.1">
<path d="M129.81 59.6138C129.619 60.2522 129.608 60.9404 129.555 61.6002C129.492 62.3918 129.317 63.1272 128.971 63.8451C128.439 64.9477 127.56 65.8075 126.88 66.8122C126.255 67.7366 125.712 68.7008 124.965 69.5392C124.352 70.2261 123.54 70.9719 122.569 71.0195C122.309 71.0322 122.068 70.9907 121.843 70.9121C121.778 71.1073 121.744 71.216 121.744 71.216L123.174 72.0435C123.174 72.0435 132.184 66.4991 130.352 60.988C130.197 60.5207 130.013 60.0627 129.81 59.6138Z" fill="#202234"/>
</g>
<path d="M98.5132 50.9574C98.4512 51.1849 98.5852 51.4198 98.8127 51.4814C99.0411 51.5434 99.276 51.4089 99.338 51.1814L106.298 25.5883C106.36 25.3608 106.225 25.1259 105.997 25.0639C105.769 25.0019 105.535 25.1368 105.473 25.3639L98.5132 50.9574Z" fill="#241D51"/>
<path d="M136.38 39.5508C134.633 25.7543 124.82 13.7049 110.592 9.78411C110.579 9.77975 110.566 9.77669 110.558 9.77276L110.471 9.74918C110.471 9.74918 110.422 9.73608 110.422 9.73564C110.422 9.73564 110.383 9.72516 110.386 9.72691C109.483 9.48369 108.578 9.27802 107.674 9.10815C107.667 9.10684 107.659 9.10553 107.652 9.10422C102.084 8.06015 96.2717 8.38023 90.8527 10.0295C90.8322 10.0356 90.8116 10.0409 90.7911 10.0474C83.7926 12.1923 77.5077 16.528 73.0371 22.3256C73.1777 22.2623 73.3201 22.2033 73.4629 22.1444C76.2387 21.0038 79.398 20.7361 82.515 21.5837C82.6316 21.6156 82.7464 21.6488 82.8617 21.6837C87.5336 23.0815 90.9636 26.7041 92.3011 31.0721C92.3155 31.0598 92.3286 31.0467 92.3413 31.0349C95.7909 27.8957 100.717 26.5333 105.549 27.8473C110.397 29.1656 113.965 32.8602 115.337 37.3365C115.358 37.3155 115.38 37.2963 115.402 37.2766C118.764 34.2278 123.528 32.8681 128.234 34.0226C128.351 34.0501 128.467 34.0794 128.583 34.1108C131.155 34.8104 133.365 36.1793 135.081 37.9775C135.551 38.4727 135.987 38.9967 136.38 39.5508Z" fill="#4462CC"/>
<path opacity="0.4" d="M92.3408 31.0349C95.7905 27.8957 100.717 26.5333 105.549 27.8472C110.397 29.1655 113.965 32.8602 115.337 37.3364C115.358 37.3155 115.379 37.2963 115.402 37.2766C117.663 27.5044 115.63 17.6729 110.488 9.83691C102.074 13.9935 95.3385 21.4536 92.3408 31.0349Z" fill="#241D51"/>
<path opacity="0.4" d="M110.384 9.72559C119.886 14.8796 126.233 23.9286 128.235 34.0235C128.351 34.051 128.467 34.0802 128.583 34.1117C131.861 35.0029 134.556 36.9797 136.381 39.5508C134.634 25.7539 124.821 13.7049 110.593 9.7841C110.552 9.771 110.514 9.76052 110.472 9.74917L110.384 9.72559Z" fill="#241D51"/>
<path opacity="0.4" d="M110.558 9.77285C99.7541 9.40518 89.6981 13.9932 82.8608 21.6847C82.746 21.6493 82.6311 21.6157 82.5145 21.5842C79.2373 20.693 75.9126 21.0323 73.0371 22.3253C81.5303 11.3134 96.0944 5.89307 110.348 9.71783C110.39 9.72744 110.429 9.73792 110.47 9.74927L110.558 9.77285Z" fill="#241D51"/>
<path d="M98.7616 50.2429L99.5371 50.4538C99.6044 50.4722 99.6446 50.542 99.6262 50.6097L99.0306 52.7996C98.8105 53.6083 98.7778 54.6331 99.8703 54.9305C100.685 55.1519 101.303 54.6441 101.614 53.5022L101.935 52.3206C101.954 52.2533 102.023 52.2136 102.09 52.2319L102.865 52.4428C102.933 52.4612 102.973 52.5306 102.954 52.5978L102.638 53.7611C102.009 56.0755 100.503 56.037 99.662 55.8082C98.156 55.3986 97.559 54.1816 98.025 52.469L98.6062 50.3324C98.6241 50.2643 98.6935 50.2241 98.7616 50.2429Z" fill="#241D51"/>
<path d="M100.189 48.0235C100.06 47.5995 99.068 47.4873 99.068 47.4873C98.7942 47.6096 99.0007 47.903 98.8012 48.1078C98.602 48.3126 98.6553 48.6467 98.4309 48.8925C98.2068 49.1383 98.4929 49.6008 98.564 49.6842C98.6352 49.7676 99.4195 50.1357 99.4941 49.9628C99.6072 49.7012 98.8658 49.2667 98.8658 49.2667C98.8658 49.2667 100.109 49.9353 100.021 49.4623C99.9749 49.2148 99.523 48.9318 99.2745 48.7798C99.6496 48.9161 100.259 49.0379 100.2 48.8309C100.138 48.61 99.6212 48.2672 99.3461 48.0978C99.7112 48.2746 100.289 48.355 100.189 48.0235Z" fill="#E5B1A1"/>
<path opacity="0.25" d="M99.3064 49.6989L99.2305 49.9028C99.2305 49.9028 99.3383 49.9854 99.4409 49.9365C99.5436 49.8871 99.3064 49.6989 99.3064 49.6989ZM99.7981 49.2893L99.7222 49.4932C99.7222 49.4932 99.83 49.5758 99.9326 49.5269C100.036 49.478 99.7981 49.2893 99.7981 49.2893ZM99.9855 48.6234L99.9095 48.8273C99.9095 48.8273 100.017 48.9098 100.12 48.8609C100.223 48.812 99.9855 48.6234 99.9855 48.6234ZM99.9746 47.8828L99.8981 48.0867C99.8981 48.0867 100.006 48.1693 100.109 48.1204C100.212 48.0714 99.9746 47.8828 99.9746 47.8828Z" fill="#FCFAF7"/>
<path d="M135.996 123.578H112.116C111.749 123.578 111.452 123.28 111.452 122.913C111.452 122.546 111.749 122.249 112.116 122.249H135.996C136.363 122.249 136.66 122.546 136.66 122.913C136.66 123.28 136.363 123.578 135.996 123.578ZM109.269 123.578H26.2789C25.9116 123.578 25.6143 123.28 25.6143 122.913C25.6143 122.546 25.9116 122.249 26.2789 122.249H109.269C109.636 122.249 109.934 122.546 109.934 122.913C109.933 123.28 109.636 123.578 109.269 123.578Z" fill="#9AB6E2"/>
<path opacity="0.2" d="M53.1179 52.1532C53.1179 56.1802 49.8529 59.4451 45.826 59.4451C45.5343 59.4451 45.2474 59.4277 44.9649 59.3945C45.1238 54.8304 45.3928 49.9865 45.7972 44.8613H45.826C49.8529 44.8613 53.1179 48.1258 53.1179 52.1532ZM53.1179 73.6538C53.1179 77.6812 49.8529 80.9457 45.826 80.9457C45.5535 80.9457 45.2841 80.9309 45.0195 80.9016C44.83 76.5039 44.7422 71.6814 44.8016 66.4335C45.1361 66.3868 45.4784 66.3624 45.826 66.3624C49.8529 66.3624 53.1179 69.6264 53.1179 73.6538ZM53.1179 95.1549C53.1179 98.7735 50.4813 101.777 47.0242 102.348C46.4255 98.4294 45.8439 93.6051 45.4238 87.8743C45.557 87.8669 45.6911 87.8634 45.8264 87.8634C49.8529 87.8629 53.1179 91.1279 53.1179 95.1549Z" fill="#202234"/>
<path d="M43.8876 57.5506C47.9148 57.5506 51.1795 54.2859 51.1795 50.2587C51.1795 46.2315 47.9148 42.9668 43.8876 42.9668C39.8604 42.9668 36.5957 46.2315 36.5957 50.2587C36.5957 54.2859 39.8604 57.5506 43.8876 57.5506Z" fill="#4462CC"/>
<path d="M46.6885 51.2691C46.6571 51.3599 46.6239 51.4485 46.5889 51.5346C46.3732 52.0721 46.0951 52.5232 45.7479 52.8996C45.6374 53.0201 45.5191 53.1323 45.3938 53.238C44.9912 53.5773 44.5244 53.8209 44.0065 53.9615C43.9868 53.9672 43.9615 53.9716 43.9344 53.9733L43.9209 53.9742L43.9074 53.9733C43.8799 53.9716 43.8541 53.9672 43.8301 53.9598C43.3192 53.8214 42.8528 53.5777 42.4489 53.238C42.1843 53.0153 41.952 52.7603 41.7507 52.4699C41.6743 52.3599 41.6022 52.2446 41.5345 52.1241C41.5345 52.1241 41.5345 52.1241 41.5345 52.1236C41.3882 51.8642 41.262 51.58 41.1542 51.2691C40.8332 50.3438 40.7009 49.3403 40.7503 48.201L40.7498 48.0238C40.7498 47.8115 40.9223 47.639 41.1345 47.639H41.6433C41.6847 47.6382 42.7733 47.6041 43.7576 46.471L43.9205 46.2832L44.0833 46.471C45.068 47.6046 46.1571 47.6382 46.2029 47.6395L46.7068 47.639C46.9191 47.639 47.0915 47.812 47.0915 48.0238L47.092 48.2141C47.1418 49.3412 47.0094 50.3438 46.6885 51.2691Z" fill="white"/>
<path d="M43.9217 46.6123C42.8689 47.8241 41.6952 47.8538 41.6441 47.8551H41.1354C41.0424 47.8551 40.9668 47.9306 40.9668 48.0236V48.2105C40.9188 49.3227 41.0472 50.2991 41.359 51.1986C41.6362 51.9968 42.038 52.6099 42.5886 53.0728C42.9676 53.392 43.406 53.6208 43.8929 53.7531C43.9012 53.7557 43.9113 53.757 43.9217 53.7579C43.9327 53.757 43.9427 53.7557 43.9501 53.7536C44.437 53.6208 44.8763 53.392 45.2553 53.0728C45.8055 52.6099 46.2077 51.9968 46.485 51.1986C46.7972 50.2995 46.9251 49.3231 46.8771 48.2144V48.0241C46.8771 47.931 46.8016 47.8555 46.7086 47.8555H46.2007C46.1487 47.8538 44.9746 47.8241 43.9217 46.6123Z" fill="#5E97FE"/>
<path d="M45.378 49.8203H44.8553C44.6072 49.8203 44.4059 49.619 44.4059 49.3709V48.8483C44.4059 48.6002 44.2046 48.3989 43.9566 48.3989C43.7086 48.3989 43.5073 48.6002 43.5073 48.8483V49.3709C43.5073 49.619 43.306 49.8203 43.058 49.8203H42.5353C42.2872 49.8203 42.0859 50.0216 42.0859 50.2696C42.0859 50.5176 42.2872 50.7189 42.5353 50.7189H43.058C43.306 50.7189 43.5073 50.9202 43.5073 51.1683V51.691C43.5073 51.939 43.7086 52.1403 43.9566 52.1403C44.2046 52.1403 44.4059 51.939 44.4059 51.691V51.1683C44.4059 50.9202 44.6072 50.7189 44.8553 50.7189H45.378C45.626 50.7189 45.8273 50.5176 45.8273 50.2696C45.8273 50.0216 45.626 49.8203 45.378 49.8203Z" fill="white"/>
<path d="M43.8876 79.0516C47.9148 79.0516 51.1795 75.7869 51.1795 71.7597C51.1795 67.7325 47.9148 64.4678 43.8876 64.4678C39.8604 64.4678 36.5957 67.7325 36.5957 71.7597C36.5957 75.7869 39.8604 79.0516 43.8876 79.0516Z" fill="#4462CC"/>
<path d="M46.7237 72.8804C46.6922 72.9712 46.659 73.0599 46.6241 73.1459C46.4084 73.6834 46.1302 74.1345 45.7831 74.5109C45.6726 74.6314 45.5543 74.7436 45.4289 74.8493C45.0263 75.1886 44.5595 75.4318 44.0416 75.5729C44.022 75.5786 43.9967 75.5829 43.9696 75.5847L43.9561 75.5855L43.9425 75.5847C43.915 75.5829 43.8893 75.5786 43.8652 75.5711C43.3543 75.4327 42.888 75.189 42.4841 74.8493C42.2194 74.6266 41.9871 74.3716 41.7858 74.0812C41.7094 73.9712 41.6374 73.8559 41.5697 73.7354C41.5697 73.7354 41.5697 73.7354 41.5697 73.7349C41.4234 73.4756 41.2972 73.1913 41.1893 72.8804C40.8684 71.9551 40.7361 70.9516 40.7854 69.8124L40.785 69.6351C40.785 69.4229 40.9575 69.2504 41.1697 69.2504H41.6784C41.7199 69.2495 42.8085 69.2155 43.7927 68.0823L43.9556 67.8945L44.1185 68.0823C45.1032 69.2159 46.1922 69.2495 46.2381 69.2508L46.742 69.2504C46.9542 69.2504 47.1267 69.4233 47.1267 69.6351L47.1271 69.8255C47.1769 70.9529 47.0446 71.9551 46.7237 72.8804Z" fill="white"/>
<path d="M43.9559 68.2241C42.9031 69.4359 41.7294 69.4656 41.6783 69.4669H41.1696C41.0765 69.4669 41.001 69.5424 41.001 69.6354V69.8223C40.953 70.9345 41.0813 71.9109 41.3931 72.8104C41.6704 73.6087 42.0721 74.2217 42.6228 74.6846C43.0018 75.0038 43.4402 75.2326 43.9271 75.3649C43.9354 75.3676 43.9454 75.3689 43.9559 75.3697C43.9668 75.3689 43.9769 75.3676 43.9843 75.3654C44.4712 75.2326 44.9105 75.0038 45.2895 74.6846C45.8397 74.2217 46.2419 73.6087 46.5192 72.8104C46.8314 71.9113 46.9593 70.9349 46.9113 69.8262V69.6359C46.9113 69.5429 46.8357 69.4673 46.7427 69.4673H46.2349C46.1825 69.4656 45.0083 69.4359 43.9559 68.2241Z" fill="#5E97FE"/>
<path d="M46.0383 72.2986V72.2454C46.0383 72.2406 46.0383 72.2362 46.0379 72.2314C46.0318 71.9336 45.8278 71.6777 45.5414 71.6035C45.5409 71.6035 45.5409 71.6035 45.5405 71.6035C45.5296 71.6008 45.5182 71.5978 45.5073 71.5956C45.5069 71.5956 45.5069 71.5956 45.5064 71.5956L45.2947 71.5528L44.8209 71.4572C44.8196 71.4537 44.8178 71.4506 44.8165 71.4471V71.3192V71.3188C44.8161 71.2755 44.7811 71.2402 44.7375 71.2402C44.7296 71.2402 44.7222 71.2415 44.7152 71.2437C44.5851 71.0157 44.4126 70.824 44.2196 70.7725C43.948 70.6996 43.0633 70.6424 42.7292 70.7594C42.7297 70.759 42.7297 70.759 42.7297 70.759C42.7297 70.759 42.5384 70.7507 42.5013 70.7777C42.4664 70.8031 42.5821 70.8301 42.6105 70.8432L42.61 70.8437C42.5122 70.9354 42.4175 71.0825 42.3262 71.2834C42.2935 71.3554 42.2651 71.4266 42.2415 71.4899C42.1018 71.5498 42.0127 71.6602 41.9572 71.8043C41.9284 71.7991 41.9 71.8008 41.9 71.8008C41.8939 71.8008 41.8882 71.8065 41.883 71.8157C41.883 71.8157 41.883 71.8157 41.8826 71.8157C41.8633 71.8157 41.8472 71.8607 41.8472 71.9166C41.8472 71.972 41.8629 72.0174 41.8826 72.0174C41.8826 72.0174 41.8826 72.0174 41.883 72.0174C41.8878 72.0262 41.8935 72.0314 41.8991 72.0318C41.8978 72.0393 41.897 72.0467 41.8957 72.0541C41.8948 72.0589 41.8943 72.0637 41.8935 72.0685C41.8917 72.0816 41.89 72.0952 41.8887 72.1087C41.8882 72.1135 41.8874 72.1183 41.8869 72.1231C41.8852 72.1397 41.8834 72.1563 41.8821 72.1733C41.8821 72.1746 41.8817 72.1759 41.8817 72.1773C41.8804 72.1956 41.8791 72.2144 41.8777 72.2336C41.8773 72.2384 41.8773 72.2432 41.8769 72.2476C41.876 72.2615 41.8756 72.2759 41.8751 72.2903C41.8751 72.2934 41.8747 72.296 41.8747 72.2991C41.8406 72.3235 41.8184 72.3637 41.8184 72.4087C41.8184 72.4834 41.8791 72.5441 41.9537 72.5441H42.3402H42.3764C42.4214 72.6777 42.5424 72.7768 42.6882 72.789C42.6982 72.7899 42.7083 72.7903 42.7188 72.7903C42.8781 72.7903 43.0131 72.6873 43.0611 72.5441H43.107H44.9431H44.9868C45.0318 72.6777 45.1527 72.7768 45.2986 72.789C45.3086 72.7899 45.3187 72.7903 45.3292 72.7903C45.4885 72.7903 45.6235 72.6873 45.6715 72.5441H45.7099H45.9558C46.0304 72.5441 46.0911 72.4834 46.0911 72.4087C46.0925 72.3624 46.0711 72.3235 46.0383 72.2986Z" fill="white"/>
<path d="M43.8876 100.552C47.9148 100.552 51.1795 97.2874 51.1795 93.2602C51.1795 89.233 47.9148 85.9683 43.8876 85.9683C39.8604 85.9683 36.5957 89.233 36.5957 93.2602C36.5957 97.2874 39.8604 100.552 43.8876 100.552Z" fill="#4462CC"/>
<path d="M46.7237 94.4009C46.6922 94.4917 46.659 94.5804 46.6241 94.6664C46.4084 95.2039 46.1302 95.655 45.7831 96.0314C45.6726 96.1519 45.5543 96.2642 45.4289 96.3698C45.0263 96.7091 44.5595 96.9523 44.0416 97.0934C44.022 97.0991 43.9967 97.1034 43.9696 97.1052L43.9561 97.106L43.9425 97.1052C43.915 97.1034 43.8893 97.0991 43.8652 97.0916C43.3543 96.9532 42.888 96.7096 42.4841 96.3698C42.2194 96.1471 41.9871 95.8921 41.7858 95.6017C41.7094 95.4917 41.6374 95.3764 41.5697 95.2559C41.5697 95.2559 41.5697 95.2559 41.5697 95.2555C41.4234 94.9961 41.2972 94.7118 41.1893 94.4009C40.8684 93.4756 40.7361 92.4721 40.7854 91.3329L40.785 91.1556C40.785 90.9434 40.9575 90.7709 41.1697 90.7709H41.6784C41.7199 90.77 42.8085 90.736 43.7927 89.6028L43.9556 89.415L44.1185 89.6028C45.1032 90.7364 46.1922 90.77 46.2381 90.7713L46.742 90.7709C46.9542 90.7709 47.1267 90.9438 47.1267 91.1556L47.1271 91.346C47.1769 92.4734 47.0446 93.4756 46.7237 94.4009Z" fill="white"/>
<path d="M43.9559 89.7441C42.9031 90.9559 41.7294 90.9856 41.6783 90.9869H41.1696C41.0765 90.9869 41.001 91.0624 41.001 91.1555V91.3423C40.953 92.4545 41.0813 93.4309 41.3931 94.3305C41.6704 95.1287 42.0721 95.7418 42.6228 96.2046C43.0018 96.5238 43.4402 96.7526 43.9271 96.885C43.9354 96.8876 43.9454 96.8889 43.9559 96.8898C43.9668 96.8889 43.9769 96.8876 43.9843 96.8854C44.4712 96.7526 44.9105 96.5238 45.2895 96.2046C45.8397 95.7418 46.2419 95.1287 46.5192 94.3305C46.8314 93.4314 46.9593 92.455 46.9113 91.3463V91.1559C46.9113 91.0629 46.8357 90.9873 46.7427 90.9873H46.2349C46.1825 90.9856 45.0083 90.9559 43.9559 89.7441Z" fill="#5E97FE"/>
<path d="M45.8697 93.2957L45.1178 92.9831C45.1426 92.9512 45.1645 92.9176 45.185 92.8826C45.2383 92.9054 45.2959 92.911 45.3505 92.894C45.4732 92.856 45.5435 92.7198 45.5295 92.5691C45.5269 92.5407 45.5212 92.5115 45.5121 92.4822C45.4959 92.4307 45.4715 92.3848 45.4409 92.3464C45.364 92.2495 45.2501 92.2019 45.1457 92.2342C45.068 92.2582 45.0121 92.3228 44.9846 92.4045C44.8802 92.3997 44.7758 92.4285 44.6868 92.4857L44.3706 92.6875L43.6104 92.3643C43.3353 92.2473 43.0252 92.246 42.7488 92.3604L42.4362 92.4896L43.2645 92.8381C43.2514 92.8647 43.2418 92.8949 43.2379 92.9272C43.2226 93.0525 43.2912 93.1639 43.3916 93.1765C43.4899 93.1887 43.5811 93.1005 43.5995 92.9791L43.7877 93.0586L42.5672 93.8368C42.534 93.6568 42.4349 93.2669 42.2056 93.3141C41.9537 93.3656 42.0615 93.9883 42.1004 94.1765C42.0991 94.1948 42.103 94.2136 42.1122 94.2298V94.2302C42.1327 94.2677 42.1764 94.2926 42.2279 94.2721L42.265 94.2573C42.2598 94.328 42.2991 94.3896 42.3563 94.3966C42.4157 94.404 42.4711 94.3494 42.4803 94.2752C42.4847 94.2394 42.4772 94.2057 42.4619 94.1795L44.5261 93.3643L44.8999 93.5167C44.8841 93.5455 44.8728 93.5783 44.868 93.6145C44.8527 93.7398 44.9213 93.8512 45.0217 93.8638C45.1217 93.8761 45.2156 93.7844 45.2309 93.659C45.2313 93.6564 45.2308 93.6542 45.2313 93.652L45.7998 93.8839L45.8723 93.852C46.116 93.7455 46.1138 93.3997 45.8697 93.2957Z" fill="white"/>
</svg>
