<svg width="40" height="40" viewBox="0 0 40 40" fill="none" xmlns="http://www.w3.org/2000/svg">
<rect x="0.5" y="0.5" width="39" height="39" rx="3.5" fill="white"/>
<path d="M27.872 11.3213H12.128C11.72 11.3213 11.408 11.6364 11.408 12.0486C11.408 12.194 11.456 12.3395 11.528 12.4607L17.384 20.9455V28.194C17.384 28.6061 17.696 28.9213 18.104 28.9213H21.896C22.304 28.9213 22.616 28.6061 22.616 28.194V20.9455L28.472 12.4607C28.688 12.1213 28.616 11.6849 28.304 11.4425C28.16 11.3455 28.016 11.3213 27.872 11.3213ZM21.296 20.291C21.2 20.4122 21.176 20.5577 21.176 20.7031V27.4667H18.824V20.7031C18.824 20.5577 18.776 20.4122 18.704 20.291L13.52 12.7758H26.528L21.296 20.291Z" fill="#717171"/>
<rect x="0.5" y="0.5" width="39" height="39" rx="3.5" stroke="white"/>
<rect x="0.5" y="0.5" width="39" height="39" rx="3.5" stroke="#9E9E9E" stroke-opacity="0.29"/>
</svg>
