<svg width="21" height="20" viewBox="0 0 21 20" fill="none" xmlns="http://www.w3.org/2000/svg">
<path d="M12.95 4.32508C13.265 3.96198 13.5052 3.54022 13.6568 3.08403C13.8084 2.62783 13.8684 2.14619 13.8333 1.66675C12.8661 1.74482 11.9683 2.19971 11.3333 2.93341C11.0292 3.28506 10.7988 3.69415 10.6557 4.13645C10.5125 4.57876 10.4596 5.04528 10.5 5.50841C10.9718 5.51235 11.4381 5.40766 11.863 5.20246C12.2878 4.99727 12.6598 4.69706 12.95 4.32508ZM15.05 10.5251C15.0556 9.88653 15.2238 9.25993 15.5387 8.70442C15.8536 8.1489 16.3049 7.6828 16.85 7.35008C16.506 6.85445 16.0513 6.44578 15.5219 6.15648C14.9924 5.86718 14.4029 5.70521 13.8 5.68341C12.5 5.55008 11.3 6.44175 10.6083 6.44175C9.91665 6.44175 8.94165 5.70008 7.85832 5.71675C7.15009 5.74008 6.46 5.94657 5.85536 6.31607C5.25072 6.68558 4.75216 7.20548 4.40832 7.82508C2.94165 10.3751 4.03332 14.1667 5.49999 16.2251C6.16665 17.2334 6.99999 18.3751 8.09999 18.3334C9.19999 18.2917 9.55832 17.6501 10.8333 17.6501C12.1083 17.6501 12.5 18.3334 13.5833 18.3084C14.6667 18.2834 15.4333 17.2751 16.1333 16.2667C16.6292 15.5347 17.0165 14.7347 17.2833 13.8917C16.6229 13.6101 16.0594 13.1412 15.6625 12.5428C15.2656 11.9445 15.0527 11.2431 15.05 10.5251Z" fill="black"/>
</svg>
