<svg width="16" height="16" viewBox="0 0 16 16" fill="none" xmlns="http://www.w3.org/2000/svg">
<path d="M10.8176 14.7932H4.97484C4.56398 14.7945 4.16746 14.6423 3.86286 14.3666C3.55826 14.0909 3.36751 13.7114 3.32794 13.3025L2.38173 3.81338C2.37393 3.73667 2.38232 3.65917 2.40638 3.58591C2.43043 3.51265 2.46959 3.44526 2.52135 3.3881C2.5731 3.33094 2.63628 3.28528 2.70679 3.25409C2.77731 3.2229 2.85359 3.20687 2.9307 3.20703H12.8617C12.9388 3.20704 13.015 3.22319 13.0854 3.25443C13.1559 3.28568 13.219 3.33134 13.2707 3.38846C13.3224 3.44558 13.3616 3.51291 13.3857 3.58609C13.4098 3.65928 13.4183 3.7367 13.4107 3.81338L12.4645 13.3019C12.4249 13.7109 12.2342 14.0904 11.9296 14.3663C11.625 14.6421 11.2285 14.7943 10.8176 14.7932ZM3.5398 4.31048L4.42587 13.1927C4.43918 13.329 4.50279 13.4554 4.60429 13.5473C4.7058 13.6392 4.8379 13.69 4.97484 13.6898H10.8176C10.9545 13.69 11.0866 13.6392 11.1881 13.5473C11.2896 13.4554 11.3533 13.329 11.3666 13.1927L12.2526 4.31048H3.5398Z" fill="#EE5253"/>
<path d="M14.2414 4.31048H1.55172C1.4054 4.31048 1.26506 4.25235 1.1616 4.14888C1.05813 4.04541 1 3.90508 1 3.75876C1 3.61243 1.05813 3.4721 1.1616 3.36863C1.26506 3.26516 1.4054 3.20703 1.55172 3.20703H14.2414C14.3877 3.20703 14.528 3.26516 14.6315 3.36863C14.735 3.4721 14.7931 3.61243 14.7931 3.75876C14.7931 3.90508 14.735 4.04541 14.6315 4.14888C14.528 4.25235 14.3877 4.31048 14.2414 4.31048ZM7.89655 12.5863C7.75023 12.5863 7.60989 12.5282 7.50642 12.4247C7.40296 12.3213 7.34483 12.1809 7.34483 12.0346V5.96565C7.34483 5.81933 7.40296 5.67899 7.50642 5.57552C7.60989 5.47206 7.75023 5.41393 7.89655 5.41393C8.04288 5.41393 8.18321 5.47206 8.28668 5.57552C8.39015 5.67899 8.44828 5.81933 8.44828 5.96565V12.0346C8.44828 12.1809 8.39015 12.3213 8.28668 12.4247C8.18321 12.5282 8.04288 12.5863 7.89655 12.5863ZM5.96497 12.5863C5.82732 12.5862 5.6947 12.5346 5.59313 12.4417C5.49157 12.3489 5.42839 12.2214 5.416 12.0843L4.86428 6.01531C4.85109 5.86965 4.89628 5.72472 4.98991 5.61237C5.08354 5.50001 5.21794 5.42943 5.36359 5.41613C5.50933 5.40325 5.65424 5.4486 5.76662 5.54228C5.87901 5.63595 5.94973 5.77032 5.96331 5.916L6.51503 11.985C6.52194 12.0613 6.51284 12.1383 6.48833 12.211C6.46381 12.2836 6.42442 12.3504 6.37266 12.407C6.3209 12.4636 6.25791 12.5088 6.18771 12.5396C6.11752 12.5705 6.04165 12.5864 5.96497 12.5863ZM9.82814 12.5863C9.75145 12.5864 9.67559 12.5705 9.60539 12.5396C9.53519 12.5088 9.47221 12.4636 9.42045 12.407C9.36869 12.3504 9.32929 12.2836 9.30478 12.211C9.28026 12.1383 9.27117 12.0613 9.27807 11.985L9.82979 5.916C9.85793 5.61255 10.1228 5.39407 10.4295 5.41613C10.5752 5.42943 10.7096 5.50001 10.8032 5.61237C10.8968 5.72472 10.942 5.86965 10.9288 6.01531L10.3771 12.0843C10.3647 12.2214 10.3015 12.3489 10.2 12.4417C10.0984 12.5346 9.96578 12.5862 9.82814 12.5863Z" fill="#EE5253"/>
<path d="M10.3786 4.31034H5.41305C5.26673 4.31034 5.12639 4.25222 5.02292 4.14875C4.91946 4.04528 4.86133 3.90495 4.86133 3.75862V1.55172C4.86133 1.4054 4.91946 1.26506 5.02292 1.1616C5.12639 1.05813 5.26673 1 5.41305 1H10.3786C10.5249 1 10.6652 1.05813 10.7687 1.1616C10.8722 1.26506 10.9303 1.4054 10.9303 1.55172V3.75862C10.9303 3.90495 10.8722 4.04528 10.7687 4.14875C10.6652 4.25222 10.5249 4.31034 10.3786 4.31034ZM5.96478 3.2069H9.82685V2.10345H5.96478V3.2069Z" fill="#EE5253"/>
</svg>
