<svg width="15" height="16" viewBox="0 0 15 16" fill="none" xmlns="http://www.w3.org/2000/svg">
<g clip-path="url(#clip0_193_1563)">
<path d="M14.8213 8.14036C14.8213 7.52582 14.7714 7.07736 14.6635 6.6123H7.646V9.38605H11.7651C11.6821 10.0754 11.2336 11.1135 10.237 11.811L10.2231 11.9039L12.4419 13.6227L12.5956 13.6381C14.0074 12.3342 14.8213 10.4158 14.8213 8.14036Z" fill="#4285F4"/>
<path d="M7.646 15.4486C9.66401 15.4486 11.3582 14.7842 12.5956 13.6382L10.237 11.8111C9.6059 12.2513 8.7588 12.5586 7.646 12.5586C5.66949 12.5586 3.99195 11.2548 3.39396 9.45264L3.3063 9.46008L0.999166 11.2456L0.968994 11.3295C2.19808 13.771 4.72272 15.4486 7.646 15.4486Z" fill="#34A853"/>
<path d="M3.39395 9.45225C3.23616 8.98719 3.14484 8.48887 3.14484 7.97401C3.14484 7.45908 3.23616 6.96082 3.38565 6.49576L3.38147 6.39672L1.04542 4.58252L0.968986 4.61887C0.462421 5.63206 0.171753 6.76983 0.171753 7.97401C0.171753 9.17819 0.462421 10.3159 0.968986 11.3291L3.39395 9.45225Z" fill="#FBBC05"/>
<path d="M7.646 3.39002C9.04947 3.39002 9.99619 3.99626 10.536 4.50288L12.6454 2.4433C11.3499 1.23912 9.66401 0.5 7.646 0.5C4.72271 0.5 2.19808 2.17754 0.968994 4.6191L3.38565 6.49599C3.99195 4.69387 5.66949 3.39002 7.646 3.39002Z" fill="#EB4335"/>
</g>
<defs>
<clipPath id="clip0_193_1563">
<rect width="14.658" height="15" fill="white" transform="translate(0.171021 0.5)"/>
</clipPath>
</defs>
</svg>
