<svg width="20" height="20" viewBox="0 0 20 20" fill="none" xmlns="http://www.w3.org/2000/svg">
<path d="M9.99935 1.66675C8.35118 1.66675 6.74001 2.15549 5.3696 3.07117C3.99919 3.98685 2.93109 5.28834 2.30036 6.81105C1.66963 8.33377 1.5046 10.0093 1.82614 11.6258C2.14769 13.2423 2.94136 14.7272 4.1068 15.8926C5.27223 17.0581 6.75709 17.8517 8.3736 18.1733C9.99011 18.4948 11.6657 18.3298 13.1884 17.6991C14.7111 17.0683 16.0126 16.0002 16.9283 14.6298C17.8439 13.2594 18.3327 11.6483 18.3327 10.0001C18.3302 7.7907 17.4515 5.67251 15.8892 4.11024C14.3269 2.54797 12.2087 1.66921 9.99935 1.66675ZM9.99935 16.6667C8.68081 16.6667 7.39188 16.2758 6.29555 15.5432C5.19922 14.8107 4.34474 13.7695 3.84016 12.5513C3.33557 11.3331 3.20355 9.99269 3.46078 8.69948C3.71802 7.40627 4.35296 6.21839 5.28531 5.28604C6.21766 4.35369 7.40554 3.71875 8.69875 3.46151C9.99196 3.20428 11.3324 3.3363 12.5506 3.84088C13.7687 4.34547 14.8099 5.19995 15.5425 6.29628C16.275 7.39261 16.666 8.68154 16.666 10.0001C16.664 11.7676 15.961 13.4621 14.7112 14.7119C13.4614 15.9617 11.7668 16.6647 9.99935 16.6667ZM9.99935 9.58342C9.77834 9.58342 9.56638 9.67121 9.4101 9.82749C9.25382 9.98377 9.16602 10.1957 9.16602 10.4167V12.9167C9.16602 13.1378 9.25382 13.3497 9.4101 13.506C9.56638 13.6623 9.77834 13.7501 9.99935 13.7501C10.2204 13.7501 10.4323 13.6623 10.5886 13.506C10.7449 13.3497 10.8327 13.1378 10.8327 12.9167V10.4167C10.8327 10.1957 10.7449 9.98377 10.5886 9.82749C10.4323 9.67121 10.2204 9.58342 9.99935 9.58342ZM9.99935 6.25008C9.79333 6.25008 9.59194 6.31117 9.42063 6.42563C9.24933 6.54009 9.11582 6.70278 9.03698 6.89312C8.95814 7.08346 8.93751 7.2929 8.9777 7.49497C9.01789 7.69703 9.1171 7.88264 9.26278 8.02832C9.40846 8.174 9.59407 8.27321 9.79613 8.3134C9.9982 8.35359 10.2076 8.33296 10.398 8.25412C10.5883 8.17528 10.751 8.04177 10.8655 7.87047C10.9799 7.69917 11.041 7.49777 11.041 7.29175C11.041 7.01548 10.9313 6.75053 10.7359 6.55518C10.5406 6.35983 10.2756 6.25008 9.99935 6.25008Z" fill="#9A28A3"/>
</svg>
