<svg width="250" height="35" viewBox="0 0 250 35" fill="none" xmlns="http://www.w3.org/2000/svg">
<g clip-path="url(#clip0_757_4953)">
<path d="M44.4795 28.8916V5.48096H48.1636V28.8916H44.4795Z" fill="#230026"/>
<path d="M51.4414 7.72949C51.4414 6.38672 52.4717 5.35645 53.8145 5.35645C55.1572 5.35645 56.1875 6.38672 56.1875 7.72949C56.1875 9.07227 55.189 10.1318 53.8145 10.1318C52.4399 10.1318 51.4414 9.06982 51.4414 7.72949ZM51.9712 28.8916V12.3486H55.6553V28.8916H51.9712Z" fill="#230026"/>
<path d="M61.2427 28.8916V15.4687H58.3398V12.3462H61.2427V10.2856C61.2427 7.16309 63.0835 5.47852 66.5186 5.47852H70.1074V8.60107H66.7676C65.5811 8.60107 64.9268 9.28711 64.9268 10.5371V12.3486H69.7339V15.4712H64.9268V28.894H61.2427V28.8916Z" fill="#230026"/>
<path d="M70.8564 20.6838C70.8564 15.2224 74.4453 11.8508 79.0669 11.8508C83.6885 11.8508 86.8696 15.1272 86.9648 20.4958V21.3699H74.543C74.792 24.2727 76.6035 26.238 79.4111 26.238C81.3154 26.238 82.751 25.3005 83.3125 23.6477H86.9014C86.0591 27.2073 83.2808 29.3606 79.3794 29.3606C74.3232 29.3606 70.8589 25.74 70.8589 20.6838H70.8564ZM83.1538 18.7795C82.6851 16.4065 81.2178 14.9709 79.0645 14.9709C76.9111 14.9709 75.2559 16.4065 74.6943 18.7795H83.1538Z" fill="#230026"/>
<path d="M88.9907 23.616H92.5503C92.6748 25.3958 94.2056 26.3308 96.2344 26.3308C98.1069 26.3308 99.1055 25.613 99.1055 24.3337C99.1055 23.0544 98.0435 22.8054 96.6079 22.3367L94.4229 21.6189C91.6763 20.7131 89.3032 19.7781 89.3032 16.719C89.3032 13.6599 91.5518 11.8508 95.5142 11.8508C99.4766 11.8508 101.974 13.8796 102.411 17.6248H98.915C98.727 15.7522 97.3843 14.8782 95.4824 14.8782C93.8589 14.8782 92.9238 15.5642 92.9238 16.6897C92.9238 17.969 94.3594 18.3132 95.5459 18.7185L97.543 19.3728C100.822 20.4641 102.787 21.4651 102.787 24.429C102.787 27.3928 100.478 29.3606 96.4199 29.3606C91.8936 29.3606 89.2104 27.239 88.9907 23.6184V23.616Z" fill="#230026"/>
<path d="M104.568 20.4958C104.568 15.0637 108.22 11.8508 113.027 11.8508C117.554 11.8508 120.613 14.6292 120.925 18.7502H117.305C116.96 16.4724 115.339 15.0051 112.998 15.0051C110.188 15.0051 108.315 17.1267 108.315 20.4983C108.315 24.1189 110.376 26.2112 113.123 26.2112C115.371 26.2112 116.931 24.7756 117.305 22.4026H120.925C120.488 26.6799 117.522 29.363 113.123 29.363C107.722 29.363 104.57 25.4934 104.57 20.4983L104.568 20.4958Z" fill="#230026"/>
<path d="M122.983 24.3044C123.015 20.4348 126.853 19.6218 130.068 19.2483C132.566 18.9675 134.407 18.8748 134.438 17.5637C134.407 15.9402 133.159 14.8782 131.035 14.8782C128.911 14.8782 127.29 16.0647 127.07 17.781H123.357C123.701 14.2849 126.821 11.8508 131.098 11.8508C135.376 11.8508 138.027 14.2849 138.027 17.8127V25.303C138.027 25.7717 138.276 26.0208 138.838 26.0208H139.743V28.8918H137.995C136.311 28.8918 135.281 28.2058 135 26.9558C134.936 26.7996 134.875 26.5823 134.844 26.3943C133.877 28.1741 132.065 29.2336 129.255 29.2336C125.447 29.2336 122.949 27.3928 122.981 24.302L122.983 24.3044ZM134.438 22.6809V20.3713C133.813 21.3381 132.221 21.5579 130.473 21.7751C128.413 22.0242 126.697 22.3049 126.697 24.053C126.697 25.4885 127.851 26.3308 130.005 26.3308C132.534 26.3308 134.436 24.8953 134.436 22.6785L134.438 22.6809Z" fill="#230026"/>
<path d="M142.183 28.8918V12.3489H145.149L145.461 14.783C146.492 13.0667 148.584 11.8484 151.047 11.8484C154.575 11.8484 156.885 14.2214 156.885 17.9348V28.8918H153.201V18.1228C153.201 16.282 151.982 15.0637 149.922 15.0637C147.52 15.0637 145.896 16.719 145.864 18.8723V28.8918H142.18H142.183Z" fill="#230026"/>
<path d="M160.478 28.8301V5.41943H164.162V14.0645C165.285 12.6899 167.189 11.7866 169.342 11.7866C172.87 11.7866 175.18 14.1597 175.18 17.873V28.8301H171.496V18.061C171.496 16.2202 170.277 15.002 168.312 15.002C165.814 15.002 164.191 16.6572 164.162 18.8105V28.8301H160.478Z" fill="#9A28A3"/>
<path d="M177.834 20.6196C177.834 15.1582 181.423 11.7866 186.045 11.7866C190.667 11.7866 193.848 15.063 193.943 20.4316V21.3057H181.521C181.77 24.2085 183.582 26.1738 186.389 26.1738C188.293 26.1738 189.729 25.2363 190.291 23.5835H193.879C193.037 27.1431 190.259 29.2964 186.357 29.2964C181.301 29.2964 177.837 25.6758 177.837 20.6196H177.834ZM190.132 18.7153C189.663 16.3423 188.196 14.9067 186.042 14.9067C183.889 14.9067 182.234 16.3423 181.672 18.7153H190.132Z" fill="#9A28A3"/>
<path d="M195.998 24.2402C196.03 20.3706 199.867 19.5576 203.083 19.1841C205.58 18.9033 207.421 18.8105 207.453 17.4995C207.421 15.876 206.174 14.814 204.05 14.814C201.926 14.814 200.304 16.0005 200.085 17.7168H196.371C196.716 14.2207 199.836 11.7866 204.113 11.7866C208.39 11.7866 211.042 14.2207 211.042 17.7485V25.2388C211.042 25.7075 211.291 25.9565 211.852 25.9565H212.758V28.8276H211.01C209.325 28.8276 208.295 28.1416 208.014 26.8916C207.951 26.7354 207.89 26.5181 207.858 26.3301C206.891 28.1099 205.08 29.1694 202.27 29.1694C198.461 29.1694 195.964 27.3286 195.995 24.2378L195.998 24.2402ZM207.453 22.6167V20.3071C206.828 21.2739 205.236 21.4937 203.488 21.7109C201.428 21.96 199.711 22.2407 199.711 23.9888C199.711 25.4243 200.866 26.2666 203.019 26.2666C205.549 26.2666 207.45 24.8311 207.45 22.6143L207.453 22.6167Z" fill="#9A28A3"/>
<path d="M215.258 28.8301V5.41943H218.942V28.8301H215.258Z" fill="#9A28A3"/>
<path d="M230.117 28.8298C226.528 28.8298 224.592 27.05 224.592 23.7737V15.4094H221.689V12.2869H224.592V6.63745H228.276V12.2869H232.554V15.4094H228.276V23.5247C228.276 24.9285 228.994 25.7097 230.369 25.7097H232.241V28.8323H230.12L230.117 28.8298Z" fill="#9A28A3"/>
<path d="M235.298 28.8301V5.41943H238.982V14.0645C240.105 12.6899 242.009 11.7866 244.163 11.7866C247.69 11.7866 250 14.1597 250 17.873V28.8301H246.316V18.061C246.316 16.2202 245.098 15.002 243.132 15.002C240.635 15.002 239.011 16.6572 238.982 18.8105V28.8301H235.298Z" fill="#9A28A3"/>
<path d="M22.0918 6.82861V0H12.624V12.6245H16.2959C19.4966 12.6245 22.0918 10.0293 22.0918 6.82861Z" fill="#9A28A3"/>
<path d="M22.0928 12.624V16.269C22.0928 19.4844 24.7002 22.0918 27.9155 22.0918H34.7173V12.624H22.0928Z" fill="#9A28A3"/>
<path d="M12.624 27.8374V34.7173H22.0918V22.0928H18.3662C15.1948 22.0928 12.6216 24.6636 12.6216 27.8374H12.624Z" fill="#9A28A3"/>
<path d="M12.6245 18.4224C12.6245 15.2192 10.0293 12.624 6.82617 12.624H0V22.0918H12.6245V18.4199V18.4224Z" fill="#9A28A3"/>
</g>
<defs>
<clipPath id="clip0_757_4953">
<rect width="250" height="34.7168" fill="white"/>
</clipPath>
</defs>
</svg>
