<svg width="672" height="447" viewBox="0 0 672 447" fill="none" xmlns="http://www.w3.org/2000/svg">
<path d="M579.488 275.128C550.592 255.069 570.864 223.053 564.704 195.674C554.456 150.192 499.744 122.757 437.528 129.183C437.528 129.183 398.888 131.53 377.44 123.875C341.936 111.247 319.256 78.1132 283.192 66.3236C248.024 54.8692 208.88 59.8421 177.968 80.0688C155.904 94.4846 139.496 116.052 130.592 140.749C125.664 154.383 123.984 168.854 122.976 183.214C122.024 196.736 123.368 212.548 118.048 225.232C106.96 251.996 83.608 270.77 71.064 296.976C61.04 317.929 54.712 343.24 61.656 366.149C62.2907 368.347 63.0747 370.47 64.008 372.519C88.1253 372.519 112.243 372.519 136.36 372.519C191.24 372.519 246.12 372.519 301 372.519C360.509 372.519 420.019 372.519 479.528 372.519C517.571 372.519 555.595 372.519 593.6 372.519C614.712 372.519 625.072 348.828 621.936 330.724C617.96 307.201 598.304 288.147 579.488 275.128Z" fill="#E8EAF6"/>
<path d="M481.376 373.58H416.528L419.552 360.394H478.352L481.376 373.58Z" fill="#340000"/>
<path d="M447.384 243.671C449.792 242.106 441.56 240.765 442.064 238.139C443.296 231.378 436.352 224.45 426.496 222.606C416.696 220.762 407.68 224.729 406.392 231.49C406.056 233.278 406.336 235.122 407.064 236.854C400.176 237.692 395.696 241.156 394.968 246.912C393.792 255.963 403.032 266.356 418.488 270.658C433.944 274.905 448.504 271.217 450.968 262.389C452.592 256.466 456.288 248.811 447.384 243.671Z" fill="#734336"/>
<path d="M445.312 204.335C446.488 209.755 440.16 215.789 431.088 217.801C422.016 219.868 413.672 217.074 412.44 211.654C411.264 206.235 417.592 200.2 426.664 198.189C435.736 196.121 444.08 198.915 445.312 204.335Z" fill="#734336"/>
<path d="M480.144 226.908C480.144 237.469 471.352 246.018 460.488 246.018C449.68 246.018 440.888 237.469 440.888 226.908C440.888 216.348 449.68 207.799 460.488 207.799C471.352 207.799 480.144 216.348 480.144 226.908Z" fill="#734336"/>
<path d="M456.176 239.089V262.557H438.592V239.089H456.176Z" fill="#F79E7E"/>
<path d="M447.776 240.654C447.776 240.654 446.096 245.906 438.592 247.861V240.933L447.776 240.654Z" fill="#340000"/>
<path d="M456.288 244.23H437.808C428.456 244.23 420.896 236.631 420.896 227.355V212.213C420.896 205.564 426.272 200.144 432.936 200.144H456.288V244.23Z" fill="#F79E7E"/>
<path d="M425.096 317.314L410.424 309.883L394.352 301.837L395.304 299.937L413.168 264.065C413.168 264.065 435.12 267.362 435.344 273.62C436.016 287.868 425.096 317.314 425.096 317.314Z" fill="#AD81AE"/>
<path opacity="0.5" d="M419.496 286.583L416.752 308.933C416.752 308.933 414.064 309.436 410.424 309.883L394.352 301.837L395.304 299.937C398.384 296.584 402.92 294.35 406.672 290.662C411.04 286.415 414.904 277.308 414.904 277.308L419.496 286.583Z" fill="#9A28A3"/>
<path d="M425.096 317.258C424.816 317.929 424.144 318.432 423.248 318.711C420.056 319.773 413.616 318.432 406.952 315.135C405.104 314.185 403.368 313.179 401.8 312.118C396.312 308.43 393.12 304.351 394.296 302.004C395.36 299.881 399.672 299.714 405.104 301.278C407.4 301.893 409.92 302.898 412.44 304.128C418.656 307.201 423.304 311.168 424.816 314.241C425.432 315.415 425.544 316.476 425.096 317.258Z" fill="#340000"/>
<path d="M424.816 314.241L423.248 318.711L404.264 372.407L385.28 366.149L401.8 312.118L405.104 301.278C407.4 301.893 409.92 302.898 412.44 304.128C418.656 307.201 423.304 311.168 424.816 314.241Z" fill="#F79E7E"/>
<path d="M487.032 278.872C487.032 294.461 478.408 320.331 481.376 371.513C476.84 374.139 419.664 372.407 415.408 369.445C415.408 369.445 418.6 344.916 416.136 312.621C415.128 299.881 413.056 282.28 411.936 270.491C411.376 264.065 415.968 258.366 422.408 257.64C438.872 255.74 458.472 257.472 475.944 262.054C482.944 263.953 487.032 271.608 487.032 278.872Z" fill="#AD81AE"/>
<path d="M428.288 303.569C427.616 311.28 423.304 317.146 417.256 316.588C409.136 315.861 405.608 309.268 406.28 301.557C407.008 293.902 416.92 276.749 422.968 277.308C429.072 277.866 429.016 295.914 428.288 303.569Z" fill="#AD81AE"/>
<path d="M462.112 304.351C461.384 312.062 457.128 317.929 451.024 317.37C442.904 316.644 439.376 310.05 440.104 302.34C440.776 294.685 450.688 277.531 456.792 278.09C462.84 278.649 462.784 296.696 462.112 304.351Z" fill="#A354A8"/>
<path opacity="0.5" d="M453.152 313.235C453.152 313.235 431.368 345.084 421.624 350.113L437.36 354.751L453.376 351.845L453.152 313.235Z" fill="#9A28A3"/>
<path d="M484.344 318.376L451.192 308.933L461.272 269.597C461.272 269.597 484.792 267.474 486.248 273.62C489.496 287.477 484.344 318.376 484.344 318.376Z" fill="#AD81AE"/>
<path d="M456.512 264.065C450.296 266.021 443.632 266.021 437.416 264.065C436.744 259.819 436.072 255.554 435.4 251.27C435.344 250.767 435.848 250.376 436.352 250.543C443.576 253.114 451.528 252.946 458.696 250.096C457.986 254.79 457.258 259.446 456.512 264.065Z" fill="#967097"/>
<path d="M484.344 318.432C483.672 320.667 479.64 321.616 474.208 321.169C474.096 321.169 473.984 321.151 473.872 321.114C471.464 320.946 468.832 320.443 466.088 319.661C458.976 317.649 453.376 314.409 451.64 311.503C451.304 310.944 451.117 310.423 451.08 309.939C451.08 309.641 451.098 309.361 451.136 309.101C451.304 308.654 451.584 308.262 451.976 307.871C452.162 307.722 452.405 307.573 452.704 307.424C455.616 305.748 462.168 305.804 469.392 307.871C472.136 308.598 474.656 309.548 476.84 310.609C477.549 310.982 478.221 311.354 478.856 311.727C482.664 313.962 484.848 316.42 484.344 318.432Z" fill="#340000"/>
<path d="M483.168 257.025C485.576 255.125 487.032 252.667 487.032 249.985C487.032 244.9 481.768 240.654 474.656 239.368C471.968 230.875 466.592 225.176 460.824 225.623C453.264 226.238 455.616 234.954 449.792 246.688C447.44 251.382 445.312 261.439 449.904 267.362C455.168 274.123 464.968 274.626 471.632 274.626C481.488 274.626 489.495 270.156 489.495 264.624C489.495 261.607 487.032 258.869 483.168 257.025Z" fill="#734336"/>
<path d="M459.032 226.852C456.232 229.199 452.704 229.59 451.08 227.691C449.512 225.847 450.52 222.382 453.32 220.036C456.12 217.689 459.704 217.298 461.272 219.198C462.84 221.097 461.832 224.506 459.032 226.852Z" fill="#F79E7E"/>
<path d="M468.104 209.252C465.08 216.627 455.728 221.488 446.712 221.488C435.008 221.488 425.544 212.828 425.544 202.156C425.544 201.932 425.563 201.727 425.6 201.541C425.712 198.244 428.176 195.73 431.368 194.78C436.856 193.048 443.8 191.204 451.864 191.875C454.44 192.098 457.576 193.83 459.2 195.898C462.28 199.865 463.904 207.24 468.104 209.252Z" fill="#734336"/>
<path d="M476.84 310.609L473.872 321.114L464.744 353.018C463.736 356.427 462.448 360.17 456.176 361.008L390.824 370.675L387.52 354.694C396.76 354.639 415.464 348.045 428.176 344.916C441.168 341.787 444.36 341.173 444.36 341.173L451.64 311.503L452.704 307.424C455.616 305.748 462.168 305.804 469.392 307.871C472.136 308.598 474.656 309.548 476.84 310.609Z" fill="#F79E7E"/>
<path d="M367.976 359.556L390.936 356.147L391.552 370.172L364.672 370.507L367.976 359.556Z" fill="#F79E7E"/>
<path d="M383.04 362.07C380.52 359.835 376.152 356.371 373.408 354.192C371.616 352.795 369.432 351.007 367.976 349.163C366.352 347.151 365.12 345.084 364.28 342.626C363.944 341.787 364.392 340.782 365.288 340.502C365.904 340.223 366.632 340.446 367.08 340.893C369.432 342.849 372.008 344.693 374.752 345.922C380.016 348.101 385.616 350.56 389.872 354.75C394.352 359.332 387.968 366.205 383.04 362.07Z" fill="#F79E7E"/>
<path d="M384.104 359.109C383.544 359.779 382.648 360.114 381.92 360.226C380.184 360.561 378.56 360.561 376.88 360.561C372.512 360.617 368.088 360.45 363.72 360.17C362.656 360.058 361.368 360.058 360.304 359.723C360.024 359.556 359.744 359.388 359.52 359.22L360.584 359.779L342.048 353.633C341.096 353.298 340.592 352.236 340.872 351.286C341.208 350.392 342.16 349.833 343.056 350.057L362.04 354.639L363.104 355.197C362.824 354.974 362.432 354.75 362.04 354.639L362.264 354.694C367.864 354.974 373.576 354.974 379.176 354.583C379.68 354.527 380.408 354.471 380.688 354.415C380.315 354.527 379.979 354.75 379.68 355.086C382.424 352.236 386.736 356.147 384.104 359.109Z" fill="#F79E7E"/>
<path d="M376.264 367.043C375.592 367.099 374.92 366.987 374.304 366.931C368.536 366.261 362.544 365.199 356.832 364.137C356.328 364.026 355.32 363.858 354.872 363.746C352.688 363.02 349.608 361.176 347.592 360.17C344.848 358.717 342.104 357.209 339.416 355.589C338.576 355.086 338.24 353.912 338.8 353.074C339.248 352.236 340.256 351.957 341.096 352.292C345.24 353.968 349.776 355.924 353.92 357.712C354.648 357.935 355.824 358.494 356.272 358.55C356.104 358.55 356.328 358.606 356.328 358.606C356.944 358.717 366.072 359.835 366.912 359.947C369.32 360.282 373.24 360.785 375.592 361.064C375.648 361.064 375.704 361.064 375.592 361.064C375.517 361.064 375.424 361.083 375.312 361.12C379.232 360.561 380.128 366.317 376.264 367.043Z" fill="#F79E7E"/>
<path d="M377.16 368.105C375.704 368.328 373.8 368.216 372.344 368.272C368.088 368.216 363.776 368.16 359.464 367.881C359.128 367.881 358.344 367.769 358.008 367.602C353.024 365.478 348.04 363.299 343.168 360.841C341.152 359.835 342.384 356.762 344.512 357.432C349.44 358.997 354.648 360.841 359.52 362.517C359.632 362.517 359.8 362.573 359.912 362.629C359.912 362.629 359.52 362.461 359.464 362.517C359.464 362.461 359.632 362.517 359.744 362.517C364.616 362.461 371.56 362.294 376.544 362.238C380.128 362.238 380.632 367.378 377.16 368.105Z" fill="#F79E7E"/>
<path d="M373.24 370.395C371.168 370.563 368.536 370.507 366.464 370.507C363.664 370.395 360.752 370.451 357.952 370.06C353.92 368.551 350.952 365.422 348.152 362.349C347.48 361.567 347.592 360.394 348.376 359.723C349.048 359.164 350.056 359.164 350.728 359.667C353.136 361.399 355.6 363.299 358.232 364.528C358.624 364.696 359.072 364.864 359.352 364.92C359.128 364.808 359.016 364.864 359.352 364.864C359.912 364.864 372.176 364.473 372.792 364.417C376.6 364.417 376.992 369.837 373.24 370.395Z" fill="#F79E7E"/>
<path d="M451.192 309.324C451.155 309.324 451.117 309.324 451.08 309.324C450.856 309.212 450.744 308.989 450.856 308.765C453.936 301.054 455.952 288.65 456.008 288.538C456.064 288.315 456.232 288.147 456.456 288.203C456.68 288.203 456.848 288.427 456.792 288.65C456.792 288.762 454.72 301.278 451.584 309.1C451.528 309.268 451.36 309.324 451.192 309.324Z" fill="white"/>
<path d="M451.192 309.324C451.155 309.324 451.117 309.324 451.08 309.324C450.856 309.212 450.744 308.989 450.856 308.765C453.936 301.054 455.952 288.65 456.008 288.538C456.064 288.315 456.232 288.147 456.456 288.203C456.68 288.203 456.848 288.427 456.792 288.65C456.792 288.762 454.72 301.278 451.584 309.1C451.528 309.268 451.36 309.324 451.192 309.324Z" fill="#230026" fill-opacity="0.6"/>
<path d="M448.896 317.426C448.859 317.426 448.821 317.426 448.784 317.426C437.472 315.135 439.6 301.502 439.6 301.39C439.656 301.166 439.88 300.999 440.048 301.055C440.272 301.055 440.44 301.278 440.384 301.502C440.328 302.004 438.424 314.465 448.952 316.644C449.176 316.644 449.344 316.867 449.288 317.091C449.232 317.314 449.064 317.426 448.896 317.426Z" fill="white"/>
<path d="M448.896 317.426C448.859 317.426 448.821 317.426 448.784 317.426C437.472 315.135 439.6 301.502 439.6 301.39C439.656 301.166 439.88 300.999 440.048 301.055C440.272 301.055 440.44 301.278 440.384 301.502C440.328 302.004 438.424 314.465 448.952 316.644C449.176 316.644 449.344 316.867 449.288 317.091C449.232 317.314 449.064 317.426 448.896 317.426Z" fill="#230026" fill-opacity="0.6"/>
<path opacity="0.5" d="M422.856 316.252C421.008 317.649 418.264 320.331 416.752 323.293C416.584 321.505 416.36 318.823 416.136 316.476C418.432 316.755 421.064 316.588 422.856 316.252Z" fill="#9A28A3"/>
<path d="M486.36 303.01C486.136 303.01 485.968 302.898 485.968 302.675C485.128 294.685 479.976 291.556 479.92 291.556C479.752 291.444 479.696 291.165 479.808 290.997C479.92 290.773 480.144 290.718 480.368 290.829C480.592 290.997 485.912 294.182 486.752 302.563C486.808 302.787 486.64 303.01 486.416 303.01C486.378 303.01 486.36 303.01 486.36 303.01Z" fill="white"/>
<path d="M486.36 303.01C486.136 303.01 485.968 302.898 485.968 302.675C485.128 294.685 479.976 291.556 479.92 291.556C479.752 291.444 479.696 291.165 479.808 290.997C479.92 290.773 480.144 290.718 480.368 290.829C480.592 290.997 485.912 294.182 486.752 302.563C486.808 302.787 486.64 303.01 486.416 303.01C486.378 303.01 486.36 303.01 486.36 303.01Z" fill="#230026" fill-opacity="0.6"/>
<path d="M445.648 263.562C441.784 263.562 438.592 262.501 436.52 260.545C436.483 260.508 436.445 260.452 436.408 260.378L435.568 256.969C435.512 256.746 435.68 256.522 435.904 256.466C436.128 256.41 436.296 256.578 436.352 256.746L437.192 260.042C439.208 261.886 442.344 262.836 446.208 262.724H446.32C446.544 262.724 446.768 262.892 446.768 263.115C446.768 263.395 446.544 263.562 446.32 263.562H446.208C446.021 263.562 445.835 263.562 445.648 263.562Z" fill="white"/>
<path d="M445.648 263.562C441.784 263.562 438.592 262.501 436.52 260.545C436.483 260.508 436.445 260.452 436.408 260.378L435.568 256.969C435.512 256.746 435.68 256.522 435.904 256.466C436.128 256.41 436.296 256.578 436.352 256.746L437.192 260.042C439.208 261.886 442.344 262.836 446.208 262.724H446.32C446.544 262.724 446.768 262.892 446.768 263.115C446.768 263.395 446.544 263.562 446.32 263.562H446.208C446.021 263.562 445.835 263.562 445.648 263.562Z" fill="#230026" fill-opacity="0.6"/>
<path d="M391.44 354.862C390.6 354.862 389.76 354.583 388.976 354.136C387.8 353.465 386.792 352.627 385.896 351.733C385.784 351.621 385.784 351.398 385.896 351.286C386.008 351.119 386.232 351.119 386.4 351.286C387.24 352.124 388.192 352.907 389.312 353.577C390.264 354.136 391.384 354.303 392.392 354.08C408.856 350.057 445.928 340.726 446.488 340.558C446.656 340.502 446.824 340.614 446.88 340.782C446.936 340.949 446.88 341.117 446.712 341.173C446.376 341.285 408.912 350.727 392.56 354.695C392.186 354.806 391.813 354.862 391.44 354.862Z" fill="#C76F50"/>
<path d="M444.36 341.173C444.322 341.173 444.285 341.173 444.248 341.173C444.08 341.117 443.968 340.949 444.024 340.782L448 324.969C448.056 324.801 448.224 324.69 448.392 324.69C448.616 324.746 448.728 324.969 448.672 325.137L444.696 340.949C444.64 341.117 444.528 341.173 444.36 341.173Z" fill="#C76F50"/>
<path d="M456.848 361.511C456.624 361.511 456.512 361.344 456.512 361.176C456.512 360.952 456.624 360.841 456.848 360.841C457.072 360.841 462.168 360.729 463.792 354.806L470.4 331.897C470.456 331.73 470.68 331.618 470.848 331.674C471.016 331.73 471.128 331.953 471.072 332.121L464.464 355.03C462.672 361.399 456.904 361.511 456.848 361.511Z" fill="#C76F50"/>
<path d="M367.92 360.506C366.016 360.506 362.208 360.338 358.288 359.332C352.8 357.935 341.152 352.627 341.04 352.571C340.872 352.515 340.816 352.292 340.872 352.124C340.984 351.957 341.152 351.901 341.32 351.957C341.432 352.013 353.024 357.265 358.456 358.718C363.888 360.114 369.096 359.835 369.152 359.835C369.32 359.835 369.488 359.947 369.488 360.114C369.488 360.338 369.376 360.506 369.152 360.506C369.152 360.506 368.704 360.506 367.92 360.506Z" fill="#C76F50"/>
<path d="M368.928 364.584C368.592 364.584 360.92 364.081 357.56 363.355C353.976 362.629 342.608 357.6 342.16 357.376C341.992 357.265 341.88 357.097 341.992 356.929C342.048 356.762 342.272 356.65 342.44 356.762C342.552 356.818 354.144 361.958 357.672 362.74C361.032 363.411 368.872 363.914 368.928 363.914C369.152 363.914 369.264 364.081 369.264 364.249C369.264 364.473 369.096 364.584 368.928 364.584Z" fill="#C76F50"/>
<path d="M365.456 368.551C363.832 368.551 361.648 368.384 359.296 367.881C354.984 366.931 348.6 363.914 348.488 363.187C348.432 363.02 348.544 362.852 348.768 362.796C348.936 362.74 349.048 362.852 349.104 362.964C349.608 363.467 355.04 366.261 359.464 367.21C364 368.216 368.144 367.713 368.144 367.713C368.368 367.713 368.536 367.825 368.536 367.993C368.592 368.216 368.424 368.384 368.256 368.384C368.144 368.384 367.08 368.551 365.456 368.551Z" fill="#C76F50"/>
<path d="M365.624 354.918C364.448 354.918 363.272 354.918 362.208 354.862C362.04 354.862 361.872 354.695 361.872 354.527C361.872 354.359 362.04 354.192 362.208 354.192C362.208 354.192 362.226 354.192 362.264 354.192C367.976 354.415 377.048 353.968 377.16 353.968C377.328 353.968 377.496 354.08 377.496 354.248C377.496 354.471 377.328 354.639 377.16 354.639C377.104 354.639 371 354.918 365.624 354.918Z" fill="#C76F50"/>
<path d="M488.656 261.998C488.488 261.998 488.376 261.942 488.264 261.775C486.808 258.701 484.176 257.584 479.248 256.299C474.264 255.014 473.144 251.382 473.088 251.214C473.032 251.047 473.144 250.767 473.368 250.711C473.592 250.655 473.816 250.767 473.872 250.991C473.928 251.158 474.936 254.343 479.472 255.516C484.512 256.802 487.424 258.087 488.992 261.439C489.104 261.607 489.048 261.886 488.824 261.998C488.786 261.998 488.73 261.998 488.656 261.998Z" fill="#4A281E"/>
<path d="M465.976 274.402C462.336 274.402 459.088 273.62 459.032 273.62C458.808 273.564 458.696 273.34 458.752 273.117C458.808 272.893 459.032 272.782 459.256 272.838C459.312 272.838 468.72 275.073 472.808 271.944C474.096 270.994 474.712 269.597 474.712 267.865C474.712 265.462 472.528 264.177 469.784 262.612C465.64 260.21 460.544 257.248 460.992 248.867C460.992 248.644 461.16 248.476 461.384 248.476C461.664 248.532 461.832 248.7 461.776 248.923C461.384 256.801 466.088 259.483 470.176 261.886C473.032 263.562 475.496 264.959 475.552 267.865C475.552 269.876 474.768 271.497 473.312 272.614C471.408 274.011 468.608 274.402 465.976 274.402Z" fill="#4A281E"/>
<path d="M477.512 240.486C477.474 240.486 477.437 240.486 477.4 240.486C471.8 239.592 468.664 236.966 468.104 236.463C467.936 236.295 467.88 236.072 468.048 235.904C468.216 235.737 468.44 235.681 468.608 235.848C469.168 236.351 472.192 238.81 477.568 239.648C477.792 239.704 477.904 239.927 477.904 240.151C477.848 240.318 477.68 240.486 477.512 240.486Z" fill="#4A281E"/>
<path d="M415.408 245.738C415.333 245.738 415.258 245.72 415.184 245.682C404.936 239.089 405.832 232.775 405.888 232.496C405.888 232.272 406.112 232.105 406.336 232.161C406.56 232.161 406.728 232.384 406.672 232.608C406.672 232.664 405.888 238.698 415.632 245.012C415.8 245.124 415.856 245.347 415.744 245.571C415.632 245.682 415.52 245.738 415.408 245.738Z" fill="#4A281E"/>
<path d="M466.088 226.014C465.976 226.014 465.883 225.977 465.808 225.903C465.64 225.735 465.64 225.456 465.808 225.288C467.376 223.779 468.72 220.818 468.104 218.248C467.6 216.236 465.864 214.784 463.008 214.001C459.256 212.996 456.12 213.834 453.096 214.616C449.68 215.51 446.096 216.46 441.672 214.56C438.48 213.107 436.184 210.705 435.008 207.52C434 204.614 434.28 201.876 434.504 201.429C434.56 201.262 434.84 201.15 435.008 201.262C435.232 201.374 435.288 201.597 435.232 201.821C434.952 202.435 434.392 210.425 442.008 213.778C446.152 215.622 449.456 214.728 452.928 213.834C456.008 212.996 459.256 212.157 463.176 213.219C467.152 214.281 468.496 216.46 468.888 218.08C469.616 220.874 468.16 224.226 466.368 225.903C466.293 225.977 466.2 226.014 466.088 226.014Z" fill="#4A281E"/>
<path d="M449.064 200.591C448.84 200.591 448.672 200.424 448.672 200.256C447.776 194.836 445.76 193.328 444.92 192.657C444.584 192.434 444.304 192.21 444.304 191.931C444.304 191.707 444.472 191.484 444.696 191.484C444.92 191.484 445.088 191.595 445.144 191.819C445.2 191.819 445.312 191.931 445.368 191.987C446.32 192.713 448.56 194.389 449.456 200.088C449.512 200.312 449.344 200.535 449.12 200.591C449.12 200.591 449.101 200.591 449.064 200.591Z" fill="#4A281E"/>
<path d="M461.216 207.017C461.141 207.017 461.085 206.998 461.048 206.961C458.192 205.564 454.888 201.988 454.104 196.121C453.936 194.724 453.488 193.495 452.816 192.322C452.704 192.154 452.76 191.875 452.984 191.763C453.152 191.651 453.432 191.707 453.544 191.931C454.272 193.16 454.72 194.501 454.944 196.009C455.672 201.597 458.752 204.949 461.384 206.235C461.608 206.346 461.664 206.57 461.552 206.793C461.496 206.961 461.328 207.017 461.216 207.017Z" fill="#4A281E"/>
<path d="M455 296.026C454.776 296.026 454.608 295.858 454.608 295.635C454.832 290.159 451.36 283.398 451.304 283.286C451.192 283.119 451.304 282.839 451.472 282.783C451.696 282.672 451.92 282.728 452.032 282.951C452.2 283.23 455.672 289.935 455.448 295.635C455.448 295.858 455.224 296.026 455 296.026Z" fill="white"/>
<path d="M455 296.026C454.776 296.026 454.608 295.858 454.608 295.635C454.832 290.159 451.36 283.398 451.304 283.286C451.192 283.119 451.304 282.839 451.472 282.783C451.696 282.672 451.92 282.728 452.032 282.951C452.2 283.23 455.672 289.935 455.448 295.635C455.448 295.858 455.224 296.026 455 296.026Z" fill="#230026" fill-opacity="0.6"/>
<path d="M440.776 273.843C440.552 273.843 431.536 273.732 427.336 264.233C426.048 261.272 424.424 259.428 422.464 258.813C420.448 258.143 418.712 259.092 418.712 259.148C418.488 259.26 418.264 259.148 418.152 258.981C418.04 258.813 418.096 258.534 418.264 258.422C418.376 258.366 420.336 257.249 422.744 258.031C424.872 258.757 426.72 260.713 428.12 263.898C432.04 272.949 440.608 273.005 440.776 273.005C441 273.005 441.168 273.173 441.168 273.396C441.168 273.62 441 273.843 440.776 273.843Z" fill="white"/>
<path d="M440.776 273.843C440.552 273.843 431.536 273.732 427.336 264.233C426.048 261.272 424.424 259.428 422.464 258.813C420.448 258.143 418.712 259.092 418.712 259.148C418.488 259.26 418.264 259.148 418.152 258.981C418.04 258.813 418.096 258.534 418.264 258.422C418.376 258.366 420.336 257.249 422.744 258.031C424.872 258.757 426.72 260.713 428.12 263.898C432.04 272.949 440.608 273.005 440.776 273.005C441 273.005 441.168 273.173 441.168 273.396C441.168 273.62 441 273.843 440.776 273.843Z" fill="#230026" fill-opacity="0.6"/>
<path d="M435.176 234.563C434.392 234.563 433.832 234.396 433.608 234.284C433.496 234.228 433.384 234.06 433.44 233.893C433.44 233.781 433.552 233.669 433.664 233.613C433.832 233.558 433.944 233.613 434.056 233.725C434.504 233.893 436.52 234.172 438.424 232.831C440.608 231.267 440.44 228.92 440.44 228.864C440.44 228.641 440.552 228.473 440.72 228.473C440.944 228.473 441.112 228.585 441.112 228.808C441.112 228.92 441.336 231.546 438.816 233.39C437.528 234.284 436.184 234.563 435.176 234.563Z" fill="#C76F50"/>
<path d="M437.416 221.321C437.304 221.321 437.192 221.265 437.136 221.153C437.136 221.097 436.688 219.756 435.344 219.253C433.328 218.471 432.152 219.198 432.096 219.198C431.928 219.309 431.76 219.254 431.704 219.142C431.648 218.974 431.648 218.806 431.816 218.751C431.872 218.695 433.216 217.857 435.568 218.751C437.136 219.309 437.64 220.93 437.696 220.986C437.696 221.097 437.64 221.265 437.472 221.321C437.472 221.321 437.453 221.321 437.416 221.321Z" fill="#340000"/>
<path d="M435.176 220.315C435.176 221.265 434.504 222.047 433.664 222.047C432.824 222.047 432.208 221.265 432.208 220.315C432.208 219.365 432.824 218.583 433.664 218.583C434.504 218.583 435.176 219.365 435.176 220.315Z" fill="#340000"/>
<path d="M426.776 220.65C426.72 220.65 426.608 220.595 426.552 220.539C426.141 219.905 425.637 219.477 425.04 219.253C423.024 218.471 421.848 219.198 421.792 219.198C421.68 219.309 421.512 219.254 421.4 219.142C421.344 218.974 421.4 218.806 421.512 218.751C421.568 218.695 422.968 217.857 425.264 218.751C425.973 219.011 426.571 219.514 427.056 220.259C427.112 220.371 427.056 220.539 426.944 220.594C426.907 220.632 426.851 220.65 426.776 220.65Z" fill="#340000"/>
<path d="M424.648 220.315C424.648 221.265 423.976 222.047 423.136 222.047C422.296 222.047 421.624 221.265 421.624 220.315C421.624 219.365 422.296 218.583 423.136 218.583C423.976 218.583 424.648 219.365 424.648 220.315Z" fill="#340000"/>
<path d="M430.976 229.814C430.939 229.814 430.92 229.814 430.92 229.814L428.792 229.646C428.064 229.59 427.392 229.255 427 228.641C426.552 228.138 426.384 227.467 426.496 226.797C426.832 225.065 427.336 222.774 427.672 221.265C427.84 220.595 428.008 219.924 428.008 219.812C428.008 219.645 428.176 219.533 428.344 219.533C428.512 219.533 428.68 219.701 428.624 219.868C428.624 219.98 428.512 220.427 428.288 221.433C427.952 222.941 427.448 225.176 427.112 226.908C427.056 227.411 427.168 227.858 427.504 228.249C427.784 228.696 428.288 228.976 428.848 229.032L430.976 229.199C431.144 229.199 431.312 229.367 431.256 229.535C431.256 229.702 431.144 229.814 430.976 229.814Z" fill="#C76F50"/>
<path d="M428.624 213.107C431.592 211.208 435.288 211.99 438.256 213.443C438.984 213.89 441.84 215.566 440.72 216.516C440.552 216.683 440.272 216.683 440.048 216.627C436.632 215.063 432.768 214.839 429.128 214.337C428.4 214.337 428.008 213.554 428.624 213.107Z" fill="#4A281E"/>
<path d="M419.16 215.23C418.824 213.107 421.176 211.878 422.968 211.878C423.808 211.822 425.936 212.269 424.76 213.442C423.696 214.113 422.576 214.672 421.568 215.286C420.952 215.51 419.496 216.404 419.16 215.23Z" fill="#4A281E"/>
<path d="M418.768 317.091C418.021 317.091 417.256 317.035 416.472 316.923C413.952 316.588 410.312 315.75 408.128 312.341C403.984 305.971 405.16 297.87 411.544 288.371C414.344 284.236 411.544 279.151 411.544 279.096C411.432 278.872 411.488 278.649 411.712 278.537C411.88 278.425 412.16 278.481 412.272 278.704C412.384 278.928 415.352 284.236 412.216 288.818C406 298.037 404.88 305.804 408.856 311.894C410.816 315.023 414.176 315.805 416.584 316.085C418.992 316.42 421.288 316.141 422.8 315.861C425.096 315.414 426.72 314.688 426.72 314.688C426.944 314.632 427.168 314.688 427.28 314.911C427.336 315.135 427.28 315.358 427.056 315.47C427 315.47 425.376 316.197 422.968 316.644C421.848 316.867 420.392 317.091 418.768 317.091Z" fill="white"/>
<path d="M418.768 317.091C418.021 317.091 417.256 317.035 416.472 316.923C413.952 316.588 410.312 315.75 408.128 312.341C403.984 305.971 405.16 297.87 411.544 288.371C414.344 284.236 411.544 279.151 411.544 279.096C411.432 278.872 411.488 278.649 411.712 278.537C411.88 278.425 412.16 278.481 412.272 278.704C412.384 278.928 415.352 284.236 412.216 288.818C406 298.037 404.88 305.804 408.856 311.894C410.816 315.023 414.176 315.805 416.584 316.085C418.992 316.42 421.288 316.141 422.8 315.861C425.096 315.414 426.72 314.688 426.72 314.688C426.944 314.632 427.168 314.688 427.28 314.911C427.336 315.135 427.28 315.358 427.056 315.47C427 315.47 425.376 316.197 422.968 316.644C421.848 316.867 420.392 317.091 418.768 317.091Z" fill="#230026" fill-opacity="0.6"/>
<path d="M380.128 340.949C378.784 350.448 374.752 357.823 372.456 357.656L304.304 349.777L293.776 348.604L286.72 347.766L287.784 340.949L292.656 309.659L298.48 310.553L315.168 313.179L316.904 313.459L378.336 323.125H378.448C380.744 323.572 381.472 331.506 380.128 340.949Z" fill="white"/>
<path d="M381.528 333.629C381.528 334.151 381.528 334.672 381.528 335.194C381.49 335.566 381.472 335.958 381.472 336.367C381.434 336.665 381.397 336.982 381.36 337.317C381.248 338.584 381.08 339.906 380.856 341.284C380.818 341.359 380.8 341.433 380.8 341.508C380.65 342.402 380.482 343.259 380.296 344.078C379.997 345.456 379.661 346.741 379.288 347.933C377.944 352.236 376.208 355.477 374.528 356.873C373.856 357.488 373.128 357.767 372.456 357.656C370.16 357.265 368.984 352.571 369.208 346.257C369.208 345.624 369.245 344.991 369.32 344.357C369.432 342.793 369.6 341.117 369.88 339.44C370.066 338.36 370.29 337.28 370.552 336.2C370.589 335.939 370.645 335.697 370.72 335.473C370.757 335.362 370.776 335.268 370.776 335.194C371.504 332.288 372.456 329.774 373.464 327.763C374.976 324.634 376.712 322.846 378.28 323.125C380.184 323.46 381.304 326.701 381.528 331.394C381.565 332.139 381.565 332.884 381.528 333.629Z" fill="#340000"/>
<path d="M378.224 328.88L378 331.562L377.776 333.853L377.608 335.362L377.552 336.144L377.44 337.317L377.216 339.608L377.104 340.949L376.544 346.928C376.544 346.928 376.32 346.872 375.928 346.872C375.667 346.835 375.349 346.797 374.976 346.76H374.864C373.52 346.648 371.448 346.481 369.208 346.257C369.208 345.624 369.245 344.991 369.32 344.358C369.432 342.793 369.6 341.117 369.88 339.441C370.067 338.36 370.291 337.28 370.552 336.2C370.552 336.088 370.571 335.995 370.608 335.92C370.645 335.771 370.683 335.622 370.72 335.473C370.757 335.362 370.776 335.269 370.776 335.194C371.504 332.289 372.456 329.774 373.464 327.763C375.368 328.21 376.936 328.601 377.72 328.768C378.019 328.843 378.187 328.88 378.224 328.88Z" fill="#ADCBF0"/>
<path d="M269.696 223.947L241.64 217.912L239.904 192.377C239.288 182.543 248.248 174.833 257.88 176.956L278.936 181.482L269.696 223.947Z" fill="#4D281E"/>
<path d="M328.832 330.501L304.304 349.777L298.424 354.415L293.776 348.604L287.784 340.949L244.608 286.303L275.016 262.389L297.696 291.109L315.168 313.179L315.616 313.738L328.832 330.501Z" fill="white"/>
<path opacity="0.3" d="M303.52 341.675L298.48 310.553L295.288 290.662L297.696 291.109L315.168 313.179L316.904 313.459C316.568 313.514 316.12 313.626 315.616 313.738C312.928 314.632 308.616 317.314 307.776 323.293C306.88 329.271 310.184 334.468 315.336 335.92C320.432 337.429 303.52 341.675 303.52 341.675Z" fill="#92BFF7"/>
<path d="M278.712 256.41C278.712 256.41 294.56 271.497 300.888 304.128C307.272 336.703 310.632 372.072 310.632 372.072C310.632 372.072 265.944 367.378 266.28 367.378C266.616 367.378 278.712 256.41 278.712 256.41Z" fill="white"/>
<path d="M269.808 233.949C269.696 234.898 263.144 235.066 255.136 234.396C247.352 233.725 241.024 232.44 240.744 231.49C240.744 231.49 240.744 231.471 240.744 231.434C240.856 230.484 247.408 230.261 255.416 230.987C263.256 231.658 269.528 232.943 269.808 233.837C269.808 233.874 269.808 233.911 269.808 233.949Z" fill="#050E21"/>
<path d="M268.576 203.888V255.125H241.976V218.08L253.736 213.275L258.048 204.223L268.576 203.888Z" fill="#E89870"/>
<path d="M255.304 236.295L271.88 243C277.088 245.068 280.504 249.985 280.728 255.572L281.232 269.485L245.728 250.264L255.304 236.295Z" fill="#92BFF7"/>
<path d="M293.72 372.071H195.944C195.944 372.071 200.2 326.813 203.616 307.759C205.24 298.763 206.864 291.164 208.6 284.683L208.936 283.398C208.973 283.361 208.992 283.323 208.992 283.286C208.992 283.286 208.992 283.267 208.992 283.23V283.174L209.048 283.118C214.76 263.003 222.32 253.728 238 246.52C241.92 244.676 246.232 243.559 250.6 243.447C252.467 243.41 254.352 243.559 256.256 243.894C275.408 247.135 289.968 264.624 289.968 287.03L293.72 372.071Z" fill="white"/>
<path opacity="0.3" d="M281.064 372.071H256.312C250.264 367.434 245.224 362.237 242.704 356.762C234.36 338.714 226.8 322.678 225.568 320.164C227.808 320.499 230.776 321.728 234.08 325.248C240.072 331.73 258.72 363.187 278.04 367.21L281.064 372.071Z" fill="#92BFF7"/>
<path d="M274.232 372.071L268.576 296.193C267.344 277.531 262.584 266.468 255.248 259.595L250.6 243.447C252.466 243.41 254.352 243.559 256.256 243.894C275.408 247.135 289.968 264.624 289.968 287.03L293.72 372.071H274.232Z" fill="#FF9750"/>
<path d="M206.976 293.009C206.715 294.35 206.509 295.653 206.36 296.92C206.472 295.616 206.677 294.312 206.976 293.009Z" fill="#EDF9FF"/>
<path fill-rule="evenodd" clip-rule="evenodd" d="M290.08 274.905L289.52 274.29L290.472 273.396C292.096 271.944 292.936 269.876 292.768 267.697C292.768 267.548 292.749 267.418 292.712 267.306C290.416 266.747 288.232 264.848 285.992 261.551L282.912 257.696L267.904 247.526C267.232 247.023 266.728 246.297 266.616 245.403C266.504 244.565 266.728 243.727 267.288 243.056C267.904 242.386 268.744 241.995 269.64 241.995C270.592 241.995 271.432 242.386 271.992 243.112L283.472 257.081L290.136 261.663C291.872 262.836 293.048 264.568 293.44 266.58C294.523 266.691 295.643 266.468 296.8 265.909L297.976 265.35L298.368 266.077L297.192 266.636C295.96 267.269 294.747 267.53 293.552 267.418C293.589 267.492 293.608 267.567 293.608 267.641C293.776 270.044 292.824 272.391 291.032 274.011L290.08 274.905ZM285.264 259.316L286.664 261.048C288.68 264.065 290.584 265.797 292.6 266.412C292.152 264.736 291.144 263.339 289.744 262.333L285.264 259.316ZM269.64 242.777C268.968 242.777 268.352 243.056 267.904 243.559C267.512 244.062 267.344 244.677 267.4 245.347C267.512 245.962 267.848 246.52 268.352 246.856L281.064 255.516L271.376 243.615C270.928 243.112 270.312 242.777 269.64 242.777Z" fill="#050E21"/>
<path d="M287.784 275.743C288.568 276.637 290.248 276.525 291.48 275.408C292.712 274.29 293.048 272.67 292.264 271.776C291.424 270.826 289.744 270.994 288.512 272.111C287.28 273.173 286.944 274.849 287.784 275.743Z" fill="#356BB3"/>
<path d="M301 263.842C301.56 264.959 300.832 266.412 299.376 267.194C297.92 267.921 296.24 267.697 295.68 266.58C295.12 265.462 295.848 264.009 297.304 263.227C298.816 262.501 300.44 262.724 301 263.842Z" fill="#356BB3"/>
<path d="M269.808 233.837V253.225L240.744 250.879V231.49C241.024 232.44 247.352 233.725 255.136 234.395C263.144 235.066 269.696 234.898 269.808 233.949C269.808 233.911 269.808 233.874 269.808 233.837Z" fill="#FF9750"/>
<path d="M244.496 246.856C244.272 246.856 244.104 246.632 244.104 246.409V232.887C244.104 232.663 244.272 232.496 244.496 232.496C244.72 232.496 244.944 232.663 244.944 232.887V246.409C244.944 246.632 244.72 246.856 244.496 246.856Z" fill="#85621F"/>
<path d="M251.776 246.856C251.552 246.856 251.384 246.632 251.384 246.409V234.06C251.384 233.837 251.552 233.669 251.776 233.669C252 233.669 252.168 233.837 252.168 234.06V246.409C252.168 246.632 252 246.856 251.776 246.856Z" fill="#85621F"/>
<path d="M259.056 248.42C258.832 248.42 258.608 248.197 258.608 247.973V234.675C258.608 234.452 258.832 234.284 259.056 234.284C259.28 234.284 259.448 234.452 259.448 234.675V247.973C259.448 248.197 259.28 248.42 259.056 248.42Z" fill="#85621F"/>
<path d="M266.28 248.42C266.056 248.42 265.888 248.197 265.888 247.973V234.731C265.888 234.507 266.056 234.34 266.28 234.34C266.504 234.34 266.728 234.507 266.728 234.731V247.973C266.728 248.197 266.504 248.42 266.28 248.42Z" fill="#85621F"/>
<path d="M274.68 302.619L272.664 279.375C271.712 268.032 264.6 258.198 254.128 253.728L235.984 245.962L236.32 245.179L254.464 252.946C265.216 257.584 272.496 267.641 273.448 279.263L275.464 302.563L274.68 302.619Z" fill="#050E21"/>
<path d="M295.064 195.116C296.408 196.568 292.992 200.088 285.208 200.535C277.424 201.038 270.76 197.742 271.992 196.512C273.168 195.283 279.832 195.618 284.984 194.892C290.136 194.221 293.664 193.607 295.064 195.116Z" fill="#4D281E"/>
<path d="M271.376 229.702L256.032 226.35L264.768 186.343L276.584 188.913C283.92 190.478 288.568 197.686 286.944 204.949L283.248 222.047C282.072 227.467 276.752 230.875 271.376 229.702Z" fill="#E89870"/>
<path d="M262.64 206.849C266.56 193.942 276.36 194.78 281.568 196.289C286.776 197.741 292.432 196.233 295.736 192.042C298.704 188.354 299.824 183.326 298.144 178.409L295.792 171.424C295.792 171.424 291.256 175.391 271.992 174.442C266.952 174.218 255.416 174.665 249.424 177.571C242.76 180.755 262.64 206.849 262.64 206.849Z" fill="#4D281E"/>
<path d="M252.056 208.693C252.056 211.487 247.688 213.778 243.656 213.833C239.568 213.889 237.328 211.654 237.272 208.861C237.272 206.123 240.52 203.832 244.608 203.776C248.696 203.72 252 205.955 252.056 208.693Z" fill="#4D281E"/>
<path d="M256.536 207.408C256.312 215.119 252.168 220.147 245.896 220.818C239.904 221.433 237.216 218.639 236.544 216.516C235.816 214.113 237.944 211.599 243.936 211.934C252.616 212.437 256.536 207.408 256.536 207.408Z" fill="#4D281E"/>
<path d="M268.576 219.421V231.546C267.867 231.36 267.139 231.117 266.392 230.819C260.568 228.473 256.76 224.114 257.936 221.209C259 218.639 263.536 217.968 268.576 219.421Z" fill="#050E21"/>
<path d="M276.248 199.753C278.6 198.468 281.344 198.636 283.808 199.418L285.04 199.753C285.488 199.921 286.384 200.144 286.776 200.312C287.784 200.479 288.568 201.262 288.288 202.323C288.008 203.441 286.496 203.608 285.544 203.553C283.192 203.329 281.512 201.765 279.216 201.429C278.376 201.262 277.48 201.206 276.696 201.262C275.856 201.373 275.52 200.144 276.248 199.753Z" fill="#4D281E"/>
<path d="M263.704 202.212C265.888 205.229 265.832 208.972 263.592 210.537C261.408 212.101 257.824 210.928 255.64 207.911C253.512 204.838 253.568 201.094 255.752 199.53C257.992 197.965 261.576 199.138 263.704 202.212Z" fill="#E89870"/>
<path d="M286.664 206.291L287.056 215.51L282.632 215.789L286.664 206.291Z" fill="#E89870"/>
<path d="M283.304 216.404C282.669 216.404 282.165 216.217 281.792 215.845C281.12 215.286 281.064 214.392 281.064 214.336C281.064 214.057 281.288 213.833 281.568 213.833C281.792 213.833 282.072 214.001 282.072 214.28C282.072 214.336 282.128 214.839 282.464 215.119C282.725 215.342 283.099 215.435 283.584 215.398L287 215.063C287.28 215.007 287.504 215.23 287.56 215.51C287.56 215.733 287.392 216.013 287.112 216.013L283.64 216.348C283.528 216.385 283.416 216.404 283.304 216.404Z" fill="#AD613B"/>
<path d="M281.792 207.799C281.568 208.917 280.728 209.699 279.888 209.531C279.104 209.364 278.656 208.302 278.936 207.129C279.16 206.011 280 205.229 280.84 205.396C281.624 205.564 282.072 206.626 281.792 207.799Z" fill="#050E21"/>
<path d="M284.2 217.465L282.24 226.629C281.624 229.479 278.712 231.322 275.688 230.652C273.056 230.093 269.472 229.311 264.936 228.305C254.184 225.847 257.152 216.46 257.432 215.622L261.464 198.691C261.464 198.691 264.488 200.2 264.432 201.15C263.872 207.129 265.384 213.61 265.384 213.61C266.448 218.192 271.152 218.471 274.176 217.41C281.456 214.895 284.2 217.465 284.2 217.465Z" fill="#682626"/>
<path d="M236.376 215.845C236.376 215.845 236.357 215.845 236.32 215.845C236.096 215.789 235.984 215.622 235.984 215.398C236.133 214.281 236.637 213.405 237.496 212.772C239.736 210.984 243.824 211.487 243.992 211.543C244.216 211.543 244.384 211.766 244.384 211.99C244.328 212.213 244.104 212.381 243.88 212.325C243.88 212.325 240.016 211.822 237.944 213.387C237.272 213.945 236.88 214.616 236.824 215.51C236.768 215.677 236.6 215.845 236.376 215.845Z" fill="#2B1A15"/>
<path d="M261.688 194.613C261.651 194.613 261.595 194.594 261.52 194.557C261.296 194.445 261.24 194.166 261.352 193.998C263.76 189.64 269.752 189.584 276.136 189.472C282.632 189.36 289.968 189.249 294.392 184.611C298.2 180.644 296.408 175 295.624 172.542C295.344 171.592 295.232 171.313 295.568 171.089C295.736 170.922 296.016 170.977 296.128 171.201C296.203 171.275 296.221 171.387 296.184 171.536C296.184 171.648 296.296 171.983 296.408 172.318C297.136 174.665 299.096 180.867 294.952 185.17C290.304 190.031 282.8 190.198 276.192 190.254C269.752 190.366 264.208 190.478 262.08 194.389C262.024 194.501 261.856 194.613 261.688 194.613Z" fill="#702323"/>
<path d="M284.368 197.183C284.144 197.183 283.976 197.015 283.976 196.792C283.976 196.568 284.144 196.345 284.368 196.345C284.48 196.345 294.896 196.065 297.304 188.746C297.36 188.522 297.584 188.411 297.808 188.466C298.032 188.522 298.144 188.802 298.088 188.969C295.512 196.904 284.816 197.183 284.368 197.183Z" fill="#2B1A15"/>
<path d="M305.984 339.999C305.816 339.999 305.648 339.832 305.592 339.608C301.896 303.01 295.008 284.683 294.896 284.515C294.84 284.292 294.952 284.068 295.176 283.957C295.344 283.901 295.624 284.013 295.68 284.18C295.736 284.404 302.68 302.787 306.432 339.552C306.432 339.776 306.264 339.943 306.04 339.999C306.04 339.999 306.021 339.999 305.984 339.999Z" fill="#92BFF7"/>
<path d="M244.16 195.842C243.992 195.842 243.824 195.73 243.768 195.563C238.504 184.89 246.232 178.744 246.288 178.688C246.512 178.577 246.736 178.632 246.904 178.8C247.016 178.968 247.016 179.191 246.792 179.359C246.512 179.582 239.568 185.114 244.496 195.227C244.608 195.451 244.552 195.674 244.328 195.786C244.253 195.823 244.197 195.842 244.16 195.842Z" fill="#2B1A15"/>
<path d="M238.056 207.017C237.981 207.017 237.888 206.998 237.776 206.961C237.608 206.793 237.608 206.57 237.72 206.346C240.016 203.441 243.208 203.552 244.944 203.552C245.28 203.552 245.728 203.552 245.84 203.552C246.008 203.385 246.232 203.385 246.4 203.552C246.568 203.72 246.512 203.999 246.344 204.167C246.12 204.391 245.672 204.391 244.944 204.391C243.376 204.335 240.408 204.279 238.392 206.849C238.28 206.961 238.168 207.017 238.056 207.017Z" fill="#2B1A15"/>
<path d="M276.696 302.284C276.192 304.295 274.624 305.636 273.28 305.245C271.936 304.91 271.208 303.01 271.768 300.999C272.272 298.987 273.84 297.646 275.184 297.981C276.528 298.372 277.2 300.272 276.696 302.284Z" fill="#EDF9FF"/>
<path d="M282.352 303.736C281.4 307.368 278.6 309.771 276.136 309.156C273.672 308.486 272.44 305.022 273.392 301.39C274.344 297.814 277.144 295.355 279.608 296.026C282.072 296.64 283.304 300.105 282.352 303.736Z" fill="#356BB3"/>
<path d="M384.776 368.887L354.536 368.719L355.712 347.542L385.784 350.783L384.776 368.887Z" fill="#ADCBF0"/>
<path d="M402.36 352.683C400.4 352.571 398.44 352.236 396.424 351.957C394.576 351.677 393.344 351.454 391.664 351.845C391.291 351.956 390.917 352.087 390.544 352.236C388.64 355.533 396.424 355.924 400.008 357.488C400.904 357.935 394.8 371.904 394.8 371.904C394.8 371.904 378.056 367.043 377.496 366.819L377.328 355.309C377.179 355.123 377.067 354.918 376.992 354.694C376.152 352.85 376.992 350.727 378.84 349.945C384.104 347.933 389.704 344.469 395.528 346.201C396.032 346.369 403.76 348.269 405.608 349.051C406.56 349.442 406.112 352.795 402.36 352.683Z" fill="#ADCBF0"/>
<path d="M394.688 356.203L405.328 358.717C406.728 359.109 408.24 358.438 409.584 357.991L412.944 356.874C415.576 356.091 418.264 357.656 415.744 358.997C414.344 359.723 410.424 361.846 409.08 362.461C407.68 363.076 406.168 363.299 404.656 363.132L393.68 361.791C389.704 361.176 390.712 355.421 394.688 356.203Z" fill="#ADCBF0"/>
<path d="M404.768 339.161C402.36 337.708 397.6 335.362 395.248 333.965C395.024 333.853 394.408 333.406 394.128 333.462C393.904 333.462 393.008 333.518 392.784 333.518L389.928 333.685L390.04 333.741C390.04 333.741 382.928 334.691 382.368 339.441C382.088 342.067 386.68 342.849 386.96 342.905C388.08 342.961 389.424 343.072 389.816 343.072L394.184 343.464C397.152 343.911 398.664 346.704 396.48 347.151C394.072 347.71 388.528 348.436 386.288 348.548C382.424 348.995 378.224 347.878 374.808 346.425L368.256 343.966C363.048 341.731 366.52 334.132 371.616 336.591L374.808 338.323C375.032 337.708 375.592 335.92 376.096 334.468H376.04C372.176 334.579 371.952 328.88 375.816 328.713L392.448 328.545C392.672 328.545 393.624 328.545 393.792 328.489C395.024 328.433 396.424 328.88 397.432 329.607C399.896 331.227 405.776 335.082 408.352 336.759C410.648 338.323 407.232 340.558 404.768 339.161Z" fill="#ADCBF0"/>
<path d="M375.48 330.556L392.336 330.109H392.84C394.128 330.054 395.472 330.333 396.536 331.059C399.336 333.071 405.048 337.15 407.904 339.161C410.088 340.782 406.84 342.793 404.376 341.229C401.52 339.385 396.872 336.926 394.128 335.082L393.904 334.971C393.792 334.915 393.568 334.859 393.344 334.859C393.176 334.915 392.728 334.915 392.504 334.915L375.704 336.088C372.008 336.256 371.728 330.78 375.48 330.556Z" fill="#ADCBF0"/>
<path opacity="0.5" d="M377.72 328.768C377.72 328.768 373.184 331.003 370.608 335.92C370.645 335.771 370.683 335.622 370.72 335.473C370.757 335.362 370.776 335.269 370.776 335.194C371.504 332.289 372.456 329.774 373.464 327.763C375.368 328.21 376.936 328.601 377.72 328.768Z" fill="#356BB3"/>
<path d="M376.544 332.344C381.36 332.288 389.48 332.121 394.24 332.065C395.416 332.065 396.536 332.456 397.432 333.182L405.608 340.446C407.456 342.122 403.872 343.463 401.856 341.899L394.632 336.479L394.744 336.591C394.52 336.423 394.016 336.535 393.792 336.535L391.328 336.647C388.248 336.814 379.904 337.261 376.712 337.485C373.24 337.541 373.072 332.512 376.544 332.344Z" fill="#ADCBF0"/>
<path d="M376.544 334.188L389.592 334.356C392.112 334.188 394.912 335.25 396.816 337.038L401.8 341.284C403.144 342.625 399.336 343.799 397.992 342.737L394.352 340.111C392.952 338.938 391.44 338.379 389.592 338.547L376.544 338.938C373.352 338.938 373.296 334.188 376.544 334.188Z" fill="#ADCBF0"/>
<path opacity="0.5" d="M378.672 350.001C378.672 350.001 374.136 358.382 378.504 365.646C381.584 370.675 390.04 368.887 390.04 368.887L380.8 373.58L361.144 370.507L367.08 357.712L369.32 348.995L378.672 350.001Z" fill="#356BB3"/>
<path d="M394.464 359.947C397.6 360.673 402.584 361.846 405.664 362.517C406.672 362.74 407.344 362.684 408.352 362.349L411.32 361.399L416.36 359.835C418.936 358.997 421.344 360.729 419.664 361.679C417.872 362.74 411.656 365.478 409.808 366.26C408.184 367.043 405.944 367.266 404.152 366.931L402.64 366.707C400.68 366.484 395.472 365.813 393.456 365.59C389.536 364.975 390.544 359.164 394.464 359.947Z" fill="#ADCBF0"/>
<path d="M394.352 364.361C396.648 364.808 400.792 365.59 403.088 366.037C405.664 366.596 408.296 366.093 410.704 365.087L413.112 364.249C415.856 362.796 419.16 364.92 417.088 365.925L412.104 368.384C409.248 370.004 405.888 370.898 402.528 370.619C400.176 370.507 395.92 370.172 393.568 370.004C389.592 369.557 390.376 363.746 394.352 364.361Z" fill="#ADCBF0"/>
<path d="M395.136 366.875C397.04 367.378 400.512 368.272 402.416 368.775C404.6 369.334 406.84 369.054 408.968 368.328L411.04 367.657C412.72 366.819 415.632 367.657 414.456 368.495L409.976 371.122C409.36 371.401 408.576 371.792 407.848 372.016C405.608 372.798 403.032 372.854 400.624 372.463C399.28 372.295 395.64 371.848 394.184 371.68C390.824 371.122 391.776 366.149 395.136 366.875Z" fill="#ADCBF0"/>
<path d="M280.336 303.234C279.832 305.245 278.264 306.586 276.92 306.195C275.576 305.86 274.848 303.96 275.408 301.948C275.912 299.937 277.48 298.596 278.824 298.931C280.168 299.322 280.84 301.222 280.336 303.234Z" fill="#050E21"/>
<path d="M240.744 235.848L254.352 240.821C259.336 242.665 261.8 248.253 259.784 253.17L256.592 260.936L234.976 247.973L240.744 235.848Z" fill="#92BFF7"/>
<path d="M271.712 338.77C271.544 338.77 271.376 338.658 271.32 338.491L254.856 279.766C254.856 279.729 254.856 279.692 254.856 279.654L255.752 259.986C255.752 259.763 255.92 259.595 256.2 259.595C256.424 259.651 256.592 259.819 256.592 260.042L255.696 279.598L272.104 338.267C272.16 338.435 272.048 338.714 271.824 338.77C271.787 338.77 271.749 338.77 271.712 338.77Z" fill="#92BFF7"/>
<path d="M375.032 351.23C374.976 353.186 374.808 355.086 374.528 356.874C373.464 364.417 370.608 369.837 367.416 369.781L289.8 368.887C276.808 368.775 264.544 362.964 256.256 352.962L211.456 296.193L241.36 271.161L292.04 331.451L297.248 331.618H297.36L358.736 333.686L367.36 334.021C367.584 333.965 367.808 333.909 368.032 333.909C368.331 333.946 368.611 334.002 368.872 334.077C369.152 334.133 369.376 334.188 369.6 334.356C370.011 334.542 370.403 334.822 370.776 335.194C371.261 335.641 371.728 336.219 372.176 336.926C373.24 338.658 374.136 341.173 374.584 344.246C374.584 344.283 374.584 344.32 374.584 344.358C374.696 345.028 374.789 345.717 374.864 346.425C374.864 346.537 374.864 346.648 374.864 346.76C375.013 348.176 375.069 349.666 375.032 351.23Z" fill="white"/>
<path d="M374.92 356.65C374.696 356.65 374.528 356.426 374.528 356.203C374.864 352.795 374.864 349.61 374.528 346.816C374.528 346.704 374.528 346.593 374.528 346.537C374.416 345.754 374.304 345.047 374.192 344.413C374.192 344.413 374.192 344.302 374.192 344.246C373.632 341.34 372.624 338.826 371.28 336.87C370.981 336.423 370.701 336.032 370.44 335.697C369.992 335.194 369.6 334.859 369.376 334.691C369.339 334.654 369.32 334.635 369.32 334.635C369.208 334.561 369.133 334.505 369.096 334.468L358.736 334.077L312.76 332.4C307.16 332.065 302.008 331.897 297.36 332.065C287.112 332.288 282.688 333.629 282.688 333.629C282.464 333.685 282.24 333.574 282.128 333.406C282.072 333.183 282.184 332.959 282.408 332.847C282.576 332.791 287 331.506 297.248 331.227C302.008 331.115 307.216 331.227 312.816 331.618L369.208 333.685C369.283 333.685 369.357 333.704 369.432 333.741C369.432 333.741 369.6 333.797 369.88 334.021C370.16 334.244 370.552 334.635 371.056 335.194C371.355 335.529 371.653 335.92 371.952 336.367C373.352 338.435 374.416 341.061 374.976 344.19C375.144 345.028 375.256 345.698 375.312 346.425C375.349 346.499 375.368 346.611 375.368 346.76C375.704 349.554 375.704 352.795 375.368 356.259C375.312 356.482 375.144 356.65 374.92 356.65Z" fill="#92BFF7"/>
<path d="M326.144 369.11C325.976 369.11 325.752 368.942 325.752 368.775C325.752 368.551 325.92 368.328 326.144 368.328C351.792 366.316 355.32 356.091 355.32 355.979C355.376 355.756 355.6 355.644 355.824 355.7C356.048 355.756 356.16 355.979 356.104 356.203C355.992 356.65 352.464 367.099 326.2 369.11C326.2 369.11 326.181 369.11 326.144 369.11Z" fill="#92BFF7"/>
<path d="M278.712 367.769C278.712 367.769 278.693 367.769 278.656 367.769C278.432 367.732 278.189 367.676 277.928 367.602C262.64 364.417 248.024 344.581 239.288 332.68C236.936 329.439 235.032 326.924 233.744 325.528C231.112 322.678 228.312 321.002 225.512 320.555C223.776 320.275 222.488 320.555 221.816 320.667L221.648 320.722C221.424 320.778 221.2 320.611 221.144 320.387C221.088 320.164 221.256 319.94 221.48 319.884H221.648C222.32 319.717 223.72 319.437 225.624 319.717C228.648 320.219 231.56 321.952 234.36 324.969C235.704 326.366 237.552 328.936 239.96 332.233C248.64 343.966 263.144 363.69 278.096 366.819C278.357 366.894 278.6 366.95 278.824 366.987C279.048 366.987 279.16 367.21 279.16 367.434C279.104 367.657 278.936 367.769 278.712 367.769Z" fill="#92BFF7"/>
<path d="M280.28 317.873C280.168 317.873 280.056 317.817 279.944 317.705L250.264 282.392C250.096 282.225 250.152 281.945 250.32 281.833C250.488 281.666 250.768 281.666 250.88 281.833L280.56 317.202C280.728 317.37 280.728 317.593 280.504 317.761C280.429 317.836 280.355 317.873 280.28 317.873Z" fill="#92BFF7"/>
<path d="M261.128 295.132C261.053 295.132 260.978 295.094 260.904 295.02C253.456 288.483 243.152 287.7 238.224 287.309C236.992 287.197 236.04 287.142 235.48 286.974C235.256 286.974 235.088 286.75 235.144 286.527C235.2 286.303 235.424 286.136 235.648 286.192C236.152 286.303 237.104 286.359 238.28 286.471C243.32 286.862 253.792 287.7 261.408 294.405C261.576 294.573 261.632 294.796 261.464 294.964C261.389 295.076 261.277 295.132 261.128 295.132Z" fill="#92BFF7"/>
<path d="M247.856 264.68C247.744 264.68 247.632 264.624 247.52 264.456C244.384 259.595 239.96 257.807 236.824 257.192C232.736 256.41 228.368 257.081 225.624 258.98C225.456 259.092 225.176 259.036 225.064 258.869C224.952 258.701 224.952 258.422 225.176 258.31C228.088 256.298 232.68 255.572 236.992 256.41C240.296 257.025 244.888 258.925 248.248 264.009C248.36 264.233 248.304 264.456 248.08 264.624C248.005 264.661 247.93 264.68 247.856 264.68Z" fill="#92BFF7"/>
<path d="M304.808 315.358C304.696 315.358 304.584 315.303 304.472 315.191C304.36 315.023 304.416 314.744 304.584 314.632C306.264 313.515 310.408 312.397 320.264 313.57C320.488 313.626 320.656 313.85 320.6 314.073C320.6 314.297 320.376 314.409 320.152 314.409C310.016 313.179 306.32 314.464 305.032 315.303C304.957 315.34 304.882 315.358 304.808 315.358Z" fill="#92BFF7"/>
<path d="M275.856 206.737C275.688 206.737 275.52 206.626 275.464 206.458C275.408 206.235 275.464 206.011 275.688 205.955C275.856 205.843 280.448 203.944 282.912 206.011C283.08 206.123 283.08 206.402 282.968 206.57C282.8 206.737 282.52 206.793 282.352 206.626C280.336 204.894 276.08 206.682 276.024 206.682C275.949 206.719 275.893 206.737 275.856 206.737Z" fill="#050E21"/>
<path d="M281.848 221.879C278.488 221.879 277.368 219.086 277.368 219.03C277.312 218.806 277.368 218.583 277.592 218.527C277.816 218.415 278.04 218.527 278.152 218.75C278.152 218.862 279.048 221.097 281.848 221.097C282.072 221.097 282.24 221.265 282.24 221.488C282.24 221.712 282.072 221.879 281.848 221.879Z" fill="#AD613B"/>
<path d="M406.728 339.664C406.28 339.664 405.664 339.552 405.048 339.273C403.088 338.491 394.968 334.244 394.072 333.741L389.48 334.077C389.48 334.077 383.6 335.082 382.76 338.826C382.76 338.994 382.592 339.049 382.48 339.049C382.312 338.994 382.2 338.882 382.256 338.714C383.152 334.58 389.144 333.574 389.424 333.574L394.128 333.183C394.165 333.183 394.202 333.201 394.24 333.239C394.352 333.294 403.256 337.988 405.272 338.77C407.12 339.552 408.464 338.658 408.464 338.602C408.576 338.547 408.744 338.547 408.856 338.658C408.912 338.826 408.912 338.994 408.8 339.049C408.744 339.105 407.96 339.664 406.728 339.664Z" fill="#6D9DD6"/>
<path d="M406.504 341.955C405.776 341.955 404.712 341.787 403.76 341.061C402.36 339.888 394.128 336.032 393.568 335.753C393.12 335.697 388.584 334.915 385.84 335.306C385.672 335.362 385.56 335.25 385.56 335.082C385.504 334.915 385.616 334.803 385.784 334.747C388.752 334.3 393.512 335.194 393.68 335.25C393.717 335.25 393.736 335.25 393.736 335.25C394.128 335.418 402.64 339.385 404.152 340.614C405.496 341.787 407.288 341.34 407.288 341.34C407.456 341.34 407.568 341.396 407.624 341.564C407.624 341.676 407.568 341.843 407.4 341.899C407.4 341.899 407.008 341.955 406.504 341.955Z" fill="#6D9DD6"/>
<path d="M401.856 342.178C401.818 342.178 401.781 342.16 401.744 342.123L394.968 337.876C393.68 337.094 392.224 336.647 390.712 336.591L384.272 336.367C384.104 336.367 383.992 336.256 383.992 336.088C383.992 335.976 384.16 335.865 384.272 335.865L390.712 336.032C392.336 336.088 393.848 336.591 395.248 337.429L402.024 341.676C402.136 341.731 402.192 341.899 402.136 342.067C402.061 342.141 401.968 342.178 401.856 342.178Z" fill="#6D9DD6"/>
<path d="M404.992 363.187C404.693 363.187 404.413 363.187 404.152 363.187L391.16 361.958C390.992 361.958 390.88 361.846 390.88 361.679C390.88 361.511 390.992 361.455 391.16 361.455L404.152 362.629C405.72 362.796 407.288 362.517 408.744 361.846L416.248 358.55C416.36 358.494 416.528 358.55 416.584 358.662C416.64 358.829 416.584 358.941 416.472 359.053L408.968 362.349C407.736 362.908 406.392 363.187 404.992 363.187Z" fill="#6D9DD6"/>
<path d="M404.32 367.657C403.984 367.657 403.629 367.639 403.256 367.602L391.16 366.652C390.992 366.652 390.88 366.54 390.88 366.372C390.88 366.205 390.992 366.149 391.16 366.149L403.312 367.043C405.552 367.21 407.848 366.819 409.864 365.869C417.984 362.182 419.384 361.511 419.552 361.455C419.664 361.344 419.832 361.399 419.888 361.567C420 361.679 419.944 361.846 419.776 361.902C419.552 362.07 416.304 363.579 410.088 366.372C408.296 367.21 406.336 367.657 404.32 367.657Z" fill="#6D9DD6"/>
<path d="M388.248 337.932L425.88 350.727L387.912 338.938L388.248 337.932Z" fill="white"/>
<path d="M405.608 371.68C405.496 371.68 405.384 371.624 405.328 371.513C405.272 371.401 405.328 371.233 405.496 371.177L417.368 365.422C417.536 365.366 417.704 365.422 417.76 365.534C417.816 365.646 417.76 365.813 417.592 365.925L405.72 371.624C405.682 371.662 405.645 371.68 405.608 371.68Z" fill="#6D9DD6"/>
<path d="M382.312 348.772C382.2 348.772 382.088 348.716 382.088 348.66C381.976 348.492 382.032 348.325 382.144 348.269C382.256 348.213 389.312 344.358 398.272 346.648C398.44 346.704 398.552 346.816 398.496 346.984C398.44 347.151 398.328 347.207 398.16 347.151C389.424 344.916 382.48 348.716 382.424 348.772C382.387 348.772 382.349 348.772 382.312 348.772Z" fill="#6D9DD6"/>
<path d="M291.48 321.952C291.256 321.952 291.088 321.728 291.088 321.505C291.144 321.225 294.336 290.494 292.208 277.922C292.152 277.699 292.32 277.475 292.544 277.475C292.768 277.419 292.992 277.587 292.992 277.81C295.176 290.494 291.928 321.281 291.928 321.616C291.872 321.84 291.704 321.952 291.48 321.952Z" fill="#92BFF7"/>
<path d="M411.936 346.09C411.208 348.045 409.864 349.386 408.968 349.051L401.744 346.593C402.64 346.648 403.872 345.419 404.544 343.519C405.272 341.62 405.216 339.776 404.376 339.385L411.712 341.899C412.608 342.234 412.72 344.078 411.936 346.09Z" fill="#BA3E1E"/>
<path d="M404.544 343.519C403.872 345.419 402.64 346.648 401.744 346.593L401.408 346.481C401.408 346.444 401.408 346.425 401.408 346.425L395.36 344.358L398.104 337.206L404.152 339.273L404.376 339.385C405.216 339.776 405.272 341.62 404.544 343.519Z" fill="#6D7C91"/>
<path d="M398.328 341.452C397.6 343.463 396.256 344.805 395.36 344.469C394.464 344.134 394.352 342.234 395.136 340.223C395.864 338.267 397.208 336.926 398.104 337.261C399 337.597 399.112 339.496 398.328 341.452Z" fill="white"/>
<path d="M404.544 343.519C403.872 345.419 402.64 346.648 401.744 346.592C401.707 346.555 401.651 346.537 401.576 346.537C401.539 346.499 401.483 346.481 401.408 346.481C401.408 346.443 401.408 346.425 401.408 346.425C400.68 345.922 400.624 344.134 401.296 342.29C402.024 340.446 403.256 339.161 404.152 339.273C404.189 339.273 404.245 339.291 404.32 339.329C404.357 339.329 404.376 339.347 404.376 339.385C405.216 339.776 405.272 341.62 404.544 343.519Z" fill="#F27A5A"/>
<path d="M390.152 339.217C389.144 341.899 387.408 343.687 386.288 343.24C385.112 342.793 385 340.279 386.008 337.653C387.016 335.026 388.752 333.238 389.928 333.685C391.048 334.077 391.16 336.591 390.152 339.217Z" fill="white"/>
<path d="M607.152 372.072C607.152 373.804 605.696 375.257 603.904 375.257H65.5758C63.8398 375.257 62.3838 373.804 62.3838 372.072C62.3838 370.284 63.8398 368.887 65.5758 368.887H603.904C605.696 368.887 607.152 370.284 607.152 372.072Z" fill="#8EA1BD"/>
<path d="M523.488 341.117V359.947C523.488 361.511 522.256 362.796 520.632 362.796C519.064 362.796 517.776 361.511 517.776 359.947V340.167C519.568 340.782 521.528 341.117 523.488 341.117Z" fill="#F27A5A"/>
<path d="M523.488 322.175V341.117C521.528 341.117 519.568 340.782 517.776 340.167V322.175H523.488Z" fill="white"/>
<path d="M523.992 322.958H517.328C516.88 322.958 516.544 322.622 516.544 322.175C516.544 321.784 516.88 321.449 517.328 321.449H523.992C524.384 321.449 524.72 321.784 524.72 322.175C524.72 322.622 524.384 322.958 523.992 322.958Z" fill="white"/>
<path d="M541.688 322.958H535.08C534.632 322.958 534.296 322.622 534.296 322.175C534.296 321.784 534.632 321.449 535.08 321.449H541.688C542.136 321.449 542.472 321.784 542.472 322.175C542.472 322.622 542.136 322.958 541.688 322.958Z" fill="white"/>
<path d="M541.24 322.175V359.947C541.24 361.511 539.952 362.796 538.384 362.796C536.816 362.796 535.528 361.511 535.528 359.947V322.175H541.24Z" fill="white"/>
<path d="M559.44 322.958H552.776C552.384 322.958 552.048 322.622 552.048 322.175C552.048 321.784 552.384 321.449 552.776 321.449H559.44C559.832 321.449 560.224 321.784 560.224 322.175C560.224 322.622 559.832 322.958 559.44 322.958Z" fill="white"/>
<path d="M558.992 322.175V359.947C558.992 361.511 557.704 362.796 556.136 362.796C554.512 362.796 553.28 361.511 553.28 359.947V322.175H558.992Z" fill="white"/>
<path d="M541.24 353.186V359.947C541.24 361.511 539.952 362.796 538.384 362.796C536.816 362.796 535.528 361.511 535.528 359.947V353.074C536.928 353.521 538.832 353.689 541.24 353.186Z" fill="#BA3E1E"/>
<path d="M558.992 334.524V359.947C558.992 361.511 557.704 362.796 556.136 362.796C554.512 362.796 553.28 361.511 553.28 359.947V334.691C554.848 334.859 557.2 334.971 558.992 334.524Z" fill="#FF805E"/>
<path fill-rule="evenodd" clip-rule="evenodd" d="M570.304 368.887H507.416C507.192 368.887 507.024 368.719 507.024 368.496V329.774C507.024 329.551 507.192 329.383 507.416 329.383H570.304C570.528 329.383 570.696 329.551 570.696 329.774V368.496C570.696 368.719 570.528 368.887 570.304 368.887ZM507.808 368.105H569.912V330.166H507.808V368.105Z" fill="#3576CC"/>
<path d="M575.12 368.887H502.544V364.082H575.12V368.887Z" fill="#488DF0"/>
<path d="M572.824 330.948H504.84V328.545H572.824V330.948Z" fill="#488DF0"/>
<path fill-rule="evenodd" clip-rule="evenodd" d="M307.496 422.583C270.368 422.583 218.288 403.809 160.048 369.278C146.44 369.278 130.984 369.278 130.648 369.278C129.976 369.334 113.624 370.116 107.184 365.534C105.392 364.249 104.328 362.573 104.216 360.785C104.048 359.22 104.72 357.712 106.064 356.371C107.128 355.253 108.64 354.415 110.432 353.912C124.544 350.057 142.856 356.65 154.784 364.92C156.464 366.093 158.312 367.322 160.272 368.496C170.184 368.44 178.696 368.44 178.696 368.44C183.848 368.104 186.536 365.311 187.936 362.964C190.344 358.885 190.568 353.074 188.44 348.492C183.288 337.261 170.128 332.065 156.184 326.478C143.696 321.505 130.76 316.364 121.744 306.53C116.704 301.054 114.464 294.741 114.968 287.868C116.032 274.626 127.736 260.824 138.32 252.331C143.472 248.197 148.904 244.397 154.168 240.654C172.48 227.691 189.84 215.398 196.56 192.489C202.048 173.883 185.472 159.579 178.08 154.271C165.984 145.61 165.424 139.24 165.76 136.95C166.04 134.994 167.104 133.541 168.672 132.982C170.576 132.312 172.144 132.424 173.432 133.374C177.184 136.167 176.736 145.163 176.68 145.554C176.68 145.778 176.456 145.945 176.232 145.945C176.008 145.945 175.84 145.722 175.896 145.498C175.896 145.443 176.344 136.558 172.928 134.044C171.864 133.262 170.576 133.15 168.952 133.765C167.664 134.212 166.824 135.441 166.6 137.061C166.264 139.24 166.824 145.163 178.528 153.6C186.088 159.02 203 173.604 197.4 192.713C190.512 215.901 173.096 228.249 154.616 241.324C149.408 245.012 143.976 248.867 138.88 252.946C128.352 261.327 116.816 274.905 115.808 287.98C115.304 294.573 117.488 300.663 122.36 305.971C131.264 315.694 144.088 320.778 156.52 325.751C170.632 331.339 183.904 336.647 189.224 348.157C191.408 352.962 191.184 359.109 188.608 363.411C187.152 365.869 184.24 368.887 178.752 369.278C178.696 369.278 170.968 369.278 161.672 369.278C221.984 404.87 275.52 423.421 312.48 421.633C352.296 419.677 379.848 406.435 388.024 385.258C392.952 372.351 389.592 358.382 378.952 347.766C376.656 345.475 374.192 343.24 371.84 341.005C367.36 336.87 362.768 332.568 358.736 327.874C358.437 327.539 358.101 327.167 357.728 326.757C353.248 321.561 344.904 311.95 350.224 305.413C350.672 304.891 351.176 304.426 351.736 304.016C357.168 300.16 365.456 303.345 371.224 306.083C379.4 309.883 386.568 317.37 392.56 328.321C392.672 328.489 392.616 328.768 392.392 328.88C392.224 328.992 391.944 328.88 391.832 328.713C385.952 317.929 378.896 310.553 370.888 306.81C365.288 304.183 357.28 301.11 352.24 304.686C351.717 305.022 351.269 305.431 350.896 305.916C345.968 311.95 354.032 321.225 358.344 326.198C358.717 326.608 359.053 326.999 359.352 327.372C363.328 332.009 367.92 336.312 372.4 340.446C374.752 342.625 377.216 344.916 379.512 347.207C390.376 357.991 393.848 372.351 388.752 385.537C380.464 407.049 352.688 420.459 312.536 422.415C310.893 422.527 309.213 422.583 307.496 422.583ZM119.392 353.577C116.368 353.577 113.4 353.912 110.656 354.694C108.976 355.141 107.632 355.924 106.624 356.929C105.448 358.103 104.888 359.388 105 360.729C105.112 362.238 106.064 363.746 107.688 364.864C113.904 369.278 130.48 368.496 130.648 368.44C131.04 368.496 145.992 368.496 158.704 368.496C157.136 367.527 155.661 366.559 154.28 365.59C144.872 359.053 131.488 353.577 119.392 353.577Z" fill="#F27A5A"/>
<path d="M176.288 369.222C175.672 369.222 175.168 368.719 175.168 368.104V148.348C175.168 147.733 175.672 147.23 176.288 147.23C176.904 147.23 177.352 147.733 177.352 148.348V368.104C177.352 368.719 176.904 369.222 176.288 369.222Z" fill="#A1B6D6"/>
<path d="M178.584 203.05H173.992C164.584 203.05 156.8 195.898 156.072 186.566L153.832 157.903C153.272 151.253 158.592 145.554 165.312 145.554H187.264C193.984 145.554 199.248 151.253 198.744 157.903L196.504 186.566C195.776 195.898 187.992 203.05 178.584 203.05Z" fill="white"/>
<path d="M184.352 179.526C184.352 183.996 180.712 187.572 176.288 187.572C171.808 187.572 168.224 183.996 168.224 179.526C168.224 177.962 169.232 175.112 170.576 172.095C170.613 172.058 170.632 172.039 170.632 172.039C172.984 166.731 176.288 161.032 176.288 161.032C176.288 161.032 177.912 163.77 179.648 167.29C181.888 171.648 184.352 177.068 184.352 179.526Z" fill="#F27A5A"/>
<path opacity="0.5" d="M184.352 179.526C184.352 183.996 180.712 187.572 176.288 187.572C171.808 187.572 168.224 183.996 168.224 179.526C168.224 177.962 169.232 175.112 170.576 172.095C170.352 172.821 167.944 180.532 172.48 182.767C176.68 184.89 181.72 181.035 180.04 176.006C178.752 172.207 178.584 165.613 178.584 165.613L179.648 167.29C181.888 171.648 184.352 177.068 184.352 179.526Z" fill="#BA3E1E"/>
<path d="M175.28 341.787L186.368 337.82L174.664 305.58L163.576 309.547L175.28 341.787Z" fill="#488DF0"/>
<path d="M163.856 311.335L175.504 307.089C176.456 306.754 176.904 305.748 176.568 304.854C176.232 303.96 175.224 303.457 174.328 303.792L162.68 308.039C161.784 308.374 161.28 309.38 161.616 310.274C161.952 311.168 162.96 311.671 163.856 311.335Z" fill="#85BAFF"/>
<path d="M199.472 350.504H204.008V340.837H199.472V350.504Z" fill="#85BAFF"/>
<path d="M186.032 350.504H190.568V340.837H186.032V350.504Z" fill="#85BAFF"/>
<path d="M169.792 367.601L166.656 366.652L175.056 339.049L178.192 339.999L169.792 367.601Z" fill="#488DF0"/>
<path d="M216.832 364.864H167.16L165.648 369.278H219.464L216.832 364.864Z" fill="#488DF0"/>
<path d="M173.656 345.642H205.8C208.096 345.642 210 343.799 210 341.452C210 339.161 208.096 337.261 205.8 337.261H173.656V345.642Z" fill="#488DF0"/>
<path d="M447.44 167.011L446.656 166.452L476.056 126.11L429.688 114.265L429.968 113.259L477.736 125.495L447.44 167.011Z" fill="#E4E2F1"/>
<path d="M519.512 147.175L476.168 125.998L504.896 77.7222L505.176 77.778C506.24 77.8898 533.064 93.4789 541.296 98.2842L540.792 99.1223C527.744 91.5233 508.256 80.2924 505.344 78.8955L477.624 125.607L519.96 146.281L519.512 147.175Z" fill="#E4E2F1"/>
<path d="M435.232 111.806C436.352 114.767 434.784 118.064 431.816 119.182C428.792 120.243 425.488 118.735 424.424 115.717C423.304 112.756 424.872 109.403 427.84 108.342C430.864 107.28 434.168 108.789 435.232 111.806Z" fill="#FAC055"/>
<path d="M482.328 123.819C483.392 126.836 481.88 130.133 478.856 131.195C475.888 132.312 472.528 130.748 471.464 127.786C470.4 124.769 471.912 121.472 474.936 120.355C477.904 119.293 481.208 120.858 482.328 123.819Z" fill="#FAC055"/>
<path d="M525.168 144.772C526.232 147.789 524.664 151.086 521.696 152.148C518.672 153.265 515.368 151.701 514.304 148.683C513.184 145.722 514.752 142.425 517.776 141.308C520.744 140.246 524.048 141.811 525.168 144.772Z" fill="#FAC055"/>
<path d="M510.552 76.2695C511.672 79.2867 510.104 82.5833 507.08 83.645C504.112 84.7625 500.808 83.198 499.688 80.2366C498.624 77.2193 500.192 73.9227 503.16 72.8611C506.184 71.7436 509.488 73.3081 510.552 76.2695Z" fill="#FAC055"/>
<path d="M546.448 96.7196C547.568 99.7369 546 103.034 543.032 104.095C540.008 105.213 536.704 103.648 535.64 100.687C534.52 97.6695 536.088 94.3729 539.056 93.3113C542.08 92.1938 545.384 93.7583 546.448 96.7196Z" fill="#FAC055"/>
<path d="M452.2 163.993C453.264 167.011 451.752 170.307 448.728 171.425C445.76 172.486 442.456 170.922 441.336 167.96C440.272 164.943 441.784 161.647 444.808 160.585C447.832 159.467 451.136 161.032 452.2 163.993Z" fill="#FAC055"/>
<path d="M265.44 120.355C260.736 132.368 247.24 138.291 235.2 133.597C223.216 128.904 217.28 115.382 221.984 103.425C226.632 91.4115 240.184 85.5446 252.224 90.1822C264.208 94.8757 270.144 108.397 265.44 120.355Z" fill="white"/>
<path d="M230.552 93.4787C230.776 96.049 228.872 98.3398 226.296 98.5633C223.72 98.7868 221.424 96.8871 221.2 94.3168C220.976 91.7466 222.88 89.5116 225.456 89.2322C228.032 89.0087 230.272 90.9085 230.552 93.4787Z" fill="white"/>
<path d="M223.888 111.806C224.168 114.376 222.264 116.667 219.688 116.89C217.112 117.114 214.816 115.214 214.592 112.644C214.368 110.074 216.272 107.839 218.792 107.615C221.368 107.336 223.664 109.236 223.888 111.806Z" fill="white"/>
<path d="M228.256 136C225.68 136.335 223.328 134.547 222.936 132.033C222.6 129.462 224.392 127.116 226.968 126.724C229.488 126.389 231.84 128.177 232.232 130.692C232.568 133.262 230.832 135.609 228.256 136Z" fill="white"/>
<path d="M266.392 128.512C263.816 128.848 261.464 127.115 261.072 124.545C260.736 121.975 262.528 119.628 265.048 119.293C267.624 118.902 269.976 120.69 270.368 123.26C270.704 125.774 268.912 128.177 266.392 128.512Z" fill="white"/>
<path d="M246.624 141.196C244.104 141.587 241.696 139.799 241.36 137.229C240.968 134.715 242.76 132.312 245.336 131.977C247.912 131.642 250.264 133.374 250.6 135.944C250.992 138.514 249.2 140.861 246.624 141.196Z" fill="white"/>
<path d="M269.304 109.515C266.784 109.906 264.376 108.118 264.04 105.548C263.648 103.033 265.44 100.631 268.016 100.296C270.592 99.9604 272.944 101.692 273.28 104.263C273.672 106.833 271.88 109.18 269.304 109.515Z" fill="white"/>
<path d="M253.4 93.9817C250.824 94.3169 248.472 92.5289 248.136 90.0146C247.744 87.4443 249.536 85.0976 252.112 84.7064C254.688 84.3712 257.04 86.1592 257.376 88.6736C257.768 91.2438 255.976 93.5906 253.4 93.9817Z" fill="white"/>
<path d="M238.616 102.475C236.488 101.748 235.312 99.4016 236.04 97.2784C236.768 95.0993 239.12 93.9259 241.248 94.6523C243.432 95.3786 244.552 97.7254 243.824 99.8486C243.096 102.028 240.8 103.145 238.616 102.475Z" fill="white"/>
<path fill-rule="evenodd" clip-rule="evenodd" d="M239.96 103.089C239.475 103.127 238.989 103.052 238.504 102.866C236.096 102.084 234.808 99.5134 235.648 97.1107C236.432 94.7081 239.008 93.423 241.416 94.2611C243.768 95.0433 245.056 97.6136 244.272 100.016C243.656 101.916 241.864 103.089 239.96 103.089ZM238.784 102.028C240.688 102.642 242.76 101.637 243.432 99.7369C244.048 97.8371 243.04 95.7697 241.136 95.0992C239.232 94.4846 237.104 95.4904 236.488 97.3901C235.872 99.2899 236.88 101.357 238.784 102.028Z" fill="#9A28A3"/>
<path d="M252.28 123.316C249.928 122.534 248.64 119.964 249.424 117.617C250.208 115.27 252.784 113.985 255.136 114.823C257.488 115.605 258.776 118.12 257.992 120.522C257.208 122.869 254.632 124.098 252.28 123.316Z" fill="white"/>
<path fill-rule="evenodd" clip-rule="evenodd" d="M253.736 124.042C253.176 124.042 252.635 123.949 252.112 123.763C249.536 122.869 248.136 120.075 248.976 117.505C249.872 114.879 252.672 113.482 255.304 114.376C257.88 115.214 259.28 118.064 258.384 120.634C257.992 121.919 257.096 122.925 255.92 123.484C255.192 123.819 254.464 124.042 253.736 124.042ZM253.736 115.047C252 115.047 250.432 116.108 249.872 117.784C249.144 119.908 250.32 122.199 252.392 122.869C253.456 123.26 254.52 123.148 255.528 122.701C256.48 122.199 257.208 121.36 257.544 120.355C258.272 118.231 257.096 115.941 255.024 115.214C254.576 115.065 254.147 115.009 253.736 115.047Z" fill="#9A28A3"/>
<path d="M232.456 121.584C230.104 120.802 228.816 118.231 229.6 115.885C230.384 113.538 232.96 112.253 235.312 113.035C237.664 113.817 238.952 116.387 238.168 118.734C237.328 121.081 234.808 122.366 232.456 121.584Z" fill="white"/>
<path fill-rule="evenodd" clip-rule="evenodd" d="M233.856 122.254C233.333 122.254 232.811 122.18 232.288 122.031C229.712 121.137 228.312 118.343 229.152 115.717C230.048 113.147 232.848 111.75 235.48 112.644C238.056 113.482 239.456 116.276 238.56 118.902C237.888 120.969 235.928 122.254 233.856 122.254ZM233.856 113.259C232.176 113.259 230.608 114.32 230.048 115.996C229.32 118.12 230.44 120.411 232.568 121.137C234.696 121.863 236.992 120.69 237.72 118.623C238.448 116.499 237.272 114.208 235.144 113.482C234.733 113.333 234.304 113.259 233.856 113.259Z" fill="#9A28A3"/>
<path d="M325.977 152.651C328.609 156.506 331.913 159.859 336.169 161.758C337.513 162.373 339.025 162.82 340.481 162.652C343.449 162.317 344.905 159.747 344.681 156.953C344.513 155.109 343.841 153.321 343.057 151.589C340.145 145.108 336.057 139.129 331.465 133.709C328.889 130.636 324.409 125.831 319.873 127.507C315.897 128.96 317.129 134.491 318.361 137.453C320.377 142.37 322.729 147.901 325.977 152.651Z" fill="#ACADE3"/>
<path d="M293.384 55.2046C294.56 55.7634 295.904 56.2662 297.024 55.7075C298.256 55.037 298.48 53.249 297.808 51.9639C297.192 50.7346 296.016 49.8965 294.84 49.1142C292.096 47.2704 280.056 38.8891 277.48 44.4207C275.296 49.1701 290.528 53.9195 293.384 55.2046Z" fill="#ACADE3"/>
<path d="M352.352 131.753C352.128 133.597 353.248 135.553 354.816 136.614C356.44 137.676 358.904 137.508 359.912 135.888C360.36 135.162 360.472 134.324 360.416 133.541C360.36 131.418 359.24 129.239 357.28 128.513C355.936 128.01 354.424 128.513 353.472 129.462C352.744 130.133 352.408 130.971 352.352 131.753Z" fill="#ACADE3"/>
<path d="M129.304 63.4181C129.248 64.7032 129.584 65.9325 130.536 66.7706C131.488 67.6646 132.832 67.8881 134.176 67.944C140.448 68.0557 148.904 63.1387 149.24 56.1544C149.408 52.746 146.216 48.276 142.352 49.4494C141.4 49.7287 140.504 50.3434 139.72 50.9021C135.8 53.64 130.648 57.4395 129.416 62.3006C129.342 62.6731 129.304 63.0456 129.304 63.4181Z" fill="#ACADE3"/>
<path d="M80.8082 76.2694C85.5682 73.8109 87.5842 68.2793 90.6642 63.9769C93.5762 59.9539 97.5522 56.8808 100.632 52.9695C104.104 48.6671 107.8 39.2243 101.192 35.7041C94.8642 32.4075 88.4802 39.6154 85.4562 44.253C82.7122 48.4436 80.0802 52.746 77.6722 57.1601C75.3202 61.4625 73.2482 66.3236 73.6402 71.4083C73.8082 72.9169 74.2002 74.4814 75.1522 75.6548C76.7202 77.4428 78.9042 77.2751 80.8082 76.2694Z" fill="#ACADE3"/>
<path d="M89.88 202.603C89.6 204.056 89.208 205.508 89.208 207.017C89.264 208.526 89.712 210.09 90.888 211.04C92.848 212.66 95.928 211.878 97.608 210.034C99.288 208.134 99.904 205.564 100.296 203.106C100.856 199.865 101.248 196.512 100.744 193.272C100.24 189.975 98.84 186.79 96.32 184.611C95.592 183.941 94.752 183.382 93.8 183.27C89.712 182.544 89.488 186.678 89.88 189.305C90.608 193.775 90.72 198.189 89.88 202.603Z" fill="#ACADE3"/>
<path d="M208.376 223.109C207.144 224.226 205.688 225.176 204.064 225.4C202.832 225.567 201.432 225.288 200.872 224.226C200.144 222.774 201.376 221.097 202.664 220.147C204.568 218.806 206.976 217.689 207.76 215.454C208.488 213.498 208.768 210.593 211.624 210.705C213.248 210.76 213.808 211.599 214.088 213.051C214.76 216.739 210.896 221.041 208.376 223.109Z" fill="#A3CFE9"/>
<path d="M334.656 267.194C337.12 269.094 340.088 270.714 343.112 270.1C344.4 269.876 345.744 269.094 346.08 267.809C346.192 267.474 346.23 267.12 346.192 266.747C346.08 265.127 344.792 263.842 343.392 263.004C341.992 262.221 340.424 261.718 339.08 260.88C336.616 259.26 334.992 256.522 332.304 255.405C328.944 253.952 327.6 256.746 328.496 259.483C329.504 262.668 332.08 265.239 334.656 267.194Z" fill="#DFE0F2"/>
<path d="M370.832 254.231C371.952 253.281 373.016 252.108 373.408 250.711C374.08 248.364 372.736 245.738 370.664 244.397C368.592 243.112 365.96 242.833 363.552 243.168C361.144 243.503 358.792 244.397 356.44 245.068C354.088 245.775 351.718 246.353 349.328 246.8C345.856 247.414 341.04 248.923 342.328 253.561C343.112 256.299 345.744 256.466 348.208 256.746C355.936 257.64 364.224 259.651 370.832 254.231Z" fill="#DFE0F2"/>
<path d="M83.4402 326.478C85.0642 328.321 87.5842 328.601 89.7682 327.539C92.4562 326.142 94.0242 323.293 94.5282 320.331C95.0882 316.867 94.5842 312.732 92.0082 310.106C89.9922 307.983 86.6322 307.704 84.0562 309.212C80.8082 311.224 79.8002 315.358 80.3602 318.934C80.6962 321.058 81.7042 324.466 83.4402 326.478Z" fill="#DFE0F2"/>
<path d="M45.9202 277.866C45.7335 278.127 45.5468 278.388 45.3602 278.649C44.0162 280.437 42.9522 282.672 43.2882 284.963C43.3442 285.689 43.6242 286.471 44.1842 286.974C44.5202 287.253 45.0242 287.421 45.4722 287.589C49.4482 288.594 54.3202 286.471 57.4002 284.069C60.5362 281.666 69.3842 268.591 60.5362 267.921C57.6802 267.697 54.7682 269.988 52.6962 271.608C50.3442 273.452 47.8802 275.52 45.9202 277.866Z" fill="#ACADE3"/>
<path d="M535.08 223.835C533.848 225.456 532.84 227.858 534.184 229.423C535.192 230.652 537.096 230.652 538.608 230.261C541.24 229.646 543.704 228.25 545.832 226.573C547.456 225.344 548.968 223.78 549.584 221.824C550.592 218.527 551.376 210.705 545.944 212.996C542.08 214.616 537.544 220.539 535.08 223.835Z" fill="#DFE0F2"/>
<path d="M597.52 247.694C599.816 252.499 603.792 256.522 608.664 258.534C610.68 259.372 612.864 259.819 614.992 259.428C617.12 258.981 619.136 257.472 619.64 255.349C620.48 252.22 617.96 249.258 615.496 247.079C611.016 243.224 606.704 220.706 597.24 227.635C592.872 230.875 595.616 243.671 597.52 247.694Z" fill="#ACADE3"/>
<path d="M624.96 226.908C626.192 227.076 627.592 226.908 628.32 225.903C628.936 225.065 628.824 223.835 628.6 222.774C628.19 220.65 627.667 218.564 627.032 216.516C626.416 214.672 625.688 212.772 624.064 211.655C622.216 210.314 619.36 210.649 617.792 212.269C613.144 217.242 619.64 226.07 624.96 226.908Z" fill="#ACADE3"/>
<path d="M553.392 299.825C554.68 300.16 556.024 300.328 557.312 299.993C558.6 299.602 559.776 298.708 560.168 297.423C560.672 295.746 559.776 294.014 558.768 292.617C557.088 290.215 555.016 288.203 552.608 286.527C548.352 283.621 546.84 288.427 546.952 292.003C547.008 295.914 549.64 298.764 553.392 299.825Z" fill="#DFE0F2"/>
<path d="M433.72 90.0146C436.52 88.9529 439.264 87.6678 441.28 85.4328C445.424 80.7393 443.464 73.9784 436.968 73.5873C431.312 73.2521 425.544 75.0401 420.112 76.2134C414.96 77.3309 409.248 78.1691 404.992 81.4657C403.928 82.3038 402.976 83.2537 402.528 84.4829C401.464 87.7237 403.872 91.2997 406.672 92.8083C413.504 96.4402 423.36 93.4788 430.192 91.1879C431.368 90.7968 432.544 90.4616 433.72 90.0146Z" fill="#ACADE3"/>
<path d="M586.208 71.3524C586.246 71.6877 586.32 72.0229 586.432 72.3582C586.88 73.6433 587.72 74.7608 588.616 75.7665C590.24 77.778 591.808 79.8454 593.04 82.1922C594.552 85.2094 595.392 89.7912 599.312 90.6293C600.264 90.8528 601.328 90.741 602.168 90.2382C603.008 89.6794 603.624 88.7854 603.904 87.7797C604.352 86.3269 604.184 84.8183 603.96 83.3097C603.456 79.6219 602.28 75.8224 600.152 72.6375C598.248 69.732 594.552 65.7649 590.744 65.709C587.72 65.6532 585.816 68.6145 586.208 71.3524Z" fill="#ACADE3"/>
</svg>
