<svg width="277" height="188" viewBox="0 0 277 188" fill="none" xmlns="http://www.w3.org/2000/svg">
<path d="M219.39 138.587H237.786V185.379H103.015V107.392V71.3987H141.807V121.39H149.805V49.0024L166.202 26.6063V11.4088L169.001 7.40952L171.801 11.4088V26.6063L187.798 49.0024V140.987H194.996V87.3955L219.39 105.793V138.587Z" fill="#F1F1F1"/>
<path d="M63.5815 155.935C63.5815 154.785 64.5137 153.852 65.6637 153.852H101.754C102.904 153.852 103.836 154.785 103.836 155.935V184.391C103.836 185.54 102.904 186.473 101.754 186.473H65.6637C64.5137 186.473 63.5815 185.54 63.5815 184.391V155.935ZM202.39 169.469C202.39 178.477 195.088 185.779 186.08 185.779C177.072 185.779 169.771 178.477 169.771 169.469C169.771 160.461 177.072 153.159 186.08 153.159C195.088 153.159 202.39 160.461 202.39 169.469Z" fill="#E5E5E5"/>
<path d="M76.0743 155.935C76.0743 154.785 77.0065 153.852 78.1565 153.852H114.247C115.396 153.852 116.329 154.785 116.329 155.935V184.391C116.329 185.54 115.396 186.473 114.247 186.473H78.1565C77.0065 186.473 76.0743 185.54 76.0743 184.391V155.935Z" fill="#F1F1F1"/>
<path d="M114.247 54.5276C113.691 60.6354 119.104 63.7812 121.881 64.591C127.549 68.409 140.412 76.1124 146.52 76.3903C152.627 76.6682 153.922 71.8789 153.807 69.4496C154.849 69.2187 157.277 67.8531 158.666 64.2448C160.053 60.6354 157.624 57.8821 156.236 56.9569C157.624 56.1471 160.123 53.487 159.013 49.3228C157.902 45.1585 153.46 45.0431 151.378 45.5057C151.957 44.0016 152.072 40.2307 147.908 37.1772C143.744 34.123 138.538 37.9861 136.456 40.3C135.762 37.8707 132.777 33.5676 126.392 35.7885C120.007 38.0092 120.031 44.117 120.84 46.8935C118.874 46.8935 114.802 48.4197 114.247 54.5276Z" fill="#3E3D3D"/>
<path d="M60.2849 100.017C63.061 100.85 66.9939 106.379 68.6133 109.04L64.102 115.634C63.408 115.749 61.6729 115.425 60.2849 113.204C58.5497 110.428 54.3854 105.57 47.098 105.57C39.8105 105.57 29.3998 102.794 28.0118 101.406C26.6236 100.017 28.0118 97.241 32.176 98.9769C35.5074 100.365 42.3554 100.249 45.3629 100.017C43.9748 98.6297 43.6277 96.8947 45.3629 96.5476C47.098 96.2004 56.8146 98.9769 60.2849 100.017ZM216.272 100.017C213.495 100.85 209.563 106.379 207.943 109.04L212.454 115.634C213.148 115.749 214.883 115.425 216.272 113.204C218.006 110.428 222.171 105.57 229.459 105.57C236.746 105.57 247.156 102.794 248.545 101.406C249.933 100.017 248.545 97.241 244.381 98.9769C241.049 100.365 234.201 100.249 231.193 100.017C232.581 98.6297 232.928 96.8947 231.193 96.5476C229.459 96.2004 219.741 98.9769 216.272 100.017ZM126.045 85.7603C125.212 86.5931 122.691 87.2635 121.534 87.4952C120.84 90.7343 119.591 97.3509 120.146 97.9058C120.84 98.6001 130.557 103.458 131.945 104.499C133.055 105.332 143.512 104.152 148.602 103.458L152.766 86.4537C151.378 86.8009 148.324 86.9394 147.214 84.7187C146.104 82.4981 146.751 75.4651 147.214 72.226C148.486 71.648 151.101 69.6583 151.378 66.3269C151.656 62.9955 148.718 62.6252 147.214 62.8561C145.826 62.0232 145.016 60.8903 144.784 60.4277C144.438 60.5431 143.327 60.5662 141.662 59.7333C139.996 58.9005 139.579 55.9163 139.579 54.5276C138.654 55.5691 136.179 57.582 133.68 57.3041C131.182 57.0261 129.169 54.8748 128.475 53.8342C127.896 54.5276 125.828 55.2219 125.352 59.039C124.657 64.5919 122.344 63.7822 121.534 64.5919C121.534 74.8631 125.005 79.7447 126.74 80.9017C126.855 82.174 126.878 84.9274 126.045 85.7603Z" fill="#EFCB96"/>
<path d="M103.042 128.643C104.339 138.88 102.502 171.641 101.422 186.743H172.089C169.756 173.74 171.117 147.433 172.089 135.906C176.303 142.361 186.417 154.511 193.16 151.467C199.903 148.424 213.691 125.761 219.741 114.809L209.044 104.434C203.857 111.466 193.16 125.253 191.863 124.147C190.243 122.764 180.517 98.5549 175.655 93.0214C171.765 88.5949 158.042 86.1047 151.667 85.4131C150.802 89.1018 146.74 96.4792 137.404 96.4792C128.068 96.4792 123.14 89.1018 121.844 85.4131C118.062 86.1047 109.007 88.4564 103.042 92.3298C95.5862 97.1717 83.5925 123.801 81.6475 122.071C80.0915 120.688 72.1387 110.198 68.3568 105.125L57.3352 115.501C62.3057 127.259 73.673 150.776 79.3784 150.776C85.0837 150.776 97.5317 136.02 103.042 128.643Z" fill="#53B3CC"/>
<path fill-rule="evenodd" clip-rule="evenodd" d="M103.141 119.028L103.834 129.439L102.449 129.531L101.756 119.12L103.141 119.028ZM173.586 123.985L172.544 137.52L171.16 137.413L172.202 123.879L173.586 123.985Z" fill="#46A4BC"/>
<path d="M119.028 119.151C119.028 118.384 119.649 117.762 120.416 117.762H183.766C184.534 117.762 185.155 118.384 185.155 119.151V184.391C185.155 185.157 184.534 185.778 183.766 185.778H120.416C119.649 185.778 119.028 185.157 119.028 184.391V119.151Z" fill="#F1F1F1"/>
<path d="M90.6877 119.151C90.6877 118.384 91.3091 117.762 92.0758 117.762H155.427C156.193 117.762 156.814 118.384 156.814 119.151V184.391C156.814 185.157 156.193 185.778 155.427 185.778H92.0758C91.3091 185.778 90.6877 185.157 90.6877 184.391V119.151Z" fill="#E5E5E5"/>
<path d="M114.305 117.762H130.364V185.778H114.305V117.762ZM168.15 117.762H175.708V185.778H168.15V117.762Z" fill="#FAC22F"/>
<path d="M171.268 133.822L156.815 117.762H184.872L199.325 133.822H171.268Z" fill="#E5E5E5"/>
<path d="M142.361 133.822L156.815 117.762H91.9159L77.4625 133.822H142.361ZM59.9833 47.9849C57.0131 51.6533 59.9833 53.3346 61.8397 53.7169C70.5027 53.9717 88.4969 54.1758 91.17 52.9524C94.5115 51.4243 94.1403 47.9848 90.0562 46.8381C85.9722 45.6913 85.9722 40.7238 80.0319 40.7238C74.0916 40.7238 72.2352 46.8381 69.6363 47.2203C67.0374 47.6026 63.696 43.3987 59.9833 47.9849Z" fill="#F1F1F1"/>
<path d="M123.85 19.096C122.75 19.3087 121.657 18.5892 121.596 17.4701C121.556 16.7539 121.59 16.121 121.699 15.5713C121.9 14.5534 122.456 13.3742 123.367 12.0332C124.287 10.6781 124.851 9.73244 125.062 9.19626C125.386 8.37763 125.466 7.54433 125.302 6.69624C125.085 5.57338 124.646 4.77211 123.987 4.29244C123.336 3.79855 122.488 3.65275 121.442 3.85506C120.442 4.0484 119.691 4.49723 119.188 5.20173C119.091 5.337 119.008 5.47809 118.937 5.62499C118.424 6.69375 117.791 7.90664 116.627 8.13165C115.455 8.35843 114.275 7.5735 114.375 6.38314C114.478 5.16794 114.892 4.0809 115.62 3.12193C116.766 1.6241 118.472 0.656074 120.739 0.217768C123.076 -0.234112 125.013 0.0234073 126.55 0.990045C128.1 1.95447 129.086 3.52967 129.509 5.71566C129.884 7.6627 129.372 9.75072 127.969 11.9797L126.244 14.5626C125.899 15.1683 125.706 15.8885 125.666 16.7232C125.612 17.8321 124.941 18.8852 123.85 19.096ZM122.639 25.111C122.502 24.4062 122.609 23.7972 122.955 23.284C123.3 22.7589 123.838 22.4255 124.571 22.2839C125.315 22.14 125.945 22.2535 126.463 22.6242C126.98 22.983 127.303 23.5029 127.435 24.1838C127.561 24.8408 127.459 25.4307 127.125 25.9536C126.792 26.4765 126.242 26.8121 125.475 26.9605C124.707 27.1088 124.072 27.0025 123.568 26.6414C123.076 26.2781 122.766 25.768 122.639 25.111ZM111.003 27.1796C110.284 27.664 109.288 27.4829 108.906 26.7052C108.662 26.2077 108.494 25.7469 108.405 25.3229C108.241 24.5378 108.279 23.5305 108.521 22.3008C108.766 21.0581 108.881 20.2143 108.868 19.7693C108.851 19.0887 108.656 18.4715 108.283 17.9177C107.788 17.1845 107.234 16.747 106.619 16.6053C106.007 16.4507 105.36 16.6037 104.676 17.0644C104.024 17.5045 103.625 18.0513 103.48 18.7047C103.452 18.8303 103.435 18.956 103.43 19.0818C103.388 19.9974 103.305 21.052 102.545 21.5643C101.779 22.0806 100.702 21.8791 100.413 21.0018C100.119 20.1062 100.085 19.2071 100.312 18.3048C100.674 16.8923 101.594 15.6871 103.075 14.6891C104.601 13.6604 106.058 13.2573 107.444 13.4797C108.838 13.697 110.016 14.5195 110.979 15.9469C111.836 17.2184 112.103 18.8593 111.78 20.8697L111.334 23.2297C111.272 23.765 111.353 24.3358 111.577 24.942C111.874 25.7473 111.715 26.6997 111.003 27.1796ZM111.962 31.8262C111.651 31.366 111.541 30.9008 111.633 30.4306C111.72 29.9526 112.002 29.5524 112.48 29.23C112.966 28.9024 113.449 28.7922 113.93 28.8993C114.406 28.9985 114.793 29.2704 115.093 29.715C115.382 30.1441 115.487 30.5951 115.408 31.0679C115.33 31.5407 115.04 31.9461 114.539 32.2838C114.038 32.6216 113.553 32.7383 113.085 32.634C112.625 32.5245 112.251 32.2552 111.962 31.8262ZM139.885 20.3912C139.082 20.0654 138.676 19.1384 139.108 18.3868C139.385 17.9059 139.674 17.5101 139.975 17.1996C140.535 16.6245 141.392 16.0942 142.548 15.6087C143.715 15.118 144.479 14.743 144.842 14.4838C145.397 14.0897 145.8 13.5832 146.051 12.9643C146.383 12.1449 146.437 11.4407 146.212 10.8518C145.998 10.2576 145.51 9.80557 144.746 9.49579C144.017 9.19977 143.34 9.1741 142.718 9.41878C142.598 9.46569 142.484 9.52192 142.376 9.58748C141.594 10.0643 140.673 10.5838 139.823 10.2393C138.967 9.89199 138.533 8.88612 139.1 8.15668C139.678 7.41211 140.406 6.88211 141.281 6.56688C142.655 6.07863 144.169 6.17012 145.823 6.84139C147.528 7.53333 148.676 8.5166 149.265 9.79135C149.863 11.0694 149.839 12.5061 149.191 14.1014C148.615 15.5223 147.403 16.6597 145.554 17.5138L143.347 18.4609C142.868 18.7083 142.44 19.094 142.061 19.618C141.559 20.3141 140.68 20.714 139.885 20.3912ZM136.565 23.78C136.773 23.2657 137.098 22.9153 137.54 22.7288C137.984 22.5337 138.474 22.5445 139.008 22.7614C139.552 22.9817 139.913 23.3211 140.092 23.7798C140.275 24.2297 140.265 24.7031 140.064 25.1999C139.869 25.6794 139.554 26.0185 139.118 26.2171C138.682 26.4157 138.183 26.4014 137.624 26.1741C137.063 25.947 136.697 25.6102 136.522 25.1637C136.356 24.7206 136.37 24.2594 136.565 23.78Z" fill="#F15846"/>
<path fill-rule="evenodd" clip-rule="evenodd" d="M-0.270508 186.473C-0.270508 186.09 0.0402264 185.779 0.423536 185.779H276.306C276.689 185.779 277 186.09 277 186.473C277 186.856 276.689 187.167 276.306 187.167H0.423536C0.0402264 187.167 -0.270508 186.856 -0.270508 186.473Z" fill="#3E3D3D"/>
</svg>
