<?xml version="1.0" encoding="UTF-8"?>
<svg version="1.1" xmlns="http://www.w3.org/2000/svg" width="64" height="64">
<path d="M0 0 C1.051875 0.01160156 1.051875 0.01160156 2.125 0.0234375 C2.82625 0.01570312 3.5275 0.00796875 4.25 0 C6.125 0.3984375 6.125 0.3984375 8.125 3.3984375 C8.25 6.5859375 8.25 6.5859375 8.125 9.3984375 C9.176875 9.429375 9.176875 9.429375 10.25 9.4609375 C15.06916921 11.03240572 17.52657602 15.01976588 20.27734375 19.11328125 C21.55233634 22.55047327 21.42403694 26.02648745 21.5 29.6484375 C21.77592209 36.7016027 22.22072747 42.77708326 27.7421875 47.8984375 C29.125 49.3984375 29.125 49.3984375 29.375 52.5234375 C29.125 55.3984375 29.125 55.3984375 28.125 56.3984375 C24.75783208 56.53402815 21.39728362 56.64642118 18.02734375 56.65234375 C15.59901226 56.68562332 15.59901226 56.68562332 12.125 57.3984375 C10.15805081 59.72090421 10.15805081 59.72090421 9.125 62.3984375 C6.63459058 64.88884692 5.69345643 64.72234764 2.25 64.7734375 C-1.26647559 64.70747187 -2.50816226 64.6579081 -5.4375 62.5859375 C-6.875 60.3984375 -6.875 60.3984375 -7.875 57.3984375 C-9.01839844 57.33785156 -10.16179688 57.27726562 -11.33984375 57.21484375 C-12.83074305 57.13045322 -14.32162775 57.04580448 -15.8125 56.9609375 C-16.94461914 56.90196289 -16.94461914 56.90196289 -18.09960938 56.84179688 C-23.76171875 56.51171875 -23.76171875 56.51171875 -24.875 55.3984375 C-25.25 52.7109375 -25.25 52.7109375 -24.875 49.3984375 C-23.2795651 47.34116618 -21.60973712 45.33969094 -19.875 43.3984375 C-17.58591631 39.07027243 -17.63985374 34.86671197 -17.5625 30.0859375 C-17.23975503 21.55404736 -15.49582553 16.84684277 -9.25 10.8984375 C-6.875 9.3984375 -6.875 9.3984375 -3.875 9.3984375 C-3.91625 8.4703125 -3.9575 7.5421875 -4 6.5859375 C-3.86970986 3.26353898 -3.65521302 0.77673277 0 0 Z M1.125 3.3984375 C0.795 5.0484375 0.465 6.6984375 0.125 8.3984375 C1.445 8.3984375 2.765 8.3984375 4.125 8.3984375 C3.795 6.7484375 3.465 5.0984375 3.125 3.3984375 C2.465 3.3984375 1.805 3.3984375 1.125 3.3984375 Z M-9.625 16.5859375 C-13.96835758 22.01513447 -13.92045101 27.69999616 -14.25 34.3984375 C-14.6091038 40.49667291 -15.70786372 44.21585086 -18.875 49.3984375 C-19.535 50.7184375 -20.195 52.0384375 -20.875 53.3984375 C-5.695 53.3984375 9.485 53.3984375 25.125 53.3984375 C23.30581852 49.47958044 23.30581852 49.47958044 21.0625 46.5859375 C18.24305708 41.78666518 18.63050888 36.48924595 18.37890625 31.06640625 C17.92863729 24.56175154 16.73363417 19.55536927 12 14.8984375 C4.44359294 9.16323637 -2.62764548 11.01986004 -9.625 16.5859375 Z M-3.875 56.3984375 C-2.35210379 60.6073378 -2.35210379 60.6073378 1 61.3984375 C4.22052849 61.7211689 4.22052849 61.7211689 6.5 59.5234375 C8.22624168 57.71189733 8.22624168 57.71189733 8.125 56.3984375 C4.165 56.3984375 0.205 56.3984375 -3.875 56.3984375 Z " fill="#000000" transform="translate(29.875,-0.3984375)"/>
</svg>
