<svg width="37" height="37" viewBox="0 0 37 37" fill="none" xmlns="http://www.w3.org/2000/svg">
<path d="M32.3749 21.583C31.4499 21.583 30.8333 22.1997 30.8333 23.1247V29.2913C30.8333 30.2163 30.2166 30.833 29.2916 30.833H7.70825C6.78325 30.833 6.16659 30.2163 6.16659 29.2913V23.1247C6.16659 22.1997 5.54992 21.583 4.62492 21.583C3.69992 21.583 3.08325 22.1997 3.08325 23.1247V29.2913C3.08325 31.9122 5.08742 33.9163 7.70825 33.9163H29.2916C31.9124 33.9163 33.9166 31.9122 33.9166 29.2913V23.1247C33.9166 22.1997 33.2999 21.583 32.3749 21.583ZM13.4124 11.8705L16.9583 8.32468V23.1247C16.9583 24.0497 17.5749 24.6663 18.4999 24.6663C19.4249 24.6663 20.0416 24.0497 20.0416 23.1247V8.32468L23.5874 11.8705C24.2041 12.4872 25.1291 12.4872 25.7458 11.8705C26.3624 11.2538 26.3624 10.3288 25.7458 9.71217L19.5791 3.54551C18.9624 2.92884 18.0374 2.92884 17.4208 3.54551L11.2541 9.71217C10.6374 10.3288 10.6374 11.2538 11.2541 11.8705C11.8708 12.4872 12.7958 12.4872 13.4124 11.8705Z" fill="white"/>
<path d="M32.3749 21.583C31.4499 21.583 30.8333 22.1997 30.8333 23.1247V29.2913C30.8333 30.2163 30.2166 30.833 29.2916 30.833H7.70825C6.78325 30.833 6.16659 30.2163 6.16659 29.2913V23.1247C6.16659 22.1997 5.54992 21.583 4.62492 21.583C3.69992 21.583 3.08325 22.1997 3.08325 23.1247V29.2913C3.08325 31.9122 5.08742 33.9163 7.70825 33.9163H29.2916C31.9124 33.9163 33.9166 31.9122 33.9166 29.2913V23.1247C33.9166 22.1997 33.2999 21.583 32.3749 21.583ZM13.4124 11.8705L16.9583 8.32468V23.1247C16.9583 24.0497 17.5749 24.6663 18.4999 24.6663C19.4249 24.6663 20.0416 24.0497 20.0416 23.1247V8.32468L23.5874 11.8705C24.2041 12.4872 25.1291 12.4872 25.7458 11.8705C26.3624 11.2538 26.3624 10.3288 25.7458 9.71217L19.5791 3.54551C18.9624 2.92884 18.0374 2.92884 17.4208 3.54551L11.2541 9.71217C10.6374 10.3288 10.6374 11.2538 11.2541 11.8705C11.8708 12.4872 12.7958 12.4872 13.4124 11.8705Z" fill="#9A28A3" fill-opacity="0.8"/>
</svg>
