<svg width="149" height="149" viewBox="0 0 149 149" fill="none" xmlns="http://www.w3.org/2000/svg">
<path d="M74.4995 131.362C105.904 131.362 131.362 105.904 131.362 74.4995C131.362 43.0952 105.904 17.6371 74.4995 17.6371C43.0952 17.6371 17.6371 43.0952 17.6371 74.4995C17.6371 105.904 43.0952 131.362 74.4995 131.362Z" fill="#F0F5FC"/>
<path d="M63.1574 121.404C69.2959 123.049 75.6055 119.407 77.2504 113.268C78.8953 107.13 75.2526 100.82 69.1142 99.1751C62.9757 97.5302 56.6661 101.173 55.0211 107.311C53.3762 113.45 57.019 119.76 63.1574 121.404Z" fill="white"/>
<path d="M63.1574 121.404C69.2959 123.049 75.6055 119.407 77.2504 113.268C78.8953 107.13 75.2526 100.82 69.1142 99.1751C62.9757 97.5302 56.6661 101.173 55.0211 107.311C53.3762 113.45 57.019 119.76 63.1574 121.404Z" fill="#FF6B6B"/>
<path fill-rule="evenodd" clip-rule="evenodd" d="M94.2813 34.746C94.8054 32.7901 94.5295 30.7137 93.5197 28.9569C92.5099 27.2001 90.8426 25.9241 88.8875 25.4002C86.9324 24.8763 84.8504 25.1476 83.0975 26.1641C81.3445 27.1806 80.0673 28.8408 79.5432 30.7967C78.9526 33.0008 78.3072 35.4092 77.7166 37.6132C77.1925 39.5691 77.4684 41.6455 78.4781 43.4024C79.4897 45.1597 81.1553 46.4351 83.1104 46.959C85.0655 47.4829 87.1475 47.2117 88.9004 46.1952C90.6533 45.1787 91.9305 43.5185 92.4547 41.5625C93.0453 39.3585 93.6906 36.9501 94.2813 34.746Z" fill="white"/>
<path fill-rule="evenodd" clip-rule="evenodd" d="M94.2813 34.746C94.8054 32.7901 94.5295 30.7137 93.5197 28.9569C92.5099 27.2001 90.8426 25.9241 88.8875 25.4002C86.9324 24.8763 84.8504 25.1476 83.0975 26.1641C81.3445 27.1806 80.0673 28.8408 79.5432 30.7967C78.9526 33.0008 78.3072 35.4092 77.7166 37.6132C77.1925 39.5691 77.4684 41.6455 78.4781 43.4024C79.4897 45.1597 81.1553 46.4351 83.1104 46.959C85.0655 47.4829 87.1475 47.2117 88.9004 46.1952C90.6533 45.1787 91.9305 43.5185 92.4547 41.5625C93.0453 39.3585 93.6906 36.9501 94.2813 34.746Z" fill="#102D5C"/>
<path fill-rule="evenodd" clip-rule="evenodd" d="M108.448 70.0473C110.538 62.2476 109.44 53.9341 105.404 46.939C101.368 39.9438 94.7132 34.8436 86.9142 32.7538C79.1152 30.6639 70.8003 31.7606 63.8091 35.7929C56.8159 39.8325 51.7084 46.4833 49.6183 54.283L38.4099 96.1104L97.2391 111.875L108.448 70.0473Z" fill="white"/>
<path fill-rule="evenodd" clip-rule="evenodd" d="M108.448 70.0473C110.538 62.2476 109.44 53.9341 105.404 46.939C101.368 39.9438 94.7132 34.8436 86.9142 32.7538C79.1152 30.6639 70.8003 31.7606 63.8091 35.7929C56.8159 39.8325 51.7084 46.4833 49.6183 54.283L38.4099 96.1104L97.2391 111.875L108.448 70.0473Z" fill="#C4DCFF"/>
<path fill-rule="evenodd" clip-rule="evenodd" d="M100.235 100.69L40.6679 87.679L38.409 96.1087L97.2382 111.873L100.235 100.69Z" fill="white"/>
<path fill-rule="evenodd" clip-rule="evenodd" d="M100.235 100.69L40.6679 87.679L38.409 96.1087L97.2382 111.873L100.235 100.69Z" fill="#102D5C"/>
<path fill-rule="evenodd" clip-rule="evenodd" d="M102.203 113.208C102.65 111.537 102.415 109.757 101.554 108.265C100.684 106.772 99.2687 105.68 97.598 105.232C84.5145 101.726 54.5117 93.6862 41.4282 90.1802C39.7576 89.7326 37.977 89.968 36.4855 90.8291C34.9918 91.6986 33.8999 93.1144 33.4522 94.785C33.0045 96.4556 33.24 98.2362 34.101 99.7276C34.9598 101.228 36.3863 102.313 38.0569 102.761C51.1405 106.267 81.1432 114.307 94.2268 117.813C95.8974 118.26 97.678 118.025 99.1695 117.164C100.663 116.294 101.757 114.87 102.203 113.208Z" fill="white"/>
<path fill-rule="evenodd" clip-rule="evenodd" d="M102.203 113.208C102.65 111.537 102.415 109.757 101.554 108.265C100.684 106.772 99.2687 105.68 97.598 105.232C84.5145 101.726 54.5117 93.6862 41.4282 90.1802C39.7576 89.7326 37.977 89.968 36.4855 90.8291C34.9918 91.6986 33.8999 93.1144 33.4522 94.785C33.0045 96.4556 33.24 98.2362 34.101 99.7276C34.9598 101.228 36.3863 102.313 38.0569 102.761C51.1405 106.267 81.1432 114.307 94.2268 117.813C95.8974 118.26 97.678 118.025 99.1695 117.164C100.663 116.294 101.757 114.87 102.203 113.208Z" fill="#C4DCFF"/>
<path fill-rule="evenodd" clip-rule="evenodd" d="M104.744 41.6066C109.747 48.7278 111.671 57.9316 109.244 66.9942L106.897 75.7479C97.9666 75.0949 90.9071 67.6295 90.9071 58.5317C90.9071 50.175 96.8547 43.2038 104.744 41.6066Z" fill="white"/>
<path fill-rule="evenodd" clip-rule="evenodd" d="M104.744 41.6066C109.747 48.7278 111.671 57.9316 109.244 66.9942L106.897 75.7479C97.9666 75.0949 90.9071 67.6295 90.9071 58.5317C90.9071 50.175 96.8547 43.2038 104.744 41.6066Z" fill="#F4F8FF"/>
<path d="M111.928 75.1705C123.032 75.1705 132.033 66.1692 132.033 55.0655C132.033 43.9619 123.032 34.9606 111.928 34.9606C100.825 34.9606 91.8235 43.9619 91.8235 55.0655C91.8235 66.1692 100.825 75.1705 111.928 75.1705Z" fill="#FF6B6B"/>
<path d="M115.891 56.4461C115.891 54.6554 115.619 53.2929 115.113 52.3197C114.607 51.3465 113.867 50.8404 112.894 50.8404C111.96 50.8404 111.22 51.3075 110.714 52.3197C110.208 53.2929 109.974 54.6554 109.974 56.4461C109.974 58.2368 110.208 59.5992 110.714 60.6114C111.22 61.5846 111.921 62.0907 112.894 62.0907C113.828 62.0907 114.568 61.5846 115.113 60.6114C115.619 59.5992 115.891 58.2368 115.891 56.4461ZM121.069 56.4461C121.069 58.0032 120.874 59.4046 120.446 60.6114C120.057 61.8181 119.473 62.8302 118.772 63.6867C118.032 64.5042 117.176 65.127 116.203 65.5552C115.191 65.9834 114.101 66.1781 112.933 66.1781C111.726 66.1781 110.636 65.9834 109.624 65.5552C108.612 65.127 107.755 64.5042 107.055 63.6867C106.354 62.8692 105.77 61.8571 105.381 60.6114C104.991 59.4046 104.797 58.0032 104.797 56.4461C104.797 54.889 104.991 53.4876 105.381 52.2808C105.77 51.074 106.354 50.0619 107.055 49.2444C107.794 48.4269 108.651 47.804 109.624 47.3758C110.636 46.9476 111.726 46.7529 112.933 46.7529C114.101 46.7529 115.191 46.9865 116.203 47.3758C117.215 47.804 118.071 48.4269 118.772 49.2444C119.473 50.0619 120.057 51.074 120.446 52.2808C120.874 53.4876 121.069 54.889 121.069 56.4461Z" fill="#FF6633"/>
<path d="M114.872 54.6712C114.872 52.8805 114.6 51.518 114.094 50.5448C113.588 49.5716 112.848 49.0655 111.875 49.0655C110.941 49.0655 110.201 49.5326 109.695 50.5448C109.189 51.518 108.955 52.8805 108.955 54.6712C108.955 56.4619 109.189 57.8243 109.695 58.8365C110.201 59.8097 110.902 60.3158 111.875 60.3158C112.809 60.3158 113.549 59.8097 114.094 58.8365C114.6 57.8243 114.872 56.4619 114.872 54.6712ZM120.05 54.6712C120.05 56.2283 119.855 57.6297 119.427 58.8365C119.038 60.0432 118.454 61.0553 117.753 61.9118C117.052 62.7292 116.157 63.3521 115.184 63.7803C114.172 64.2085 113.082 64.4032 111.914 64.4032C110.707 64.4032 109.617 64.2085 108.605 63.7803C107.593 63.3521 106.737 62.7292 106.036 61.9118C105.335 61.0943 104.751 60.0822 104.362 58.8365C103.973 57.6297 103.778 56.2283 103.778 54.6712C103.778 53.1141 103.973 51.7127 104.362 50.5059C104.751 49.2991 105.335 48.287 106.036 47.4695C106.775 46.652 107.632 46.0291 108.605 45.6009C109.617 45.1727 110.707 44.978 111.914 44.978C113.082 44.978 114.172 45.2116 115.184 45.6009C116.196 46.0291 117.052 46.652 117.753 47.4695C118.454 48.287 119.038 49.2991 119.427 50.5059C119.855 51.7127 120.05 53.1141 120.05 54.6712Z" fill="white"/>
<path d="M47.634 37.7127C47.5836 37.7127 47.523 37.7026 47.4725 37.6925L37.6108 35.3003C37.2373 35.2094 37.0051 34.8359 37.096 34.4625C37.1868 34.089 37.5603 33.8568 37.9338 33.9477L47.7955 36.3399C48.169 36.4308 48.4012 36.8042 48.3103 37.1777C48.2296 37.5007 47.9469 37.7127 47.634 37.7127Z" fill="#FF6B6B"/>
<path d="M60.0372 26.1549C59.7546 26.1549 59.4921 25.9833 59.3912 25.7107L56.3933 17.888C56.252 17.5246 56.4337 17.1309 56.7971 16.9896C57.1604 16.8483 57.5541 17.03 57.6954 17.3934L60.6933 25.2161C60.8346 25.5795 60.6529 25.9732 60.2895 26.1145C60.2088 26.1347 60.1179 26.1549 60.0372 26.1549Z" fill="#FF6B6B"/>
<path d="M52.3113 31.6004C52.1296 31.6004 51.958 31.5298 51.8167 31.3986L42.4597 22.0415C42.1871 21.769 42.1871 21.3249 42.4597 21.0624C42.7322 20.7899 43.1763 20.7899 43.4388 21.0624L52.7958 30.4195C53.0683 30.692 53.0683 31.1361 52.7958 31.3986C52.6646 31.5298 52.493 31.6004 52.3113 31.6004Z" fill="#FF6B6B"/>
</svg>
