<svg width="19" height="20" viewBox="0 0 19 20" fill="none" xmlns="http://www.w3.org/2000/svg">
<g id="pdf 1" clip-path="url(#clip0_4894_177441)">
<path id="Vector" d="M10.4644 10.4651C10.5342 10.5349 10.5807 10.6279 10.5807 10.7442C10.5807 10.8837 10.5342 10.9767 10.4644 11.0465C10.3714 11.1163 10.2551 11.1395 10.0923 11.1395H9.90625V10.3721H10.1621C10.3016 10.3721 10.3946 10.4186 10.4644 10.4651Z" fill="#9A28A3"/>
<path id="Vector_2" d="M15.2564 15.4884H14.4191C14.2796 15.4884 14.1866 15.6047 14.1866 15.7209V17.4186C14.1866 18.0465 13.675 18.5814 13.0471 18.5814L2.6052 18.6512C2.04706 18.6512 1.58194 18.2791 1.46566 17.7442C1.44241 17.6744 1.44241 17.5814 1.44241 17.4884L1.39589 6.72093C1.39589 6.65116 1.46566 6.5814 1.53543 6.5814L5.90752 6.55814C6.67496 6.55814 7.27961 5.93023 7.27961 5.18605L7.25636 1.53488C7.25636 1.46512 7.32613 1.39535 7.39589 1.39535L12.9308 1.34884C13.5587 1.34884 14.0936 1.86047 14.0936 2.48837L14.1168 6.7907C14.1168 6.93023 14.2331 7.02326 14.3494 7.02326H15.1866C15.3261 7.02326 15.4191 6.90698 15.4191 6.7907L15.3959 1.81395C15.3959 0.813954 14.5819 0 13.5587 0L6.76799 0.0697675C6.58194 0.0697675 6.37264 0.139535 6.2331 0.27907L0.326126 5.69767C0.163336 5.86047 0.0703125 6.06977 0.0703125 6.27907L0.116824 18.1395C0.116824 19.1395 0.930777 19.9535 1.95403 19.9535L13.7215 19.9302C14.7215 19.8837 15.5354 19.0698 15.5354 18.0698V15.7209C15.4889 15.6047 15.3959 15.4884 15.2564 15.4884Z" fill="#9A28A3"/>
<path id="Vector_3" d="M12.4651 10.372H12.1627V12.0697H12.3953C12.9302 12.0697 13.186 11.7906 13.186 11.2092C13.2093 10.6511 12.9534 10.372 12.4651 10.372ZM12.4651 10.372H12.1627V12.0697H12.3953C12.9302 12.0697 13.186 11.7906 13.186 11.2092C13.2093 10.6511 12.9534 10.372 12.4651 10.372ZM17.8372 8.11621H7.44181C7.04647 8.11621 6.74414 8.44179 6.74414 8.81389V13.6511C6.74414 14.0464 7.06972 14.3488 7.44181 14.3488H17.8372C18.2325 14.3488 18.5348 14.0232 18.5348 13.6511V8.81389C18.5348 8.41854 18.2325 8.11621 17.8372 8.11621ZM10.8837 11.372C10.6976 11.5116 10.4651 11.6046 10.1395 11.6046H9.90693V12.5348H9.34879V9.93016H10.186C10.5116 9.93016 10.7441 9.99993 10.9069 10.1395C11.0697 10.279 11.1627 10.4883 11.1627 10.7441C11.1395 11.0232 11.0465 11.2325 10.8837 11.372ZM13.4186 12.186C13.186 12.4185 12.8139 12.5348 12.372 12.5348H11.6279V9.93016H12.4418C12.8604 9.93016 13.186 10.0464 13.4186 10.2557C13.6511 10.4883 13.7674 10.7906 13.7674 11.186C13.7674 11.6278 13.6511 11.9534 13.4186 12.186ZM15.8139 10.372H14.8604V11.0464H15.7441V11.4883H14.8604V12.5116H14.3255V9.93016H15.8139V10.372ZM12.4651 10.372H12.1627V12.0697H12.3953C12.9302 12.0697 13.186 11.7906 13.186 11.2092C13.2093 10.6511 12.9534 10.372 12.4651 10.372Z" fill="#9A28A3"/>
</g>
<defs>
<clipPath id="clip0_4894_177441">
<rect width="18.6047" height="20" fill="white"/>
</clipPath>
</defs>
</svg>
