<svg width="232" height="214" viewBox="0 0 232 214" fill="none" xmlns="http://www.w3.org/2000/svg">
<g id="Group 1000005947">
<path id="Vector" d="M73.4291 120.521C88.6537 103.64 82.039 83.4198 59.8516 68.4309C49.165 86.3974 49.6664 113.237 73.4291 120.521Z" fill="#FCBA06"/>
<path id="Vector_2" d="M74.5675 124.878C74.3682 92.7507 48.196 77.9594 10.7518 83.4293C16.7264 112.393 42.8323 139.912 74.5675 124.878Z" fill="#807DFB"/>
<path id="Vector_3" d="M71.5126 34.0133L65.2452 35.3085C65.0047 35.3577 64.7814 35.4692 64.5975 35.6318C64.4136 35.7944 64.2756 36.0024 64.1974 36.2351L62.1648 42.2987C62.0865 42.5317 62.0709 42.7812 62.1194 43.0221C62.1679 43.2631 62.2789 43.4871 62.4413 43.6716L66.6811 48.4643C66.8431 48.6484 67.051 48.7862 67.2837 48.8637C67.5163 48.9413 67.7653 48.9558 68.0054 48.9057L74.2534 47.6105C74.4943 47.5623 74.7181 47.4511 74.9021 47.2884C75.0861 47.1257 75.2238 46.9171 75.3012 46.684L77.3532 40.6446C77.4315 40.4116 77.4471 40.1621 77.3986 39.9212C77.3501 39.6802 77.239 39.4563 77.0767 39.2717L72.8418 34.479C72.681 34.291 72.4734 34.1489 72.2399 34.0671C72.0065 33.9853 71.7556 33.9668 71.5126 34.0133Z" fill="#DDE2F8"/>
<path id="Vector_4" d="M183.839 70.9578C188.079 60.0141 209.171 23.9958 224.005 5.95509M204.475 17.219C204.969 17.0598 205.406 16.7575 205.728 16.3502C206.051 15.9429 206.245 15.449 206.287 14.9312C206.328 14.4133 206.215 13.8947 205.962 13.4412C205.709 12.9876 205.326 12.6194 204.864 12.3832C204.401 12.1471 203.878 12.0536 203.362 12.1146C202.847 12.1757 202.36 12.3885 201.965 12.7261C201.571 13.0637 201.285 13.5109 201.144 14.0111C201.004 14.5112 201.015 15.0419 201.176 15.5357C201.392 16.1955 201.86 16.743 202.478 17.0584C203.096 17.3739 203.814 17.4316 204.475 17.219ZM204.475 17.219C205.038 18.9459 206.828 25.7227 206.459 30.6464M208.918 41.4544C208.735 40.8933 208.723 40.2906 208.882 39.7224C209.042 39.1542 209.366 38.6461 209.814 38.2624C210.263 37.8786 210.815 37.6364 211.401 37.5665C211.987 37.4965 212.58 37.6019 213.106 37.8694C213.632 38.1368 214.067 38.5543 214.356 39.069C214.645 39.5836 214.775 40.1724 214.729 40.7607C214.683 41.3491 214.463 41.9106 214.098 42.3743C213.733 42.838 213.239 43.183 212.678 43.3656C211.926 43.6104 211.107 43.5466 210.402 43.1882C209.697 42.8298 209.164 42.2062 208.918 41.4544ZM208.918 41.4544C207.254 41.3185 199.929 42.963 197.868 44.5638M226.532 12.7901C224.548 13.3043 218.106 14.6868 216.248 16.1421M189.374 44.2776C189.636 46.218 190.698 55.5852 190.519 57.4334M222.986 4.54832C222.821 4.03833 222.81 3.49075 222.956 2.97478C223.101 2.45881 223.397 1.99761 223.805 1.64947C224.212 1.30132 224.714 1.08186 225.247 1.01882C225.779 0.95577 226.318 1.05197 226.796 1.29526C227.274 1.53855 227.669 1.91801 227.931 2.38568C228.193 2.85335 228.311 3.38824 228.269 3.92276C228.227 4.45728 228.028 4.96743 227.696 5.38875C227.365 5.81006 226.916 6.12362 226.406 6.28981C225.722 6.51161 224.977 6.45281 224.336 6.12632C223.695 5.79983 223.209 5.23232 222.986 4.54832ZM186.177 41.8812C185.966 41.2322 185.952 40.5351 186.137 39.8781C186.321 39.221 186.697 38.6335 187.215 38.1895C187.734 37.7456 188.372 37.4652 189.05 37.3838C189.727 37.3024 190.414 37.4236 191.023 37.732C191.631 38.0405 192.135 38.5225 192.47 39.117C192.806 39.7116 192.957 40.3922 192.906 41.0728C192.854 41.7533 192.602 42.4035 192.182 42.9411C191.761 43.4787 191.191 43.8796 190.543 44.0933C190.111 44.2356 189.655 44.2913 189.202 44.2571C188.748 44.2229 188.306 44.0995 187.901 43.894C187.495 43.6885 187.134 43.4049 186.838 43.0595C186.542 42.7141 186.318 42.3137 186.177 41.8812ZM226.605 13.1005C226.47 12.6771 226.463 12.223 226.585 11.7957C226.708 11.3683 226.954 10.9869 227.293 10.6994C227.632 10.4118 228.049 10.2312 228.491 10.1801C228.932 10.1291 229.379 10.21 229.775 10.4125C230.171 10.6151 230.497 10.9303 230.714 11.3184C230.931 11.7066 231.028 12.1502 230.993 12.5933C230.958 13.0365 230.792 13.4594 230.517 13.8086C230.242 14.1579 229.87 14.4179 229.447 14.5558C229.165 14.6479 228.868 14.6833 228.572 14.6599C228.276 14.6366 227.988 14.5549 227.723 14.4196C227.459 14.2844 227.224 14.0982 227.032 13.8718C226.84 13.6454 226.695 13.3833 226.605 13.1005Z" stroke="#E9EDF7" stroke-width="2" stroke-linecap="round" stroke-linejoin="round"/>
<path id="Vector_5" d="M143.668 65.7872C152.594 47.7368 142.091 32.0828 119.578 24.6172C114.776 42.522 121.654 65.2876 143.668 65.7872Z" fill="#5652CC"/>
<path id="Vector_6" d="M143.799 70.6454C171.512 67.9968 182.238 44.2514 174.593 12.3516C150.061 19.7444 128.344 44.4018 143.799 70.6454Z" fill="#807DFB"/>
<path id="Vector_7" d="M143.799 70.6427C148.65 59.9949 163.688 35.8371 171.158 19.6641" stroke="#6B67E9" stroke-width="2" stroke-linecap="round" stroke-linejoin="round"/>
<path id="Vector_8" d="M76.0002 128C66.0685 111.9 42.274 97.646 24.9999 91.9996" stroke="#6B67E9" stroke-width="2" stroke-linecap="round" stroke-linejoin="round"/>
<path id="Vector_9" d="M152.374 88.9866C146.566 78.8288 135.746 52.5104 126.984 36.9987" stroke="#726EDE" stroke-width="2" stroke-linecap="round" stroke-linejoin="round"/>
<path id="Vector_10" d="M203.555 124.015L138.605 149.027C137.533 149.445 136.67 150.27 136.203 151.322C135.736 152.374 135.703 153.568 136.112 154.644L137.955 159.432L157.466 210.095C157.884 211.167 158.709 212.031 159.761 212.498C160.813 212.965 162.007 212.997 163.083 212.589L228.032 187.572C229.103 187.154 229.966 186.329 230.433 185.279C230.9 184.228 230.933 183.035 230.526 181.96L211.015 131.296L209.172 126.508C208.753 125.436 207.928 124.573 206.876 124.106C205.824 123.639 204.63 123.606 203.555 124.015Z" fill="white" stroke="#E9EDF7" stroke-width="2" stroke-miterlimit="10"/>
<path id="Vector_11" d="M209.172 126.508C208.753 125.436 207.928 124.573 206.876 124.106C205.824 123.639 204.63 123.606 203.555 124.015L138.605 149.027C137.533 149.445 136.67 150.27 136.203 151.322C135.736 152.374 135.703 153.568 136.112 154.644L137.955 159.432L211.015 131.296L209.172 126.508Z" fill="#E9EDF7"/>
<path id="Vector_12" d="M143.579 154.739C144.719 154.036 145.072 152.541 144.369 151.401C143.665 150.262 142.17 149.908 141.03 150.612C139.891 151.316 139.537 152.811 140.241 153.95C140.945 155.09 142.44 155.443 143.579 154.739Z" fill="white"/>
<path id="Vector_13" d="M146.652 151.004C146.48 150.556 146.444 150.068 146.549 149.6C146.655 149.131 146.897 148.705 147.244 148.375C147.592 148.044 148.03 147.824 148.503 147.742C148.976 147.661 149.462 147.721 149.9 147.916C150.339 148.111 150.71 148.431 150.966 148.837C151.222 149.242 151.353 149.715 151.34 150.194C151.328 150.674 151.174 151.139 150.897 151.531C150.621 151.923 150.234 152.224 149.786 152.396C149.186 152.627 148.519 152.61 147.931 152.349C147.343 152.088 146.883 151.604 146.652 151.004ZM153.264 148.457C153.092 148.01 153.056 147.521 153.161 147.053C153.267 146.585 153.509 146.158 153.856 145.828C154.204 145.497 154.642 145.277 155.115 145.196C155.587 145.114 156.074 145.174 156.512 145.369C156.951 145.564 157.322 145.884 157.578 146.29C157.834 146.695 157.964 147.168 157.952 147.648C157.94 148.127 157.786 148.592 157.509 148.984C157.232 149.376 156.846 149.677 156.398 149.85C155.798 150.08 155.13 150.063 154.543 149.802C153.955 149.541 153.495 149.057 153.264 148.457Z" fill="white"/>
<path id="Vector_14" d="M210.665 70.3463C210.665 69.3428 210.467 68.3492 210.083 67.4222C209.698 66.4952 209.135 65.653 208.425 64.9439C207.715 64.2347 206.872 63.6725 205.945 63.2894C205.017 62.9062 204.023 62.7097 203.02 62.7109H80.7174C79.7147 62.7109 78.7219 62.9084 77.7955 63.2922C76.8691 63.6759 76.0274 64.2383 75.3184 64.9473C74.6094 65.6563 74.0469 66.498 73.6632 67.4244C73.2795 68.3508 73.082 69.3436 73.082 70.3463V72.8979H210.665V70.3463Z" fill="#BBC0E6"/>
<path id="Vector_15" d="M73.082 72.8984V174.768C73.082 175.771 73.2795 176.764 73.6633 177.69C74.0471 178.616 74.6096 179.457 75.3187 180.166C76.0277 180.874 76.8695 181.436 77.7959 181.82C78.7222 182.203 79.715 182.4 80.7174 182.399H203.02C204.023 182.4 205.016 182.204 205.943 181.821C206.871 181.438 207.713 180.876 208.423 180.168C209.133 179.459 209.697 178.618 210.081 177.691C210.466 176.765 210.664 175.772 210.665 174.768V72.8984H73.082Z" fill="#DDE2F8"/>
<path id="Vector_16" d="M97.7542 68.2642C97.7542 67.7938 97.8937 67.3341 98.1551 66.9431C98.4165 66.5521 98.788 66.2474 99.2227 66.0677C99.6573 65.8879 100.135 65.8411 100.597 65.9332C101.058 66.0253 101.481 66.2522 101.814 66.5851C102.146 66.918 102.372 67.342 102.463 67.8034C102.554 68.2648 102.506 68.7429 102.326 69.1772C102.145 69.6114 101.84 69.9823 101.448 70.2429C101.057 70.5035 100.597 70.6421 100.126 70.6411C99.8144 70.6411 99.5055 70.5796 99.2174 70.4601C98.9293 70.3406 98.6676 70.1654 98.4473 69.9446C98.2269 69.7239 98.0523 69.4618 97.9334 69.1734C97.8145 68.8851 97.7536 68.5761 97.7542 68.2642ZM89.0467 70.9564C88.5616 70.9564 88.3773 70.6169 88.615 70.2094L91.0405 66.0085C91.0711 65.9183 91.1293 65.84 91.2067 65.7845C91.2841 65.729 91.377 65.6992 91.4722 65.6992C91.5675 65.6992 91.6603 65.729 91.7378 65.7845C91.8152 65.84 91.8733 65.9183 91.904 66.0085L94.3294 70.2094C94.5671 70.6169 94.3731 70.9564 93.8977 70.9564H89.0467Z" fill="white"/>
<path id="Vector_17" d="M83.9042 65.8906H80.591C80.1945 65.8906 79.873 66.2121 79.873 66.6086V69.9218C79.873 70.3183 80.1945 70.6397 80.591 70.6397H83.9042C84.3007 70.6397 84.6221 70.3183 84.6221 69.9218V66.6086C84.6221 66.2121 84.3007 65.8906 83.9042 65.8906Z" fill="white"/>
<path id="Vector_18" d="M205.101 78.6953H203.029V176.612H205.101V78.6953Z" fill="#CED3F8"/>
<path id="Vector_19" d="M205.101 101.645H203.029V122.179H205.101V101.645Z" fill="#A3A9D0"/>
<path id="Vector_20" d="M113.951 81.7733C114.878 82.6987 116.134 83.2185 117.444 83.2185C118.754 83.2185 120.01 82.6987 120.937 81.7733C121.863 80.8482 123.118 80.3285 124.427 80.3285C125.736 80.3285 126.991 80.8482 127.917 81.7733C128.842 82.6981 130.097 83.2177 131.405 83.2177C132.713 83.2177 133.968 82.6981 134.893 81.7733C135.819 80.8482 137.074 80.3285 138.383 80.3285C139.692 80.3285 140.947 80.8482 141.873 81.7733C142.799 82.6984 144.055 83.2181 145.364 83.2181C146.672 83.2181 147.928 82.6984 148.854 81.7733C149.781 80.8479 151.037 80.3281 152.346 80.3281C153.656 80.3281 154.912 80.8479 155.839 81.7733C156.764 82.6981 158.019 83.2177 159.327 83.2177C160.635 83.2177 161.89 82.6981 162.815 81.7733C163.74 80.8485 164.995 80.329 166.303 80.329C167.611 80.329 168.865 80.8485 169.79 81.7733" stroke="#BBC0E6" stroke-width="3" stroke-linecap="round"/>
<path id="Vector_21" d="M188.287 90.0938H147.844C146.92 90.0938 146.171 90.843 146.171 91.7673V132.21C146.171 133.134 146.92 133.883 147.844 133.883H188.287C189.211 133.883 189.96 133.134 189.96 132.21V91.7673C189.96 90.843 189.211 90.0938 188.287 90.0938Z" fill="white"/>
<path id="Vector_22" d="M137.609 90.0938H90.1863C89.262 90.0938 88.5127 90.843 88.5127 91.7673V99.9703C88.5127 100.895 89.262 101.644 90.1863 101.644H137.609C138.533 101.644 139.283 100.895 139.283 99.9703V91.7673C139.283 90.843 138.533 90.0938 137.609 90.0938Z" fill="white"/>
<path id="Vector_23" d="M137.609 107.305H101.809C100.885 107.305 100.136 108.054 100.136 108.978V117.181C100.136 118.106 100.885 118.855 101.809 118.855H137.609C138.534 118.855 139.283 118.106 139.283 117.181V108.978C139.283 108.054 138.534 107.305 137.609 107.305Z" fill="white"/>
<path id="Vector_24" d="M189.961 139.832H100.136V142.209H189.961V139.832Z" fill="#BBC0E6"/>
<path id="Vector_25" d="M189.961 144.871H88.5127V147.248H189.961V144.871Z" fill="#BBC0E6"/>
<path id="Vector_26" d="M189.961 149.906H88.5127V152.283H189.961V149.906Z" fill="#BBC0E6"/>
<path id="Vector_27" d="M189.961 154.941H88.5127V157.318H189.961V154.941Z" fill="#BBC0E6"/>
<path id="Vector_28" d="M189.961 159.98H88.5127V162.357H189.961V159.98Z" fill="#BBC0E6"/>
<path id="Vector_29" d="M189.961 165.016H88.5127V167.393H189.961V165.016Z" fill="#BBC0E6"/>
<path id="Vector_30" d="M189.961 170.059H88.5127V172.436H189.961V170.059Z" fill="#BBC0E6"/>
<path id="Vector_31" d="M139.283 123.715H88.5127V133.887H139.283V123.715Z" fill="#BBC0E6"/>
<path id="Vector_32" d="M112.753 128.803C112.753 128.577 112.82 128.355 112.946 128.167C113.072 127.979 113.25 127.832 113.46 127.745C113.669 127.659 113.899 127.636 114.121 127.68C114.343 127.724 114.547 127.833 114.707 127.993C114.867 128.154 114.976 128.358 115.02 128.58C115.065 128.802 115.042 129.032 114.955 129.241C114.869 129.45 114.722 129.629 114.534 129.755C114.345 129.881 114.124 129.948 113.898 129.948C113.747 129.948 113.598 129.918 113.46 129.861C113.321 129.803 113.194 129.719 113.088 129.612C112.982 129.506 112.898 129.38 112.84 129.241C112.782 129.102 112.753 128.953 112.753 128.803ZM107.984 128.803C107.983 128.575 108.05 128.352 108.176 128.162C108.302 127.973 108.482 127.825 108.692 127.737C108.902 127.649 109.134 127.626 109.357 127.67C109.581 127.715 109.786 127.824 109.947 127.985C110.108 128.146 110.218 128.352 110.262 128.575C110.306 128.798 110.283 129.03 110.195 129.24C110.108 129.451 109.96 129.63 109.77 129.756C109.58 129.882 109.357 129.949 109.129 129.948C108.826 129.948 108.534 129.827 108.32 129.612C108.105 129.398 107.984 129.107 107.984 128.803ZM103.221 128.803C103.221 128.577 103.288 128.355 103.414 128.167C103.539 127.979 103.718 127.832 103.927 127.745C104.137 127.659 104.367 127.636 104.589 127.68C104.811 127.724 105.015 127.833 105.175 127.993C105.335 128.154 105.444 128.358 105.488 128.58C105.533 128.802 105.51 129.032 105.423 129.241C105.337 129.45 105.19 129.629 105.002 129.755C104.813 129.881 104.592 129.948 104.366 129.948C104.215 129.948 104.066 129.919 103.927 129.862C103.787 129.805 103.661 129.72 103.555 129.614C103.448 129.507 103.364 129.381 103.307 129.242C103.249 129.103 103.22 128.953 103.221 128.803ZM119.811 128.803C119.811 128.577 119.744 128.355 119.618 128.167C119.492 127.979 119.313 127.832 119.104 127.745C118.895 127.659 118.665 127.636 118.443 127.68C118.221 127.724 118.017 127.833 117.857 127.993C117.697 128.154 117.587 128.358 117.543 128.58C117.499 128.802 117.522 129.032 117.608 129.241C117.695 129.45 117.842 129.629 118.03 129.755C118.218 129.881 118.44 129.948 118.666 129.948C118.97 129.948 119.261 129.827 119.476 129.612C119.69 129.398 119.811 129.107 119.811 128.803ZM124.579 128.803C124.58 128.575 124.514 128.353 124.388 128.163C124.262 127.973 124.083 127.825 123.873 127.737C123.663 127.65 123.432 127.626 123.208 127.67C122.985 127.714 122.78 127.823 122.619 127.983C122.457 128.144 122.347 128.349 122.303 128.572C122.258 128.795 122.28 129.027 122.367 129.237C122.454 129.447 122.601 129.627 122.791 129.754C122.98 129.88 123.202 129.948 123.43 129.948C123.581 129.948 123.73 129.919 123.869 129.862C124.009 129.805 124.136 129.721 124.242 129.614C124.349 129.508 124.434 129.381 124.492 129.242C124.55 129.103 124.579 128.954 124.579 128.803Z" fill="white"/>
<path id="Vector_33" d="M172.158 114.657C172.995 114.033 173.689 113.236 174.191 112.321C174.693 111.405 174.992 110.392 175.068 109.35V109.282C175.068 109.122 175.068 107.303 175.068 107.148C175.103 106.212 174.949 105.278 174.615 104.403C174.281 103.528 173.774 102.729 173.124 102.055C172.474 101.38 171.695 100.844 170.833 100.477C169.971 100.111 169.044 99.9219 168.107 99.9219C167.171 99.9219 166.243 100.111 165.381 100.477C164.519 100.844 163.74 101.38 163.09 102.055C162.441 102.729 161.933 103.528 161.599 104.403C161.265 105.278 161.111 106.212 161.146 107.148V109.374H161.175C161.248 110.417 161.546 111.431 162.049 112.347C162.551 113.263 163.246 114.059 164.086 114.681C161.461 114.866 152.283 118.256 154.345 126.809H181.898C183.499 118.014 174.763 114.832 172.158 114.657Z" fill="#CED3F8"/>
<g id="Vector_34" style="mix-blend-mode:multiply">
<path d="M100.97 62.7109H80.7174C79.7147 62.7109 78.7219 62.9084 77.7955 63.2921C76.8691 63.6759 76.0274 64.2383 75.3184 64.9473C74.6094 65.6563 74.0469 66.498 73.6632 67.4244C73.2795 68.3508 73.082 69.3436 73.082 70.3463V108.548C74.8235 108.965 76.2157 109.11 77.0938 108.887C84.4236 107.02 99.0492 69.5556 99.0492 69.5556C100.094 67.4076 100.745 65.0892 100.97 62.7109Z" fill="#E9EDF7"/>
</g>
<path id="Vector_35" d="M217.863 122.118L220.55 131.689C220.616 131.926 220.743 132.142 220.919 132.314C221.094 132.486 221.312 132.609 221.55 132.67C221.788 132.731 222.038 132.728 222.275 132.662C222.512 132.595 222.727 132.467 222.898 132.291L229.85 125.17C230.02 124.994 230.142 124.776 230.202 124.538C230.263 124.3 230.259 124.051 230.193 123.815C230.127 123.579 230 123.364 229.825 123.192C229.649 123.021 229.432 122.898 229.195 122.836L219.556 120.377C219.317 120.315 219.066 120.317 218.828 120.384C218.591 120.45 218.375 120.578 218.203 120.755C218.031 120.932 217.909 121.152 217.849 121.391C217.789 121.63 217.794 121.881 217.863 122.118Z" fill="#FFD03E"/>
<g id="Group 1000005946">
<rect id="Rectangle 34624880" x="49.1943" y="124.766" width="61.6071" height="68.8835" rx="12" fill="#807DFB"/>
<g id="Group 1000005945">
<path id="Vector_36" opacity="0.6" d="M91.9131 188.028C98.7903 189.777 105.783 185.62 107.532 178.742C109.281 171.865 105.123 164.872 98.2462 163.124C91.369 161.375 84.3762 165.532 82.6274 172.409C80.8785 179.287 85.0359 186.279 91.9131 188.028Z" fill="#DDE2F8"/>
<path id="Vector_37" d="M103.293 178.113L97.6747 178.141L97.7021 183.625L92.5831 183.651L92.5557 178.167L86.9043 178.196L86.8799 173.343L92.5313 173.314L92.504 167.83L97.6229 167.804L97.6503 173.288L103.268 173.26L103.293 178.113Z" fill="#5652CC"/>
<path id="Vector_38" d="M97.4983 160.952C96.6876 160.818 95.8552 160.751 95.0062 160.756C92.1616 160.77 89.5087 161.583 87.2598 162.986C83.8873 165.082 81.4224 168.497 80.5761 172.505C80.3597 173.541 80.2525 174.597 80.2565 175.655C80.2675 177.783 80.7256 179.804 81.5435 181.629L57.3605 181.57C54.8422 181.564 52.8046 179.518 52.8115 176.998L52.9141 134.271C52.9206 131.753 54.9662 129.715 57.4864 129.721L93.0132 129.807C95.5301 129.814 97.5692 131.86 97.5623 134.379L97.4983 160.952Z" fill="#5652CC"/>
<path id="Vector_39" d="M80.576 172.506L59.4933 172.454C59.6795 165.9 63.8848 160.368 69.7197 158.213C66.6388 156.318 64.6255 152.859 64.7662 148.947C64.9577 143.554 69.4217 139.09 74.8153 138.893C80.7658 138.677 85.6598 143.445 85.6452 149.355C85.637 153.117 83.6282 156.414 80.6424 158.24C83.2486 159.218 85.5255 160.873 87.2596 162.987C83.8871 165.083 81.4208 168.497 80.576 172.506Z" fill="#DDE2F8"/>
</g>
</g>
<path id="Vector 2978" d="M73 112C67.1353 98.1022 64.1468 90.3944 61.5 77.5" stroke="#FFD970"/>
</g>
</svg>
