<svg width="89" height="89" viewBox="0 0 89 89" fill="none" xmlns="http://www.w3.org/2000/svg">
<path d="M44.5003 83.0669C65.8 83.0669 83.0669 65.8 83.0669 44.5003C83.0669 23.2005 65.8 5.93359 44.5003 5.93359C23.2005 5.93359 5.93359 23.2005 5.93359 44.5003C5.93359 65.8 23.2005 83.0669 44.5003 83.0669Z" fill="#4CAF50"/>
<path fill-rule="evenodd" clip-rule="evenodd" d="M40.9491 59.1107L65.0444 35.0154C65.3225 34.7373 65.4787 34.36 65.4787 33.9667C65.4787 33.5734 65.3225 33.1961 65.0444 32.918L62.947 30.8205C62.8092 30.6824 62.6455 30.5728 62.4653 30.498C62.2851 30.4233 62.0919 30.3848 61.8968 30.3848C61.7017 30.3848 61.5085 30.4233 61.3283 30.498C61.1481 30.5728 60.9844 30.6824 60.8466 30.8205L39.9019 51.7652L27.347 39.2133C27.2092 39.0751 27.0455 38.9655 26.8653 38.8907C26.6851 38.816 26.4919 38.7775 26.2968 38.7775C26.1017 38.7775 25.9085 38.816 25.7283 38.8907C25.5481 38.9655 25.3844 39.0751 25.2466 39.2133L23.1491 41.3107C22.8711 41.5888 22.7148 41.9661 22.7148 42.3594C22.7148 42.7527 22.8711 43.1299 23.1491 43.4081L38.8517 59.1107C39.4391 59.6981 40.3647 59.6981 40.9491 59.1107Z" fill="white"/>
</svg>
