<svg width="166" height="126" viewBox="0 0 166 126" fill="none" xmlns="http://www.w3.org/2000/svg">
<path d="M159.025 3.95106L9.0247 3.02485C6.80595 3.01115 5 4.80598 5 7.02478V19C5 21.2091 6.79086 23 9 23H159C161.209 23 163 21.2091 163 19V7.95099C163 5.75149 161.224 3.96464 159.025 3.95106Z" stroke="#4D4D4D" stroke-width="5"/>
<path d="M65.4865 44.5H7C4.79086 44.5 3 46.2909 3 48.5V61C3 63.2091 4.79086 65 7 65H55.1206C56.3111 65 57.4397 64.4697 58.1997 63.5533L68.5655 51.0533C70.7275 48.4463 68.8733 44.5 65.4865 44.5Z" stroke="#4D4D4D" stroke-width="5"/>
<path d="M73.2451 85.9474L7.02548 85.5256C4.80643 85.5115 3 87.3065 3 89.5256V102C3 104.209 4.79086 106 7 106H63.5775C64.7926 106 65.9419 105.448 66.701 104.499L76.3431 92.4461C78.431 89.8363 76.5872 85.9687 73.2451 85.9474Z" stroke="#4D4D4D" stroke-width="5"/>
<path d="M97.2604 50.6417L88.8126 58.7879C87.2487 60.2959 87.1745 62.7766 88.6454 64.3755L106.563 83.8512C107.949 85.3571 107.974 87.6658 106.622 89.202L89.4328 108.736C88.0579 110.298 88.1107 112.653 89.5543 114.153L97.2605 122.155C98.7791 123.732 101.283 123.795 102.879 122.297L121.79 104.544C123.318 103.11 125.693 103.098 127.236 104.517L146.676 122.402C148.254 123.854 150.697 123.803 152.213 122.287L160.317 114.183C161.821 112.679 161.884 110.261 160.461 108.679L142.911 89.1788C141.541 87.6563 141.542 85.3448 142.914 83.8238L160.907 63.8749C162.353 62.2722 162.266 59.8116 160.711 58.3145L152.685 50.5859C151.173 49.1292 148.791 49.0904 147.232 50.4969L127.233 68.5347C125.688 69.9281 123.333 69.9047 121.816 68.4807L102.775 50.6048C101.22 49.1457 98.795 49.162 97.2604 50.6417Z" stroke="#4D4D4D" stroke-width="5"/>
</svg>
