<svg width="22" height="22" viewBox="0 0 22 22" fill="none" xmlns="http://www.w3.org/2000/svg">
<g id="Vector">
<path d="M9.66325 15.1417C9.56938 15.2355 9.51664 15.3627 9.51664 15.4952C9.51664 15.7714 9.74074 15.9953 10.0172 15.9954C10.15 15.9955 10.2774 15.9428 10.3711 15.8489L14.8709 11.3541C14.8709 11.3542 14.871 11.3541 14.8709 11.3541C15.0663 11.1588 15.0664 10.8422 14.8709 10.6471L10.3711 6.15232C10.1771 5.96516 9.86956 5.96516 9.67553 6.15232C9.47667 6.34418 9.47117 6.66075 9.66325 6.85938L13.3085 10.5005H1.50063C1.22416 10.5005 1 10.7244 1 11.0006C1 11.2767 1.22416 11.5006 1.50063 11.5006H13.3085L9.66325 15.1417ZM15.4382 2.04478C10.4861 -0.410385 4.47923 1.60923 2.02131 6.55563C1.89816 6.80292 1.99906 7.10313 2.24663 7.22613C2.49425 7.34913 2.7948 7.24835 2.91794 7.00107C3.79282 5.2396 5.2212 3.81283 6.98465 2.93894C11.442 0.730026 16.848 2.54869 19.0594 7.00107C21.2708 11.4534 19.45 16.8533 14.9927 19.0622C10.5354 21.2711 5.12928 19.4524 2.91794 15.0001C2.7948 14.7528 2.49425 14.652 2.24669 14.775C1.99906 14.898 1.89816 15.1981 2.0213 15.4455C3.70079 18.8569 7.18088 21.0129 10.9867 20.9999C14.7891 21.0003 18.2635 18.8487 19.954 15.4465C22.412 10.5001 20.3901 4.49994 15.4382 2.04478Z" fill="#EE5253"/>
<path d="M14.8709 11.3541L10.3711 15.8489C10.2774 15.9428 10.15 15.9955 10.0172 15.9954C9.74074 15.9953 9.51664 15.7714 9.51664 15.4952C9.51664 15.3627 9.56938 15.2355 9.66325 15.1417L13.3085 11.5006H1.50063C1.22416 11.5006 1 11.2767 1 11.0006C1 10.7244 1.22416 10.5005 1.50063 10.5005H13.3085L9.66325 6.85938C9.47117 6.66075 9.47667 6.34418 9.67553 6.15232C9.86956 5.96516 10.1771 5.96516 10.3711 6.15232L14.8709 10.6471C15.0664 10.8422 15.0663 11.1588 14.8709 11.3541ZM14.8709 11.3541C14.871 11.3541 14.8709 11.3542 14.8709 11.3541ZM15.4382 2.04478C10.4861 -0.410385 4.47923 1.60923 2.02131 6.55563C1.89816 6.80292 1.99906 7.10313 2.24663 7.22613C2.49425 7.34913 2.7948 7.24835 2.91794 7.00107C3.79282 5.2396 5.2212 3.81283 6.98465 2.93894C11.442 0.730026 16.848 2.54869 19.0594 7.00107C21.2708 11.4534 19.45 16.8533 14.9927 19.0622C10.5354 21.2711 5.12928 19.4524 2.91794 15.0001C2.7948 14.7528 2.49425 14.652 2.24669 14.775C1.99906 14.898 1.89816 15.1981 2.0213 15.4455C3.70079 18.8569 7.18088 21.0129 10.9867 20.9999C14.7891 21.0003 18.2635 18.8487 19.954 15.4465C22.412 10.5001 20.3901 4.49994 15.4382 2.04478Z" stroke="#EE5253" stroke-width="0.2"/>
</g>
</svg>
