<svg width="12" height="10" viewBox="0 0 12 10" fill="none" xmlns="http://www.w3.org/2000/svg">
<path d="M4.24349 5.06667L0.976822 8.33334C0.710155 8.60001 0.710155 9.00001 0.976822 9.26667C1.24349 9.53334 1.64349 9.53334 1.91016 9.26667L5.71016 5.46667C5.97682 5.20001 5.97682 4.80001 5.71016 4.53334L1.91016 0.733341C1.77682 0.600008 1.64349 0.533341 1.44349 0.533341C1.24349 0.533341 1.11016 0.600008 0.976822 0.733341C0.710155 1.00001 0.710155 1.40001 0.976822 1.66667L4.24349 5.06667Z" fill="white"/>
<path d="M4.24349 5.06667L0.976822 8.33334C0.710155 8.60001 0.710155 9.00001 0.976822 9.26667C1.24349 9.53334 1.64349 9.53334 1.91016 9.26667L5.71016 5.46667C5.97682 5.20001 5.97682 4.80001 5.71016 4.53334L1.91016 0.733341C1.77682 0.600008 1.64349 0.533341 1.44349 0.533341C1.24349 0.533341 1.11016 0.600008 0.976822 0.733341C0.710155 1.00001 0.710155 1.40001 0.976822 1.66667L4.24349 5.06667Z" fill="#9A28A3" fill-opacity="0.8"/>
<path d="M9.3763 5.06667L6.10963 8.33334C5.84297 8.60001 5.84297 9.00001 6.10963 9.26667C6.3763 9.53334 6.7763 9.53334 7.04297 9.26667L10.843 5.46667C11.1096 5.20001 11.1096 4.80001 10.843 4.53334L7.04297 0.733341C6.90963 0.600008 6.7763 0.533341 6.5763 0.533341C6.3763 0.533341 6.24297 0.600008 6.10963 0.733341C5.84297 1.00001 5.84297 1.40001 6.10963 1.66667L9.3763 5.06667Z" fill="white"/>
<path d="M9.3763 5.06667L6.10963 8.33334C5.84297 8.60001 5.84297 9.00001 6.10963 9.26667C6.3763 9.53334 6.7763 9.53334 7.04297 9.26667L10.843 5.46667C11.1096 5.20001 11.1096 4.80001 10.843 4.53334L7.04297 0.733341C6.90963 0.600008 6.7763 0.533341 6.5763 0.533341C6.3763 0.533341 6.24297 0.600008 6.10963 0.733341C5.84297 1.00001 5.84297 1.40001 6.10963 1.66667L9.3763 5.06667Z" fill="#9A28A3" fill-opacity="0.8"/>
</svg>
