<svg width="162" height="164" viewBox="0 0 162 164" fill="none" xmlns="http://www.w3.org/2000/svg">
<path opacity="0.42" fill-rule="evenodd" clip-rule="evenodd" d="M56.8454 140.933C63.131 143.04 70.0565 144.197 77.3384 144.197C78.5696 144.197 79.7927 144.164 80.9996 144.098C82.2065 144.164 83.4296 144.197 84.6608 144.197C91.9427 144.197 98.8682 143.04 105.154 140.933C109.868 143.016 115.052 144.164 120.495 144.164C142.122 144.164 159.651 126.009 159.651 103.623C159.651 89.6994 152.863 77.4076 142.527 70.1096C145.103 64.7141 153.163 47.6498 153.163 41.2292C153.163 18.8433 122.763 39.4827 107.389 11.6683C101.225 0.524455 88.1276 16.0389 80.9996 22.2627C71.2634 30.7579 62.0213 21.2623 54.6098 11.6683C35.2022 -13.4647 15.4625 29.8231 15.4625 52.2091C15.4625 58.6297 16.9043 64.7141 19.472 70.1096C9.13643 77.3995 2.34863 89.6912 2.34863 103.623C2.34863 126.009 19.877 144.164 41.504 144.164C46.9472 144.164 52.1312 143.016 56.8454 140.933Z" fill="#C7E9F4"/>
<path fill-rule="evenodd" clip-rule="evenodd" d="M30.5042 22.8867H131.495C134.662 22.8867 137.254 25.8223 137.254 29.4057V111.603C137.254 115.194 134.662 118.13 131.495 118.13H30.5042C27.3371 118.13 24.7451 115.194 24.7451 111.603V29.4139C24.7451 25.8305 27.3371 22.8867 30.5042 22.8867Z" fill="#62CBEC"/>
<path fill-rule="evenodd" clip-rule="evenodd" d="M39.9258 47.2244H122.084C126.231 47.2244 129.625 49.1432 129.625 51.4966V106.871C129.625 109.216 126.239 111.143 122.084 111.143H39.9258C35.7867 111.143 32.3847 109.216 32.3847 106.871V51.4966C32.3847 49.1432 35.7786 47.2244 39.9258 47.2244ZM32.8383 29.25H129.164C130.557 29.25 131.707 30.4062 131.707 31.8248V38.7866C131.707 40.2052 130.565 41.3614 129.164 41.3614H32.8383C31.4451 41.3614 30.2949 40.2052 30.2949 38.7866V31.8248C30.2949 30.4144 31.4451 29.25 32.8383 29.25Z" fill="white"/>
<path fill-rule="evenodd" clip-rule="evenodd" d="M37.552 37.7036C38.8561 37.7036 39.9253 36.6294 39.9253 35.301C39.9253 33.9808 38.8642 32.8984 37.552 32.8984C36.2479 32.8984 35.1787 33.9726 35.1787 35.301C35.1787 36.6294 36.2479 37.7036 37.552 37.7036Z" fill="#EA718B"/>
<path fill-rule="evenodd" clip-rule="evenodd" d="M46.5344 37.7036C47.8385 37.7036 48.9077 36.6294 48.9077 35.301C48.9077 33.9808 47.8466 32.8984 46.5344 32.8984C45.2303 32.8984 44.1611 33.9726 44.1611 35.301C44.1611 36.6294 45.2222 37.7036 46.5344 37.7036Z" fill="#FEB542"/>
<path fill-rule="evenodd" clip-rule="evenodd" d="M55.509 37.7036C56.8131 37.7036 57.8823 36.6294 57.8823 35.301C57.8823 33.9808 56.8131 32.8984 55.509 32.8984C54.2049 32.8984 53.1357 33.9726 53.1357 35.301C53.1357 36.6294 54.2049 37.7036 55.509 37.7036Z" fill="#BE96F8"/>
<path fill-rule="evenodd" clip-rule="evenodd" d="M82.1576 55.8168C83.0486 54.6524 84.8549 54.8984 85.4057 56.2678L89.9984 67.633L94.5911 79.0064C95.1419 80.3758 94.0241 81.8272 92.5823 81.6304L80.5538 79.974L68.5334 78.3176C67.0916 78.1208 66.395 76.4152 67.2941 75.2426L74.7218 65.5256L82.1576 55.8168Z" fill="#EA718B"/>
<path fill-rule="evenodd" clip-rule="evenodd" d="M81.843 58.237C82.734 57.089 84.5241 57.335 85.083 58.6798L88.9791 68.1262L92.8428 77.4906C93.4098 78.86 92.292 80.3278 90.8421 80.131L80.7414 78.737L70.6407 77.343C69.1908 77.1462 68.5023 75.4242 69.4095 74.2598L75.606 66.2812L81.843 58.237Z" fill="#EA718B"/>
<path d="M91.053 80.4088C90.972 80.4088 90.8829 80.4006 90.8019 80.3924L80.7012 78.9984L70.6005 77.6044C69.8229 77.4978 69.183 76.9976 68.8914 76.2596C68.5998 75.5216 68.7132 74.7098 69.1992 74.0866L81.6408 58.0638C82.1187 57.4488 82.8639 57.1454 83.6334 57.2438C84.4029 57.3504 85.0347 57.8424 85.3344 58.5722L89.2305 68.0186L93.0942 77.383C93.3939 78.1128 93.2886 78.9328 92.8107 79.556C92.3814 80.1218 91.7334 80.4252 91.053 80.4088ZM83.358 57.7686C82.8477 57.7604 82.3698 57.9818 82.0458 58.4L69.6123 74.4228C69.2478 74.8902 69.1587 75.5052 69.3855 76.0546C69.6042 76.6122 70.0902 76.9894 70.6734 77.0714L80.7741 78.4654L90.8748 79.8594C91.458 79.9414 92.025 79.7036 92.3814 79.228C92.7378 78.7524 92.8188 78.1456 92.592 77.588L88.7283 68.2236L84.8322 58.7772C84.6054 58.236 84.1275 57.8588 83.5524 57.7768C83.4876 57.7768 83.4228 57.7686 83.358 57.7686Z" fill="#EF9CB1"/>
<path fill-rule="evenodd" clip-rule="evenodd" d="M81.2673 75.3009H81.243C80.8137 75.2435 80.4249 75.5469 80.3682 75.9815C80.3115 76.4079 80.6112 76.8097 81.0324 76.8589L81.0648 76.8671C81.4941 76.9245 81.8829 76.6211 81.9396 76.1865C81.9963 75.7601 81.6966 75.3583 81.2673 75.3009ZM84.3372 62.4433L82.134 73.3247L82.0611 73.9069C82.0125 74.2431 81.7047 74.4891 81.3726 74.4481C81.0405 74.3989 80.7975 74.0873 80.838 73.7511L80.9109 73.1689L81.5589 62.0825H81.567C81.567 62.0415 81.567 62.0087 81.5751 61.9677C81.6642 61.3117 82.2636 60.8443 82.9035 60.9263L83.3328 60.9837C83.9808 61.0739 84.4425 61.6807 84.3534 62.3285C84.3453 62.3695 84.3453 62.4023 84.3372 62.4433Z" fill="white"/>
<path d="M66.5005 81.3441C66.1846 81.3359 65.8687 81.3031 65.569 81.2293C64.3378 80.9505 63.2686 80.2207 62.5639 79.1547C61.8592 78.0887 61.5919 76.8095 61.8025 75.5549C61.8187 75.4647 61.8997 75.4073 61.9888 75.4237C62.0779 75.4401 62.1346 75.5221 62.1184 75.6123C61.7053 78.0559 63.2524 80.3847 65.6419 80.9177C66.0793 81.0161 66.5329 81.0489 66.9946 81.0079C67.0837 80.9997 67.1647 81.0653 67.1647 81.1555C67.1728 81.2457 67.108 81.3277 67.0189 81.3277C66.8407 81.3441 66.6706 81.3523 66.5005 81.3441Z" fill="#DFCFFD"/>
<path d="M66.7112 79.6959C66.5087 79.6877 66.3143 79.6631 66.128 79.6221C64.5809 79.2777 63.5846 77.7771 63.8519 76.1945C63.8681 76.1043 63.9491 76.0469 64.0382 76.0633C64.1273 76.0797 64.184 76.1617 64.1678 76.2519C63.9329 77.6541 64.8239 78.9989 66.2009 79.3023C66.4358 79.3597 66.695 79.3761 66.9785 79.3597C67.0676 79.3515 67.1405 79.4253 67.1486 79.5155C67.1567 79.6057 67.0838 79.6795 66.9947 79.6877C66.8975 79.6959 66.8003 79.6959 66.7112 79.6959ZM94.8506 85.2473C94.7939 85.2473 94.7453 85.2473 94.6886 85.2391C94.1945 85.2145 93.7166 85.1161 93.2711 84.9439C93.1901 84.9111 93.1415 84.8209 93.1739 84.7307C93.2063 84.6487 93.2954 84.5995 93.3845 84.6323C93.7976 84.7881 94.2431 84.8783 94.7048 84.9029C97.151 85.0341 99.257 83.2137 99.5 80.7455C99.5081 80.6553 99.5891 80.5897 99.6782 80.5979C99.7673 80.6061 99.8321 80.6881 99.824 80.7783C99.5567 83.3777 97.394 85.3047 94.8506 85.2473Z" fill="#DFCFFD"/>
<path d="M94.664 83.5491C94.6316 83.5491 94.5992 83.5491 94.5668 83.5491C94.2671 83.5327 93.9755 83.4753 93.7082 83.3687C93.6272 83.3359 93.5786 83.2457 93.611 83.1555C93.6434 83.0735 93.7325 83.0243 93.8216 83.0571C94.0646 83.1473 94.3157 83.1965 94.583 83.2129C95.9924 83.2867 97.1993 82.2371 97.3451 80.8185C97.3532 80.7283 97.4342 80.6627 97.5233 80.6709C97.6124 80.6791 97.6772 80.7611 97.6691 80.8513C97.5152 82.4175 96.203 83.5819 94.664 83.5491ZM87.7871 52.9631C87.7304 52.9631 87.6737 52.9303 87.6494 52.8729C87.4388 52.4711 87.1715 52.1021 86.8556 51.7741C85.1303 50.0193 82.3601 49.9373 80.5457 51.6019C80.4809 51.6593 80.3756 51.6593 80.3189 51.5937C80.2622 51.5281 80.2622 51.4215 80.327 51.3641C82.271 49.5847 85.2356 49.6667 87.0824 51.5527C87.4226 51.9053 87.7142 52.2989 87.9329 52.7335C87.9734 52.8155 87.941 52.9139 87.8681 52.9549C87.8438 52.9549 87.8195 52.9631 87.7871 52.9631Z" fill="#DFCFFD"/>
<path d="M86.4109 53.8328C86.3542 53.8328 86.2975 53.8 86.2732 53.7426C86.1517 53.5048 85.9978 53.2916 85.8115 53.1112C84.8152 52.1026 83.2195 52.0534 82.1746 53.0128C82.1098 53.0702 82.0045 53.0702 81.9478 53.0046C81.8911 52.939 81.8911 52.8324 81.9559 52.775C83.1304 51.7008 84.9205 51.75 86.0383 52.8898C86.2408 53.0948 86.419 53.3326 86.5567 53.6032C86.5972 53.6852 86.5648 53.7836 86.4919 53.8246C86.4676 53.8246 86.4433 53.8328 86.4109 53.8328Z" fill="#DFCFFD"/>
<path fill-rule="evenodd" clip-rule="evenodd" d="M120.429 103.869H46.3949C45.8603 103.869 45.4229 103.426 45.4229 102.885V91.4049C45.4229 90.8637 45.8603 90.4209 46.3949 90.4209H120.421C120.955 90.4209 121.393 90.8637 121.393 91.4049V102.885C121.401 103.426 120.963 103.869 120.429 103.869Z" fill="#DFCFFD"/>
<path d="M63.6144 93.2507L61.0953 101.033H59.1837L57.4908 95.7599L55.7412 101.033H53.8377L51.3105 93.2507H53.1735L54.9069 98.7201L56.7213 93.2507H58.3656L60.1233 98.7693L61.9134 93.2507H63.6144ZM69.414 99.3679H65.8419L65.1615 101.033H63.339L66.7653 93.2507H68.523L71.9574 101.033H70.0863L69.414 99.3679ZM68.8551 97.9985L67.632 95.0219L66.4089 97.9985H68.8551ZM77.6598 101.041L76.1775 98.8759H76.0884H74.5413V101.041H72.7593V93.2589H76.0884C76.7688 93.2589 77.3601 93.3737 77.8623 93.6033C78.3645 93.8329 78.7533 94.1609 79.0206 94.5791C79.2879 95.0055 79.4256 95.5057 79.4256 96.0797C79.4256 96.6619 79.2879 97.1539 79.0125 97.5721C78.7371 97.9903 78.3483 98.3101 77.8461 98.5315L79.5714 101.033H77.6598V101.041ZM77.2143 95.0711C76.9389 94.8415 76.5258 94.7185 75.9912 94.7185H74.5413V97.4327H75.9912C76.5258 97.4327 76.9308 97.3179 77.2143 97.0801C77.4897 96.8423 77.6355 96.5061 77.6355 96.0797C77.6274 95.6369 77.4897 95.3089 77.2143 95.0711ZM87.8901 93.2507V101.033H86.4321L82.6008 96.3093V101.033H80.8431V93.2507H82.3173L86.1405 97.9739V93.2507H87.8901ZM89.7126 93.2507H91.4946V101.033H89.7126V93.2507ZM100.364 93.2507V101.033H98.9061L95.0749 96.3093V101.033H93.3171V93.2507H94.7914L98.6145 97.9739V93.2507H100.364ZM107.387 97.0227H109.015V100.18C108.594 100.5 108.116 100.746 107.565 100.91C107.014 101.082 106.463 101.164 105.905 101.164C105.103 101.164 104.39 100.992 103.75 100.647C103.11 100.303 102.616 99.8271 102.251 99.2121C101.887 98.5971 101.709 97.9083 101.709 97.1375C101.709 96.3667 101.887 95.6779 102.251 95.0629C102.616 94.4479 103.118 93.9723 103.758 93.6279C104.406 93.2835 105.127 93.1113 105.929 93.1113C106.601 93.1113 107.217 93.2261 107.759 93.4557C108.31 93.6853 108.772 94.0215 109.145 94.4561L108.002 95.5221C107.452 94.9399 106.787 94.6447 106.018 94.6447C105.524 94.6447 105.095 94.7513 104.714 94.9563C104.333 95.1613 104.033 95.4565 103.823 95.8337C103.612 96.2109 103.507 96.6455 103.507 97.1375C103.507 97.6213 103.612 98.0477 103.823 98.4249C104.033 98.8021 104.333 99.0973 104.706 99.3105C105.086 99.5237 105.516 99.6303 105.994 99.6303C106.504 99.6303 106.966 99.5155 107.379 99.2941V97.0227H107.387ZM113.689 100.828C113.486 100.631 113.389 100.393 113.389 100.114C113.389 99.8353 113.486 99.5975 113.689 99.4089C113.883 99.2203 114.142 99.1219 114.45 99.1219C114.758 99.1219 115.009 99.2203 115.211 99.4089C115.414 99.5975 115.511 99.8353 115.511 100.114C115.511 100.393 115.414 100.639 115.211 100.828C115.009 101.024 114.758 101.123 114.458 101.123C114.142 101.123 113.891 101.024 113.689 100.828ZM113.421 93.2507H115.463L115.122 98.3347H113.762L113.421 93.2507Z" fill="#E5557B"/>
<path d="M134.056 141.859C145.884 141.859 155.472 140.39 155.472 138.579C155.472 136.767 145.884 135.299 134.056 135.299C122.228 135.299 112.64 136.767 112.64 138.579C112.64 140.39 122.228 141.859 134.056 141.859Z" fill="#DFE6FF"/>
<path d="M50.0738 142.679C74.1368 142.679 93.6437 140.843 93.6437 138.579C93.6437 136.314 74.1368 134.479 50.0738 134.479C26.0108 134.479 6.50391 136.314 6.50391 138.579C6.50391 140.843 26.0108 142.679 50.0738 142.679Z" fill="#DFE6FF"/>
<path fill-rule="evenodd" clip-rule="evenodd" d="M128.102 70.5658L130.118 72.2632L131.358 70.9676C132.135 71.0332 133.277 71.476 133.707 71.1808C134.42 70.5576 132.548 70.615 132.419 69.9262C132.994 68.8602 134.428 68.729 135.149 67.909C136.526 65.8836 133.99 65.695 132.411 66.392C131.479 66.7036 130.604 67.8352 129.843 69.0406L128.102 70.5658Z" fill="#FFCDAD"/>
<path fill-rule="evenodd" clip-rule="evenodd" d="M133.455 80.095L131.528 79.0044L123.849 80.3902L131.544 72.0426L128.83 69.5908L120.487 77.9138C117.085 80.792 117.377 83.4488 120.487 85.015L134.824 87.9588L133.455 80.095Z" fill="#E55E81"/>
<path fill-rule="evenodd" clip-rule="evenodd" d="M146.011 70.213L143.913 71.812L142.739 70.459C141.953 70.4918 140.795 70.8772 140.382 70.5656C139.701 69.9014 141.564 70.0572 141.718 69.3766C141.192 68.2778 139.766 68.0892 139.086 67.2282C137.806 65.1372 140.349 65.0716 141.897 65.8506C142.812 66.2032 143.63 67.3758 144.335 68.614L146.011 70.213Z" fill="#FFCDAD"/>
<path fill-rule="evenodd" clip-rule="evenodd" d="M140.874 79.2008L142.802 78.102L150.481 79.496L142.802 71.747L145.321 69L153.851 77.0114C157.245 79.8978 156.961 82.5464 153.851 84.1208L139.514 87.0646L140.874 79.2008Z" fill="#E55E81"/>
<path d="M142.892 133.862L143.629 134.707C146.731 137.561 152.507 137.118 149.186 138.922C144.617 138.799 144.301 138.791 139.725 138.676C139.538 137.757 139.19 135.552 140.332 134.584L142.892 133.862Z" fill="#153663"/>
<path fill-rule="evenodd" clip-rule="evenodd" d="M140.065 132.296L143.743 132.345L143.638 134.698C142.536 134.657 141.451 135.732 140.341 134.575L140.065 132.296Z" fill="#FFCDAD"/>
<path d="M129.674 133.952L128.929 134.78C125.778 137.593 120.011 137.06 123.307 138.913C127.884 138.864 128.2 138.864 132.768 138.807C132.971 137.888 133.343 135.691 132.225 134.707L129.674 133.952Z" fill="#153663"/>
<path fill-rule="evenodd" clip-rule="evenodd" d="M132.516 132.436H128.847L128.92 134.789C130.013 134.764 131.09 135.855 132.216 134.715L132.516 132.436Z" fill="#FFCDAD"/>
<path fill-rule="evenodd" clip-rule="evenodd" d="M138.557 95.4785L131.47 97.3973L128.222 115.511C128.286 121.341 128.367 127.163 128.44 132.994C129.647 133.797 131.664 133.609 133.017 133.117L134.224 115.815L136.467 108.984L138.266 116.118L139.724 133.1C141.344 133.953 143.288 133.346 144.187 132.838L144.567 114.757L142.648 97.6925L138.557 95.4785Z" fill="#153663"/>
<path fill-rule="evenodd" clip-rule="evenodd" d="M139.652 77.4217C138.486 77.3971 137.311 77.3807 136.129 77.3643C133.788 78.1843 133.593 78.2909 130.937 79.1027L131.479 97.9299C134.63 100.496 140.397 100.218 142.592 97.9299L145.128 79.4061C143.961 77.9957 141.669 77.7251 139.652 77.4217Z" fill="#E55E81"/>
<path fill-rule="evenodd" clip-rule="evenodd" d="M135.805 73.625L136.315 74.4286L136.08 77.5364C136.323 79.2748 138.972 79.1764 139.644 78.2252L139.676 74.0678L135.805 73.625Z" fill="#FCC19F"/>
<path fill-rule="evenodd" clip-rule="evenodd" d="M141.263 69.2376L133.487 67.5566C134.168 70.197 130.134 76.839 135.699 76.4946C139.805 76.2814 140.478 72.3126 141.263 69.2376Z" fill="#FFCDAD"/>
<path fill-rule="evenodd" clip-rule="evenodd" d="M132.572 66.4416C132.231 67.0238 132.312 67.4502 132.58 68.2128C132.434 70.4186 137.181 69.0738 138.72 70.1972C139.894 71.1484 137.545 75.5272 139.667 75.7486C140.817 74.6744 142.259 71.6158 142.616 69.2132C143.215 67.4502 139.724 67.4174 137.658 65.1706C135.836 63.5224 133.811 64.4572 132.572 66.4416Z" fill="#060352"/>
<path d="M133.999 73.9855C133.464 73.7969 133.367 74.8301 133.691 75.2155C133.853 75.4123 134.703 75.8141 135.011 75.5271C135.449 75.1171 136.809 76.0191 137.044 75.4123C137.141 75.1827 137.522 74.9695 137.263 74.3135C137.101 73.9035 136.153 73.6657 135.675 73.8297C135.432 73.9035 134.088 74.0183 133.999 73.9855Z" fill="white"/>
<path fill-rule="evenodd" clip-rule="evenodd" d="M13.4863 84.1217L14.5474 82.2767L13.0489 81.4567C12.9274 80.6613 13.4701 79.7019 12.6601 79.0787C11.8096 78.9639 12.6196 80.4071 12.2713 81.0549C10.9753 80.6367 10.8214 78.9311 9.67124 79.1197C8.23754 79.2837 7.38704 80.6121 8.61824 81.6289C9.58214 82.3095 10.4164 82.3915 11.3074 82.5883L13.4863 84.1217ZM56.0437 87.9429L55.3309 85.9339L56.959 85.4009C57.2182 84.6383 56.8618 83.5887 57.769 83.1213C58.6276 83.1869 57.5665 84.4497 57.7933 85.1467C59.146 84.9827 59.6077 83.3263 60.6931 83.7199C62.0782 84.1463 62.6695 85.6141 61.2844 86.3931C60.2071 86.8769 59.3728 86.8113 58.4737 86.8359L56.0437 87.9429Z" fill="#F9A07D"/>
<path fill-rule="evenodd" clip-rule="evenodd" d="M42.6628 136.422L44.0722 136.938C45.8056 138.013 50.0743 137.635 49.3129 140.161L41.0752 139.956C41.0995 138.931 41.0347 137.832 41.6017 136.856L42.6628 136.422Z" fill="#153663"/>
<path fill-rule="evenodd" clip-rule="evenodd" d="M41.5684 135.463L44.0794 135.553L44.0632 136.947C43.2289 137.201 42.3541 137.136 41.5846 136.873L41.5684 135.463Z" fill="#FF9866"/>
<path fill-rule="evenodd" clip-rule="evenodd" d="M28.6831 135.791L30.0358 136.447C31.672 137.685 35.9488 137.726 34.9444 140.17L26.7715 139.169C26.8849 138.144 26.9335 137.046 27.5815 136.135L28.6831 135.791Z" fill="#153663"/>
<path fill-rule="evenodd" clip-rule="evenodd" d="M27.702 134.732L30.2049 135.06L30.0429 136.454C29.1924 136.618 28.3338 136.479 27.5967 136.135L27.702 134.732Z" fill="#FF9866"/>
<path fill-rule="evenodd" clip-rule="evenodd" d="M35.1127 95.8232L29.9611 100.604L30.1312 118.152L27.0127 134.79L30.8845 135.208L35.9308 118.644L36.5869 110.132L39.268 119.431L41.212 136.2L44.4682 136.118L44.6221 119.726L41.1472 100.3L39.1222 97.783L35.8093 99.2016L35.1127 95.8232Z" fill="#153663"/>
<path fill-rule="evenodd" clip-rule="evenodd" d="M30.0101 79.8829C26.2841 82.1871 25.4012 83.2367 22.2098 86.1067C20.5493 85.3769 19.634 85.2621 19.3829 85.0079L13.7453 81.6459L12.3359 83.7943L21.983 91.4531L28.9976 88.3781L29.9615 100.613C33.89 103.688 37.3325 100.096 41.1476 100.309L41.6984 87.2875L44.2985 91.6745C44.9465 92.6585 45.9752 92.0517 47.012 91.6745L56.975 87.7877L56.489 85.3687C53.2733 86.0903 50.1143 87.3203 46.8986 88.0501C45.7889 85.3031 45.3839 81.3589 42.8972 80.2683C40.5077 79.2843 32.8613 78.3249 30.0101 79.8829Z" fill="#0EBAA0"/>
<path fill-rule="evenodd" clip-rule="evenodd" d="M38.2557 77.029L34.4973 76.168L33.582 79.571C34.9428 81.0224 36.66 80.719 37.7535 80.2926L38.2557 77.029Z" fill="#F9A07D"/>
<path fill-rule="evenodd" clip-rule="evenodd" d="M33.3882 68.2549C35.9154 68.3205 38.4345 68.3779 40.9617 68.4599C41.5854 70.0507 40.7511 76.3401 39.2526 77.7341C37.3815 79.4643 34.4655 77.7833 33.8499 75.8645C33.1857 74.0687 32.7078 69.7309 33.3882 68.2549Z" fill="#FFCDAD"/>
<path fill-rule="evenodd" clip-rule="evenodd" d="M38.4582 69.4522C39.3816 68.9848 40.2564 70.264 41.1474 69.7392C42.6135 67.968 43.059 66.123 40.2726 64.7782C40.2888 65.221 40.0134 65.426 39.819 65.4998C39.4221 65.221 39.0819 64.729 38.3205 64.77C38.7741 65.2866 38.7984 65.6064 38.4987 66C37.4619 66.2788 36.0363 65.18 34.5378 65.5982C33.1608 66.164 32.61 66.9102 32.1402 67.9352C31.0872 70.6412 32.5776 72.601 33.2256 73.6424C33.501 73.9048 33.6225 73.995 34.5783 73.1258C33.8007 72.3058 33.4443 71.2562 34.3191 70.7068C35.5584 69.8704 35.0319 71.7154 35.9229 72.0106C36.0201 71.2152 37.7697 69.7064 38.4582 69.4522Z" fill="#011B3F"/>
</svg>
